<svg xmlns="http://www.w3.org/2000/svg" xmlns:xlink="http://www.w3.org/1999/xlink" width="500" zoomAndPan="magnify" viewBox="0 0 375 374.999991" height="500" preserveAspectRatio="xMidYMid meet" version="1.0"><defs><g/><clipPath id="685b25cd9d"><path d="M 77.097656 171.945312 L 93.597656 171.945312 L 93.597656 195.945312 L 77.097656 195.945312 Z M 77.097656 171.945312 " clip-rule="nonzero"/></clipPath><clipPath id="a2359c5ac9"><path d="M 47.398438 149 L 67 149 L 67 220 L 47.398438 220 Z M 47.398438 149 " clip-rule="nonzero"/></clipPath><clipPath id="df57f59292"><path d="M 77 170 L 77.398438 170 L 77.398438 199 L 77 199 Z M 77 170 " clip-rule="nonzero"/></clipPath></defs><g clip-path="url(#685b25cd9d)"><path fill="#ffffff" d="M 89.253906 196.226562 C 82.550781 196.226562 77.113281 190.789062 77.113281 184.082031 C 77.113281 177.378906 82.550781 171.941406 89.253906 171.941406 L 93.800781 171.941406 L 93.800781 176.507812 L 89.253906 176.523438 C 85.082031 176.523438 81.695312 179.90625 81.695312 184.082031 C 81.695312 188.257812 85.082031 191.640625 89.253906 191.640625 L 93.800781 191.640625 L 93.800781 196.203125 L 89.253906 196.226562 " fill-opacity="1" fill-rule="nonzero"/></g><g clip-path="url(#a2359c5ac9)"><path fill="#ffffff" d="M 65.464844 215.558594 C 57.230469 207.328125 52.695312 196.402344 52.695312 184.792969 C 52.695312 173.183594 57.230469 162.261719 65.464844 154.027344 C 65.964844 153.527344 66.222656 152.863281 66.222656 152.203125 C 66.222656 151.542969 65.96875 150.882812 65.464844 150.375 C 64.453125 149.367188 62.820312 149.367188 61.808594 150.375 C 52.601562 159.582031 47.53125 171.808594 47.53125 184.796875 C 47.53125 197.785156 52.601562 210.007812 61.808594 219.21875 C 62.820312 220.226562 64.453125 220.226562 65.464844 219.21875 C 66.472656 218.207031 66.472656 216.574219 65.464844 215.5625 Z M 65.464844 215.558594 " fill-opacity="1" fill-rule="nonzero"/></g><path fill="#ffffff" d="M 76.726562 162.707031 C 76.726562 162.046875 76.476562 161.382812 75.96875 160.882812 C 74.960938 159.871094 73.324219 159.871094 72.316406 160.882812 C 65.917969 167.277344 62.394531 175.769531 62.394531 184.796875 C 62.394531 193.824219 65.914062 202.316406 72.316406 208.710938 C 73.324219 209.722656 74.960938 209.722656 75.96875 208.710938 C 76.976562 207.703125 76.976562 206.066406 75.96875 205.058594 C 70.546875 199.636719 67.5625 192.441406 67.5625 184.796875 C 67.5625 177.152344 70.546875 169.957031 75.96875 164.535156 C 76.472656 164.03125 76.726562 163.367188 76.726562 162.707031 Z M 76.726562 162.707031 " fill-opacity="1" fill-rule="nonzero"/><g clip-path="url(#df57f59292)"><path fill="#ffffff" d="M 82.8125 198.210938 C 83.820312 199.21875 85.457031 199.21875 86.464844 198.210938 C 87.476562 197.203125 87.476562 195.566406 86.464844 194.558594 C 83.859375 191.949219 82.425781 188.484375 82.425781 184.796875 C 82.425781 181.109375 83.859375 177.640625 86.464844 175.035156 C 86.96875 174.535156 87.222656 173.871094 87.222656 173.210938 C 87.222656 172.550781 86.972656 171.886719 86.464844 171.382812 C 85.457031 170.375 83.820312 170.375 82.8125 171.382812 C 79.230469 174.964844 77.253906 179.730469 77.253906 184.796875 C 77.253906 189.863281 79.226562 194.628906 82.8125 198.210938 Z M 82.8125 198.210938 " fill-opacity="1" fill-rule="nonzero"/></g><g fill="#ffffff" fill-opacity="1"><g transform="translate(94.835439, 193.734219)"><g><path d="M 5.671875 -25.828125 C 4.660156 -25.828125 3.867188 -26.117188 3.296875 -26.703125 C 2.722656 -27.296875 2.4375 -28.015625 2.4375 -28.859375 C 2.4375 -29.671875 2.722656 -30.375 3.296875 -30.96875 C 3.867188 -31.5625 4.671875 -31.859375 5.703125 -31.859375 C 6.753906 -31.859375 7.566406 -31.5625 8.140625 -30.96875 C 8.710938 -30.375 9 -29.671875 9 -28.859375 C 9 -28.015625 8.710938 -27.296875 8.140625 -26.703125 C 7.566406 -26.117188 6.742188 -25.828125 5.671875 -25.828125 Z M 8.34375 0 L 3.09375 0 L 3.09375 -22.359375 L 8.34375 -22.359375 Z M 8.34375 0 "/></g></g></g><g fill="#ffffff" fill-opacity="1"><g transform="translate(105.046686, 193.734219)"><g><path d="M 30.484375 -23.03125 C 33.296875 -23.03125 35.394531 -22.078125 36.78125 -20.171875 C 38.175781 -18.265625 38.875 -15.554688 38.875 -12.046875 L 38.875 0 L 33.6875 0 L 33.6875 -11.9375 C 33.6875 -14.144531 33.257812 -15.734375 32.40625 -16.703125 C 31.5625 -17.679688 30.414062 -18.171875 28.96875 -18.171875 C 28.039062 -18.171875 27.160156 -17.890625 26.328125 -17.328125 C 25.503906 -16.765625 24.835938 -15.972656 24.328125 -14.953125 C 23.816406 -13.941406 23.5625 -12.765625 23.5625 -11.421875 L 23.5625 0 L 18.375 0 L 18.375 -11.9375 C 18.375 -14.144531 17.945312 -15.734375 17.09375 -16.703125 C 16.25 -17.679688 15.109375 -18.171875 13.671875 -18.171875 C 12.734375 -18.171875 11.851562 -17.890625 11.03125 -17.328125 C 10.21875 -16.765625 9.554688 -15.972656 9.046875 -14.953125 C 8.535156 -13.941406 8.28125 -12.765625 8.28125 -11.421875 L 8.28125 0 L 3.09375 0 L 3.09375 -22.359375 L 8 -22.359375 L 8.0625 -18.875 C 8.457031 -19.664062 9 -20.375 9.6875 -21 C 10.382812 -21.625 11.203125 -22.117188 12.140625 -22.484375 C 13.078125 -22.847656 14.097656 -23.03125 15.203125 -23.03125 C 17.066406 -23.03125 18.617188 -22.597656 19.859375 -21.734375 C 21.097656 -20.867188 22.03125 -19.617188 22.65625 -17.984375 C 23.613281 -19.703125 24.757812 -20.972656 26.09375 -21.796875 C 27.425781 -22.617188 28.890625 -23.03125 30.484375 -23.03125 Z M 30.484375 -23.03125 "/></g></g></g><g fill="#ffffff" fill-opacity="1"><g transform="translate(145.62931, 193.734219)"><g><path d="M 8.34375 7.625 L 3.09375 7.625 L 3.09375 -22.359375 L 8.09375 -22.359375 L 8.09375 -18.59375 C 8.90625 -19.9375 9.984375 -21.003906 11.328125 -21.796875 C 12.671875 -22.597656 14.148438 -23 15.765625 -23 C 17.359375 -23 18.816406 -22.691406 20.140625 -22.078125 C 21.472656 -21.460938 22.625 -20.613281 23.59375 -19.53125 C 24.5625 -18.457031 25.3125 -17.207031 25.84375 -15.78125 C 26.382812 -14.351562 26.65625 -12.816406 26.65625 -11.171875 C 26.65625 -9.535156 26.382812 -8 25.84375 -6.5625 C 25.3125 -5.125 24.554688 -3.863281 23.578125 -2.78125 C 22.597656 -1.695312 21.453125 -0.847656 20.140625 -0.234375 C 18.828125 0.367188 17.390625 0.671875 15.828125 0.671875 C 14.742188 0.671875 13.710938 0.492188 12.734375 0.140625 C 11.765625 -0.210938 10.894531 -0.710938 10.125 -1.359375 C 9.363281 -2.003906 8.734375 -2.753906 8.234375 -3.609375 L 8.34375 -1.015625 Z M 14.875 -4.171875 C 16.0625 -4.171875 17.148438 -4.453125 18.140625 -5.015625 C 19.140625 -5.585938 19.9375 -6.398438 20.53125 -7.453125 C 21.132812 -8.503906 21.4375 -9.742188 21.4375 -11.171875 C 21.4375 -12.578125 21.140625 -13.800781 20.546875 -14.84375 C 19.953125 -15.894531 19.15625 -16.707031 18.15625 -17.28125 C 17.164062 -17.863281 16.0625 -18.15625 14.84375 -18.15625 C 13.9375 -18.15625 13.085938 -17.976562 12.296875 -17.625 C 11.503906 -17.269531 10.804688 -16.769531 10.203125 -16.125 C 9.609375 -15.488281 9.140625 -14.75 8.796875 -13.90625 C 8.453125 -13.070312 8.28125 -12.160156 8.28125 -11.171875 C 8.28125 -10.160156 8.453125 -9.226562 8.796875 -8.375 C 9.148438 -7.519531 9.628906 -6.773438 10.234375 -6.140625 C 10.847656 -5.515625 11.550781 -5.03125 12.34375 -4.6875 C 13.144531 -4.34375 13.988281 -4.171875 14.875 -4.171875 Z M 14.875 -4.171875 "/></g></g></g><g fill="#ffffff" fill-opacity="1"><g transform="translate(172.580691, 193.734219)"><g><path d="M 8.34375 0 L 3.09375 0 L 3.09375 -30.640625 L 8.34375 -30.640625 Z M 8.34375 0 "/></g></g></g><g fill="#ffffff" fill-opacity="1"><g transform="translate(182.791938, 193.734219)"><g><path d="M 24.359375 -11.5625 C 24.359375 -11.289062 24.347656 -11.03125 24.328125 -10.78125 C 24.316406 -10.539062 24.289062 -10.207031 24.25 -9.78125 L 6.78125 -9.78125 C 6.96875 -8.5625 7.351562 -7.523438 7.9375 -6.671875 C 8.53125 -5.816406 9.257812 -5.160156 10.125 -4.703125 C 11 -4.242188 11.953125 -4.015625 12.984375 -4.015625 C 14.316406 -4.015625 15.394531 -4.28125 16.21875 -4.8125 C 17.039062 -5.34375 17.644531 -6.078125 18.03125 -7.015625 L 23.765625 -7.015625 C 23.492188 -6.015625 23.039062 -5.050781 22.40625 -4.125 C 21.78125 -3.195312 21.007812 -2.375 20.09375 -1.65625 C 19.175781 -0.945312 18.125 -0.382812 16.9375 0.03125 C 15.757812 0.457031 14.476562 0.671875 13.09375 0.671875 C 11.40625 0.671875 9.851562 0.363281 8.4375 -0.25 C 7.03125 -0.863281 5.804688 -1.710938 4.765625 -2.796875 C 3.734375 -3.890625 2.929688 -5.148438 2.359375 -6.578125 C 1.785156 -8.015625 1.5 -9.546875 1.5 -11.171875 C 1.5 -12.816406 1.785156 -14.351562 2.359375 -15.78125 C 2.929688 -17.207031 3.734375 -18.460938 4.765625 -19.546875 C 5.804688 -20.628906 7.03125 -21.476562 8.4375 -22.09375 C 9.851562 -22.71875 11.40625 -23.03125 13.09375 -23.03125 C 14.769531 -23.03125 16.300781 -22.722656 17.6875 -22.109375 C 19.070312 -21.503906 20.257812 -20.664062 21.25 -19.59375 C 22.25 -18.53125 23.015625 -17.3125 23.546875 -15.9375 C 24.085938 -14.5625 24.359375 -13.101562 24.359375 -11.5625 Z M 7 -13.84375 L 18.984375 -13.84375 C 18.910156 -14.6875 18.597656 -15.453125 18.046875 -16.140625 C 17.492188 -16.828125 16.78125 -17.378906 15.90625 -17.796875 C 15.039062 -18.222656 14.09375 -18.4375 13.0625 -18.4375 C 12.175781 -18.4375 11.328125 -18.269531 10.515625 -17.9375 C 9.710938 -17.613281 9 -17.113281 8.375 -16.4375 C 7.757812 -15.769531 7.300781 -14.90625 7 -13.84375 Z M 7 -13.84375 "/></g></g></g><g fill="#ffffff" fill-opacity="1"><g transform="translate(207.134468, 193.734219)"><g/></g></g><g fill="#ffffff" fill-opacity="1"><g transform="translate(216.780464, 193.734219)"><g><path d="M 13.046875 0.671875 C 11.378906 0.671875 9.84375 0.363281 8.4375 -0.25 C 7.03125 -0.863281 5.804688 -1.710938 4.765625 -2.796875 C 3.734375 -3.890625 2.929688 -5.148438 2.359375 -6.578125 C 1.785156 -8.015625 1.5 -9.546875 1.5 -11.171875 C 1.5 -12.796875 1.785156 -14.320312 2.359375 -15.75 C 2.929688 -17.175781 3.734375 -18.4375 4.765625 -19.53125 C 5.804688 -20.625 7.03125 -21.476562 8.4375 -22.09375 C 9.84375 -22.71875 11.378906 -23.03125 13.046875 -23.03125 C 14.972656 -23.03125 16.691406 -22.65625 18.203125 -21.90625 C 19.722656 -21.15625 20.992188 -20.132812 22.015625 -18.84375 C 23.035156 -17.5625 23.753906 -16.097656 24.171875 -14.453125 L 18.8125 -14.453125 C 18.3125 -15.703125 17.546875 -16.628906 16.515625 -17.234375 C 15.492188 -17.835938 14.34375 -18.140625 13.0625 -18.140625 C 12.25 -18.140625 11.46875 -17.984375 10.71875 -17.671875 C 9.96875 -17.359375 9.289062 -16.90625 8.6875 -16.3125 C 8.082031 -15.71875 7.601562 -14.988281 7.25 -14.125 C 6.894531 -13.257812 6.71875 -12.273438 6.71875 -11.171875 C 6.71875 -10.078125 6.894531 -9.097656 7.25 -8.234375 C 7.601562 -7.367188 8.082031 -6.632812 8.6875 -6.03125 C 9.289062 -5.425781 9.972656 -4.96875 10.734375 -4.65625 C 11.492188 -4.351562 12.269531 -4.203125 13.0625 -4.203125 C 14.34375 -4.203125 15.492188 -4.515625 16.515625 -5.140625 C 17.546875 -5.773438 18.3125 -6.785156 18.8125 -8.171875 L 24.15625 -8.171875 C 23.78125 -6.453125 23.078125 -4.925781 22.046875 -3.59375 C 21.015625 -2.257812 19.734375 -1.210938 18.203125 -0.453125 C 16.679688 0.296875 14.960938 0.671875 13.046875 0.671875 Z M 13.046875 0.671875 "/></g></g></g><g fill="#ffffff" fill-opacity="1"><g transform="translate(240.905588, 193.734219)"><g><path d="M 12.03125 0.671875 C 10.519531 0.671875 9.125 0.367188 7.84375 -0.234375 C 6.5625 -0.847656 5.441406 -1.695312 4.484375 -2.78125 C 3.535156 -3.863281 2.800781 -5.125 2.28125 -6.5625 C 1.757812 -8 1.5 -9.535156 1.5 -11.171875 C 1.5 -12.816406 1.765625 -14.351562 2.296875 -15.78125 C 2.828125 -17.207031 3.566406 -18.460938 4.515625 -19.546875 C 5.460938 -20.628906 6.570312 -21.476562 7.84375 -22.09375 C 9.125 -22.71875 10.507812 -23.03125 12 -23.03125 C 13.832031 -23.03125 15.457031 -22.632812 16.875 -21.84375 C 18.289062 -21.050781 19.351562 -19.957031 20.0625 -18.5625 L 20.0625 -22.359375 L 25.078125 -22.359375 L 25.078125 0 L 20.0625 0 L 20.0625 -3.765625 C 19.34375 -2.367188 18.273438 -1.28125 16.859375 -0.5 C 15.453125 0.28125 13.84375 0.671875 12.03125 0.671875 Z M 13.28125 -4.203125 C 14.195312 -4.203125 15.050781 -4.378906 15.84375 -4.734375 C 16.644531 -5.085938 17.347656 -5.578125 17.953125 -6.203125 C 18.554688 -6.835938 19.023438 -7.578125 19.359375 -8.421875 C 19.691406 -9.273438 19.859375 -10.191406 19.859375 -11.171875 C 19.859375 -12.148438 19.6875 -13.0625 19.34375 -13.90625 C 19 -14.75 18.53125 -15.488281 17.9375 -16.125 C 17.34375 -16.769531 16.644531 -17.269531 15.84375 -17.625 C 15.050781 -17.976562 14.195312 -18.15625 13.28125 -18.15625 C 12.082031 -18.15625 10.984375 -17.863281 9.984375 -17.28125 C 8.992188 -16.707031 8.203125 -15.894531 7.609375 -14.84375 C 7.015625 -13.800781 6.71875 -12.578125 6.71875 -11.171875 C 6.71875 -9.722656 7.019531 -8.476562 7.625 -7.4375 C 8.226562 -6.394531 9.03125 -5.59375 10.03125 -5.03125 C 11.03125 -4.476562 12.113281 -4.203125 13.28125 -4.203125 Z M 13.28125 -4.203125 "/></g></g></g><g fill="#ffffff" fill-opacity="1"><g transform="translate(267.856969, 193.734219)"><g><path d="M 8.34375 0 L 3.09375 0 L 3.09375 -22.359375 L 8.125 -22.359375 L 8.125 -18.3125 C 8.65625 -19.539062 9.425781 -20.519531 10.4375 -21.25 C 11.445312 -21.988281 12.679688 -22.359375 14.140625 -22.359375 L 16.53125 -22.359375 L 16.53125 -17.828125 L 14.421875 -17.828125 C 13.210938 -17.828125 12.148438 -17.535156 11.234375 -16.953125 C 10.328125 -16.378906 9.617188 -15.539062 9.109375 -14.4375 C 8.597656 -13.332031 8.34375 -11.984375 8.34375 -10.390625 Z M 8.34375 0 "/></g></g></g><g fill="#ffffff" fill-opacity="1"><g transform="translate(283.851163, 193.734219)"><g><path d="M 12.3125 0.671875 C 10.726562 0.671875 9.269531 0.367188 7.9375 -0.234375 C 6.613281 -0.847656 5.472656 -1.695312 4.515625 -2.78125 C 3.566406 -3.863281 2.828125 -5.125 2.296875 -6.5625 C 1.765625 -8 1.5 -9.535156 1.5 -11.171875 C 1.5 -12.816406 1.753906 -14.351562 2.265625 -15.78125 C 2.785156 -17.207031 3.523438 -18.460938 4.484375 -19.546875 C 5.453125 -20.628906 6.601562 -21.476562 7.9375 -22.09375 C 9.269531 -22.71875 10.75 -23.03125 12.375 -23.03125 C 13.59375 -23.03125 14.695312 -22.816406 15.6875 -22.390625 C 16.675781 -21.960938 17.53125 -21.414062 18.25 -20.75 C 18.96875 -20.09375 19.523438 -19.410156 19.921875 -18.703125 L 19.8125 -21.03125 L 19.8125 -30.609375 L 25.046875 -30.609375 L 25.046875 0 L 20.046875 0 L 20.046875 -3.765625 C 19.609375 -2.984375 19.019531 -2.253906 18.28125 -1.578125 C 17.539062 -0.898438 16.671875 -0.359375 15.671875 0.046875 C 14.671875 0.460938 13.550781 0.671875 12.3125 0.671875 Z M 13.265625 -4.171875 C 14.179688 -4.171875 15.035156 -4.347656 15.828125 -4.703125 C 16.628906 -5.054688 17.328125 -5.550781 17.921875 -6.1875 C 18.523438 -6.832031 19 -7.578125 19.34375 -8.421875 C 19.6875 -9.273438 19.859375 -10.191406 19.859375 -11.171875 C 19.859375 -12.160156 19.691406 -13.070312 19.359375 -13.90625 C 19.023438 -14.75 18.554688 -15.488281 17.953125 -16.125 C 17.347656 -16.769531 16.644531 -17.269531 15.84375 -17.625 C 15.050781 -17.976562 14.191406 -18.15625 13.265625 -18.15625 C 12.035156 -18.15625 10.921875 -17.851562 9.921875 -17.25 C 8.921875 -16.644531 8.128906 -15.820312 7.546875 -14.78125 C 6.960938 -13.738281 6.671875 -12.535156 6.671875 -11.171875 C 6.671875 -9.859375 6.953125 -8.671875 7.515625 -7.609375 C 8.085938 -6.546875 8.867188 -5.707031 9.859375 -5.09375 C 10.847656 -4.476562 11.984375 -4.171875 13.265625 -4.171875 Z M 13.265625 -4.171875 "/></g></g></g><g fill="#ffffff" fill-opacity="1"><g transform="translate(212.679963, 207.164679)"><g><path d="M 1.203125 0 L 0.1875 0 L 0.1875 -0.84375 L 1.21875 -0.84375 C 1.53125 -0.84375 1.804688 -0.910156 2.046875 -1.046875 C 2.285156 -1.179688 2.472656 -1.375 2.609375 -1.625 C 2.742188 -1.875 2.8125 -2.164062 2.8125 -2.5 L 2.8125 -7.171875 L 3.734375 -7.171875 L 3.734375 -2.453125 C 3.734375 -2.066406 3.671875 -1.722656 3.546875 -1.421875 C 3.421875 -1.117188 3.242188 -0.863281 3.015625 -0.65625 C 2.796875 -0.445312 2.53125 -0.285156 2.21875 -0.171875 C 1.914062 -0.0546875 1.578125 0 1.203125 0 Z M 1.203125 0 "/></g></g></g><g fill="#ffffff" fill-opacity="1"><g transform="translate(217.247597, 207.164679)"><g><path d="M 3.171875 0.15625 C 2.816406 0.15625 2.488281 0.101562 2.1875 0 C 1.894531 -0.101562 1.640625 -0.257812 1.421875 -0.46875 C 1.203125 -0.6875 1.03125 -0.960938 0.90625 -1.296875 C 0.78125 -1.628906 0.71875 -2.03125 0.71875 -2.5 L 0.71875 -5.375 L 1.625 -5.375 L 1.625 -2.53125 C 1.625 -1.925781 1.757812 -1.46875 2.03125 -1.15625 C 2.300781 -0.851562 2.679688 -0.703125 3.171875 -0.703125 C 3.660156 -0.703125 4.039062 -0.851562 4.3125 -1.15625 C 4.582031 -1.46875 4.71875 -1.925781 4.71875 -2.53125 L 4.71875 -5.375 L 5.625 -5.375 L 5.625 -2.5 C 5.625 -2.03125 5.5625 -1.628906 5.4375 -1.296875 C 5.3125 -0.960938 5.140625 -0.6875 4.921875 -0.46875 C 4.703125 -0.257812 4.441406 -0.101562 4.140625 0 C 3.847656 0.101562 3.523438 0.15625 3.171875 0.15625 Z M 3.171875 0.15625 "/></g></g></g><g fill="#ffffff" fill-opacity="1"><g transform="translate(223.585384, 207.164679)"><g><path d="M 2.65625 0.15625 C 2.28125 0.15625 1.953125 0.101562 1.671875 0 C 1.390625 -0.09375 1.15625 -0.222656 0.96875 -0.390625 C 0.789062 -0.566406 0.65625 -0.765625 0.5625 -0.984375 C 0.46875 -1.203125 0.421875 -1.425781 0.421875 -1.65625 L 1.296875 -1.640625 C 1.296875 -1.453125 1.347656 -1.273438 1.453125 -1.109375 C 1.566406 -0.953125 1.722656 -0.820312 1.921875 -0.71875 C 2.128906 -0.625 2.378906 -0.578125 2.671875 -0.578125 C 3.078125 -0.578125 3.382812 -0.65625 3.59375 -0.8125 C 3.800781 -0.976562 3.90625 -1.195312 3.90625 -1.46875 C 3.90625 -1.664062 3.847656 -1.820312 3.734375 -1.9375 C 3.628906 -2.050781 3.472656 -2.140625 3.265625 -2.203125 C 3.066406 -2.265625 2.828125 -2.316406 2.546875 -2.359375 C 2.296875 -2.398438 2.054688 -2.453125 1.828125 -2.515625 C 1.609375 -2.585938 1.410156 -2.679688 1.234375 -2.796875 C 1.054688 -2.921875 0.914062 -3.078125 0.8125 -3.265625 C 0.71875 -3.453125 0.671875 -3.679688 0.671875 -3.953125 C 0.671875 -4.242188 0.738281 -4.507812 0.875 -4.75 C 1.019531 -4.988281 1.234375 -5.175781 1.515625 -5.3125 C 1.804688 -5.457031 2.164062 -5.53125 2.59375 -5.53125 C 3.007812 -5.53125 3.367188 -5.457031 3.671875 -5.3125 C 3.984375 -5.175781 4.222656 -4.988281 4.390625 -4.75 C 4.566406 -4.507812 4.65625 -4.234375 4.65625 -3.921875 L 3.765625 -3.921875 C 3.753906 -4.171875 3.644531 -4.375 3.4375 -4.53125 C 3.226562 -4.6875 2.945312 -4.765625 2.59375 -4.765625 C 2.363281 -4.765625 2.171875 -4.726562 2.015625 -4.65625 C 1.867188 -4.59375 1.753906 -4.5 1.671875 -4.375 C 1.597656 -4.25 1.5625 -4.113281 1.5625 -3.96875 C 1.5625 -3.800781 1.597656 -3.660156 1.671875 -3.546875 C 1.753906 -3.441406 1.890625 -3.351562 2.078125 -3.28125 C 2.265625 -3.21875 2.523438 -3.160156 2.859375 -3.109375 C 3.097656 -3.066406 3.335938 -3.015625 3.578125 -2.953125 C 3.816406 -2.890625 4.03125 -2.800781 4.21875 -2.6875 C 4.40625 -2.582031 4.550781 -2.429688 4.65625 -2.234375 C 4.769531 -2.046875 4.828125 -1.804688 4.828125 -1.515625 C 4.828125 -1.148438 4.734375 -0.84375 4.546875 -0.59375 C 4.367188 -0.34375 4.117188 -0.15625 3.796875 -0.03125 C 3.472656 0.09375 3.09375 0.15625 2.65625 0.15625 Z M 2.65625 0.15625 "/></g></g></g><g fill="#ffffff" fill-opacity="1"><g transform="translate(228.779942, 207.164679)"><g><path d="M 3.9375 0 L 2.953125 0 C 2.742188 0 2.539062 -0.0234375 2.34375 -0.078125 C 2.144531 -0.128906 1.960938 -0.222656 1.796875 -0.359375 C 1.628906 -0.503906 1.492188 -0.707031 1.390625 -0.96875 C 1.296875 -1.226562 1.25 -1.570312 1.25 -2 L 1.25 -4.578125 L 0.0625 -4.578125 L 0.0625 -5.375 L 1.25 -5.375 L 1.25 -6.96875 L 2.15625 -6.984375 L 2.15625 -5.375 L 3.9375 -5.375 L 3.9375 -4.578125 L 2.15625 -4.578125 L 2.15625 -1.953125 C 2.15625 -1.703125 2.179688 -1.5 2.234375 -1.34375 C 2.296875 -1.1875 2.375 -1.066406 2.46875 -0.984375 C 2.5625 -0.898438 2.664062 -0.84375 2.78125 -0.8125 C 2.894531 -0.78125 3.007812 -0.765625 3.125 -0.765625 L 3.9375 -0.765625 Z M 3.9375 0 "/></g></g></g><g fill="#ffffff" fill-opacity="1"><g transform="translate(233.015667, 207.164679)"><g/></g></g><g fill="#ffffff" fill-opacity="1"><g transform="translate(235.681434, 207.164679)"><g><path d="M 3.9375 0 L 2.953125 0 C 2.742188 0 2.539062 -0.0234375 2.34375 -0.078125 C 2.144531 -0.128906 1.960938 -0.222656 1.796875 -0.359375 C 1.628906 -0.503906 1.492188 -0.707031 1.390625 -0.96875 C 1.296875 -1.226562 1.25 -1.570312 1.25 -2 L 1.25 -4.578125 L 0.0625 -4.578125 L 0.0625 -5.375 L 1.25 -5.375 L 1.25 -6.96875 L 2.15625 -6.984375 L 2.15625 -5.375 L 3.9375 -5.375 L 3.9375 -4.578125 L 2.15625 -4.578125 L 2.15625 -1.953125 C 2.15625 -1.703125 2.179688 -1.5 2.234375 -1.34375 C 2.296875 -1.1875 2.375 -1.066406 2.46875 -0.984375 C 2.5625 -0.898438 2.664062 -0.84375 2.78125 -0.8125 C 2.894531 -0.78125 3.007812 -0.765625 3.125 -0.765625 L 3.9375 -0.765625 Z M 3.9375 0 "/></g></g></g><g fill="#ffffff" fill-opacity="1"><g transform="translate(239.917159, 207.164679)"><g><path d="M 3.015625 0.15625 C 2.648438 0.15625 2.304688 0.0820312 1.984375 -0.0625 C 1.671875 -0.207031 1.394531 -0.410156 1.15625 -0.671875 C 0.925781 -0.929688 0.742188 -1.234375 0.609375 -1.578125 C 0.484375 -1.921875 0.421875 -2.289062 0.421875 -2.6875 C 0.421875 -3.082031 0.484375 -3.453125 0.609375 -3.796875 C 0.742188 -4.140625 0.925781 -4.441406 1.15625 -4.703125 C 1.394531 -4.960938 1.671875 -5.164062 1.984375 -5.3125 C 2.304688 -5.457031 2.648438 -5.53125 3.015625 -5.53125 C 3.335938 -5.53125 3.632812 -5.472656 3.90625 -5.359375 C 4.1875 -5.253906 4.429688 -5.101562 4.640625 -4.90625 C 4.859375 -4.71875 5.023438 -4.488281 5.140625 -4.21875 L 5.140625 -5.375 L 6.015625 -5.375 L 6.015625 0 L 5.140625 0 L 5.140625 -1.140625 C 5.023438 -0.878906 4.859375 -0.648438 4.640625 -0.453125 C 4.429688 -0.253906 4.1875 -0.101562 3.90625 0 C 3.632812 0.101562 3.335938 0.15625 3.015625 0.15625 Z M 3.21875 -0.703125 C 3.476562 -0.703125 3.722656 -0.75 3.953125 -0.84375 C 4.179688 -0.945312 4.378906 -1.085938 4.546875 -1.265625 C 4.722656 -1.453125 4.859375 -1.664062 4.953125 -1.90625 C 5.054688 -2.144531 5.109375 -2.40625 5.109375 -2.6875 C 5.109375 -2.96875 5.054688 -3.226562 4.953125 -3.46875 C 4.859375 -3.707031 4.722656 -3.914062 4.546875 -4.09375 C 4.378906 -4.28125 4.179688 -4.421875 3.953125 -4.515625 C 3.722656 -4.617188 3.476562 -4.671875 3.21875 -4.671875 C 2.957031 -4.671875 2.710938 -4.625 2.484375 -4.53125 C 2.253906 -4.4375 2.050781 -4.296875 1.875 -4.109375 C 1.695312 -3.929688 1.554688 -3.722656 1.453125 -3.484375 C 1.359375 -3.242188 1.3125 -2.976562 1.3125 -2.6875 C 1.3125 -2.382812 1.363281 -2.109375 1.46875 -1.859375 C 1.570312 -1.617188 1.707031 -1.410156 1.875 -1.234375 C 2.050781 -1.066406 2.253906 -0.9375 2.484375 -0.84375 C 2.710938 -0.75 2.957031 -0.703125 3.21875 -0.703125 Z M 3.21875 -0.703125 "/></g></g></g><g fill="#ffffff" fill-opacity="1"><g transform="translate(246.797578, 207.164679)"><g><path d="M 1.78125 1.828125 L 0.875 1.828125 L 0.875 -5.375 L 1.734375 -5.375 L 1.734375 -4.234375 C 1.859375 -4.484375 2.023438 -4.703125 2.234375 -4.890625 C 2.441406 -5.085938 2.675781 -5.242188 2.9375 -5.359375 C 3.207031 -5.472656 3.5 -5.53125 3.8125 -5.53125 C 4.1875 -5.53125 4.535156 -5.457031 4.859375 -5.3125 C 5.179688 -5.164062 5.460938 -4.960938 5.703125 -4.703125 C 5.941406 -4.441406 6.128906 -4.140625 6.265625 -3.796875 C 6.398438 -3.453125 6.46875 -3.082031 6.46875 -2.6875 C 6.46875 -2.289062 6.398438 -1.921875 6.265625 -1.578125 C 6.128906 -1.234375 5.941406 -0.929688 5.703125 -0.671875 C 5.460938 -0.410156 5.179688 -0.207031 4.859375 -0.0625 C 4.546875 0.0820312 4.203125 0.15625 3.828125 0.15625 C 3.523438 0.15625 3.238281 0.101562 2.96875 0 C 2.707031 -0.101562 2.472656 -0.25 2.265625 -0.4375 C 2.054688 -0.632812 1.890625 -0.863281 1.765625 -1.125 L 1.78125 -0.515625 Z M 3.65625 -0.6875 C 3.914062 -0.6875 4.160156 -0.734375 4.390625 -0.828125 C 4.617188 -0.929688 4.820312 -1.070312 5 -1.25 C 5.175781 -1.425781 5.3125 -1.632812 5.40625 -1.875 C 5.507812 -2.125 5.5625 -2.394531 5.5625 -2.6875 C 5.5625 -2.976562 5.507812 -3.242188 5.40625 -3.484375 C 5.3125 -3.734375 5.175781 -3.945312 5 -4.125 C 4.832031 -4.300781 4.632812 -4.4375 4.40625 -4.53125 C 4.175781 -4.632812 3.925781 -4.6875 3.65625 -4.6875 C 3.394531 -4.6875 3.148438 -4.632812 2.921875 -4.53125 C 2.691406 -4.425781 2.488281 -4.28125 2.3125 -4.09375 C 2.144531 -3.914062 2.007812 -3.707031 1.90625 -3.46875 C 1.8125 -3.226562 1.765625 -2.96875 1.765625 -2.6875 C 1.765625 -2.40625 1.8125 -2.140625 1.90625 -1.890625 C 2.007812 -1.648438 2.148438 -1.4375 2.328125 -1.25 C 2.503906 -1.070312 2.707031 -0.929688 2.9375 -0.828125 C 3.164062 -0.734375 3.40625 -0.6875 3.65625 -0.6875 Z M 3.65625 -0.6875 "/></g></g></g><g fill="#ffffff" fill-opacity="1"><g transform="translate(253.677997, 207.164679)"><g/></g></g><g fill="#ffffff" fill-opacity="1"><g transform="translate(256.343764, 207.164679)"><g><path d="M 7.078125 0 L 5.984375 0 L 5.265625 -0.78125 C 4.941406 -0.5 4.582031 -0.273438 4.1875 -0.109375 C 3.789062 0.0546875 3.382812 0.140625 2.96875 0.140625 C 2.625 0.140625 2.300781 0.09375 2 0 C 1.707031 -0.101562 1.445312 -0.242188 1.21875 -0.421875 C 1 -0.609375 0.828125 -0.828125 0.703125 -1.078125 C 0.578125 -1.328125 0.515625 -1.601562 0.515625 -1.90625 C 0.515625 -2.1875 0.566406 -2.429688 0.671875 -2.640625 C 0.773438 -2.859375 0.910156 -3.050781 1.078125 -3.21875 C 1.253906 -3.394531 1.445312 -3.546875 1.65625 -3.671875 C 1.863281 -3.804688 2.070312 -3.929688 2.28125 -4.046875 C 2.144531 -4.171875 2.003906 -4.316406 1.859375 -4.484375 C 1.722656 -4.660156 1.609375 -4.847656 1.515625 -5.046875 C 1.421875 -5.253906 1.375 -5.46875 1.375 -5.6875 C 1.375 -6 1.453125 -6.28125 1.609375 -6.53125 C 1.773438 -6.78125 2 -6.972656 2.28125 -7.109375 C 2.570312 -7.253906 2.910156 -7.328125 3.296875 -7.328125 C 3.671875 -7.328125 4 -7.257812 4.28125 -7.125 C 4.5625 -7 4.78125 -6.816406 4.9375 -6.578125 C 5.09375 -6.347656 5.171875 -6.066406 5.171875 -5.734375 C 5.171875 -5.515625 5.125 -5.3125 5.03125 -5.125 C 4.945312 -4.9375 4.832031 -4.769531 4.6875 -4.625 C 4.539062 -4.476562 4.375 -4.34375 4.1875 -4.21875 C 4 -4.09375 3.804688 -3.976562 3.609375 -3.875 L 5.359375 -1.9375 C 5.523438 -2.15625 5.660156 -2.394531 5.765625 -2.65625 C 5.878906 -2.914062 5.957031 -3.1875 6 -3.46875 L 6.84375 -3.453125 C 6.800781 -3.054688 6.695312 -2.675781 6.53125 -2.3125 C 6.363281 -1.957031 6.15625 -1.628906 5.90625 -1.328125 C 6.101562 -1.097656 6.300781 -0.875 6.5 -0.65625 C 6.695312 -0.4375 6.890625 -0.21875 7.078125 0 Z M 3 -4.390625 C 3.125 -4.453125 3.257812 -4.519531 3.40625 -4.59375 C 3.550781 -4.675781 3.6875 -4.765625 3.8125 -4.859375 C 3.945312 -4.960938 4.054688 -5.082031 4.140625 -5.21875 C 4.222656 -5.363281 4.265625 -5.53125 4.265625 -5.71875 C 4.265625 -5.976562 4.175781 -6.1875 4 -6.34375 C 3.832031 -6.507812 3.609375 -6.59375 3.328125 -6.59375 C 3.097656 -6.59375 2.90625 -6.546875 2.75 -6.453125 C 2.601562 -6.367188 2.488281 -6.25 2.40625 -6.09375 C 2.332031 -5.945312 2.296875 -5.785156 2.296875 -5.609375 C 2.296875 -5.453125 2.332031 -5.300781 2.40625 -5.15625 C 2.476562 -5.007812 2.566406 -4.875 2.671875 -4.75 C 2.785156 -4.625 2.894531 -4.503906 3 -4.390625 Z M 2.953125 -0.640625 C 3.285156 -0.640625 3.601562 -0.703125 3.90625 -0.828125 C 4.207031 -0.960938 4.484375 -1.144531 4.734375 -1.375 C 4.410156 -1.726562 4.085938 -2.082031 3.765625 -2.4375 C 3.453125 -2.789062 3.128906 -3.144531 2.796875 -3.5 C 2.648438 -3.414062 2.492188 -3.320312 2.328125 -3.21875 C 2.171875 -3.125 2.023438 -3.015625 1.890625 -2.890625 C 1.753906 -2.773438 1.640625 -2.632812 1.546875 -2.46875 C 1.460938 -2.3125 1.421875 -2.128906 1.421875 -1.921875 C 1.421875 -1.671875 1.488281 -1.445312 1.625 -1.25 C 1.757812 -1.050781 1.941406 -0.898438 2.171875 -0.796875 C 2.398438 -0.691406 2.660156 -0.640625 2.953125 -0.640625 Z M 2.953125 -0.640625 "/></g></g></g><g fill="#ffffff" fill-opacity="1"><g transform="translate(264.009166, 207.164679)"><g/></g></g><g fill="#ffffff" fill-opacity="1"><g transform="translate(266.674934, 207.164679)"><g><path d="M 3.15625 0.15625 C 2.769531 0.15625 2.410156 0.0820312 2.078125 -0.0625 C 1.742188 -0.21875 1.453125 -0.421875 1.203125 -0.671875 C 0.953125 -0.929688 0.757812 -1.234375 0.625 -1.578125 C 0.488281 -1.921875 0.421875 -2.289062 0.421875 -2.6875 C 0.421875 -3.082031 0.488281 -3.453125 0.625 -3.796875 C 0.757812 -4.140625 0.953125 -4.441406 1.203125 -4.703125 C 1.453125 -4.960938 1.742188 -5.164062 2.078125 -5.3125 C 2.410156 -5.457031 2.769531 -5.53125 3.15625 -5.53125 C 3.59375 -5.53125 3.984375 -5.445312 4.328125 -5.28125 C 4.671875 -5.113281 4.960938 -4.882812 5.203125 -4.59375 C 5.453125 -4.3125 5.628906 -3.984375 5.734375 -3.609375 L 4.8125 -3.609375 C 4.664062 -3.960938 4.445312 -4.226562 4.15625 -4.40625 C 3.863281 -4.582031 3.535156 -4.671875 3.171875 -4.671875 C 2.929688 -4.671875 2.703125 -4.625 2.484375 -4.53125 C 2.265625 -4.445312 2.066406 -4.316406 1.890625 -4.140625 C 1.710938 -3.972656 1.570312 -3.765625 1.46875 -3.515625 C 1.375 -3.265625 1.328125 -2.988281 1.328125 -2.6875 C 1.328125 -2.375 1.378906 -2.09375 1.484375 -1.84375 C 1.585938 -1.601562 1.722656 -1.394531 1.890625 -1.21875 C 2.066406 -1.050781 2.265625 -0.921875 2.484375 -0.828125 C 2.710938 -0.742188 2.941406 -0.703125 3.171875 -0.703125 C 3.535156 -0.703125 3.863281 -0.789062 4.15625 -0.96875 C 4.445312 -1.15625 4.664062 -1.429688 4.8125 -1.796875 L 5.734375 -1.796875 C 5.628906 -1.410156 5.457031 -1.070312 5.21875 -0.78125 C 4.976562 -0.488281 4.679688 -0.257812 4.328125 -0.09375 C 3.972656 0.0703125 3.582031 0.15625 3.15625 0.15625 Z M 3.15625 0.15625 "/></g></g></g><g fill="#ffffff" fill-opacity="1"><g transform="translate(272.749305, 207.164679)"><g><path d="M 3.203125 0.15625 C 2.804688 0.15625 2.4375 0.0820312 2.09375 -0.0625 C 1.757812 -0.207031 1.46875 -0.410156 1.21875 -0.671875 C 0.96875 -0.929688 0.769531 -1.234375 0.625 -1.578125 C 0.488281 -1.921875 0.421875 -2.289062 0.421875 -2.6875 C 0.421875 -3.082031 0.488281 -3.453125 0.625 -3.796875 C 0.769531 -4.140625 0.96875 -4.441406 1.21875 -4.703125 C 1.46875 -4.960938 1.757812 -5.164062 2.09375 -5.3125 C 2.4375 -5.457031 2.804688 -5.53125 3.203125 -5.53125 C 3.609375 -5.53125 3.976562 -5.457031 4.3125 -5.3125 C 4.65625 -5.164062 4.953125 -4.960938 5.203125 -4.703125 C 5.460938 -4.441406 5.660156 -4.140625 5.796875 -3.796875 C 5.941406 -3.453125 6.015625 -3.082031 6.015625 -2.6875 C 6.015625 -2.289062 5.941406 -1.921875 5.796875 -1.578125 C 5.660156 -1.234375 5.460938 -0.929688 5.203125 -0.671875 C 4.953125 -0.410156 4.65625 -0.207031 4.3125 -0.0625 C 3.976562 0.0820312 3.609375 0.15625 3.203125 0.15625 Z M 3.21875 -0.703125 C 3.488281 -0.703125 3.738281 -0.75 3.96875 -0.84375 C 4.195312 -0.945312 4.394531 -1.085938 4.5625 -1.265625 C 4.738281 -1.441406 4.875 -1.648438 4.96875 -1.890625 C 5.0625 -2.140625 5.109375 -2.40625 5.109375 -2.6875 C 5.109375 -2.96875 5.0625 -3.226562 4.96875 -3.46875 C 4.875 -3.71875 4.738281 -3.929688 4.5625 -4.109375 C 4.394531 -4.285156 4.195312 -4.421875 3.96875 -4.515625 C 3.738281 -4.617188 3.488281 -4.671875 3.21875 -4.671875 C 2.957031 -4.671875 2.707031 -4.617188 2.46875 -4.515625 C 2.238281 -4.421875 2.035156 -4.285156 1.859375 -4.109375 C 1.691406 -3.929688 1.5625 -3.71875 1.46875 -3.46875 C 1.375 -3.226562 1.328125 -2.96875 1.328125 -2.6875 C 1.328125 -2.40625 1.375 -2.140625 1.46875 -1.890625 C 1.5625 -1.648438 1.691406 -1.441406 1.859375 -1.265625 C 2.035156 -1.085938 2.238281 -0.945312 2.46875 -0.84375 C 2.707031 -0.75 2.957031 -0.703125 3.21875 -0.703125 Z M 3.21875 -0.703125 "/></g></g></g><g fill="#ffffff" fill-opacity="1"><g transform="translate(279.176649, 207.164679)"><g><path d="M 1.78125 0 L 0.875 0 L 0.875 -5.375 L 1.734375 -5.375 L 1.734375 -4.34375 C 1.835938 -4.570312 1.988281 -4.773438 2.1875 -4.953125 C 2.382812 -5.128906 2.613281 -5.269531 2.875 -5.375 C 3.132812 -5.476562 3.414062 -5.53125 3.71875 -5.53125 C 4.4375 -5.53125 4.976562 -5.304688 5.34375 -4.859375 C 5.71875 -4.421875 5.90625 -3.773438 5.90625 -2.921875 L 5.90625 0 L 5 0 L 5 -2.90625 C 5 -3.519531 4.863281 -3.96875 4.59375 -4.25 C 4.320312 -4.539062 3.953125 -4.6875 3.484375 -4.6875 C 3.265625 -4.6875 3.050781 -4.640625 2.84375 -4.546875 C 2.632812 -4.460938 2.453125 -4.335938 2.296875 -4.171875 C 2.140625 -4.015625 2.015625 -3.820312 1.921875 -3.59375 C 1.828125 -3.375 1.78125 -3.117188 1.78125 -2.828125 Z M 1.78125 0 "/></g></g></g><g fill="#ffffff" fill-opacity="1"><g transform="translate(285.877945, 207.164679)"><g><path d="M 1.78125 0 L 0.875 0 L 0.875 -5.375 L 1.734375 -5.375 L 1.734375 -4.34375 C 1.835938 -4.570312 1.988281 -4.773438 2.1875 -4.953125 C 2.382812 -5.128906 2.613281 -5.269531 2.875 -5.375 C 3.132812 -5.476562 3.414062 -5.53125 3.71875 -5.53125 C 4.4375 -5.53125 4.976562 -5.304688 5.34375 -4.859375 C 5.71875 -4.421875 5.90625 -3.773438 5.90625 -2.921875 L 5.90625 0 L 5 0 L 5 -2.90625 C 5 -3.519531 4.863281 -3.96875 4.59375 -4.25 C 4.320312 -4.539062 3.953125 -4.6875 3.484375 -4.6875 C 3.265625 -4.6875 3.050781 -4.640625 2.84375 -4.546875 C 2.632812 -4.460938 2.453125 -4.335938 2.296875 -4.171875 C 2.140625 -4.015625 2.015625 -3.820312 1.921875 -3.59375 C 1.828125 -3.375 1.78125 -3.117188 1.78125 -2.828125 Z M 1.78125 0 "/></g></g></g><g fill="#ffffff" fill-opacity="1"><g transform="translate(292.579241, 207.164679)"><g><path d="M 5.8125 -2.828125 C 5.8125 -2.773438 5.804688 -2.722656 5.796875 -2.671875 C 5.796875 -2.617188 5.796875 -2.546875 5.796875 -2.453125 L 1.328125 -2.453125 C 1.367188 -2.085938 1.472656 -1.773438 1.640625 -1.515625 C 1.816406 -1.253906 2.035156 -1.050781 2.296875 -0.90625 C 2.554688 -0.769531 2.832031 -0.703125 3.125 -0.703125 C 3.488281 -0.703125 3.796875 -0.78125 4.046875 -0.9375 C 4.304688 -1.09375 4.5 -1.320312 4.625 -1.625 L 5.640625 -1.625 C 5.566406 -1.375 5.453125 -1.140625 5.296875 -0.921875 C 5.140625 -0.710938 4.953125 -0.523438 4.734375 -0.359375 C 4.523438 -0.203125 4.285156 -0.0820312 4.015625 0 C 3.742188 0.09375 3.457031 0.140625 3.15625 0.140625 C 2.757812 0.140625 2.394531 0.0664062 2.0625 -0.078125 C 1.738281 -0.222656 1.453125 -0.421875 1.203125 -0.671875 C 0.953125 -0.929688 0.757812 -1.234375 0.625 -1.578125 C 0.488281 -1.921875 0.421875 -2.289062 0.421875 -2.6875 C 0.421875 -3.082031 0.488281 -3.453125 0.625 -3.796875 C 0.757812 -4.140625 0.953125 -4.441406 1.203125 -4.703125 C 1.453125 -4.960938 1.738281 -5.164062 2.0625 -5.3125 C 2.394531 -5.457031 2.757812 -5.53125 3.15625 -5.53125 C 3.539062 -5.53125 3.894531 -5.457031 4.21875 -5.3125 C 4.539062 -5.164062 4.820312 -4.96875 5.0625 -4.71875 C 5.300781 -4.46875 5.484375 -4.175781 5.609375 -3.84375 C 5.742188 -3.519531 5.8125 -3.179688 5.8125 -2.828125 Z M 1.375 -3.25 L 4.875 -3.25 C 4.863281 -3.4375 4.8125 -3.613281 4.71875 -3.78125 C 4.625 -3.957031 4.492188 -4.113281 4.328125 -4.25 C 4.171875 -4.382812 3.988281 -4.488281 3.78125 -4.5625 C 3.582031 -4.632812 3.367188 -4.671875 3.140625 -4.671875 C 2.867188 -4.671875 2.613281 -4.613281 2.375 -4.5 C 2.132812 -4.394531 1.925781 -4.238281 1.75 -4.03125 C 1.570312 -3.820312 1.445312 -3.5625 1.375 -3.25 Z M 1.375 -3.25 "/></g></g></g><g fill="#ffffff" fill-opacity="1"><g transform="translate(298.716833, 207.164679)"><g><path d="M 3.15625 0.15625 C 2.769531 0.15625 2.410156 0.0820312 2.078125 -0.0625 C 1.742188 -0.21875 1.453125 -0.421875 1.203125 -0.671875 C 0.953125 -0.929688 0.757812 -1.234375 0.625 -1.578125 C 0.488281 -1.921875 0.421875 -2.289062 0.421875 -2.6875 C 0.421875 -3.082031 0.488281 -3.453125 0.625 -3.796875 C 0.757812 -4.140625 0.953125 -4.441406 1.203125 -4.703125 C 1.453125 -4.960938 1.742188 -5.164062 2.078125 -5.3125 C 2.410156 -5.457031 2.769531 -5.53125 3.15625 -5.53125 C 3.59375 -5.53125 3.984375 -5.445312 4.328125 -5.28125 C 4.671875 -5.113281 4.960938 -4.882812 5.203125 -4.59375 C 5.453125 -4.3125 5.628906 -3.984375 5.734375 -3.609375 L 4.8125 -3.609375 C 4.664062 -3.960938 4.445312 -4.226562 4.15625 -4.40625 C 3.863281 -4.582031 3.535156 -4.671875 3.171875 -4.671875 C 2.929688 -4.671875 2.703125 -4.625 2.484375 -4.53125 C 2.265625 -4.445312 2.066406 -4.316406 1.890625 -4.140625 C 1.710938 -3.972656 1.570312 -3.765625 1.46875 -3.515625 C 1.375 -3.265625 1.328125 -2.988281 1.328125 -2.6875 C 1.328125 -2.375 1.378906 -2.09375 1.484375 -1.84375 C 1.585938 -1.601562 1.722656 -1.394531 1.890625 -1.21875 C 2.066406 -1.050781 2.265625 -0.921875 2.484375 -0.828125 C 2.710938 -0.742188 2.941406 -0.703125 3.171875 -0.703125 C 3.535156 -0.703125 3.863281 -0.789062 4.15625 -0.96875 C 4.445312 -1.15625 4.664062 -1.429688 4.8125 -1.796875 L 5.734375 -1.796875 C 5.628906 -1.410156 5.457031 -1.070312 5.21875 -0.78125 C 4.976562 -0.488281 4.679688 -0.257812 4.328125 -0.09375 C 3.972656 0.0703125 3.582031 0.15625 3.15625 0.15625 Z M 3.15625 0.15625 "/></g></g></g><g fill="#ffffff" fill-opacity="1"><g transform="translate(304.791204, 207.164679)"><g><path d="M 3.9375 0 L 2.953125 0 C 2.742188 0 2.539062 -0.0234375 2.34375 -0.078125 C 2.144531 -0.128906 1.960938 -0.222656 1.796875 -0.359375 C 1.628906 -0.503906 1.492188 -0.707031 1.390625 -0.96875 C 1.296875 -1.226562 1.25 -1.570312 1.25 -2 L 1.25 -4.578125 L 0.0625 -4.578125 L 0.0625 -5.375 L 1.25 -5.375 L 1.25 -6.96875 L 2.15625 -6.984375 L 2.15625 -5.375 L 3.9375 -5.375 L 3.9375 -4.578125 L 2.15625 -4.578125 L 2.15625 -1.953125 C 2.15625 -1.703125 2.179688 -1.5 2.234375 -1.34375 C 2.296875 -1.1875 2.375 -1.066406 2.46875 -0.984375 C 2.5625 -0.898438 2.664062 -0.84375 2.78125 -0.8125 C 2.894531 -0.78125 3.007812 -0.765625 3.125 -0.765625 L 3.9375 -0.765625 Z M 3.9375 0 "/></g></g></g><g fill="#ffffff" fill-opacity="1"><g transform="translate(309.036677, 207.164679)"><g/></g></g></svg>