<svg xmlns="http://www.w3.org/2000/svg" xmlns:xlink="http://www.w3.org/1999/xlink" width="500" zoomAndPan="magnify" viewBox="0 0 375 374.999991" height="500" preserveAspectRatio="xMidYMid meet" version="1.0"><defs><clipPath id="b14b8c33bb"><path d="M 162.730469 148 L 182 148 L 182 219 L 162.730469 219 Z M 162.730469 148 " clip-rule="nonzero"/></clipPath><clipPath id="1caddeec83"><path d="M 177 158 L 192.730469 158 L 192.730469 209 L 177 209 Z M 177 158 " clip-rule="nonzero"/></clipPath><clipPath id="7b5e8a6bc1"><path d="M 192 169 L 192.730469 169 L 192.730469 198 L 192 198 Z M 192 169 " clip-rule="nonzero"/></clipPath></defs><g clip-path="url(#b14b8c33bb)"><path fill="#ffffff" d="M 180.796875 214.199219 C 172.5625 205.96875 168.027344 195.042969 168.027344 183.433594 C 168.027344 171.824219 172.5625 160.902344 180.796875 152.671875 C 181.296875 152.167969 181.554688 151.503906 181.554688 150.84375 C 181.554688 150.183594 181.300781 149.523438 180.796875 149.015625 C 179.785156 148.007812 178.152344 148.007812 177.140625 149.015625 C 167.933594 158.222656 162.863281 170.449219 162.863281 183.4375 C 162.863281 196.425781 167.933594 208.648438 177.140625 217.859375 C 178.152344 218.867188 179.785156 218.867188 180.796875 217.859375 C 181.804688 216.851562 181.804688 215.214844 180.796875 214.207031 Z M 180.796875 214.199219 " fill-opacity="1" fill-rule="nonzero"/></g><g clip-path="url(#1caddeec83)"><path fill="#ffffff" d="M 192.058594 161.347656 C 192.058594 160.6875 191.808594 160.023438 191.300781 159.523438 C 190.292969 158.511719 188.65625 158.511719 187.648438 159.523438 C 181.25 165.917969 177.726562 174.410156 177.726562 183.4375 C 177.726562 192.464844 181.246094 200.957031 187.648438 207.351562 C 188.65625 208.363281 190.292969 208.363281 191.300781 207.351562 C 192.308594 206.34375 192.308594 204.707031 191.300781 203.699219 C 185.878906 198.277344 182.894531 191.082031 182.894531 183.4375 C 182.894531 175.792969 185.878906 168.597656 191.300781 163.175781 C 191.804688 162.671875 192.058594 162.007812 192.058594 161.347656 Z M 192.058594 161.347656 " fill-opacity="1" fill-rule="nonzero"/></g><g clip-path="url(#7b5e8a6bc1)"><path fill="#ffffff" d="M 198.144531 196.851562 C 199.152344 197.859375 200.789062 197.859375 201.796875 196.851562 C 202.808594 195.84375 202.808594 194.207031 201.796875 193.199219 C 199.191406 190.59375 197.757812 187.125 197.757812 183.4375 C 197.757812 179.75 199.191406 176.285156 201.796875 173.675781 C 202.300781 173.175781 202.554688 172.511719 202.554688 171.851562 C 202.554688 171.191406 202.304688 170.527344 201.796875 170.023438 C 200.789062 169.015625 199.152344 169.015625 198.144531 170.023438 C 194.5625 173.605469 192.585938 178.371094 192.585938 183.4375 C 192.585938 188.503906 194.558594 193.269531 198.144531 196.851562 Z M 198.144531 196.851562 " fill-opacity="1" fill-rule="nonzero"/></g></svg>