<svg width="26" height="34" viewBox="0 0 26 34" fill="none" xmlns="http://www.w3.org/2000/svg">
<path d="M6.89959 0.180094L5.3727 0.639224C4.01315 1.04846 2.79901 1.83684 1.8732 2.91158C0.947378 3.98631 0.34841 5.30266 0.146791 6.70569C-0.485685 11.1014 0.928334 16.2411 4.33774 22.1354C7.73863 28.0149 11.4824 31.8027 15.603 33.4607C16.927 33.9933 18.3764 34.1352 19.7789 33.8695C21.1813 33.6039 22.4779 32.9418 23.5143 31.9621L24.6685 30.8695C25.418 30.1615 25.8845 29.206 25.9812 28.1805C26.078 27.155 25.7984 26.1293 25.1945 25.2941L22.3069 21.298C21.9165 20.7585 21.3667 20.3544 20.7347 20.1425C20.1026 19.9306 19.42 19.9213 18.7825 20.1161L14.4148 21.4489L14.3019 21.4701C13.8206 21.5403 12.709 20.5009 11.3248 18.1074C9.87669 15.6035 9.57856 14.1389 9.97678 13.7606L12.1979 11.6924C13.0093 10.9361 13.5636 9.94554 13.7831 8.85932C14.0027 7.77309 13.8766 6.64553 13.4224 5.63439L12.0126 2.50763C11.5887 1.56672 10.8365 0.811777 9.89613 0.38354C8.95579 -0.0446956 7.88939 -0.117004 6.89959 0.180094ZM10.0747 3.37913L11.4802 6.50589C11.753 7.11236 11.829 7.78876 11.6977 8.44049C11.5663 9.09221 11.2342 9.68665 10.7477 10.1407L8.52017 12.211C7.09338 13.5586 7.56613 15.8585 9.48273 19.1702C11.2843 22.2864 12.9283 23.8253 14.6959 23.5575L14.9599 23.5022L19.4064 22.1482C19.619 22.083 19.8466 22.0859 20.0574 22.1564C20.2682 22.227 20.4517 22.3616 20.5819 22.5414L23.4696 26.5376C23.772 26.9551 23.9121 27.4681 23.8639 27.9811C23.8157 28.4941 23.5825 28.9722 23.2077 29.3264L22.0513 30.4189C21.311 31.1183 20.385 31.5908 19.3835 31.7803C18.382 31.9699 17.3471 31.8684 16.4016 31.4881C12.7857 30.0342 9.36773 26.5758 6.18406 21.0726C2.99187 15.5567 1.69923 10.8655 2.25504 7.00753C2.39892 6.00516 2.82673 5.06469 3.48809 4.29684C4.14946 3.529 5.01685 2.96576 5.98814 2.67343L7.51503 2.2143C8.01006 2.06582 8.54229 2.10213 9.01248 2.31645C9.48267 2.53077 9.85871 2.90848 10.0705 3.37913" fill="#161973"/>
</svg>
