<svg width="23" height="23" viewBox="0 0 23 23" fill="none" xmlns="http://www.w3.org/2000/svg">
<circle cx="11.5" cy="11.5" r="11.5" fill="#EEF0FF"/>
<circle cx="11.5" cy="11.5" r="9.05" fill="#EEF0FF" stroke="#8B97E3" stroke-width="0.9"/>
<path fill-rule="evenodd" clip-rule="evenodd" d="M11.2592 15H12.7405C13.7808 15 14.3012 15 14.6748 14.755C14.8361 14.6494 14.975 14.513 15.0835 14.3537C15.3332 13.987 15.3332 13.476 15.3332 12.4547C15.3332 11.4333 15.3332 10.9223 15.0835 10.5557C14.975 10.3963 14.8361 10.26 14.6748 10.1543C14.4348 9.99668 14.1342 9.94035 13.6738 9.92035C13.4542 9.92035 13.2652 9.75702 13.2222 9.54535C13.1893 9.39031 13.1039 9.25136 12.9805 9.152C12.857 9.05264 12.703 8.99895 12.5445 9.00002H11.4552C11.1258 9.00002 10.8422 9.22835 10.7775 9.54535C10.7345 9.75702 10.5455 9.92035 10.3258 9.92035C9.86584 9.94035 9.56517 9.99702 9.32484 10.1543C9.16368 10.26 9.02493 10.3964 8.9165 10.5557C8.6665 10.9223 8.6665 11.433 8.6665 12.4547C8.6665 13.4763 8.6665 13.9867 8.91617 14.3537C9.02417 14.5123 9.16284 14.6487 9.32484 14.755C9.6985 15 10.2188 15 11.2592 15ZM11.9998 11.091C11.2328 11.091 10.6108 11.7013 10.6108 12.4543C10.6108 13.2073 11.2332 13.8187 11.9998 13.8187C12.7665 13.8187 13.3888 13.208 13.3888 12.455C13.3888 11.702 12.7665 11.091 11.9998 11.091ZM11.9998 11.6363C11.5398 11.6363 11.1665 12.0027 11.1665 12.4547C11.1665 12.9063 11.5398 13.2727 11.9998 13.2727C12.4598 13.2727 12.8332 12.9063 12.8332 12.4547C12.8332 12.003 12.4598 11.6363 11.9998 11.6363ZM13.5738 11.3637C13.5738 11.213 13.6982 11.091 13.8518 11.091H14.2218C14.3752 11.091 14.4998 11.213 14.4998 11.3637C14.4991 11.4366 14.4695 11.5064 14.4174 11.5575C14.3654 11.6086 14.2951 11.637 14.2222 11.6363H13.8518C13.8157 11.6367 13.7798 11.6299 13.7463 11.6164C13.7127 11.6029 13.6822 11.5829 13.6564 11.5576C13.6305 11.5323 13.61 11.5021 13.5958 11.4688C13.5817 11.4356 13.5742 11.3998 13.5738 11.3637Z" fill="#8B97E3"/>
</svg>
