<svg width="234" height="216" viewBox="0 0 234 216" fill="none" xmlns="http://www.w3.org/2000/svg">
<path d="M234.001 202.449H0V206.122H234.001V202.449Z" fill="#B6BBC7"/>
<path d="M104.193 103.747H6.77441V202.45H104.193V103.747Z" fill="#5B718C"/>
<path d="M104.193 103.747H6.77441V124.17H104.193V103.747Z" fill="#112D4E"/>
<path d="M30.5157 133.656H17.208V146.964H30.5157V133.656Z" fill="white"/>
<path d="M51.5967 133.656H38.2891V146.964H51.5967V133.656Z" fill="white"/>
<path d="M72.6778 133.656H59.3701V146.964H72.6778V133.656Z" fill="white"/>
<path d="M93.7598 133.656H80.4521V146.964H93.7598V133.656Z" fill="white"/>
<path d="M30.5157 153.098H17.208V166.406H30.5157V153.098Z" fill="white"/>
<path d="M51.5967 153.098H38.2891V166.406H51.5967V153.098Z" fill="white"/>
<path d="M72.6778 153.098H59.3701V166.406H72.6778V153.098Z" fill="white"/>
<path d="M93.7598 153.098H80.4521V166.406H93.7598V153.098Z" fill="white"/>
<path d="M30.5157 172.541H17.208V185.849H30.5157V172.541Z" fill="white"/>
<path d="M51.5967 172.541H38.2891V185.849H51.5967V172.541Z" fill="white"/>
<path d="M72.6778 172.541H59.3701V185.849H72.6778V172.541Z" fill="white"/>
<path d="M93.7598 172.541H80.4521V185.849H93.7598V172.541Z" fill="white"/>
<path d="M15.6268 108.621C14.7762 108.621 14.0869 107.931 14.0869 107.081V100.413C14.0869 99.5625 14.7762 98.8732 15.6268 98.8732C16.4774 98.8732 17.1667 99.5625 17.1667 100.413V107.081C17.1667 107.931 16.4769 108.621 15.6268 108.621Z" fill="#DBE2EF"/>
<path d="M24.4842 108.621C23.6337 108.621 22.9443 107.931 22.9443 107.081V100.413C22.9443 99.5625 23.6337 98.8732 24.4842 98.8732C25.3348 98.8732 26.0242 99.5625 26.0242 100.413V107.081C26.0242 107.931 25.3348 108.621 24.4842 108.621Z" fill="#DBE2EF"/>
<path d="M33.3417 108.621C32.4911 108.621 31.8018 107.931 31.8018 107.081V100.413C31.8018 99.5625 32.4911 98.8732 33.3417 98.8732C34.1923 98.8732 34.8816 99.5625 34.8816 100.413V107.081C34.8816 107.931 34.1923 108.621 33.3417 108.621Z" fill="#DBE2EF"/>
<path d="M42.1981 108.621C41.3475 108.621 40.6582 107.931 40.6582 107.081V100.413C40.6582 99.5625 41.3475 98.8732 42.1981 98.8732C43.0487 98.8732 43.738 99.5625 43.738 100.413V107.081C43.738 107.931 43.0487 108.621 42.1981 108.621Z" fill="#DBE2EF"/>
<path d="M51.0546 108.621C50.204 108.621 49.5146 107.931 49.5146 107.081V100.413C49.5146 99.5625 50.204 98.8732 51.0546 98.8732C51.9046 98.8732 52.5945 99.5625 52.5945 100.413V107.081C52.5945 107.931 51.9052 108.621 51.0546 108.621Z" fill="#DBE2EF"/>
<path d="M59.912 108.621C59.0614 108.621 58.3721 107.931 58.3721 107.081V100.413C58.3721 99.5625 59.0614 98.8732 59.912 98.8732C60.7626 98.8732 61.4519 99.5625 61.4519 100.413V107.081C61.4519 107.931 60.7626 108.621 59.912 108.621Z" fill="#DBE2EF"/>
<path d="M68.7694 108.621C67.9194 108.621 67.2295 107.931 67.2295 107.081V100.413C67.2295 99.5625 67.9188 98.8732 68.7694 98.8732C69.62 98.8732 70.3093 99.5625 70.3093 100.413V107.081C70.3093 107.931 69.62 108.621 68.7694 108.621Z" fill="#DBE2EF"/>
<path d="M77.6268 108.621C76.7762 108.621 76.0869 107.931 76.0869 107.081V100.413C76.0869 99.5625 76.7762 98.8732 77.6268 98.8732C78.4774 98.8732 79.1667 99.5625 79.1667 100.413V107.081C79.1662 107.931 78.4769 108.621 77.6268 108.621Z" fill="#DBE2EF"/>
<path d="M86.4833 108.621C85.6327 108.621 84.9434 107.931 84.9434 107.081V100.413C84.9434 99.5625 85.6327 98.8732 86.4833 98.8732C87.3333 98.8732 88.0232 99.5625 88.0232 100.413V107.081C88.0226 107.931 87.3333 108.621 86.4833 108.621Z" fill="#DBE2EF"/>
<path d="M95.3407 108.621C94.4901 108.621 93.8008 107.931 93.8008 107.081V100.413C93.8008 99.5625 94.4901 98.8732 95.3407 98.8732C96.1913 98.8732 96.8806 99.5625 96.8806 100.413V107.081C96.88 107.931 96.1907 108.621 95.3407 108.621Z" fill="#DBE2EF"/>
<path d="M16.4496 136.814L23.8624 142.747L34.3126 131.531L23.8624 146.963L13.2314 141.133L16.4496 136.814Z" fill="#112D4E"/>
<path d="M58.7025 156.257L66.1154 162.189L76.5655 150.974L66.1154 166.406L55.4844 160.576L58.7025 156.257Z" fill="#112D4E"/>
<path d="M37.6215 175.699L45.0343 181.632L55.4845 170.416L45.0343 185.848L34.4033 180.018L37.6215 175.699Z" fill="#112D4E"/>
<path d="M79.7836 136.814L87.1964 142.747L97.6466 131.531L87.1964 146.963L76.5654 141.133L79.7836 136.814Z" fill="#112D4E"/>
<path d="M79.7836 175.699L87.1964 181.632L97.6466 170.416L87.1964 185.848L76.5654 180.018L79.7836 175.699Z" fill="#112D4E"/>
<path d="M67.0407 140.31L74.5258 132.565L65.9431 139.174L59.5556 132.565L57.5234 134.961L64.4687 140.31L57.5234 145.657L59.5556 148.054L65.9431 141.445L74.5258 148.054L67.0407 140.31Z" fill="#112D4E"/>
<path d="M24.8786 159.752L32.3637 152.007L23.781 158.616L17.3935 152.007L15.3613 154.404L22.3061 159.752L15.3613 165.1L17.3935 167.497L23.781 160.887L32.3637 167.497L24.8786 159.752Z" fill="#112D4E"/>
<path d="M88.1217 159.752L95.6068 152.007L87.0242 158.616L80.6366 152.007L78.6045 154.404L85.5498 159.752L78.6045 165.1L80.6366 167.497L87.0242 160.887L95.6068 167.497L88.1217 159.752Z" fill="#112D4E"/>
<path d="M110.401 181.506L100.306 202.449H105.354L121.628 189.565L110.401 181.506Z" fill="#24374A"/>
<path d="M195.65 181.506L205.745 202.449H200.697L184.423 189.565L195.65 181.506Z" fill="#24374A"/>
<path d="M167.865 75.6765H138.187V94.7154H167.865V75.6765Z" fill="#24374A"/>
<path d="M174.856 65.037H131.755V75.6765H174.856V65.037Z" fill="#384E66"/>
<path d="M153.026 202.449C186.89 202.449 214.342 174.997 214.342 141.133C214.342 107.269 186.89 79.8163 153.026 79.8163C119.161 79.8163 91.709 107.269 91.709 141.133C91.709 174.997 119.161 202.449 153.026 202.449Z" fill="#384E66"/>
<path d="M190.301 178.411C210.889 157.823 210.889 124.443 190.301 103.855C169.713 83.2671 136.334 83.2671 115.746 103.855C95.1576 124.443 95.1576 157.823 115.746 178.411C136.334 198.999 169.713 198.999 190.301 178.411Z" fill="#94AFCC"/>
<path d="M153.025 92.7018V100.76" stroke="white" stroke-width="2" stroke-miterlimit="10" stroke-linecap="round"/>
<path d="M153.025 181.506V189.565" stroke="white" stroke-width="2" stroke-miterlimit="10" stroke-linecap="round"/>
<path d="M118.78 106.887L124.479 112.585" stroke="white" stroke-width="2" stroke-miterlimit="10" stroke-linecap="round"/>
<path d="M181.574 169.681L187.273 175.379" stroke="white" stroke-width="2" stroke-miterlimit="10" stroke-linecap="round"/>
<path d="M104.595 141.133H112.654" stroke="white" stroke-width="2" stroke-miterlimit="10" stroke-linecap="round"/>
<path d="M193.398 141.133H201.458" stroke="white" stroke-width="2" stroke-miterlimit="10" stroke-linecap="round"/>
<path d="M118.78 175.379L124.479 169.681" stroke="white" stroke-width="2" stroke-miterlimit="10" stroke-linecap="round"/>
<path d="M181.574 112.585L187.273 106.887" stroke="white" stroke-width="2" stroke-miterlimit="10" stroke-linecap="round"/>
<path opacity="0.5" d="M147.622 97.9145C176.738 97.9145 200.342 121.518 200.342 150.634C200.342 158.155 198.763 165.307 195.925 171.78C202.106 163.144 205.745 152.563 205.745 141.132C205.745 112.016 182.142 88.4129 153.026 88.4129C131.431 88.4129 112.873 101.399 104.724 119.985C114.287 106.624 129.937 97.9145 147.622 97.9145Z" fill="#94AFCC"/>
<path d="M153.025 146.024C155.727 146.024 157.916 143.834 157.916 141.133C157.916 138.431 155.727 136.242 153.025 136.242C150.324 136.242 148.134 138.431 148.134 141.133C148.134 143.834 150.324 146.024 153.025 146.024Z" fill="white"/>
<path d="M160.741 106.887L153.026 141.133L131.635 155.33" stroke="white" stroke-width="4" stroke-miterlimit="10" stroke-linecap="round"/>
<path d="M153.026 141.133L127.355 121.929" stroke="white" stroke-miterlimit="10" stroke-linecap="round"/>
<path d="M141.45 36.9216L139.406 47.075L124.127 49.8216L124.631 53.5107H145.963L149.63 37.5303L141.45 36.9216Z" fill="#7A5148"/>
<path opacity="0.5" d="M146.525 37.299L143.774 53.5107H145.963L149.63 37.5303L146.525 37.299Z" fill="#7A5148"/>
<path d="M178.854 36.5442L176.809 27.0466C176.26 24.4965 174.329 22.4694 171.808 21.7985L159.193 18.4404L157.042 10.9805L154.638 11.7449L154.139 18.446L143.958 23.9656C142.831 24.5765 142.048 25.6724 141.835 26.9362L140.17 36.8258L143.715 37.0896C143.803 37.8965 144.126 38.7129 144.825 39.5501C147.551 42.8248 148.303 50.5266 148.303 50.5266L169.313 47.3191L168.376 37.1865L176.481 36.6646L178.854 36.5442Z" fill="#86BAF5"/>
<path d="M146.952 40.5049C146.952 40.5049 156.464 39.7349 162.183 40.5049C162.183 40.5049 153.7 47.6601 146.952 40.5049Z" fill="#86BAF5"/>
<path d="M168.189 35.1784L166.794 47.7044L169.312 47.3197L168.189 35.1784Z" fill="#86BAF5"/>
<path d="M146.524 22.5735C146.524 22.5735 153.98 26.7414 167.864 20.7486L159.192 18.4404L157.041 10.9805L154.637 11.7449L154.138 18.446L146.524 22.5735Z" fill="#966358"/>
<path opacity="0.5" d="M154.139 18.446C154.139 18.446 157.348 17.6704 157.789 13.5726L157.042 10.9805L154.638 11.7449L154.139 18.446Z" fill="#966358"/>
<path d="M152.506 17.8054C149.589 18.157 146.94 16.0773 146.589 13.1604L146.12 9.26865C145.768 6.35178 147.848 3.70201 150.765 3.35091C153.682 2.99925 156.331 5.07897 156.683 7.99585L157.151 11.8876C157.503 14.8045 155.424 17.4537 152.506 17.8054Z" fill="#966358"/>
<path d="M153.829 53.9306H109.309C108.494 53.9306 107.833 53.2699 107.833 52.4546V51.7468H153.83V53.9306H153.829Z" fill="#7B92AD"/>
<path d="M177.139 36.701L168.376 37.187L169.313 47.3197L148.303 50.5272L148.427 53.9301H174.061C176.324 53.9301 178.115 52.02 177.972 49.7623L177.139 36.701Z" fill="#966358"/>
<path d="M148.302 50.5271L142.089 48.7156L134.514 50.7578V51.7462H142.682C142.682 51.7462 143.498 53.4138 148.427 53.9306L148.302 50.5271Z" fill="#966358"/>
<path d="M138.137 51.7462H107.833L104.79 34.3782C104.703 33.8843 105.083 33.4319 105.584 33.4319H134.25C134.642 33.4319 134.977 33.7135 135.045 34.0993L138.137 51.7462Z" fill="#94B0D1"/>
<path d="M146.833 28.2275C146.95 29.6644 146.501 31.1203 145.763 32.3741C145.583 32.6899 145.363 32.9956 145.172 33.2762C144.981 33.5657 144.806 33.8647 144.655 34.1744C144.347 34.7948 144.109 35.4365 144.068 36.1029C143.939 37.4592 144.532 38.7516 145.332 39.9185C146.082 41.1493 146.681 42.4893 146.951 43.8982C146.698 43.2291 146.421 42.5761 146.076 41.9574C145.75 41.3302 145.377 40.7299 144.971 40.1537C144.774 39.8681 144.543 39.591 144.354 39.2634C144.164 38.9419 144.001 38.6233 143.856 38.2739C143.579 37.5767 143.455 36.8146 143.51 36.0587C143.636 34.5148 144.56 33.2331 145.401 32.1445C145.796 31.5711 146.117 30.9456 146.361 30.2882C146.611 29.6325 146.781 28.9403 146.833 28.2275Z" fill="#23262B"/>
<path d="M167.835 31.3371C168.073 32.6586 168.25 33.9852 168.418 35.3128C168.592 36.64 168.723 37.971 168.852 39.3026C168.969 40.6353 169.085 41.9675 169.158 43.3042L169.265 45.3094C169.28 45.9797 169.314 46.6483 169.313 47.3197C169.188 46.6595 169.099 45.9959 168.991 45.3346L168.729 43.3439C168.555 42.0168 168.425 40.6852 168.295 39.3541C168.179 38.0214 168.063 36.6892 167.991 35.3526C167.912 34.0165 167.843 32.6793 167.835 31.3371Z" fill="#23262B"/>
<path d="M122.657 53.9306H160.097L160.716 60.6071C160.716 60.6071 161.498 65.0376 154.239 65.0376C146.98 65.0376 129.664 65.0376 129.664 65.0376L137.191 98.8603L130.558 101.568L117.758 60.6027C116.72 57.2944 119.191 53.9306 122.657 53.9306Z" fill="#112D4E"/>
<path d="M136.772 53.9306H174.213L174.831 60.6071C174.831 60.6071 175.613 65.0376 168.354 65.0376C161.095 65.0376 143.779 65.0376 143.779 65.0376L151.306 98.8603L144.673 101.568L131.873 60.6027C130.835 57.2944 133.306 53.9306 136.772 53.9306Z" fill="#183F6E"/>
<path d="M144.673 101.568L141.47 115.386L153.646 104.629C153.806 104.487 153.816 104.24 153.666 104.086L151.306 98.8603L144.673 101.568Z" fill="#183F6E"/>
<path d="M130.558 101.568L127.355 115.386L139.531 104.629C139.692 104.487 139.701 104.24 139.552 104.086L137.191 98.8603L130.558 101.568Z" fill="#112D4E"/>
<path d="M149.63 6.22413C149.63 6.22413 151.242 10.3343 157.042 10.9805L159.193 18.4404L166.702 20.4389C166.702 20.4389 167.835 14.9199 162.183 12.6145C162.183 12.6145 164.57 7.67333 160.741 5.56561C160.741 5.56561 158.255 -3.1307 148.427 1.21745C148.427 1.21745 142.946 0.690522 142.419 7.67333C141.893 14.6567 145.845 15.1836 145.845 15.1836C145.845 15.1836 144.372 18.9864 148.303 21.6098L154.139 18.4454L154.225 17.2885C154.225 17.2885 148.915 20.2278 146.59 13.1599C146.59 13.1599 146.432 9.91321 149.63 6.22413Z" fill="#361F1A"/>
<path d="M151.305 98.8597L149.629 91.3265C146.167 93.6856 142.243 93.7931 142.243 93.7931L144.672 101.567C144.672 101.567 147.016 102.098 151.305 98.8597Z" fill="#966358"/>
<path d="M130.558 101.568L128.129 93.7937C128.129 93.7937 132.036 93.554 135.514 91.327L137.191 98.8603C137.191 98.8603 133.986 101.777 130.558 101.568Z" fill="#7A5148"/>
<path d="M55.4835 35.7882H17.208V87.5125H55.4835V35.7882Z" fill="#B6BBC7"/>
<path d="M52.3627 39.026H20.3291V84.2753H52.3627V39.026Z" fill="white"/>
<path d="M49.0357 42.3197H23.6562V80.981H49.0357V42.3197Z" fill="#DBE2EF"/>
<path d="M106.253 66.1021H68.1748V87.5125H106.253V66.1021Z" fill="#B6BBC7"/>
<path d="M104.194 68.0127H70.2334V85.6024H104.194V68.0127Z" fill="white"/>
<path d="M102.299 69.9558H72.127V83.6588H102.299V69.9558Z" fill="#DBE2EF"/>
<path d="M88.0383 41.4136V36.2754H85.1141C84.8985 35.4892 84.59 34.7427 84.1946 34.0495L86.2604 31.9838L82.6267 28.3501L80.561 30.4159C79.8678 30.0205 79.1213 29.712 78.3351 29.4964V26.5722H73.1963V29.4964C72.4101 29.712 71.6637 30.0205 70.9704 30.4159L68.9047 28.3501L65.2711 31.9838L67.3368 34.0495C66.9414 34.7427 66.6329 35.4892 66.4173 36.2754H63.4932V41.4136H66.4173C66.6329 42.1998 66.9414 42.9463 67.3368 43.6395L65.2711 45.7052L68.9047 49.3389L70.9704 47.2732C71.6637 47.6685 72.4101 47.977 73.1963 48.1926V51.1168H78.3351V48.1926C79.1213 47.977 79.8678 47.6685 80.561 47.2732L82.6267 49.3389L86.2604 45.7052L84.1946 43.6395C84.59 42.9463 84.8985 42.1998 85.1141 41.4136H88.0383ZM75.7654 43.6423C73.1157 43.6423 70.9676 41.4943 70.9676 38.8445C70.9676 36.1947 73.1157 34.0467 75.7654 34.0467C78.4152 34.0467 80.5632 36.1947 80.5632 38.8445C80.5632 41.4943 78.4152 43.6423 75.7654 43.6423Z" fill="#DBE2EF"/>
<path d="M97.249 55.1043L98.108 52.4389L96.5911 51.95C96.6107 51.506 96.5754 51.0675 96.4858 50.6419L97.9025 49.9156L96.6252 47.4238L95.2085 48.1501C94.9151 47.8292 94.5797 47.5442 94.2078 47.3012L94.6967 45.7842L92.0312 44.9252L91.5424 46.4422C91.0983 46.4226 90.6599 46.4578 90.2343 46.5469L89.508 45.1302L87.0162 46.4074L87.7424 47.8242C87.4216 48.1176 87.1365 48.453 86.8935 48.8248L85.3766 48.336L84.5176 51.0014L86.0345 51.4903C86.0149 51.9343 86.0502 52.3728 86.1392 52.7984L84.7225 53.5246L85.9998 56.0165L87.4165 55.2902C87.71 55.6111 88.0454 55.8961 88.4178 56.1391L87.9289 57.6561L90.5944 58.5151L91.0832 56.9981C91.5273 57.0177 91.9657 56.9824 92.3913 56.8934L93.1176 58.3101L95.6094 57.0328L94.8832 55.6161C95.204 55.3227 95.4885 54.9873 95.7321 54.6149L97.249 55.1043ZM90.5109 54.2095C89.1362 53.7665 88.3814 52.2933 88.8243 50.9191C89.2672 49.5449 90.7405 48.7895 92.1147 49.2325C93.4888 49.6754 94.2442 51.1487 93.8013 52.5229C93.3589 53.897 91.8856 54.6524 90.5109 54.2095Z" fill="#DBE2EF"/>
<path d="M217.751 62.9545H187.974V79.8163H217.751V62.9545Z" fill="#B6BBC7"/>
<path d="M187.974 79.8163L202.863 68.5279L217.751 79.8163H187.974Z" fill="#CAD2E3"/>
<path d="M187.974 62.9545L202.863 74.1018L217.751 62.9545H187.974Z" fill="#DBE2EF"/>
<path d="M211.575 30.7541H194.068C192.539 30.7541 191.301 31.9928 191.301 33.5209V42.1596C191.301 43.6877 192.539 44.9264 194.068 44.9264H196.044L194.331 49.106L200.26 44.9264H211.575C213.103 44.9264 214.342 43.6877 214.342 42.1596V33.5209C214.342 31.9928 213.103 30.7541 211.575 30.7541Z" fill="#DBE2EF"/>
<path d="M199.147 39.7047C199.147 40.1162 198.813 40.45 198.402 40.45C197.99 40.45 197.656 40.1162 197.656 39.7047C197.656 39.2931 197.99 38.9594 198.402 38.9594C198.813 38.9594 199.147 39.2931 199.147 39.7047Z" fill="#112D4E"/>
<path d="M203.566 39.7047C203.566 40.1162 203.232 40.45 202.821 40.45C202.409 40.45 202.075 40.1162 202.075 39.7047C202.075 39.2931 202.409 38.9594 202.821 38.9594C203.233 38.9594 203.566 39.2931 203.566 39.7047Z" fill="#112D4E"/>
<path d="M207.985 39.7047C207.985 40.1162 207.651 40.45 207.239 40.45C206.828 40.45 206.494 40.1162 206.494 39.7047C206.494 39.2931 206.828 38.9594 207.239 38.9594C207.651 38.9594 207.985 39.2931 207.985 39.7047Z" fill="#112D4E"/>
<path d="M100.649 22.9442H98.3294V20.6243H96.2491V22.9442H93.9297V25.0245H96.2491V27.3439H98.3294V25.0245H100.649V22.9442Z" fill="#DBE2EF"/>
<path d="M213.96 91.6613H211.64V89.3414H209.56V91.6613H207.24V93.7416H209.56V96.0616H211.64V93.7416H213.96V91.6613Z" fill="#DBE2EF"/>
<path d="M190.421 14.3896H188.101V12.0702H186.021V14.3896H183.701V16.4704H186.021V18.7898H188.101V16.4704H190.421V14.3896Z" fill="#DBE2EF"/>
<path d="M66.8534 57.4758H64.534V55.1559H62.4532V57.4758H60.1338V59.5561H62.4532V61.8761H64.534V59.5561H66.8534V57.4758Z" fill="#DBE2EF"/>
<path d="M122.582 42.9564C122.828 44.2494 122.116 45.4706 120.99 45.6851C119.865 45.8996 118.753 45.0249 118.508 43.7319C118.262 42.439 118.974 41.2177 120.099 41.0032C121.224 40.7893 122.336 41.6634 122.582 42.9564Z" fill="#7B92AD"/>
<path d="M206.956 182.204C206.956 182.204 210.315 162.934 201.388 146.379" stroke="#B6BBC7" stroke-miterlimit="10"/>
<path d="M207.574 173.282C207.574 173.282 208.649 165.566 217.976 158.902" stroke="#B6BBC7" stroke-miterlimit="10"/>
<path d="M207.54 175.462C207.54 175.462 204.422 168.689 198.186 164.873" stroke="#B6BBC7" stroke-miterlimit="10"/>
<path d="M203.545 169.5C203.545 169.5 203.508 164.114 197.374 159.131C191.829 154.629 187.065 150.634 187.065 150.634C187.065 150.634 186.429 174.766 203.545 169.5Z" fill="#DBE2EF"/>
<path d="M206.177 159.661C206.177 159.661 194.318 155.007 195.413 142.752C196.508 130.497 194.578 129.555 194.578 129.555C194.578 129.555 214.549 141.661 206.177 159.661Z" fill="#DBE2EF"/>
<path d="M212.408 163.97C212.408 163.97 212.574 155.015 217.972 151.571C223.37 148.126 226.103 141.32 226.103 141.32C226.103 141.32 233.055 162.656 212.408 163.97Z" fill="#DBE2EF"/>
<path d="M216.862 177.169H197.428V202.449H216.862V177.169Z" fill="#DBE2EF"/>
<path d="M218.163 174.599H196.127V177.169H218.163V174.599Z" fill="#DBE2EF"/>
<path d="M197.428 177.169C197.428 177.169 199.602 196.998 216.862 202.449H197.428V177.169Z" fill="#DBE2EF"/>
<path opacity="0.3" d="M6.77441 124.169C6.77441 124.169 13.3949 191.267 104.193 202.449H6.77441V124.169Z" fill="#5B718C"/>
</svg>
