<svg width="246" height="246" viewBox="0 0 246 246" fill="none" xmlns="http://www.w3.org/2000/svg">
<path d="M246 188.14H0V188.263H246V188.14Z" fill="#EBEBEB"/>
<path d="M218.393 192.826H202.097V192.949H218.393V192.826Z" fill="#EBEBEB"/>
<path d="M89.2157 194.491H64.6836V194.614H89.2157V194.491Z" fill="#EBEBEB"/>
<path d="M201.605 197.394H187.079V197.517H201.605V197.394Z" fill="#EBEBEB"/>
<path d="M36.4358 196.568H25.8101V196.691H36.4358V196.568Z" fill="#EBEBEB"/>
<path d="M59.6959 196.568H40.8159V196.691H59.6959V196.568Z" fill="#EBEBEB"/>
<path d="M162.96 191.49H116.872V191.613H162.96V191.49Z" fill="#EBEBEB"/>
<path d="M116.611 166.198H21.6062C20.0579 166.198 18.7979 164.938 18.7979 163.389V29.8447C18.7979 28.2964 20.0579 27.0364 21.6062 27.0364H116.611C118.159 27.0364 119.419 28.2964 119.419 29.8447V163.389C119.419 164.938 118.159 166.198 116.611 166.198ZM21.6062 27.1599C20.1253 27.1599 18.9209 28.3643 18.9209 29.8452V163.39C18.9209 164.871 20.1253 166.075 21.6062 166.075H116.611C118.091 166.075 119.296 164.871 119.296 163.39V29.8447C119.296 28.3643 118.091 27.1594 116.611 27.1594L21.6062 27.1599Z" fill="#EBEBEB"/>
<path d="M223.028 166.198H128.024C126.476 166.198 125.216 164.938 125.216 163.389V29.8447C125.216 28.2964 126.476 27.0364 128.024 27.0364H223.028C224.577 27.0364 225.837 28.2964 225.837 29.8447V163.389C225.837 164.938 224.577 166.198 223.028 166.198ZM128.024 27.1599C126.544 27.1599 125.339 28.3643 125.339 29.8452V163.39C125.339 164.871 126.544 166.075 128.024 166.075H223.028C224.509 166.075 225.714 164.871 225.714 163.39V29.8447C225.714 28.3643 224.509 27.1594 223.028 27.1594L128.024 27.1599Z" fill="#EBEBEB"/>
<path d="M107.4 36.7361H35.7607V188.14H107.4V36.7361Z" fill="#E6E6E6"/>
<path d="M108.993 36.7361H37.353V188.14H108.993V36.7361Z" fill="#F5F5F5"/>
<path d="M106.135 184.93L106.135 39.9462L40.2107 39.9462L40.2107 184.93H106.135Z" fill="#FAFAFA"/>
<path d="M55.3936 184.93L72.0935 39.946H90.9519L74.2514 184.93H55.3936Z" fill="white"/>
<path d="M106.134 184.93L106.134 39.9462H104.931L104.931 184.93H106.134Z" fill="#E6E6E6"/>
<path d="M107.81 52.5038H38.5347V56.8132H107.81V52.5038Z" fill="#F5F5F5"/>
<path d="M217.255 188.14V118.195H189.683V188.14H217.255Z" fill="#F0F0F0"/>
<path d="M215.742 135.664V120.238H191.197V135.664H215.742Z" fill="#F5F5F5"/>
<path d="M198.037 120.033H208.902C208.902 120.917 208.186 121.633 207.302 121.633H199.636C198.752 121.633 198.037 120.917 198.037 120.033Z" fill="#E6E6E6"/>
<path d="M215.742 152.476V137.049H191.197V152.476H215.742Z" fill="#F5F5F5"/>
<path d="M215.742 169.287V153.86H191.197V169.287H215.742Z" fill="#F5F5F5"/>
<path d="M215.742 186.098V170.671H191.197V186.098H215.742Z" fill="#F5F5F5"/>
<path d="M198.037 136.844H208.902C208.902 137.728 208.186 138.444 207.302 138.444H199.636C198.752 138.444 198.037 137.728 198.037 136.844Z" fill="#E6E6E6"/>
<path d="M198.037 153.656H208.902C208.902 154.539 208.186 155.255 207.302 155.255H199.636C198.752 155.255 198.037 154.539 198.037 153.656Z" fill="#E6E6E6"/>
<path d="M198.037 170.467H208.902C208.902 171.351 208.186 172.067 207.302 172.067H199.636C198.752 172.067 198.037 171.35 198.037 170.467Z" fill="#E6E6E6"/>
<path d="M189.683 188.14V118.195H175.912V188.14H189.683Z" fill="#F5F5F5"/>
<path d="M187.194 188.14V118.195H159.621V188.14H187.194Z" fill="#F0F0F0"/>
<path d="M185.681 135.664V120.237H161.135V135.664H185.681Z" fill="#F5F5F5"/>
<path d="M167.975 120.033H178.84C178.84 120.917 178.124 121.633 177.241 121.633H169.575C168.691 121.633 167.975 120.917 167.975 120.033Z" fill="#E6E6E6"/>
<path d="M185.681 152.475V137.048H161.135V152.475H185.681Z" fill="#F5F5F5"/>
<path d="M185.681 169.287V153.86H161.135V169.287H185.681Z" fill="#F5F5F5"/>
<path d="M185.681 186.098V170.671H161.135V186.098H185.681Z" fill="#F5F5F5"/>
<path d="M167.975 136.844H178.84C178.84 137.728 178.124 138.444 177.241 138.444H169.575C168.691 138.444 167.975 137.728 167.975 136.844Z" fill="#E6E6E6"/>
<path d="M167.975 153.656H178.84C178.84 154.539 178.124 155.255 177.241 155.255H169.575C168.691 155.255 167.975 154.539 167.975 153.656Z" fill="#E6E6E6"/>
<path d="M167.975 170.467H178.84C178.84 171.351 178.124 172.067 177.241 172.067H169.575C168.691 172.067 167.975 171.35 167.975 170.467Z" fill="#E6E6E6"/>
<path d="M159.622 188.14V118.195H145.85V188.14H159.622Z" fill="#F5F5F5"/>
<path d="M161.382 118.195H171.636V100.411H161.382V118.195Z" fill="#E0E0E0"/>
<path d="M203.834 118.195H164.726L158.903 89.4121H198.011L203.834 118.195Z" fill="#E6E6E6"/>
<path d="M208.298 118.195H165.723L159.899 89.4121H202.475L208.298 118.195Z" fill="#F0F0F0"/>
<path d="M168.831 115.927L163.925 91.6807H199.367L204.273 115.927H168.831Z" fill="white"/>
<path d="M178.776 115.926L184.875 91.6802H189.423L183.324 115.926H178.776Z" fill="#F5F5F5"/>
<path d="M185.106 115.926L191.205 91.6802H195.753L189.654 115.926H185.106Z" fill="#F5F5F5"/>
<path d="M144.685 73.557H147.037L155.104 69.7263H145.47L144.685 73.557Z" fill="#E6E6E6"/>
<path d="M146.049 73.557H148.401L156.468 69.7263H154.111L146.049 73.557Z" fill="#F5F5F5"/>
<path d="M201.787 73.557H204.138L212.206 69.7263H202.572L201.787 73.557Z" fill="#E6E6E6"/>
<path d="M203.151 73.557H205.503L213.57 69.7263H211.213L203.151 73.557Z" fill="#F5F5F5"/>
<path d="M138.865 69.7261H154.559V67.2336H138.865V69.7261Z" fill="#E6E6E6"/>
<path d="M219.516 67.2338H154.559V69.7262H219.516V67.2338Z" fill="#F5F5F5"/>
<path d="M190.897 67.2335H211.533V57.4215H190.897V67.2335Z" fill="#F0F0F0"/>
<path d="M190.897 57.4216H212.206V54.7934H190.897V57.4216Z" fill="#F0F0F0"/>
<path d="M190.897 54.7937H184.57V57.422H190.897V54.7937Z" fill="#EBEBEB"/>
<path d="M190.897 57.4218H185.122V67.2338H190.897V57.4218Z" fill="#EBEBEB"/>
<path opacity="0.7" d="M185.122 58.2327H211.533V57.4214H185.122V58.2327Z" fill="#E0E0E0"/>
<path d="M155.622 67.2335H188.197V51.5013H155.622V67.2335Z" fill="#F0F0F0"/>
<path d="M155.623 51.5017L189.259 51.5017V49.8796L155.623 49.8796V51.5017Z" fill="#F0F0F0"/>
<path d="M155.622 49.879H145.635V51.5011H155.622V49.879Z" fill="#EBEBEB"/>
<path d="M155.623 51.5016H146.506V67.2338H155.623V51.5016Z" fill="#EBEBEB"/>
<path opacity="0.7" d="M146.506 52.4492L188.197 52.4492V51.5016L146.506 51.5016V52.4492Z" fill="#E0E0E0"/>
<path d="M123 210.36C175.684 210.36 218.393 207.866 218.393 204.789C218.393 201.712 175.684 199.218 123 199.218C70.3155 199.218 27.6064 201.712 27.6064 204.789C27.6064 207.866 70.3155 210.36 123 210.36Z" fill="#F5F5F5"/>
<path d="M69.2911 46.3666H126.033C128.56 46.3666 130.745 48.4345 130.889 50.9619L137.284 163.687C137.427 166.215 135.476 168.283 132.949 168.283H76.2077C73.6803 168.283 71.4948 166.215 71.3516 163.687L64.9566 50.9619C64.8135 48.4345 66.7637 46.3666 69.2911 46.3666Z" fill="white"/>
<path d="M64.905 87.267L64.6048 81.9726L65.1451 81.9416L65.4452 87.236L64.905 87.267ZM64.2846 76.3284L63.3955 60.6597L63.9357 60.6287L64.8248 76.2974L64.2846 76.3284Z" fill="#407BFF"/>
<path d="M132.961 168.499H76.2201C73.5667 168.499 71.2863 166.341 71.1358 163.687L64.7408 50.9618C64.5902 48.309 66.6261 46.1506 69.2794 46.1506H126.021C128.674 46.1506 130.955 48.309 131.105 50.9618L137.5 163.687C137.65 166.341 135.614 168.499 132.961 168.499ZM69.3036 46.583C66.8888 46.583 65.0359 48.5476 65.1727 50.9618L71.5677 163.687C71.705 166.102 73.7808 168.066 76.1955 168.066H132.937C135.352 168.066 137.204 166.102 137.068 163.687L130.673 50.9618C130.536 48.5471 128.46 46.583 126.045 46.583H69.3036Z" fill="#407BFF"/>
<path opacity="0.2" d="M73.1763 165.364C74.1317 165.364 74.8623 164.589 74.8082 163.634L68.4196 51.0159C68.3655 50.0605 67.5468 49.2861 66.5913 49.2861C65.6359 49.2861 64.9052 50.0605 64.9594 51.0159L71.348 163.634C71.4026 164.589 72.2208 165.364 73.1763 165.364Z" fill="#407BFF"/>
<path opacity="0.5" d="M103.006 54.5505H123.043C124.436 54.5505 125.63 55.6801 125.709 57.0735L126.845 77.1102C126.925 78.5035 125.859 79.6331 124.466 79.6331H104.429C103.035 79.6331 101.842 78.5035 101.763 77.1102L100.626 57.0735C100.547 55.6796 101.613 54.5505 103.006 54.5505Z" fill="#407BFF"/>
<path opacity="0.4" d="M89.8776 55.2471H95.2119C96.6052 55.2471 97.7988 56.3768 97.878 57.7701L98.1806 63.1044C98.2598 64.4977 97.1941 65.6274 95.8008 65.6274H90.4665C89.0732 65.6274 87.8796 64.4977 87.8004 63.1044L87.4978 57.7701C87.4186 56.3768 88.4843 55.2471 89.8776 55.2471Z" fill="#407BFF"/>
<path opacity="0.2" d="M76.7091 55.2471H82.0434C83.4368 55.2471 84.6303 56.3768 84.7096 57.7701L85.0121 63.1044C85.0913 64.4977 84.0257 65.6274 82.6323 65.6274H77.2981C75.9047 65.6274 74.7111 64.4977 74.6319 63.1044L74.3293 57.7701C74.2501 56.3768 75.3158 55.2471 76.7091 55.2471Z" fill="#407BFF"/>
<path opacity="0.4" d="M90.6324 68.5562H95.9667C97.36 68.5562 98.5536 69.6858 98.6329 71.0792L98.9354 76.4135C99.0146 77.8068 97.949 78.9364 96.5556 78.9364H91.2214C89.828 78.9364 88.6344 77.8068 88.5552 76.4135L88.2526 71.0792C88.1739 69.6854 89.2391 68.5562 90.6324 68.5562Z" fill="#407BFF"/>
<path opacity="0.4" d="M77.464 68.5562H82.7982C84.1916 68.5562 85.3852 69.6858 85.4644 71.0792L85.767 76.4135C85.8462 77.8068 84.7805 78.9364 83.3872 78.9364H78.0529C76.6596 78.9364 75.466 77.8068 75.3868 76.4135L75.0842 71.0792C75.0055 69.6854 76.0706 68.5562 77.464 68.5562Z" fill="#407BFF"/>
<path d="M82.2615 77.1579H78.9774C78.0018 77.1579 77.1624 76.3643 77.1073 75.3882L76.9209 72.1036C76.8653 71.1275 77.6146 70.3339 78.5902 70.3339H81.8743C82.85 70.3339 83.6888 71.1275 83.7444 72.1036L83.9309 75.3882C83.986 76.3643 83.2372 77.1579 82.2615 77.1579ZM78.6143 70.7668C77.8768 70.7668 77.311 71.3666 77.3528 72.1041L77.5393 75.3887C77.5811 76.1257 78.2148 76.7259 78.9523 76.7259H82.2364C82.9739 76.7259 83.5397 76.1262 83.4979 75.3887L83.3115 72.1041C83.2696 71.3671 82.6359 70.7668 81.8984 70.7668H78.6143Z" fill="white"/>
<path opacity="0.5" d="M100.174 115.674H80.1369C78.7435 115.674 77.6779 116.804 77.7571 118.197L78.8936 138.234C78.9728 139.627 80.1664 140.757 81.5597 140.757H101.596C102.99 140.757 104.055 139.627 103.976 138.234L102.84 118.197C102.761 116.804 101.567 115.674 100.174 115.674Z" fill="#407BFF"/>
<path opacity="0.4" d="M113.382 116.371H108.048C106.654 116.371 105.589 117.501 105.668 118.894L105.97 124.229C106.05 125.622 107.243 126.751 108.636 126.751H113.971C115.364 126.751 116.43 125.622 116.351 124.229L116.048 118.894C115.969 117.501 114.775 116.371 113.382 116.371Z" fill="#407BFF"/>
<path opacity="0.4" d="M126.55 116.371H121.216C119.823 116.371 118.757 117.501 118.836 118.894L119.139 124.229C119.218 125.622 120.412 126.751 121.805 126.751H127.139C128.533 126.751 129.598 125.622 129.519 124.229L129.216 118.894C129.137 117.501 127.944 116.371 126.55 116.371Z" fill="#407BFF"/>
<path opacity="0.4" d="M114.137 129.68H108.802C107.409 129.68 106.343 130.81 106.423 132.203L106.725 137.538C106.804 138.931 107.998 140.061 109.391 140.061H114.726C116.119 140.061 117.185 138.931 117.105 137.538L116.803 132.203C116.724 130.809 115.53 129.68 114.137 129.68Z" fill="#407BFF"/>
<path opacity="0.4" d="M127.305 129.68H121.971C120.578 129.68 119.512 130.81 119.591 132.203L119.894 137.538C119.973 138.931 121.166 140.061 122.56 140.061H127.894C129.287 140.061 130.353 138.931 130.274 137.538L129.971 132.203C129.892 130.809 128.698 129.68 127.305 129.68Z" fill="#407BFF"/>
<path opacity="0.4" d="M114.744 149.407H109.41C108.016 149.407 106.951 150.536 107.03 151.93L107.333 157.264C107.412 158.657 108.605 159.787 109.999 159.787H115.333C116.726 159.787 117.792 158.657 117.713 157.264L117.41 151.93C117.331 150.536 116.137 149.407 114.744 149.407Z" fill="#407BFF"/>
<path opacity="0.4" d="M128.424 149.407H123.09C121.697 149.407 120.631 150.536 120.71 151.93L121.013 157.264C121.092 158.657 122.286 159.787 123.679 159.787H129.013C130.407 159.787 131.472 158.657 131.393 157.264L131.09 151.93C131.011 150.536 129.818 149.407 128.424 149.407Z" fill="#407BFF"/>
<path opacity="0.4" d="M87.3852 149.407H82.0509C80.6576 149.407 79.5919 150.536 79.6711 151.93L79.9737 157.264C80.0529 158.657 81.2465 159.787 82.6399 159.787H87.9741C89.3675 159.787 90.4331 158.657 90.3539 157.264L90.0509 151.93C89.9721 150.536 88.7786 149.407 87.3852 149.407Z" fill="#407BFF"/>
<path opacity="0.4" d="M101.064 149.407H95.7301C94.3368 149.407 93.2711 150.536 93.3503 151.93L93.6529 157.264C93.7321 158.657 94.9257 159.787 96.3191 159.787H101.653C103.047 159.787 104.112 158.657 104.033 157.264L103.731 151.93C103.651 150.536 102.458 149.407 101.064 149.407Z" fill="#407BFF"/>
<path opacity="0.2" d="M107.153 144.171C106.769 144.171 106.476 144.482 106.498 144.865C106.52 145.249 106.849 145.56 107.232 145.56C107.616 145.56 107.909 145.249 107.887 144.865C107.865 144.482 107.537 144.171 107.153 144.171Z" fill="#407BFF"/>
<path opacity="0.2" d="M111.579 144.171C111.196 144.171 110.902 144.482 110.924 144.865C110.946 145.249 111.274 145.56 111.658 145.56C112.041 145.56 112.335 145.249 112.313 144.865C112.291 144.482 111.962 144.171 111.579 144.171Z" fill="#407BFF"/>
<path opacity="0.2" d="M98.302 144.171C97.9183 144.171 97.625 144.482 97.6472 144.865C97.6688 145.249 97.9975 145.56 98.3812 145.56C98.765 145.56 99.0582 145.249 99.0361 144.865C99.0144 144.482 98.6858 144.171 98.302 144.171Z" fill="#407BFF"/>
<path opacity="0.4" d="M102.728 144.171C102.344 144.171 102.051 144.482 102.073 144.865C102.095 145.249 102.423 145.56 102.807 145.56C103.191 145.56 103.484 145.249 103.462 144.865C103.44 144.482 103.112 144.171 102.728 144.171Z" fill="#407BFF"/>
<path d="M78.8761 73.7458C78.9248 74.6019 79.6579 75.2956 80.514 75.2956C81.37 75.2956 82.0244 74.6019 81.9757 73.7458C81.927 72.8898 81.1939 72.196 80.3378 72.196C79.4817 72.196 78.8274 72.8903 78.8761 73.7458Z" fill="white"/>
<path d="M114.245 76.0661C109.297 76.0661 105.043 72.0401 104.762 67.0921C104.482 62.1435 108.279 58.1175 113.227 58.1175C118.176 58.1175 122.43 62.1435 122.711 67.0921C122.991 72.0401 119.193 76.0661 114.245 76.0661ZM113.252 58.55C108.541 58.55 104.927 62.3817 105.195 67.0921C105.462 71.802 109.511 75.6337 114.221 75.6337C118.931 75.6337 122.545 71.802 122.278 67.0921C122.011 62.3817 117.962 58.55 113.252 58.55Z" fill="white"/>
<path d="M113.749 67.308C113.717 67.308 113.686 67.3011 113.656 67.2874L110.448 65.8227C110.337 65.772 110.282 65.6431 110.327 65.5349C110.372 65.4266 110.499 65.3804 110.609 65.431L113.691 66.8377L117.301 63.7509C117.388 63.6756 117.526 63.6894 117.607 63.7819C117.688 63.8744 117.682 64.0106 117.593 64.0864L113.882 67.2593C113.845 67.2913 113.797 67.308 113.749 67.308Z" fill="white"/>
<path d="M94.458 63.2456C94.3434 63.2456 94.2268 63.2092 94.1225 63.1364L93.0243 62.3703C92.9771 62.3373 92.9171 62.3373 92.8733 62.3703L91.8627 63.1364C91.6708 63.282 91.4116 63.2815 91.203 63.1364C90.9943 62.9907 90.9004 62.7447 90.9633 62.5091L91.2959 61.2692C91.3102 61.2161 91.2881 61.1585 91.2408 61.126L90.1432 60.3595C89.9346 60.2139 89.8406 59.9679 89.9036 59.7322C89.9671 59.4965 90.1678 59.3445 90.4153 59.3445H91.7181C91.7742 59.3445 91.8214 59.3086 91.8357 59.256L92.1683 58.0161C92.2312 57.7804 92.432 57.6284 92.6794 57.6284C92.9269 57.6284 93.1454 57.7804 93.2359 58.0161L93.7087 59.256C93.7289 59.3091 93.7801 59.3445 93.8361 59.3445H95.1394C95.3869 59.3445 95.6044 59.4965 95.6949 59.7322C95.785 59.9679 95.7185 60.2139 95.5267 60.3595L94.5161 61.1256C94.4728 61.1585 94.457 61.2161 94.4772 61.2692L94.9505 62.5086C95.0406 62.7442 94.9741 62.9907 94.7823 63.1359C94.6858 63.2097 94.5727 63.2456 94.458 63.2456ZM90.4394 59.7775C90.3548 59.7775 90.3292 59.8395 90.3218 59.8665C90.3149 59.8931 90.3055 59.9605 90.3769 60.0102L91.4745 60.7762C91.6797 60.9194 91.7761 61.1713 91.7141 61.403L91.3816 62.6429C91.3599 62.7231 91.4125 62.7698 91.4367 62.7865C91.4603 62.8028 91.5233 62.8362 91.5877 62.7865L92.5983 62.0205C92.7877 61.8768 93.0529 61.8768 93.258 62.0205L94.3562 62.7865C94.428 62.8362 94.4861 62.8033 94.5072 62.7865C94.5289 62.7703 94.5766 62.7231 94.5461 62.6429L94.0728 61.4035C93.9842 61.1713 94.0521 60.9194 94.2411 60.7762L95.2516 60.0102C95.3171 59.9605 95.3003 59.8931 95.2905 59.866C95.2802 59.8395 95.2477 59.7775 95.1636 59.7775H93.8602C93.6162 59.7775 93.3929 59.6215 93.3043 59.3898L92.8315 58.1499C92.801 58.0697 92.7321 58.0614 92.7041 58.0614C92.676 58.0614 92.6081 58.0702 92.587 58.1499L92.2544 59.3898C92.1924 59.6215 91.9867 59.7775 91.7427 59.7775H90.4394Z" fill="white"/>
<path d="M81.2451 63.5703H78.2006C77.7809 63.5703 77.4198 63.2308 77.3962 62.8136L77.223 59.7642C77.2161 59.6446 77.3076 59.5482 77.4272 59.5482H78.2838C78.701 59.5482 79.0213 59.2087 78.9977 58.7915L78.949 57.9349C78.9421 57.8154 79.0336 57.7189 79.1531 57.7189H80.913C81.3302 57.7189 81.6894 58.0584 81.713 58.4756L81.959 62.8136C81.9831 63.2308 81.6623 63.5703 81.2451 63.5703ZM77.6683 59.9807L77.8292 62.8136C77.8395 62.9927 77.995 63.1378 78.1765 63.1378H81.221C81.3996 63.1378 81.5374 62.9922 81.527 62.8136L81.281 58.4756C81.2707 58.2965 81.1167 58.1514 80.9381 58.1514H79.3942L79.4306 58.7915C79.468 59.4473 78.9647 59.9811 78.3089 59.9811L77.6683 59.9807Z" fill="white"/>
<path d="M95.821 75.9146H91.6135C91.3793 75.9146 91.1776 75.7237 91.1643 75.4895C91.1579 75.3768 91.1958 75.2705 91.271 75.1898L91.5411 74.9035L91.4772 73.7808C91.4117 72.628 92.2727 71.6578 93.3965 71.6179C93.9731 71.5909 94.5384 71.8073 94.9783 72.2103C95.4186 72.6132 95.6794 73.1549 95.7123 73.7355L95.7787 74.9065L96.0803 75.1889C96.165 75.2691 96.2156 75.3758 96.222 75.4895C96.2353 75.7242 96.0552 75.9146 95.821 75.9146ZM93.4983 72.0494C93.4777 72.0494 93.457 72.0499 93.4363 72.0504C92.5424 72.0824 91.8575 72.8588 91.9096 73.7813L91.9736 74.9065C91.98 75.0196 91.9421 75.1264 91.8668 75.2066L91.5948 75.4949L95.7964 75.4821L95.488 75.2071C95.4033 75.1274 95.3527 75.0206 95.3463 74.9065L95.2799 73.7355C95.2538 73.2735 95.0461 72.8425 94.6958 72.5217C94.3608 72.2157 93.9377 72.0494 93.4983 72.0494Z" fill="white"/>
<path d="M93.1069 70.874C93.1173 71.0526 93.2703 71.1978 93.4489 71.1978C93.628 71.1978 93.7643 71.0526 93.7544 70.874C93.7441 70.6954 93.5911 70.5503 93.4125 70.5503C93.2339 70.5503 93.0971 70.6954 93.1069 70.874Z" fill="white"/>
<path d="M94.1686 76.3131C94.2852 76.3131 94.3758 76.4302 94.3399 76.5389C94.2626 76.7746 94.0432 76.9414 93.776 76.9414C93.5084 76.9414 93.2707 76.7741 93.1664 76.5389C93.1182 76.4302 93.1955 76.3131 93.3121 76.3131H94.1686Z" fill="white"/>
<path d="M108.461 124.491C108.392 124.491 108.324 124.458 108.28 124.401C108.224 124.328 108.217 124.231 108.262 124.156C108.264 124.152 108.496 123.763 108.705 123.24C108.329 122.745 108.113 122.167 108.079 121.561C107.987 119.946 109.227 118.631 110.843 118.631C112.459 118.631 113.848 119.946 113.939 121.561C114.031 123.177 112.791 124.492 111.176 124.492C110.62 124.492 110.074 124.336 109.588 124.04C109.055 124.342 108.538 124.479 108.515 124.485C108.497 124.489 108.479 124.491 108.461 124.491ZM109.57 123.569C109.614 123.569 109.658 123.582 109.696 123.608C110.135 123.903 110.638 124.059 111.151 124.059C112.527 124.059 113.584 122.938 113.506 121.561C113.428 120.184 112.244 119.063 110.867 119.063C109.49 119.063 108.433 120.184 108.511 121.561C108.542 122.114 108.752 122.64 109.116 123.081C109.167 123.144 109.183 123.227 109.155 123.299C109.073 123.517 108.986 123.714 108.907 123.881C109.077 123.809 109.272 123.715 109.461 123.599C109.495 123.579 109.532 123.569 109.57 123.569Z" fill="white"/>
<path d="M92.1758 134.083H89.9038C88.8224 134.083 87.7813 133.455 87.2514 132.483C87.0723 132.154 86.8199 131.865 86.5011 131.622C84.7235 130.27 83.6337 128.251 83.5107 126.082C83.4005 124.138 84.107 122.259 85.4492 120.926C86.8101 119.575 88.6526 118.899 90.6373 119.022C94.2762 119.247 97.3566 122.272 97.6498 125.91C97.8299 128.142 96.9768 130.222 95.3094 131.615C95.0107 131.865 94.7883 132.157 94.6471 132.483C94.2275 133.455 93.2577 134.083 92.1758 134.083ZM90.2034 119.416C88.4986 119.416 86.9291 120.049 85.7459 121.224C84.4627 122.498 83.8143 124.224 83.9196 126.083C84.0357 128.127 85.0625 130.029 86.7373 131.303C87.1063 131.584 87.3995 131.92 87.6076 132.302C88.0627 133.137 88.9542 133.674 89.8806 133.674H92.1527C93.0791 133.674 93.9101 133.137 94.2698 132.304C94.4346 131.922 94.6924 131.583 95.0363 131.296C96.6078 129.982 97.4112 128.023 97.2419 125.92C96.9654 122.493 94.0636 119.642 90.6354 119.43C90.4902 119.421 90.3461 119.416 90.2034 119.416Z" fill="white"/>
<path d="M92.8362 137.49H89.6308C89.092 137.49 88.6286 137.052 88.5981 136.513L88.5592 135.824C88.5287 135.285 88.942 134.846 89.4812 134.846H92.6866C93.2253 134.846 93.6893 135.285 93.7198 135.824L93.7587 136.513C93.7887 137.052 93.3749 137.49 92.8362 137.49ZM89.5038 135.255C89.1904 135.255 88.9499 135.51 88.9676 135.824L89.0064 136.513C89.0241 136.826 89.2938 137.082 89.6072 137.082H92.8125C93.1264 137.082 93.367 136.827 93.3493 136.513L93.3104 135.824C93.2927 135.511 93.0231 135.255 92.7092 135.255H89.5038Z" fill="white"/>
<path d="M114.754 137.758H109.101C108.694 137.758 108.344 137.426 108.32 137.019L108.076 132.721C108.053 132.314 108.366 131.982 108.773 131.982H114.426C114.833 131.982 115.183 132.314 115.206 132.721L115.45 137.019C115.474 137.426 115.162 137.758 114.754 137.758ZM108.798 132.414C108.629 132.414 108.5 132.552 108.509 132.721L108.753 137.019C108.763 137.188 108.908 137.326 109.077 137.326H114.73C114.898 137.326 115.028 137.188 115.019 137.019L114.775 132.721C114.766 132.552 114.62 132.414 114.451 132.414H108.798Z" fill="white"/>
<path d="M115.046 133.698H108.348C108.228 133.698 108.126 133.601 108.12 133.481C108.113 133.362 108.204 133.265 108.324 133.265H115.022C115.141 133.265 115.244 133.362 115.25 133.481C115.257 133.601 115.166 133.698 115.046 133.698Z" fill="white"/>
<path d="M109.444 135.195H110.135C110.239 135.195 110.319 135.111 110.313 135.006L110.295 134.698C110.289 134.594 110.2 134.509 110.095 134.509H109.404C109.3 134.509 109.22 134.594 109.226 134.698L109.244 135.006C109.25 135.111 109.34 135.195 109.444 135.195Z" fill="white"/>
<path d="M111.437 135.195H112.127C112.232 135.195 112.311 135.111 112.305 135.006L112.288 134.698C112.282 134.594 112.192 134.509 112.088 134.509H111.397C111.293 134.509 111.213 134.594 111.219 134.698L111.236 135.006C111.243 135.111 111.332 135.195 111.437 135.195Z" fill="white"/>
<path d="M113.43 135.195H114.12C114.225 135.195 114.304 135.111 114.299 135.006L114.281 134.698C114.275 134.594 114.185 134.509 114.081 134.509H113.39C113.286 134.509 113.206 134.594 113.212 134.698L113.229 135.006C113.236 135.111 113.325 135.195 113.43 135.195Z" fill="white"/>
<path d="M109.524 136.611H110.215C110.319 136.611 110.399 136.527 110.393 136.422L110.375 136.114C110.369 136.01 110.28 135.925 110.175 135.925H109.485C109.38 135.925 109.301 136.01 109.306 136.114L109.324 136.422C109.331 136.527 109.42 136.611 109.524 136.611Z" fill="white"/>
<path d="M111.517 136.611H112.208C112.312 136.611 112.392 136.527 112.386 136.422L112.368 136.114C112.362 136.01 112.273 135.925 112.168 135.925H111.478C111.373 135.925 111.294 136.01 111.3 136.114L111.317 136.422C111.324 136.527 111.413 136.611 111.517 136.611Z" fill="white"/>
<path d="M113.511 136.611H114.202C114.306 136.611 114.386 136.527 114.38 136.422L114.362 136.114C114.356 136.01 114.266 135.925 114.162 135.925H113.471C113.367 135.925 113.287 136.01 113.293 136.114L113.311 136.422C113.317 136.527 113.406 136.611 113.511 136.611Z" fill="white"/>
<path d="M124.741 125.201H123.786C123.48 125.201 123.216 124.952 123.199 124.646L123.156 123.883C123.139 123.577 123.373 123.328 123.679 123.328H124.635C124.941 123.328 125.204 123.577 125.221 123.883L125.265 124.646C125.282 124.952 125.047 125.201 124.741 125.201ZM123.704 123.761C123.637 123.761 123.584 123.816 123.588 123.883L123.632 124.646C123.636 124.714 123.694 124.769 123.761 124.769H124.716C124.784 124.769 124.836 124.714 124.832 124.646L124.789 123.883C124.785 123.816 124.727 123.761 124.659 123.761H123.704ZM124.887 122.799H123.363C123.243 122.799 123.141 122.702 123.135 122.583L123.126 122.43C123.11 122.142 123.13 121.911 123.187 121.724C123.244 121.538 123.337 121.366 123.461 121.213C123.578 121.07 123.828 120.831 124.229 120.482C124.448 120.296 124.46 120.191 124.458 120.163C124.451 120.036 124.402 119.992 124.385 119.978C124.326 119.925 124.216 119.914 124.134 119.914C124.002 119.914 123.903 119.954 123.824 120.038C123.766 120.1 123.694 120.242 123.677 120.568C123.674 120.626 123.648 120.678 123.604 120.714C123.561 120.75 123.505 120.766 123.446 120.758L121.879 120.566C121.762 120.552 121.672 120.448 121.676 120.331C121.7 119.709 121.902 119.198 122.28 118.814C122.66 118.426 123.261 118.23 124.064 118.23C124.688 118.23 125.211 118.365 125.62 118.633C126.188 119.002 126.494 119.505 126.53 120.127C126.545 120.393 126.486 120.651 126.354 120.896C126.227 121.133 125.973 121.405 125.579 121.73C125.272 121.984 125.178 122.12 125.149 122.179C125.102 122.276 125.083 122.412 125.092 122.582C125.098 122.702 125.007 122.799 124.887 122.799ZM123.555 122.366H124.659C124.67 122.215 124.702 122.082 124.757 121.971C124.835 121.812 125.004 121.628 125.291 121.39C125.639 121.103 125.868 120.863 125.969 120.675C126.066 120.496 126.107 120.317 126.096 120.127C126.069 119.651 125.84 119.279 125.397 118.991C125.064 118.773 124.624 118.663 124.087 118.663C123.4 118.663 122.898 118.818 122.596 119.125C122.33 119.397 122.174 119.739 122.125 120.164L123.265 120.304C123.302 120.05 123.379 119.863 123.499 119.734C123.655 119.566 123.861 119.482 124.11 119.482C124.342 119.482 124.528 119.542 124.663 119.662C124.759 119.748 124.875 119.904 124.89 120.163C124.902 120.381 124.782 120.595 124.523 120.816C124.147 121.144 123.904 121.373 123.804 121.497C123.712 121.61 123.644 121.736 123.602 121.872C123.564 121.996 123.548 122.163 123.555 122.366Z" fill="white"/>
<path d="M124.952 135.21C123.968 135.21 123.122 134.409 123.066 133.426C123.011 132.442 123.765 131.642 124.749 131.642C125.733 131.642 126.578 132.442 126.634 133.426C126.69 134.409 125.935 135.21 124.952 135.21ZM124.774 132.074C124.029 132.074 123.457 132.681 123.499 133.426C123.541 134.171 124.182 134.777 124.927 134.777C125.672 134.777 126.244 134.171 126.202 133.426C126.16 132.681 125.518 132.074 124.774 132.074Z" fill="white"/>
<path d="M127.53 138.098C127.411 138.098 127.308 138.002 127.301 137.882C127.209 136.255 125.519 136.129 125.003 136.129C124.488 136.129 122.812 136.255 122.904 137.882C122.911 138.002 122.82 138.098 122.7 138.098C122.581 138.098 122.478 138.002 122.472 137.882C122.397 136.554 123.381 135.696 124.979 135.696C126.577 135.696 127.658 136.554 127.734 137.882C127.741 138.002 127.65 138.098 127.53 138.098Z" fill="white"/>
<path opacity="0.5" d="M121.772 81.1879L77.6514 92.3356C76.2541 92.6889 75.4886 94.1565 75.9412 95.6143L82.4499 116.576C82.9025 118.034 84.4021 118.929 85.7994 118.576L129.921 107.429C131.318 107.076 132.083 105.608 131.631 104.15L125.122 83.1884C124.669 81.7306 123.17 80.8346 121.772 81.1879Z" fill="#407BFF"/>
<path d="M188.847 74.1444L189.207 75.5382C189.32 75.9899 189.418 76.4415 189.519 76.8922C189.724 77.7936 189.892 78.7013 190.061 79.6115C190.379 81.4353 190.658 83.2774 190.828 85.1677C190.918 86.1113 190.985 87.0707 191.031 88.0439C191.066 89.0176 191.068 90.0168 191.033 91.0456C190.993 92.0744 190.926 93.141 190.719 94.3016C190.501 95.4647 190.237 96.7164 189.461 98.2568L189.396 98.3852C189.322 98.5343 189.225 98.6903 189.133 98.8231C188.229 100.092 186.868 101.1 185.593 101.582C184.309 102.086 183.146 102.22 182.121 102.243C181.088 102.268 180.178 102.142 179.324 101.975C178.474 101.802 177.682 101.59 176.929 101.333C175.426 100.814 174.06 100.183 172.763 99.4716C172.115 99.1168 171.489 98.7336 170.873 98.3405L169.964 97.723L169.047 97.0431C167.902 96.1939 167.662 94.5777 168.511 93.4328C169.134 92.5929 170.169 92.2402 171.129 92.4468L171.377 92.5009L173.217 92.8999C173.838 93.0397 174.462 93.1592 175.076 93.2763C176.303 93.5036 177.51 93.6925 178.635 93.7683C179.196 93.8077 179.731 93.8318 180.22 93.8082C180.704 93.7821 181.145 93.7216 181.456 93.6384C181.77 93.5563 181.949 93.4274 181.897 93.3791C181.852 93.3157 181.584 93.4505 181.434 93.5996L181.105 94.1658C181.082 94.1107 181.188 93.6192 181.207 93.0436C181.231 92.4596 181.243 91.7644 181.2 91.0343C181.161 90.3036 181.097 89.5435 181.002 88.7627C180.917 87.9814 180.818 87.1888 180.693 86.3858C180.441 84.7824 180.164 83.148 179.841 81.5126L179.351 79.0555L178.852 76.6575L178.816 76.4843C178.236 73.6991 180.024 70.9715 182.809 70.3914C185.51 69.8291 188.159 71.5048 188.847 74.1444Z" fill="#263238"/>
<path opacity="0.2" d="M188.847 74.1444L189.207 75.5382C189.32 75.9899 189.418 76.4415 189.519 76.8922C189.724 77.7936 189.892 78.7013 190.061 79.6115C190.379 81.4353 190.658 83.2774 190.828 85.1677C190.918 86.1113 190.985 87.0707 191.031 88.0439C191.066 89.0176 191.068 90.0168 191.033 91.0456C190.993 92.0744 190.926 93.141 190.719 94.3016C190.501 95.4647 190.237 96.7164 189.461 98.2568L189.396 98.3852C189.322 98.5343 189.225 98.6903 189.133 98.8231C188.229 100.092 186.868 101.1 185.593 101.582C184.309 102.086 183.146 102.22 182.121 102.243C181.088 102.268 180.178 102.142 179.324 101.975C178.474 101.802 177.682 101.59 176.929 101.333C175.426 100.814 174.06 100.183 172.763 99.4716C172.115 99.1168 171.489 98.7336 170.873 98.3405L169.964 97.723L169.047 97.0431C167.902 96.1939 167.662 94.5777 168.511 93.4328C169.134 92.5929 170.169 92.2402 171.129 92.4468L171.377 92.5009L173.217 92.8999C173.838 93.0397 174.462 93.1592 175.076 93.2763C176.303 93.5036 177.51 93.6925 178.635 93.7683C179.196 93.8077 179.731 93.8318 180.22 93.8082C180.704 93.7821 181.145 93.7216 181.456 93.6384C181.77 93.5563 181.949 93.4274 181.897 93.3791C181.852 93.3157 181.584 93.4505 181.434 93.5996L181.105 94.1658C181.082 94.1107 181.188 93.6192 181.207 93.0436C181.231 92.4596 181.243 91.7644 181.2 91.0343C181.161 90.3036 181.097 89.5435 181.002 88.7627C180.917 87.9814 180.818 87.1888 180.693 86.3858C180.441 84.7824 180.164 83.148 179.841 81.5126L179.351 79.0555L178.852 76.6575L178.816 76.4843C178.236 73.6991 180.024 70.9715 182.809 70.3914C185.51 69.8291 188.159 71.5048 188.847 74.1444Z" fill="black"/>
<path d="M194.609 202.495C194.609 202.495 198.611 198.476 198.452 197.147L202.232 194.998L204.705 198.87L202.621 200.158L202.033 200.006L201.673 200.697C199.787 201.769 196.131 203.466 194.657 203.476C194.345 202.851 194.609 202.495 194.609 202.495Z" fill="#263238"/>
<path d="M190.971 152.827C188.156 132.671 189.075 120.418 186.119 110.485L167.816 109.012C167.816 109.012 175.928 140.99 179.648 154.304C183.381 167.671 197.645 198.054 197.645 198.054L202.621 195.227C202.621 195.226 195.927 168.419 190.971 152.827Z" fill="#407BFF"/>
<path opacity="0.2" d="M176.042 123.918C177.288 126.799 179.718 145.284 179.708 154.515C179.688 154.446 179.668 154.373 179.649 154.304C178.342 149.626 176.491 142.638 174.641 135.544L176.042 123.918Z" fill="black"/>
<path d="M161.897 203.158C161.897 203.158 169.489 201.435 169.837 200.201H174.653L175.053 204.789H172.376L171.882 204.367L171.286 204.789C169.117 204.789 162.86 204.807 161.513 204.004C161.503 203.31 161.897 203.158 161.897 203.158Z" fill="#263238"/>
<path d="M174.752 153.392C178.773 126.078 178.773 109.17 178.773 109.17L160.862 108.881C160.862 108.881 163.012 141.452 163.76 155.094C164.536 169.279 168.965 200.497 168.965 200.497H175.208C175.208 200.497 176.636 170.929 174.752 153.392Z" fill="#407BFF"/>
<path d="M176.696 57.8956C177.527 61.5015 178.154 66.1268 179.19 68.788C177.383 70.4677 174.453 72.5523 170.55 72.4957C166.646 72.4391 167.36 69.7991 168.407 68.4392C171.204 67.0281 171.313 65.6013 170.629 64.3472L176.696 57.8956Z" fill="#FFC3BD"/>
<path d="M183.389 69.5462C183.389 69.5462 180.898 66.6173 179.916 66.1268C178.934 65.6362 171.489 66.6429 169.73 66.9701C167.972 67.2972 165.834 69.9147 165.834 69.9147L183.389 69.5462Z" fill="#407BFF"/>
<path d="M164.367 57.4455C164.446 57.7982 164.323 58.1244 164.092 58.1741C163.86 58.2238 163.609 57.9783 163.529 57.6255C163.45 57.2728 163.574 56.9466 163.805 56.8969C164.037 56.8472 164.288 57.0927 164.367 57.4455Z" fill="#263238"/>
<path d="M163.742 59.5512C162.832 59.5512 161.923 58.6149 161.631 57.3141C161.439 56.46 161.55 55.598 161.927 55.009C162.162 54.642 162.481 54.4054 162.853 54.3252C163.85 54.1111 164.918 55.1015 165.24 56.5333C165.431 57.3874 165.32 58.2494 164.943 58.8388C164.709 59.2058 164.388 59.4425 164.017 59.5222C163.925 59.5413 163.834 59.5507 163.742 59.5512ZM163.133 54.5579C163.058 54.5579 162.983 54.5658 162.908 54.5815C162.607 54.6464 162.344 54.8432 162.148 55.1498C161.808 55.6816 161.71 56.4688 161.888 57.256C162.177 58.548 163.107 59.4489 163.961 59.2648C164.263 59.1999 164.526 59.0031 164.722 58.6966C165.062 58.1652 165.16 57.3775 164.983 56.5903C164.718 55.4115 163.92 54.5579 163.133 54.5579Z" fill="#263238"/>
<path d="M164.499 57.9335C164.499 57.9335 164.152 60.1411 163.487 61.3136C164.244 61.7613 165.248 61.2658 165.248 61.2658L164.499 57.9335Z" fill="#ED847E"/>
<path d="M163.146 55.4145C163.204 55.4519 163.279 55.4607 163.346 55.4312C164.202 55.0573 164.848 55.4666 164.875 55.4839C164.973 55.5478 165.103 55.5203 165.167 55.4219C165.23 55.3235 165.203 55.1926 165.106 55.1276C165.07 55.105 164.248 54.5707 163.176 55.0396C163.07 55.0863 163.021 55.2118 163.068 55.32C163.084 55.3604 163.112 55.3923 163.146 55.4145Z" fill="#263238"/>
<path d="M176.074 53.8538C176.78 58.2425 177.417 60.7773 175.723 63.4729C173.173 67.5275 167.363 66.699 165.355 62.5986C163.547 58.9081 162.696 52.3508 166.562 49.7112C170.372 47.111 175.368 49.4647 176.074 53.8538Z" fill="#FFC3BD"/>
<path d="M168.635 58.3497C166.35 58.2735 164.934 57.3771 164.934 57.3771C164.934 57.3771 164.672 54.9225 165.076 53.0081C164.289 53.3126 161.281 54.1121 161.128 51.0662C162.398 52.1323 164.476 50.495 163.659 49.9621C162.841 49.4293 160.811 48.896 161.065 47.8298C162.105 48.896 164.267 48.8197 164.747 48.185C163.984 46.8906 162.963 47.3727 162.963 47.3727C162.963 47.3727 164.543 45.3418 167.665 46.9663C166.548 45.2911 168.909 44.4025 168.909 44.4025C168.909 44.4025 168.071 45.7988 169.442 45.9509C170.812 46.1034 176.016 45.3029 175.255 47.696C177.286 46.9919 179.652 49.3584 178.815 52.6332C177.977 55.9079 178.387 62.4948 177.472 62.6543C172.638 63.497 169.523 61.0661 168.635 58.3497Z" fill="#263238"/>
<path d="M168.044 57.6668C168.042 57.6668 168.04 57.6668 168.038 57.6668L161.754 57.4164C161.681 57.4135 161.625 57.3524 161.628 57.2801C161.631 57.2093 161.689 57.1542 161.759 57.1542C161.761 57.1542 161.763 57.1542 161.765 57.1542L168.049 57.4046C168.121 57.4076 168.178 57.4686 168.175 57.5409C168.172 57.6112 168.114 57.6668 168.044 57.6668Z" fill="#263238"/>
<path d="M174.112 47.9316C175.803 47.6374 176.075 45.1395 174.925 44.7671C177.768 44.9698 177.04 48.5914 174.112 47.9316Z" fill="#263238"/>
<path d="M170.125 57.6073C170.287 58.6572 170.001 59.6457 169.541 60.2917C168.848 61.2634 167.775 60.6587 167.36 59.4749C166.986 58.4093 166.896 56.6199 167.884 56.0836C168.858 55.5557 169.939 56.4068 170.125 57.6073Z" fill="#FFC3BD"/>
<path d="M183.136 69.0527C177.085 68.3068 168.502 68.3752 162.804 69.369C159.903 69.8753 157.729 72.2974 157.49 75.2332C156.783 83.9244 158.705 99.1198 160.365 114.414C173.773 118.912 187.382 114.353 187.382 114.353C187.682 111.266 186.019 101.158 184.984 95.7599C185.745 90.187 187.677 83.8058 188.768 76.4051C189.297 72.8111 186.741 69.497 183.136 69.0527Z" fill="#263238"/>
<path opacity="0.2" d="M164.927 81.2248C164.014 86.4607 161.114 92.6982 158.464 96.8251C158.101 93.2084 157.797 89.7634 157.601 86.5886L164.927 81.2248Z" fill="black"/>
<path d="M85.5323 110.055L133.012 103.273C134.438 103.07 135.364 101.757 135.079 100.342L130.513 77.6484C130.228 76.2334 128.841 75.2514 127.414 75.4551L79.9353 82.2378C78.5085 82.4415 77.583 83.7541 77.8679 85.1691L82.4342 107.863C82.7185 109.277 84.1055 110.259 85.5323 110.055Z" fill="white"/>
<path opacity="0.2" d="M85.5323 110.055L133.012 103.273C134.438 103.07 135.364 101.757 135.079 100.342L130.513 77.6484C130.228 76.2334 128.841 75.2514 127.414 75.4551L79.9353 82.2378C78.5085 82.4415 77.583 83.7541 77.8679 85.1691L82.4342 107.863C82.7185 109.277 84.1055 110.259 85.5323 110.055Z" fill="#407BFF"/>
<path d="M124.562 85.2321L86.4525 90.6756C85.2614 90.8458 84.0998 90.0232 83.8622 88.8419C83.6245 87.6606 84.3999 86.5615 85.5906 86.3913L123.7 80.9473C124.892 80.7771 126.053 81.5997 126.291 82.781C126.528 83.9623 125.754 85.0619 124.562 85.2321ZM85.6727 86.7987C84.7084 86.9364 84.0806 87.8269 84.273 88.7834C84.4654 89.7398 85.4066 90.406 86.3709 90.2682L124.481 84.8243C125.445 84.6865 126.073 83.7965 125.88 82.84C125.688 81.8836 124.747 81.2174 123.783 81.3552L85.6727 86.7987Z" fill="white"/>
<path d="M125.959 92.1757L87.8495 97.6197C86.6584 97.7899 85.4968 96.9673 85.2591 95.786C85.0215 94.6047 85.7969 93.5056 86.9875 93.3354L125.097 87.8914C126.288 87.7212 127.45 88.5438 127.688 89.7251C127.925 90.9064 127.15 92.0055 125.959 92.1757ZM87.0692 93.7427C86.1049 93.8805 85.4771 94.7705 85.6695 95.727C85.8618 96.6834 86.803 97.3496 87.7674 97.2118L125.877 91.7679C126.842 91.6301 127.469 90.7401 127.277 89.7836C127.085 88.8272 126.143 88.161 125.179 88.2988L87.0692 93.7427Z" fill="white"/>
<path d="M127.349 99.0824L103.054 102.553C101.884 102.72 100.741 101.912 100.507 100.751C100.274 99.5901 101.036 98.5097 102.206 98.3424L126.502 94.8718C127.672 94.7046 128.814 95.5129 129.048 96.674C129.282 97.8347 128.519 98.9151 127.349 99.0824ZM102.274 98.676C101.289 98.8167 100.648 99.7259 100.844 100.703C101.04 101.68 102.002 102.36 102.986 102.219L127.282 98.7483C128.266 98.6076 128.908 97.6984 128.711 96.7213C128.515 95.7442 127.554 95.0642 126.569 95.2049L102.274 98.676Z" fill="white"/>
<path d="M130.828 86.6604L132.156 86.1477C132.655 85.9549 133.218 86.0154 133.665 86.3101L135.754 87.6877C136.589 88.2383 137.106 89.1598 137.141 90.1595L137.162 90.7784C135.017 91.7797 131.961 91.2813 131.961 91.2813L131.075 91.236C130.285 91.1952 129.699 90.5753 129.728 89.8117L129.795 88.0533C129.818 87.4451 130.229 86.8912 130.828 86.6604Z" fill="#FFC3BD"/>
<path d="M167.734 77.1806L167.167 78.5045C166.98 78.9306 166.782 79.3478 166.587 79.767C166.199 80.6054 165.777 81.4265 165.355 82.2506C164.493 83.8895 163.588 85.518 162.568 87.118C162.062 87.9199 161.529 88.7199 160.971 89.5189C160.404 90.3116 159.796 91.1037 159.139 91.8968C158.479 92.6864 157.774 93.4904 156.902 94.2825C156.019 95.0702 155.045 95.8997 153.49 96.6456L153.285 96.7435C153.158 96.8045 153.015 96.8566 152.884 96.8935C150.627 97.5085 148.764 97.3353 147.108 97.0815C145.452 96.8079 143.984 96.3164 142.589 95.7826C141.204 95.2212 139.899 94.5885 138.654 93.8751C138.031 93.5214 137.426 93.141 136.828 92.7529C136.223 92.3514 135.674 91.9558 135.051 91.4766C133.917 90.6033 133.705 88.9758 134.578 87.8412C135.208 87.023 136.23 86.6845 137.176 86.8872L137.371 86.93L139.194 87.3231C139.809 87.4629 140.428 87.5854 141.038 87.7079C142.259 87.95 143.464 88.1615 144.63 88.3022C145.211 88.3706 145.778 88.4351 146.33 88.467C146.879 88.4936 147.407 88.4961 147.897 88.4877C148.866 88.4631 149.704 88.2456 149.979 88.0552L149.373 88.3027C149.388 88.2452 149.773 87.9209 150.139 87.4762C150.515 87.0284 150.949 86.4858 151.361 85.8811C151.777 85.2789 152.191 84.6383 152.592 83.9618C153.003 83.2917 153.408 82.6034 153.8 81.892C154.58 80.4686 155.359 79.0054 156.103 77.5132L157.216 75.2682L158.286 73.065L158.363 72.9056C159.606 70.3462 162.688 69.279 165.247 70.5218C167.728 71.7258 168.802 74.6709 167.734 77.1806Z" fill="#263238"/>
<path d="M51.5245 155.126L50.9779 154.911C53.7872 147.765 51.0531 135.733 48.1587 122.996C44.9617 108.925 41.6554 94.3749 45.9909 85.8427L46.5144 86.1088C42.2759 94.4517 45.558 108.896 48.7324 122.865C51.647 135.694 54.4007 147.812 51.5245 155.126Z" fill="#407BFF"/>
<path d="M47.5486 84.5359C47.5486 86.8439 46.817 87.6173 45.9147 87.6173C45.0124 87.6173 44.2808 86.8439 44.2808 84.5359C44.2808 82.2279 45.9147 79.2602 45.9147 79.2602C45.9147 79.2602 47.5486 82.2284 47.5486 84.5359Z" fill="#407BFF"/>
<path d="M48.3331 97.4081C46.7533 99.3702 45.6016 99.5271 44.8345 98.9092C44.067 98.2912 43.975 97.1331 45.5548 95.1705C47.1346 93.2084 50.556 91.8032 50.556 91.8032C50.556 91.8032 49.9129 95.4455 48.3331 97.4081Z" fill="#407BFF"/>
<path d="M52.0164 116.741C50.1536 119.054 48.7962 119.239 47.8919 118.51C46.9871 117.782 46.8784 116.417 48.7411 114.103C50.6038 111.79 54.6368 110.134 54.6368 110.134C54.6368 110.134 53.8786 114.428 52.0164 116.741Z" fill="#407BFF"/>
<path d="M56.7101 141.626C54.7082 143.819 53.3414 143.92 52.4838 143.137C51.6263 142.354 51.6022 140.984 53.6041 138.791C55.6061 136.597 59.7344 135.194 59.7344 135.194C59.7344 135.194 58.7126 139.433 56.7101 141.626Z" fill="#407BFF"/>
<path d="M43.1438 104.568C45.1905 106.036 45.4114 107.177 44.8368 107.978C44.2626 108.778 43.1108 108.935 41.0641 107.466C39.0174 105.997 37.4248 102.66 37.4248 102.66C37.4248 102.66 41.0971 103.099 43.1438 104.568Z" fill="#407BFF"/>
<path d="M47.7069 127.747C50.4769 129.734 50.775 131.278 49.9982 132.362C49.2213 133.445 47.6627 133.657 44.8932 131.67C42.1232 129.682 39.9683 125.165 39.9683 125.165C39.9683 125.165 44.937 125.76 47.7069 127.747Z" fill="#407BFF"/>
<path d="M45.5266 152.051L49.5482 204.03C49.5812 204.458 49.9384 204.789 50.3679 204.789H53.8759C54.3054 204.789 54.6626 204.458 54.6955 204.03L58.7176 152.051C58.7718 151.353 58.2202 150.758 57.5211 150.758H46.7237C46.024 150.758 45.4725 151.353 45.5266 152.051Z" fill="#263238"/>
</svg>
