<svg width="193" height="193" viewBox="0 0 193 193" fill="none" xmlns="http://www.w3.org/2000/svg">
<path d="M169.389 165.213C165.469 169.35 161.759 172.018 158.829 174.125C124.38 198.901 83.619 191.679 74.956 189.916C62.1635 187.311 37.4359 182.277 19.5583 161.203C-7.48904 129.321 -3.27738 79.0905 17.7024 45.9329C21.5399 39.8678 41.8108 6.20511 83.0113 0.80669C107.945 -2.4604 137.011 4.12891 158.059 21.805C202.241 58.9086 199.095 133.865 169.389 165.213Z" fill="url(#paint0_linear_212_1897)"/>
<path d="M38.5177 181.234C38.5177 181.234 37.8902 184.786 37.5825 188.303C37.4623 189.677 38.5219 190.87 39.9002 190.928C44.5831 191.123 54.6002 191.502 58.1946 191.342C58.7349 191.317 59.0882 190.764 58.8882 190.262C58.7207 189.841 58.3974 189.5 57.9856 189.311L41.4394 181.706L38.5177 181.234Z" fill="url(#paint1_linear_212_1897)"/>
<path d="M38.0029 179.147L38.5071 183.396C38.5071 183.396 41.4056 184.745 43.385 183.226L42.1846 178.49L38.0029 179.147Z" fill="url(#paint2_linear_212_1897)"/>
<path d="M38.3822 99.2613C38.1645 100.371 37.2134 154.635 43.0137 178.952C43.1084 179.349 42.9072 179.758 42.5296 179.912C41.6399 180.276 39.8958 180.802 37.8056 180.873C37.1583 180.894 36.5779 180.474 36.3954 179.852C34.7374 174.21 26.7923 145.942 25.7559 118.938C24.5978 88.7641 25.7559 117.911 25.7559 117.911L26.4351 99.259L38.3822 99.2613Z" fill="url(#paint3_linear_212_1897)"/>
<path d="M19.4844 183.087C19.4844 183.087 18.4855 184.88 17.5185 189.646C17.3439 190.506 17.9452 191.33 18.8192 191.416C20.3654 191.568 22.746 191.764 24.6528 191.75C25.5318 191.744 26.2179 190.979 26.112 190.106C25.9007 188.367 25.2427 185.513 23.21 183.289L19.4844 183.087Z" fill="url(#paint4_linear_212_1897)"/>
<path d="M18.6064 177.622L19.7845 184.047C19.7845 184.047 20.9493 184.914 23.2534 184.286L22.6911 177.372L18.6064 177.622Z" fill="url(#paint5_linear_212_1897)"/>
<path d="M15.4249 100.926C10.6809 129.557 16.4539 171.688 18.4009 179.934C18.5202 180.439 18.9276 180.826 19.4394 180.911C20.3085 181.055 21.7393 181.172 23.1498 180.763C23.6359 180.622 23.9773 180.183 23.9972 179.677C24.2584 173.011 23.7883 132.083 28.2085 115.908C28.4326 115.089 28.9331 114.374 29.6257 113.881L38.2051 107.782L38.8629 97.9233L15.4249 100.926Z" fill="url(#paint6_linear_212_1897)"/>
<path d="M48.7584 62.4724C48.7584 62.4724 48.7353 62.4878 48.716 62.5187L48.5376 62.5264C48.5183 62.5534 48.3245 62.5996 48.3245 62.6537V62.6574L48.4952 62.7153C48.4952 62.773 48.5748 62.8463 48.5594 62.9272L48.5992 62.9619C48.3987 64.1489 47.3107 67.3979 46.1198 71.6025C46.1082 71.6373 46.1114 71.6758 46.0998 71.7106C43.429 81.1452 39.5728 95.3456 38.4088 101.921C38.4088 101.921 36.3485 102.943 33.142 103.449H33.1343C28.5018 104.462 21.5105 105.389 15.0049 103.686C15.0049 103.686 11.5094 75.1514 15.7449 50.4239C15.7449 50.4239 26.8561 47.6533 38.8498 46.8979C38.9115 46.894 38.9732 47.1086 39.0348 47.1047C40.0022 47.0507 40.9734 47.2345 41.9446 47.2345H42.7154C42.8233 47.2345 42.9274 47.2345 43.0353 47.2345H43.0546C43.5518 47.2345 44.4498 47.4094 45.4981 47.8526C45.5289 47.8642 45.5906 47.755 45.5906 47.7705C45.5906 47.7705 45.5983 47.6794 45.6022 47.6794C45.6022 47.6794 45.7833 47.7605 45.8643 47.7952C45.9838 47.8452 46.1071 47.8959 46.2343 47.9576C46.2612 47.973 46.2921 47.9849 46.3191 47.9964C46.3307 48.0042 46.346 48.0062 46.3576 48.0139C46.4386 48.0563 46.5233 48.0979 46.612 48.1402C46.6313 48.1479 46.6466 48.1552 46.6621 48.1628C46.7623 48.2129 46.8625 48.2667 46.9666 48.3206C46.982 48.3283 46.901 48.3359 46.9165 48.3474C47.0359 48.409 47.1901 48.4746 47.3134 48.5401C47.4252 48.5978 47.51 48.6596 47.5177 48.725L47.5331 48.6248C47.5909 48.6557 47.6526 48.6903 47.7104 48.725C47.7104 48.725 47.722 48.7289 47.7258 48.7327C48.3656 49.1066 49.0092 49.5421 49.6067 50.0508C49.6105 50.0547 49.6105 50.0585 49.6144 50.0624C49.6221 50.074 49.6337 50.0894 49.6413 50.101C52.3272 54.5639 53.5759 61.8751 48.7584 62.4724Z" fill="url(#paint7_linear_212_1897)"/>
<path d="M61.8295 62.364C58.8541 59.3678 56.5916 56.019 54.5706 53.3552C48.6389 45.5363 42.0898 46.8872 42.0898 46.8872L46.0981 64.1397C47.8605 66.9481 49.7727 69.2291 51.7721 71.0718C52.9458 70.1614 54.1082 69.2341 55.1766 68.1656C57.3843 66.2591 59.7157 64.3934 61.8295 62.364Z" fill="url(#paint8_linear_212_1897)"/>
<path d="M76.3665 69.816C69.9579 69.0193 65.3846 65.9436 61.8299 62.364C59.7161 64.3934 57.3847 66.2591 55.177 68.1656C54.1086 69.234 52.9462 70.1614 51.7725 71.0718C59.9473 78.6064 69.5903 78.7893 76.5193 77.4768C82.0087 76.4371 85.7948 74.4604 85.7948 74.4604C95.8899 71.5211 94.9829 67.1791 94.9829 67.1791L90.5849 68.2523C85.7475 69.7093 81.5879 70.1871 77.9767 69.965L76.3665 69.816Z" fill="url(#paint9_linear_212_1897)"/>
<path d="M104.935 75.5711C104.901 74.6784 104.463 73.8494 103.745 73.3181L96.7334 68.1335C96.7334 68.1335 96.8763 67.0985 98.8262 66.877C100.776 66.6555 100.878 64.5625 100.878 64.5625C100.878 64.5625 98.1692 65.0376 94.1682 65.8678C91.8801 66.3427 90.2825 67.8162 89.333 68.991L90.6595 72.1658C95.1085 74.8703 99.9197 76.4171 104.994 77.1225L104.935 75.5711Z" fill="url(#paint10_linear_212_1897)"/>
<path d="M43.1747 46.7942C43.1323 46.7904 43.0937 46.7904 43.0552 46.7904C43.0436 46.7865 43.0359 46.7865 43.0244 46.7827L43.1747 46.7942Z" fill="url(#paint11_linear_212_1897)"/>
<path d="M45.6063 46.6632L45.5908 46.671V46.6555C45.5947 46.6595 45.5985 46.6632 45.6063 46.6632Z" fill="url(#paint12_linear_212_1897)"/>
<path d="M21.2021 64.1768L15.7492 50.4108C15.7492 50.4108 2.46996 59.4335 0.286133 70.8732C2.79524 71.0581 7.36099 71.7107 11.8301 73.9673C12.812 68.5655 21.2021 64.1768 21.2021 64.1768Z" fill="url(#paint13_linear_212_1897)"/>
<path d="M31.2521 35.1362L26.7285 48.218C26.6536 48.4347 26.7426 48.6747 26.9433 48.7857C28.1764 49.4674 32.6189 51.438 37.9726 48.0437C38.5302 47.6901 38.9099 47.1134 38.9946 46.4585L40.4595 35.1362H31.2521Z" fill="url(#paint14_linear_212_1897)"/>
<path d="M39.209 63.9082V65.8257L46.2991 65.3996V63.2691L39.209 63.9082Z" fill="url(#paint15_linear_212_1897)"/>
<path d="M32.8232 76.727C32.8232 76.727 17.9141 85.153 12.8835 77.9582C11.839 76.4642 11.5893 74.9795 11.8466 73.564C7.37756 71.3075 2.81181 70.6549 0.302701 70.4701C-0.35572 73.9188 -0.00762939 77.5867 2.0189 81.2938C10.8308 97.4133 34.7964 80.403 34.7964 80.403L32.8232 76.727Z" fill="url(#paint16_linear_212_1897)"/>
<path d="M31.0326 87.3868L39.1695 58.9709C39.2619 58.6484 39.5371 58.413 39.8703 58.3742C41.3446 58.2022 45.6164 57.7193 50.5487 57.3021C56.4899 56.7995 63.3892 56.3923 67.512 56.7388C68.0982 56.7879 68.4523 57.4079 68.1917 57.9353C65.8472 62.6785 56.2033 81.9727 51.3741 88.2933C51.2141 88.5027 50.9667 88.6251 50.7032 88.6226L31.8242 88.447C31.2748 88.4419 30.8814 87.9149 31.0326 87.3868Z" fill="url(#paint17_linear_212_1897)"/>
<path d="M51.3924 54.8386L57.2918 53.8556C57.606 53.8033 57.8633 54.1035 57.7636 54.4059L57.1795 56.1756C57.1287 56.3295 56.9943 56.441 56.8335 56.4626L51.1565 57.2209C50.8628 57.2601 50.6206 56.9932 50.6882 56.7048L51.0497 55.1597C51.0886 54.9933 51.2238 54.8666 51.3924 54.8386Z" fill="url(#paint18_linear_212_1897)"/>
<path d="M46.9755 59.8329L47.4616 57.3014C47.5103 57.0474 47.72 56.8556 47.9772 56.8295L59.8925 55.6203C60.2936 55.5797 60.6148 55.9472 60.5207 56.3392L59.763 59.4936C59.7024 59.746 59.4828 59.9283 59.2234 59.9413L47.5797 60.5275C47.2007 60.5466 46.904 60.2055 46.9755 59.8329Z" fill="url(#paint19_linear_212_1897)"/>
<path d="M32.9988 80.5214C32.9988 80.5214 31.8653 75.8606 32.3225 74.207C32.7798 72.5534 33.6656 70.4274 36.6184 70.8998C39.5712 71.3723 43.0543 72.6161 43.0543 72.6161C43.0543 72.6161 42.8784 74.77 40.6342 74.0751L42.0258 75.1519C42.0258 75.1519 41.8269 76.8764 39.9314 75.9551L41.2257 77.3831C41.2257 77.3831 40.4116 78.7996 39.0171 77.8911C37.6224 76.9828 36.9539 81.0827 32.9988 80.5214Z" fill="url(#paint20_linear_212_1897)"/>
<path d="M42.9642 19.9991C43.0509 20.1564 44.7101 29.544 45.7315 35.355C46.1535 37.7559 44.3886 39.9862 41.9551 40.1303L39.7267 40.2622C35.6323 40.5045 32.0267 37.5895 31.4061 33.5352L29.7949 23.0089C29.7949 23.0089 40.8594 16.1813 42.9642 19.9991Z" fill="url(#paint21_linear_212_1897)"/>
<path d="M27.3922 23.0349C26.5379 21.9724 25.7928 20.2546 27.6123 18.4481C29.4542 16.6191 31.544 17.075 32.8696 17.6883C33.4562 17.9598 34.1792 17.8395 34.5969 17.3459C34.7825 17.1267 35.058 16.9774 35.4666 17.0233C36.2372 17.1097 36.9251 16.6009 37.0166 15.831C37.1733 14.5109 37.8766 12.9565 40.2107 12.5055C44.4917 11.678 46.6273 15.9623 46.551 18.9736C46.4747 21.9847 41.7824 22.618 39.1201 22.1181C37.1645 21.751 35.4737 23.4694 34.7138 24.4076C34.438 24.748 34.3351 25.1942 34.4344 25.621L35.1111 28.53C34.6423 29.4343 34.1823 30.3578 33.5238 31.1295C33.0497 31.6852 32.5298 31.9918 31.9787 32.1215C31.1804 30.6358 28.9481 30.3839 27.9107 30.3505C27.5137 30.3379 27.143 30.1629 26.8821 29.8635C26.0994 28.9659 24.8743 26.9632 27.2193 24.9966C27.8024 24.5078 27.8689 23.628 27.3922 23.0349Z" fill="url(#paint22_linear_212_1897)"/>
<path d="M32.7508 35.236C32.7508 35.236 32.6586 29.9832 30.5326 29.4899C28.4067 28.9965 26.113 30.5335 27.9313 33.6783C30.193 37.5902 32.7508 35.236 32.7508 35.236Z" fill="url(#paint23_linear_212_1897)"/>
<path d="M41.1705 38.1072C35.2802 39.431 30.9145 33.7801 30.8711 33.7228L31.2379 33.4446C31.2795 33.4995 35.4706 38.9165 41.0696 37.6582L41.1705 38.1072Z" fill="url(#paint24_linear_212_1897)"/>
<path d="M39.8252 38.5074H41.9884C42.0405 38.5074 42.0831 38.4648 42.0831 38.4127V37.6779C42.0831 37.6258 42.0405 37.5832 41.9884 37.5832H39.8252C39.7731 37.5832 39.7305 37.6258 39.7305 37.6779V38.4127C39.7305 38.4648 39.7731 38.5074 39.8252 38.5074Z" fill="url(#paint25_linear_212_1897)"/>
<path d="M30.1574 27.5751C30.1574 27.5751 31.2856 18.1361 36.8843 16.631C36.8843 16.631 35.212 16.0555 33.6078 17.0622C32.0036 18.0689 28.1578 23.0321 28.7584 27.9611C29.9437 28.2195 30.1574 27.5751 30.1574 27.5751Z" fill="url(#paint26_linear_212_1897)"/>
<path d="M29.1493 27.0709C25.9227 28.0673 26.7425 32.1915 26.7425 32.1915C26.8063 35.2373 27.8376 36.6476 29.0391 37.2488C29.8598 37.6596 30.8364 37.608 31.6108 37.1152C32.3851 36.6225 32.8444 35.76 32.821 34.8425C32.7999 34.0139 32.7916 33.2251 32.825 32.9414C32.9058 32.2539 32.3758 26.0744 29.1493 27.0709Z" fill="url(#paint27_linear_212_1897)"/>
<path d="M29.5573 28.0938C28.8618 28.043 28.2239 28.4735 28.0123 29.1379C26.4984 33.8934 29.2105 36.6185 30.4029 36.5621C31.6598 36.5027 31.035 30.4898 30.6159 28.9741C30.4403 28.339 30.0045 28.1264 29.5573 28.0938Z" fill="url(#paint28_linear_212_1897)"/>
<path d="M168.311 60.7399L173.65 60.3629L180.31 79.8601L171.579 123.623L163.294 122.401L168.311 60.7399Z" fill="url(#paint29_linear_212_1897)"/>
<path d="M136.456 120.542L147.004 80.5556L153.301 58.9066L168.311 60.7399L175.218 80.8724L165.735 122.396H136.431L136.456 120.542Z" fill="url(#paint30_linear_212_1897)"/>
<path d="M173.65 60.3628L160.211 58.4175L153.301 58.9065L168.311 60.7399L173.65 60.3628Z" fill="url(#paint31_linear_212_1897)"/>
<path d="M170.63 79.8801L163.28 77.5715V68.3901L166.955 68.7163L170.63 79.8801Z" fill="url(#paint32_linear_212_1897)"/>
<path d="M157.215 67.2361L153.855 66.3868L150.802 76.5217H155.762L157.215 67.2361Z" fill="url(#paint33_linear_212_1897)"/>
<path d="M115.846 103.371C115.846 103.371 112.295 122.089 110.966 122.089C109.636 122.089 85.1172 119.14 85.1172 119.14V113.804L104.483 114.52L109.129 100.609L115.846 103.371Z" fill="url(#paint34_linear_212_1897)"/>
<path d="M120.475 123.463H153.308L151.313 100.223C151.313 100.223 153.768 82.6783 142.568 80.7306C135.971 78.9364 135.971 78.9564 135.971 78.9564C135.971 78.9564 127.532 77.6451 120.475 80.7606C113.417 83.876 107.587 102.599 107.587 102.599L116.025 105.977L118.173 98.9939L120.475 123.463Z" fill="url(#paint35_linear_212_1897)"/>
<path d="M134.378 67.7164L137.721 80.5516C137.721 80.5516 130.737 83.9231 124.806 81.0047L126.678 68.5612L134.378 67.7164Z" fill="url(#paint36_linear_212_1897)"/>
<path d="M118.652 57.3558C118.652 57.3558 118.118 66.661 119.436 70.9558C120.754 75.2506 120.854 78.3158 126.032 77.3686C131.211 76.4215 134.416 72.4857 135.091 67.4747C135.091 67.4747 136.188 59.732 134.432 57.3745C132.676 55.0171 118.652 57.3558 118.652 57.3558Z" fill="url(#paint37_linear_212_1897)"/>
<path d="M132.316 65.0739L131.994 65.0539C131.584 65.0285 131.279 64.6645 131.329 64.2568C131.527 62.678 131.744 59.1466 129.754 59.0752C127.191 58.9831 117.706 60.4376 114.648 58.0093C111.709 55.6757 111.898 51.1945 113.926 49.1916C114.062 49.0576 114.276 49.0454 114.418 49.1728L114.762 49.482C114.998 49.6938 115.372 49.5107 115.349 49.1946C115.328 48.8911 115.673 48.7033 115.913 48.8896C116.844 49.6104 118.983 50.546 123.494 49.7679C129.906 48.6618 134.771 49.6274 136.399 53.7391C136.503 54.0003 136.837 54.0435 137.012 53.8233C137.355 53.3897 138.018 53.0013 139.26 53.4488C141.42 54.2271 142.071 58.0718 139.548 62.3627C139.428 62.5665 139.529 62.834 139.759 62.8865C140.572 63.0714 141.923 63.726 139.891 66.0122C137.789 68.3769 135.792 68.9831 134.994 69.1364C134.795 69.1745 134.607 69.0378 134.58 68.8373L134.039 64.8952C134.008 64.6721 133.779 64.5346 133.568 64.6125L132.316 65.0739Z" fill="url(#paint38_linear_212_1897)"/>
<path d="M132.449 65.899C132.449 65.899 131.892 60.2862 134.717 60.8754C137.543 61.4645 135.642 67.0535 133.867 67.9261L132.449 65.899Z" fill="url(#paint39_linear_212_1897)"/>
<path d="M125.458 73.0685C131.468 72.4986 133.864 65.7716 133.887 65.7037L133.452 65.5531C133.43 65.6181 131.127 72.0686 125.414 72.6104L125.458 73.0685Z" fill="url(#paint40_linear_212_1897)"/>
<path d="M126.694 73.1594H124.531C124.479 73.1594 124.437 73.1168 124.437 73.0647V72.3299C124.437 72.2778 124.479 72.2352 124.531 72.2352H126.694C126.747 72.2352 126.789 72.2778 126.789 72.3299V73.0647C126.789 73.1168 126.747 73.1594 126.694 73.1594Z" fill="url(#paint41_linear_212_1897)"/>
<path d="M132.405 59.0094C132.405 59.0094 128.635 49.8995 122.561 49.9393C122.561 49.9393 124.089 48.9043 125.99 49.4672C127.891 50.0302 133.159 53.9245 133.926 59.0094C132.8 59.5937 132.405 59.0094 132.405 59.0094Z" fill="url(#paint42_linear_212_1897)"/>
<path d="M133.312 58.264C136.687 58.3663 136.994 62.5599 136.994 62.5599C137.743 65.5129 137.124 67.1468 136.125 68.046C135.443 68.6603 134.488 68.8702 133.611 68.6013C132.733 68.3324 132.061 67.623 131.84 66.7324C131.64 65.9281 131.438 65.1655 131.33 64.9009C131.069 64.2596 129.936 58.1617 133.312 58.264Z" fill="url(#paint43_linear_212_1897)"/>
<path d="M133.191 59.3585C133.848 59.1246 134.577 59.3698 134.958 59.9541C137.682 64.1355 135.793 67.4838 134.628 67.7467C133.401 68.0238 132.403 62.0614 132.404 60.4888C132.405 59.8298 132.768 59.5089 133.191 59.3585Z" fill="url(#paint44_linear_212_1897)"/>
<path d="M146.967 107.104C147.016 107.104 147.064 107.081 147.094 107.037L150.776 101.616C150.824 101.546 150.805 101.451 150.735 101.403C150.665 101.355 150.57 101.374 150.522 101.444L146.84 106.865C146.792 106.935 146.811 107.03 146.881 107.078C146.907 107.096 146.937 107.104 146.967 107.104Z" fill="url(#paint45_linear_212_1897)"/>
<path d="M39.7061 123.609C39.7061 124.686 40.6523 125.507 41.8196 125.507H188.974C190.142 125.507 191.088 124.686 191.088 123.609C191.088 122.533 190.142 121.712 188.974 121.712H41.8197C40.6523 121.711 39.7061 122.533 39.7061 123.609Z" fill="url(#paint46_linear_212_1897)"/>
<path d="M138.902 104.355C138.949 104.355 138.995 104.334 139.025 104.293C139.076 104.226 139.062 104.129 138.994 104.079L137.637 103.061L141.997 90.9958C142.025 90.9161 141.984 90.8281 141.904 90.7994C141.825 90.7706 141.737 90.8118 141.708 90.8915L137.31 103.063C137.287 103.127 137.308 103.198 137.362 103.238L138.81 104.324C138.838 104.345 138.87 104.355 138.902 104.355Z" fill="url(#paint47_linear_212_1897)"/>
<path d="M41.9434 125.507C45.8783 146.82 49.8159 168.118 53.7508 189.394C53.9835 190.635 55.1004 191.781 56.194 191.781H175.836C176.929 191.781 178.134 190.635 178.367 189.394C182.302 168.118 186.239 146.82 190.174 125.507H41.9434Z" fill="url(#paint48_linear_212_1897)"/>
<path d="M137.585 125.507C139.157 147.404 140.726 169.592 142.298 191.781H175.836C176.929 191.781 178.134 190.635 178.367 189.394C182.302 168.118 186.239 146.82 190.174 125.507H137.585Z" fill="url(#paint49_linear_212_1897)"/>
<path d="M146.258 123.609C146.258 124.686 146.549 125.507 146.907 125.507H192.143C192.502 125.507 192.793 124.686 192.793 123.609C192.793 122.533 192.502 121.712 192.143 121.712H146.907C146.549 121.711 146.258 122.533 146.258 123.609Z" fill="url(#paint50_linear_212_1897)"/>
<path d="M68.4472 119.668H109.421C110.312 119.668 111.102 120.381 111.102 121.271V122.295H66.7246V121.271C66.7246 120.381 67.5565 119.668 68.4472 119.668Z" fill="url(#paint51_linear_212_1897)"/>
<path d="M56.748 77.959L62.0019 113.952C62.1735 115.127 63.2778 116.081 64.472 116.081L103.807 116.08C105.064 116.08 105.899 115.103 105.674 113.895L98.7829 76.9343C98.5733 75.8099 97.4287 74.9231 96.2257 74.954L58.5293 75.921C57.3838 75.9503 56.588 76.8629 56.748 77.959Z" fill="url(#paint52_linear_212_1897)"/>
<path d="M95.2781 75.6307L102.539 115.241C102.63 115.734 103.211 116.138 103.722 116.138C104.978 116.138 105.908 115.149 105.681 113.934L98.7847 76.9452C98.5739 75.8147 97.4284 74.923 96.2254 74.9538L95.5638 74.9708C95.3532 75.1231 95.2295 75.3655 95.2781 75.6307Z" fill="url(#paint53_linear_212_1897)"/>
<path d="M63.154 101.51C63.3001 101.505 63.3968 101.378 63.3701 101.226L59.6119 79.9006C59.4414 78.9328 60.2069 78.3111 61.0461 78.2683L65.0415 78.0645C65.1852 78.0572 65.2801 77.9329 65.2536 77.7871C65.2271 77.6413 65.0891 77.529 64.9455 77.5365L60.9524 77.7415C59.7059 77.8055 58.8906 78.7642 59.0948 79.9264L62.841 101.245C62.8677 101.397 63.0078 101.516 63.154 101.51Z" fill="#91B3FA"/>
<path d="M92.3397 112.918L97.8745 112.907C99.009 112.905 99.6824 111.892 99.44 110.555L97.9495 102.331C97.9212 102.175 97.7743 102.049 97.6214 102.05C97.4686 102.052 97.3675 102.179 97.3958 102.336L98.8815 110.557C99.0638 111.566 98.5863 112.329 97.7712 112.331L92.2396 112.344C92.0865 112.345 91.9848 112.473 92.0123 112.632C92.0399 112.79 92.1865 112.919 92.3397 112.918Z" fill="#91B3FA"/>
<path d="M67.8926 121.8V122.275L77.3737 122.587H91.2128C91.5463 122.587 91.8168 122.221 91.8168 121.888C91.8168 120.589 90.9026 119.376 89.6013 119.376H70.0657C69.8982 119.376 69.719 119.399 69.5707 119.432C68.544 119.668 67.8926 120.669 67.8926 121.8Z" fill="url(#paint54_linear_212_1897)"/>
<path d="M65.2556 121.764C65.2584 120.466 66.3153 119.422 67.6166 119.428L69.5905 119.436L77.3844 119.472L87.1522 119.53C88.4507 119.535 89.4994 120.733 89.4967 122.032C89.4952 122.288 89.2867 122.587 89.03 122.587H65.7216C65.5975 122.587 65.4785 122.446 65.3909 122.358C65.3033 122.27 65.2544 122.105 65.2549 121.981L65.2556 121.764Z" fill="url(#paint55_linear_212_1897)"/>
<path d="M83.8894 93.3919C84.7801 93.3919 85.4096 94.0258 85.4096 94.9166V119.376H73.1475V93.3919H83.8894Z" fill="url(#paint56_linear_212_1897)"/>
<path d="M72.8393 93.3919H81.9674C82.8582 93.3919 83.6575 94.0258 83.6575 94.9166V119.376H71.1035V94.9166C71.1034 94.0258 71.9485 93.3919 72.8393 93.3919Z" fill="url(#paint57_linear_212_1897)"/>
<path d="M117.407 122.295H106.82C106.82 122.295 109.224 117.13 113.622 117.386C118.02 117.641 117.407 122.295 117.407 122.295Z" fill="url(#paint58_linear_212_1897)"/>
<path d="M146.266 107.59L138.902 104.201L132.391 115.645C132.391 115.645 113.98 112.781 110.707 116.259C107.434 119.736 108.968 119.685 109.377 119.685C109.786 119.685 111.679 117.64 111.679 117.64C111.679 117.64 110.02 120.136 110.912 120.248C111.803 120.36 113.98 117.998 113.98 117.998C113.98 117.998 112.19 121.117 113.264 120.759C114.338 120.401 115.207 118.714 115.207 118.714C115.207 118.714 113.775 120.714 114.747 120.788C115.719 120.861 117.202 119.14 117.202 119.14C117.202 119.14 119.478 120.171 120.782 120.171C122.086 120.171 135.229 123.453 137.607 122.089C139.986 120.725 146.266 107.59 146.266 107.59Z" fill="url(#paint59_linear_212_1897)"/>
<g opacity="0.5">
<path d="M121.938 104.925L122.335 101.41L122.336 101.411C122.423 100.201 123.431 99.2366 124.662 99.2366C125.401 99.2366 126.06 99.231 126.487 100.107H128.625C129.052 99.2309 129.711 99.2366 130.45 99.2366C131.682 99.2366 132.69 100.196 132.776 101.406L132.777 101.408L133.175 104.923C133.221 105.334 132.993 105.727 132.613 105.89L132.218 106.059C131.849 106.217 131.42 106.214 131.152 105.915L129.268 103.902H125.845L123.96 105.915C123.692 106.214 123.263 106.263 122.894 106.105L122.5 105.913C122.119 105.751 121.891 105.335 121.938 104.925Z" fill="white"/>
<mask id="mask0_212_1897" style="mask-type:luminance" maskUnits="userSpaceOnUse" x="121" y="99" width="13" height="8">
<path d="M121.938 104.925L122.335 101.41L122.336 101.411C122.423 100.201 123.431 99.2366 124.662 99.2366C125.401 99.2366 126.06 99.231 126.487 100.107H128.625C129.052 99.2309 129.711 99.2366 130.45 99.2366C131.682 99.2366 132.69 100.196 132.776 101.406L132.777 101.408L133.175 104.923C133.221 105.334 132.993 105.727 132.613 105.89L132.218 106.059C131.849 106.217 131.42 106.214 131.152 105.915L129.268 103.902H125.845L123.96 105.915C123.692 106.214 123.263 106.263 122.894 106.105L122.5 105.913C122.119 105.751 121.891 105.335 121.938 104.925Z" fill="white"/>
</mask>
<g mask="url(#mask0_212_1897)">
<path d="M121.95 99.4743L122.276 99.2472H121.95V99.4743Z" fill="white"/>
</g>
<mask id="mask1_212_1897" style="mask-type:luminance" maskUnits="userSpaceOnUse" x="121" y="99" width="13" height="8">
<path d="M121.938 104.925L122.335 101.41L122.336 101.411C122.423 100.201 123.431 99.2366 124.662 99.2366C125.401 99.2366 126.06 99.231 126.487 100.107H128.625C129.052 99.2309 129.711 99.2366 130.45 99.2366C131.682 99.2366 132.69 100.196 132.776 101.406L132.777 101.408L133.175 104.923C133.221 105.334 132.993 105.727 132.613 105.89L132.218 106.059C131.849 106.217 131.42 106.214 131.152 105.915L129.268 103.902H125.845L123.96 105.915C123.692 106.214 123.263 106.263 122.894 106.105L122.5 105.913C122.119 105.751 121.891 105.335 121.938 104.925Z" fill="white"/>
</mask>
<g mask="url(#mask1_212_1897)">
<path d="M121.904 99.7294L122.718 99.231H122.276L121.904 99.4743V99.7294Z" fill="white"/>
</g>
<mask id="mask2_212_1897" style="mask-type:luminance" maskUnits="userSpaceOnUse" x="121" y="99" width="13" height="8">
<path d="M121.938 104.925L122.335 101.41L122.336 101.411C122.423 100.201 123.431 99.2366 124.662 99.2366C125.401 99.2366 126.06 99.231 126.487 100.107H128.625C129.052 99.2309 129.711 99.2366 130.45 99.2366C131.682 99.2366 132.69 100.196 132.776 101.406L132.777 101.408L133.175 104.923C133.221 105.334 132.993 105.727 132.613 105.89L132.218 106.059C131.849 106.217 131.42 106.214 131.152 105.915L129.268 103.902H125.845L123.96 105.915C123.692 106.214 123.263 106.263 122.894 106.105L122.5 105.913C122.119 105.751 121.891 105.335 121.938 104.925Z" fill="white"/>
</mask>
<g mask="url(#mask2_212_1897)">
<path d="M121.904 99.9845L123.16 99.231H122.718L121.904 99.7294V99.9845Z" fill="white"/>
</g>
<mask id="mask3_212_1897" style="mask-type:luminance" maskUnits="userSpaceOnUse" x="121" y="99" width="13" height="8">
<path d="M121.938 104.925L122.335 101.41L122.336 101.411C122.423 100.201 123.431 99.2366 124.662 99.2366C125.401 99.2366 126.06 99.231 126.487 100.107H128.625C129.052 99.2309 129.711 99.2366 130.45 99.2366C131.682 99.2366 132.69 100.196 132.776 101.406L132.777 101.408L133.175 104.923C133.221 105.334 132.993 105.727 132.613 105.89L132.218 106.059C131.849 106.217 131.42 106.214 131.152 105.915L129.268 103.902H125.845L123.96 105.915C123.692 106.214 123.263 106.263 122.894 106.105L122.5 105.913C122.119 105.751 121.891 105.335 121.938 104.925Z" fill="white"/>
</mask>
<g mask="url(#mask3_212_1897)">
<path d="M121.904 100.24L123.602 99.231H123.16L121.904 99.9845V100.24Z" fill="white"/>
</g>
<mask id="mask4_212_1897" style="mask-type:luminance" maskUnits="userSpaceOnUse" x="121" y="99" width="13" height="8">
<path d="M121.938 104.925L122.335 101.41L122.336 101.411C122.423 100.201 123.431 99.2366 124.662 99.2366C125.401 99.2366 126.06 99.231 126.487 100.107H128.625C129.052 99.2309 129.711 99.2366 130.45 99.2366C131.682 99.2366 132.69 100.196 132.776 101.406L132.777 101.408L133.175 104.923C133.221 105.334 132.993 105.727 132.613 105.89L132.218 106.059C131.849 106.217 131.42 106.214 131.152 105.915L129.268 103.902H125.845L123.96 105.915C123.692 106.214 123.263 106.263 122.894 106.105L122.5 105.913C122.119 105.751 121.891 105.335 121.938 104.925Z" fill="white"/>
</mask>
<g mask="url(#mask4_212_1897)">
<path d="M121.904 100.495L124.045 99.231H123.602L121.904 100.24V100.495Z" fill="white"/>
</g>
<mask id="mask5_212_1897" style="mask-type:luminance" maskUnits="userSpaceOnUse" x="121" y="99" width="13" height="8">
<path d="M121.938 104.925L122.335 101.41L122.336 101.411C122.423 100.201 123.431 99.2366 124.662 99.2366C125.401 99.2366 126.06 99.231 126.487 100.107H128.625C129.052 99.2309 129.711 99.2366 130.45 99.2366C131.682 99.2366 132.69 100.196 132.776 101.406L132.777 101.408L133.175 104.923C133.221 105.334 132.993 105.727 132.613 105.89L132.218 106.059C131.849 106.217 131.42 106.214 131.152 105.915L129.268 103.902H125.845L123.96 105.915C123.692 106.214 123.263 106.263 122.894 106.105L122.5 105.913C122.119 105.751 121.891 105.335 121.938 104.925Z" fill="white"/>
</mask>
<g mask="url(#mask5_212_1897)">
<path d="M121.904 100.75L124.487 99.231H124.045L121.904 100.495V100.75Z" fill="white"/>
</g>
<mask id="mask6_212_1897" style="mask-type:luminance" maskUnits="userSpaceOnUse" x="121" y="99" width="13" height="8">
<path d="M121.938 104.925L122.335 101.41L122.336 101.411C122.423 100.201 123.431 99.2366 124.662 99.2366C125.401 99.2366 126.06 99.231 126.487 100.107H128.625C129.052 99.2309 129.711 99.2366 130.45 99.2366C131.682 99.2366 132.69 100.196 132.776 101.406L132.777 101.408L133.175 104.923C133.221 105.334 132.993 105.727 132.613 105.89L132.218 106.059C131.849 106.217 131.42 106.214 131.152 105.915L129.268 103.902H125.845L123.96 105.915C123.692 106.214 123.263 106.263 122.894 106.105L122.5 105.913C122.119 105.751 121.891 105.335 121.938 104.925Z" fill="white"/>
</mask>
<g mask="url(#mask6_212_1897)">
<path d="M121.904 101.005L124.929 99.231H124.487L121.904 100.75V101.005Z" fill="white"/>
</g>
<mask id="mask7_212_1897" style="mask-type:luminance" maskUnits="userSpaceOnUse" x="121" y="99" width="13" height="8">
<path d="M121.938 104.925L122.335 101.41L122.336 101.411C122.423 100.201 123.431 99.2366 124.662 99.2366C125.401 99.2366 126.06 99.231 126.487 100.107H128.625C129.052 99.2309 129.711 99.2366 130.45 99.2366C131.682 99.2366 132.69 100.196 132.776 101.406L132.777 101.408L133.175 104.923C133.221 105.334 132.993 105.727 132.613 105.89L132.218 106.059C131.849 106.217 131.42 106.214 131.152 105.915L129.268 103.902H125.845L123.96 105.915C123.692 106.214 123.263 106.263 122.894 106.105L122.5 105.913C122.119 105.751 121.891 105.335 121.938 104.925Z" fill="white"/>
</mask>
<g mask="url(#mask7_212_1897)">
<path d="M121.904 101.26L125.371 99.231H124.929L121.904 101.005V101.26Z" fill="white"/>
</g>
<mask id="mask8_212_1897" style="mask-type:luminance" maskUnits="userSpaceOnUse" x="121" y="99" width="13" height="8">
<path d="M121.938 104.925L122.335 101.41L122.336 101.411C122.423 100.201 123.431 99.2366 124.662 99.2366C125.401 99.2366 126.06 99.231 126.487 100.107H128.625C129.052 99.2309 129.711 99.2366 130.45 99.2366C131.682 99.2366 132.69 100.196 132.776 101.406L132.777 101.408L133.175 104.923C133.221 105.334 132.993 105.727 132.613 105.89L132.218 106.059C131.849 106.217 131.42 106.214 131.152 105.915L129.268 103.902H125.845L123.96 105.915C123.692 106.214 123.263 106.263 122.894 106.105L122.5 105.913C122.119 105.751 121.891 105.335 121.938 104.925Z" fill="white"/>
</mask>
<g mask="url(#mask8_212_1897)">
<path d="M121.904 101.515L125.813 99.231H125.371L121.904 101.26V101.515Z" fill="white"/>
</g>
<mask id="mask9_212_1897" style="mask-type:luminance" maskUnits="userSpaceOnUse" x="121" y="99" width="13" height="8">
<path d="M121.938 104.925L122.335 101.41L122.336 101.411C122.423 100.201 123.431 99.2366 124.662 99.2366C125.401 99.2366 126.06 99.231 126.487 100.107H128.625C129.052 99.2309 129.711 99.2366 130.45 99.2366C131.682 99.2366 132.69 100.196 132.776 101.406L132.777 101.408L133.175 104.923C133.221 105.334 132.993 105.727 132.613 105.89L132.218 106.059C131.849 106.217 131.42 106.214 131.152 105.915L129.268 103.902H125.845L123.96 105.915C123.692 106.214 123.263 106.263 122.894 106.105L122.5 105.913C122.119 105.751 121.891 105.335 121.938 104.925Z" fill="white"/>
</mask>
<g mask="url(#mask9_212_1897)">
<path d="M121.904 101.77L126.255 99.231H125.813L121.904 101.515V101.77Z" fill="white"/>
</g>
<mask id="mask10_212_1897" style="mask-type:luminance" maskUnits="userSpaceOnUse" x="121" y="99" width="13" height="8">
<path d="M121.938 104.925L122.335 101.41L122.336 101.411C122.423 100.201 123.431 99.2366 124.662 99.2366C125.401 99.2366 126.06 99.231 126.487 100.107H128.625C129.052 99.2309 129.711 99.2366 130.45 99.2366C131.682 99.2366 132.69 100.196 132.776 101.406L132.777 101.408L133.175 104.923C133.221 105.334 132.993 105.727 132.613 105.89L132.218 106.059C131.849 106.217 131.42 106.214 131.152 105.915L129.268 103.902H125.845L123.96 105.915C123.692 106.214 123.263 106.263 122.894 106.105L122.5 105.913C122.119 105.751 121.891 105.335 121.938 104.925Z" fill="white"/>
</mask>
<g mask="url(#mask10_212_1897)">
<path d="M121.904 102.025L126.698 99.231H126.255L121.904 101.77V102.025Z" fill="white"/>
</g>
<mask id="mask11_212_1897" style="mask-type:luminance" maskUnits="userSpaceOnUse" x="121" y="99" width="13" height="8">
<path d="M121.938 104.925L122.335 101.41L122.336 101.411C122.423 100.201 123.431 99.2366 124.662 99.2366C125.401 99.2366 126.06 99.231 126.487 100.107H128.625C129.052 99.2309 129.711 99.2366 130.45 99.2366C131.682 99.2366 132.69 100.196 132.776 101.406L132.777 101.408L133.175 104.923C133.221 105.334 132.993 105.727 132.613 105.89L132.218 106.059C131.849 106.217 131.42 106.214 131.152 105.915L129.268 103.902H125.845L123.96 105.915C123.692 106.214 123.263 106.263 122.894 106.105L122.5 105.913C122.119 105.751 121.891 105.335 121.938 104.925Z" fill="white"/>
</mask>
<g mask="url(#mask11_212_1897)">
<path d="M121.904 102.28L127.14 99.231H126.698L121.904 102.025V102.28Z" fill="white"/>
</g>
<mask id="mask12_212_1897" style="mask-type:luminance" maskUnits="userSpaceOnUse" x="121" y="99" width="13" height="8">
<path d="M121.938 104.925L122.335 101.41L122.336 101.411C122.423 100.201 123.431 99.2366 124.662 99.2366C125.401 99.2366 126.06 99.231 126.487 100.107H128.625C129.052 99.2309 129.711 99.2366 130.45 99.2366C131.682 99.2366 132.69 100.196 132.776 101.406L132.777 101.408L133.175 104.923C133.221 105.334 132.993 105.727 132.613 105.89L132.218 106.059C131.849 106.217 131.42 106.214 131.152 105.915L129.268 103.902H125.845L123.96 105.915C123.692 106.214 123.263 106.263 122.894 106.105L122.5 105.913C122.119 105.751 121.891 105.335 121.938 104.925Z" fill="white"/>
</mask>
<g mask="url(#mask12_212_1897)">
<path d="M121.904 102.535L127.582 99.231H127.14L121.904 102.28V102.535Z" fill="white"/>
</g>
<mask id="mask13_212_1897" style="mask-type:luminance" maskUnits="userSpaceOnUse" x="121" y="99" width="13" height="8">
<path d="M121.938 104.925L122.335 101.41L122.336 101.411C122.423 100.201 123.431 99.2366 124.662 99.2366C125.401 99.2366 126.06 99.231 126.487 100.107H128.625C129.052 99.2309 129.711 99.2366 130.45 99.2366C131.682 99.2366 132.69 100.196 132.776 101.406L132.777 101.408L133.175 104.923C133.221 105.334 132.993 105.727 132.613 105.89L132.218 106.059C131.849 106.217 131.42 106.214 131.152 105.915L129.268 103.902H125.845L123.96 105.915C123.692 106.214 123.263 106.263 122.894 106.105L122.5 105.913C122.119 105.751 121.891 105.335 121.938 104.925Z" fill="white"/>
</mask>
<g mask="url(#mask13_212_1897)">
<path d="M121.904 102.791L128.024 99.231H127.582L121.904 102.535V102.791Z" fill="white"/>
</g>
<mask id="mask14_212_1897" style="mask-type:luminance" maskUnits="userSpaceOnUse" x="121" y="99" width="13" height="8">
<path d="M121.938 104.925L122.335 101.41L122.336 101.411C122.423 100.201 123.431 99.2366 124.662 99.2366C125.401 99.2366 126.06 99.231 126.487 100.107H128.625C129.052 99.2309 129.711 99.2366 130.45 99.2366C131.682 99.2366 132.69 100.196 132.776 101.406L132.777 101.408L133.175 104.923C133.221 105.334 132.993 105.727 132.613 105.89L132.218 106.059C131.849 106.217 131.42 106.214 131.152 105.915L129.268 103.902H125.845L123.96 105.915C123.692 106.214 123.263 106.263 122.894 106.105L122.5 105.913C122.119 105.751 121.891 105.335 121.938 104.925Z" fill="white"/>
</mask>
<g mask="url(#mask14_212_1897)">
<path d="M121.904 103.046L128.466 99.231H128.024L121.904 102.791V103.046Z" fill="white"/>
</g>
<mask id="mask15_212_1897" style="mask-type:luminance" maskUnits="userSpaceOnUse" x="121" y="99" width="13" height="8">
<path d="M121.938 104.925L122.335 101.41L122.336 101.411C122.423 100.201 123.431 99.2366 124.662 99.2366C125.401 99.2366 126.06 99.231 126.487 100.107H128.625C129.052 99.2309 129.711 99.2366 130.45 99.2366C131.682 99.2366 132.69 100.196 132.776 101.406L132.777 101.408L133.175 104.923C133.221 105.334 132.993 105.727 132.613 105.89L132.218 106.059C131.849 106.217 131.42 106.214 131.152 105.915L129.268 103.902H125.845L123.96 105.915C123.692 106.214 123.263 106.263 122.894 106.105L122.5 105.913C122.119 105.751 121.891 105.335 121.938 104.925Z" fill="white"/>
</mask>
<g mask="url(#mask15_212_1897)">
<path d="M121.904 103.301L128.908 99.231H128.466L121.904 103.046V103.301Z" fill="white"/>
</g>
<mask id="mask16_212_1897" style="mask-type:luminance" maskUnits="userSpaceOnUse" x="121" y="99" width="13" height="8">
<path d="M121.938 104.925L122.335 101.41L122.336 101.411C122.423 100.201 123.431 99.2366 124.662 99.2366C125.401 99.2366 126.06 99.231 126.487 100.107H128.625C129.052 99.2309 129.711 99.2366 130.45 99.2366C131.682 99.2366 132.69 100.196 132.776 101.406L132.777 101.408L133.175 104.923C133.221 105.334 132.993 105.727 132.613 105.89L132.218 106.059C131.849 106.217 131.42 106.214 131.152 105.915L129.268 103.902H125.845L123.96 105.915C123.692 106.214 123.263 106.263 122.894 106.105L122.5 105.913C122.119 105.751 121.891 105.335 121.938 104.925Z" fill="white"/>
</mask>
<g mask="url(#mask16_212_1897)">
<path d="M121.904 103.556L129.351 99.231H128.908L121.904 103.301V103.556Z" fill="white"/>
</g>
<mask id="mask17_212_1897" style="mask-type:luminance" maskUnits="userSpaceOnUse" x="121" y="99" width="13" height="8">
<path d="M121.938 104.925L122.335 101.41L122.336 101.411C122.423 100.201 123.431 99.2366 124.662 99.2366C125.401 99.2366 126.06 99.231 126.487 100.107H128.625C129.052 99.2309 129.711 99.2366 130.45 99.2366C131.682 99.2366 132.69 100.196 132.776 101.406L132.777 101.408L133.175 104.923C133.221 105.334 132.993 105.727 132.613 105.89L132.218 106.059C131.849 106.217 131.42 106.214 131.152 105.915L129.268 103.902H125.845L123.96 105.915C123.692 106.214 123.263 106.263 122.894 106.105L122.5 105.913C122.119 105.751 121.891 105.335 121.938 104.925Z" fill="white"/>
</mask>
<g mask="url(#mask17_212_1897)">
<path d="M121.904 103.811L129.793 99.231H129.351L121.904 103.556V103.811Z" fill="white"/>
</g>
<mask id="mask18_212_1897" style="mask-type:luminance" maskUnits="userSpaceOnUse" x="121" y="99" width="13" height="8">
<path d="M121.938 104.925L122.335 101.41L122.336 101.411C122.423 100.201 123.431 99.2366 124.662 99.2366C125.401 99.2366 126.06 99.231 126.487 100.107H128.625C129.052 99.2309 129.711 99.2366 130.45 99.2366C131.682 99.2366 132.69 100.196 132.776 101.406L132.777 101.408L133.175 104.923C133.221 105.334 132.993 105.727 132.613 105.89L132.218 106.059C131.849 106.217 131.42 106.214 131.152 105.915L129.268 103.902H125.845L123.96 105.915C123.692 106.214 123.263 106.263 122.894 106.105L122.5 105.913C122.119 105.751 121.891 105.335 121.938 104.925Z" fill="white"/>
</mask>
<g mask="url(#mask18_212_1897)">
<path d="M121.904 104.066L130.235 99.231H129.793L121.904 103.811V104.066Z" fill="white"/>
</g>
<mask id="mask19_212_1897" style="mask-type:luminance" maskUnits="userSpaceOnUse" x="121" y="99" width="13" height="8">
<path d="M121.938 104.925L122.335 101.41L122.336 101.411C122.423 100.201 123.431 99.2366 124.662 99.2366C125.401 99.2366 126.06 99.231 126.487 100.107H128.625C129.052 99.2309 129.711 99.2366 130.45 99.2366C131.682 99.2366 132.69 100.196 132.776 101.406L132.777 101.408L133.175 104.923C133.221 105.334 132.993 105.727 132.613 105.89L132.218 106.059C131.849 106.217 131.42 106.214 131.152 105.915L129.268 103.902H125.845L123.96 105.915C123.692 106.214 123.263 106.263 122.894 106.105L122.5 105.913C122.119 105.751 121.891 105.335 121.938 104.925Z" fill="white"/>
</mask>
<g mask="url(#mask19_212_1897)">
<path d="M121.904 104.321L130.677 99.231H130.235L121.904 104.066V104.321Z" fill="white"/>
</g>
<mask id="mask20_212_1897" style="mask-type:luminance" maskUnits="userSpaceOnUse" x="121" y="99" width="13" height="8">
<path d="M121.938 104.925L122.335 101.41L122.336 101.411C122.423 100.201 123.431 99.2366 124.662 99.2366C125.401 99.2366 126.06 99.231 126.487 100.107H128.625C129.052 99.2309 129.711 99.2366 130.45 99.2366C131.682 99.2366 132.69 100.196 132.776 101.406L132.777 101.408L133.175 104.923C133.221 105.334 132.993 105.727 132.613 105.89L132.218 106.059C131.849 106.217 131.42 106.214 131.152 105.915L129.268 103.902H125.845L123.96 105.915C123.692 106.214 123.263 106.263 122.894 106.105L122.5 105.913C122.119 105.751 121.891 105.335 121.938 104.925Z" fill="white"/>
</mask>
<g mask="url(#mask20_212_1897)">
<path d="M121.904 104.576L131.119 99.231H130.677L121.904 104.321V104.576Z" fill="white"/>
</g>
<mask id="mask21_212_1897" style="mask-type:luminance" maskUnits="userSpaceOnUse" x="121" y="99" width="13" height="8">
<path d="M121.938 104.925L122.335 101.41L122.336 101.411C122.423 100.201 123.431 99.2366 124.662 99.2366C125.401 99.2366 126.06 99.231 126.487 100.107H128.625C129.052 99.2309 129.711 99.2366 130.45 99.2366C131.682 99.2366 132.69 100.196 132.776 101.406L132.777 101.408L133.175 104.923C133.221 105.334 132.993 105.727 132.613 105.89L132.218 106.059C131.849 106.217 131.42 106.214 131.152 105.915L129.268 103.902H125.845L123.96 105.915C123.692 106.214 123.263 106.263 122.894 106.105L122.5 105.913C122.119 105.751 121.891 105.335 121.938 104.925Z" fill="white"/>
</mask>
<g mask="url(#mask21_212_1897)">
<path d="M121.904 104.831L131.562 99.231H131.119L121.904 104.576V104.831Z" fill="white"/>
</g>
<mask id="mask22_212_1897" style="mask-type:luminance" maskUnits="userSpaceOnUse" x="121" y="99" width="13" height="8">
<path d="M121.938 104.925L122.335 101.41L122.336 101.411C122.423 100.201 123.431 99.2366 124.662 99.2366C125.401 99.2366 126.06 99.231 126.487 100.107H128.625C129.052 99.2309 129.711 99.2366 130.45 99.2366C131.682 99.2366 132.69 100.196 132.776 101.406L132.777 101.408L133.175 104.923C133.221 105.334 132.993 105.727 132.613 105.89L132.218 106.059C131.849 106.217 131.42 106.214 131.152 105.915L129.268 103.902H125.845L123.96 105.915C123.692 106.214 123.263 106.263 122.894 106.105L122.5 105.913C122.119 105.751 121.891 105.335 121.938 104.925Z" fill="white"/>
</mask>
<g mask="url(#mask22_212_1897)">
<path d="M121.904 105.086L132.004 99.231H131.562L121.904 104.831V105.086Z" fill="white"/>
</g>
<mask id="mask23_212_1897" style="mask-type:luminance" maskUnits="userSpaceOnUse" x="121" y="99" width="13" height="8">
<path d="M121.938 104.925L122.335 101.41L122.336 101.411C122.423 100.201 123.431 99.2366 124.662 99.2366C125.401 99.2366 126.06 99.231 126.487 100.107H128.625C129.052 99.2309 129.711 99.2366 130.45 99.2366C131.682 99.2366 132.69 100.196 132.776 101.406L132.777 101.408L133.175 104.923C133.221 105.334 132.993 105.727 132.613 105.89L132.218 106.059C131.849 106.217 131.42 106.214 131.152 105.915L129.268 103.902H125.845L123.96 105.915C123.692 106.214 123.263 106.263 122.894 106.105L122.5 105.913C122.119 105.751 121.891 105.335 121.938 104.925Z" fill="white"/>
</mask>
<g mask="url(#mask23_212_1897)">
<path d="M121.904 105.342L132.376 99.2859L132.344 99.231H132.004L121.904 105.086V105.342Z" fill="white"/>
</g>
<mask id="mask24_212_1897" style="mask-type:luminance" maskUnits="userSpaceOnUse" x="121" y="99" width="13" height="8">
<path d="M121.938 104.925L122.335 101.41L122.336 101.411C122.423 100.201 123.431 99.2366 124.662 99.2366C125.401 99.2366 126.06 99.231 126.487 100.107H128.625C129.052 99.2309 129.711 99.2366 130.45 99.2366C131.682 99.2366 132.69 100.196 132.776 101.406L132.777 101.408L133.175 104.923C133.221 105.334 132.993 105.727 132.613 105.89L132.218 106.059C131.849 106.217 131.42 106.214 131.152 105.915L129.268 103.902H125.845L123.96 105.915C123.692 106.214 123.263 106.263 122.894 106.105L122.5 105.913C122.119 105.751 121.891 105.335 121.938 104.925Z" fill="white"/>
</mask>
<g mask="url(#mask24_212_1897)">
<path d="M121.904 105.597L132.486 99.4878L132.379 99.2965L121.904 105.342V105.597Z" fill="white"/>
</g>
<mask id="mask25_212_1897" style="mask-type:luminance" maskUnits="userSpaceOnUse" x="121" y="99" width="13" height="8">
<path d="M121.938 104.925L122.335 101.41L122.336 101.411C122.423 100.201 123.431 99.2366 124.662 99.2366C125.401 99.2366 126.06 99.231 126.487 100.107H128.625C129.052 99.2309 129.711 99.2366 130.45 99.2366C131.682 99.2366 132.69 100.196 132.776 101.406L132.777 101.408L133.175 104.923C133.221 105.334 132.993 105.727 132.613 105.89L132.218 106.059C131.849 106.217 131.42 106.214 131.152 105.915L129.268 103.902H125.845L123.96 105.915C123.692 106.214 123.263 106.263 122.894 106.105L122.5 105.913C122.119 105.751 121.891 105.335 121.938 104.925Z" fill="white"/>
</mask>
<g mask="url(#mask25_212_1897)">
<path d="M121.904 105.688L121.969 105.811L132.593 99.6793L132.488 99.4879L121.904 105.597V105.688Z" fill="white"/>
</g>
<mask id="mask26_212_1897" style="mask-type:luminance" maskUnits="userSpaceOnUse" x="122" y="97" width="12" height="11">
<path d="M123.702 107.336L122.291 104.093L122.291 104.093C121.762 103.002 122.153 101.663 123.22 101.047C123.86 100.678 124.428 100.344 125.235 100.889L127.087 99.8209C127.02 98.8486 127.593 98.5245 128.233 98.1551C129.3 97.5397 130.653 97.8672 131.332 98.8715L131.334 98.8732L133.435 101.72C133.68 102.052 133.679 102.507 133.431 102.837L133.174 103.181C132.933 103.503 132.56 103.714 132.179 103.589L129.54 102.787L126.576 104.498L125.949 107.183C125.866 107.576 125.519 107.833 125.121 107.88L124.683 107.912C124.272 107.961 123.867 107.715 123.702 107.336Z" fill="white"/>
</mask>
<g mask="url(#mask26_212_1897)">
<path d="M132.591 99.6742L121.963 105.806L122.073 105.997L132.702 99.8656L132.591 99.6742Z" fill="white"/>
</g>
<mask id="mask27_212_1897" style="mask-type:luminance" maskUnits="userSpaceOnUse" x="121" y="97" width="13" height="12">
<path d="M123.619 107.425L122.208 104.183L122.208 104.183C121.679 103.092 122.07 101.752 123.137 101.137C123.777 100.767 124.345 100.434 125.152 100.979L127.004 99.9104C126.937 98.9382 127.51 98.6141 128.15 98.2447C129.217 97.6293 130.57 97.9568 131.249 98.9611L131.251 98.9627L133.352 101.809C133.597 102.142 133.596 102.596 133.348 102.927L133.091 103.271C132.85 103.592 132.477 103.804 132.096 103.679L129.457 102.877L126.493 104.587L125.866 107.273C125.783 107.666 125.436 107.922 125.038 107.97L124.6 108.001C124.189 108.05 123.784 107.804 123.619 107.425Z" fill="white"/>
</mask>
<g mask="url(#mask27_212_1897)">
<path d="M132.7 99.8743L122.071 106.006L122.182 106.197L132.81 100.066L132.7 99.8743Z" fill="white"/>
</g>
<mask id="mask28_212_1897" style="mask-type:luminance" maskUnits="userSpaceOnUse" x="121" y="99" width="13" height="8">
<path d="M121.938 104.925L122.335 101.41L122.336 101.411C122.423 100.201 123.431 99.2366 124.662 99.2366C125.401 99.2366 126.06 99.231 126.487 100.107H128.625C129.052 99.2309 129.711 99.2366 130.45 99.2366C131.682 99.2366 132.69 100.196 132.776 101.406L132.777 101.408L133.175 104.923C133.221 105.334 132.993 105.727 132.613 105.89L132.218 106.059C131.849 106.217 131.42 106.214 131.152 105.915L129.268 103.902H125.845L123.96 105.915C123.692 106.214 123.263 106.263 122.894 106.105L122.5 105.913C122.119 105.751 121.891 105.335 121.938 104.925Z" fill="white"/>
</mask>
<g mask="url(#mask28_212_1897)">
<path d="M122.183 106.2L122.201 106.238H122.57L132.921 100.26L132.811 100.068L122.183 106.2Z" fill="white"/>
</g>
<mask id="mask29_212_1897" style="mask-type:luminance" maskUnits="userSpaceOnUse" x="121" y="99" width="13" height="8">
<path d="M121.938 104.925L122.335 101.41L122.336 101.411C122.423 100.201 123.431 99.2366 124.662 99.2366C125.401 99.2366 126.06 99.231 126.487 100.107H128.625C129.052 99.2309 129.711 99.2366 130.45 99.2366C131.682 99.2366 132.69 100.196 132.776 101.406L132.777 101.408L133.175 104.923C133.221 105.334 132.993 105.727 132.613 105.89L132.218 106.059C131.849 106.217 131.42 106.214 131.152 105.915L129.268 103.902H125.845L123.96 105.915C123.692 106.214 123.263 106.263 122.894 106.105L122.5 105.913C122.119 105.751 121.891 105.335 121.938 104.925Z" fill="white"/>
</mask>
<g mask="url(#mask29_212_1897)">
<path d="M123.012 106.238L133.032 100.451L132.921 100.263L122.57 106.238H123.012Z" fill="white"/>
</g>
<mask id="mask30_212_1897" style="mask-type:luminance" maskUnits="userSpaceOnUse" x="121" y="99" width="13" height="8">
<path d="M121.938 104.925L122.335 101.41L122.336 101.411C122.423 100.201 123.431 99.2366 124.662 99.2366C125.401 99.2366 126.06 99.231 126.487 100.107H128.625C129.052 99.2309 129.711 99.2366 130.45 99.2366C131.682 99.2366 132.69 100.196 132.776 101.406L132.777 101.408L133.175 104.923C133.221 105.334 132.993 105.727 132.613 105.89L132.218 106.059C131.849 106.217 131.42 106.214 131.152 105.915L129.268 103.902H125.845L123.96 105.915C123.692 106.214 123.263 106.263 122.894 106.105L122.5 105.913C122.119 105.751 121.891 105.335 121.938 104.925Z" fill="white"/>
</mask>
<g mask="url(#mask30_212_1897)">
<path d="M123.455 106.238L133.142 100.643L133.032 100.454L123.013 106.238H123.455Z" fill="white"/>
</g>
<mask id="mask31_212_1897" style="mask-type:luminance" maskUnits="userSpaceOnUse" x="121" y="99" width="13" height="8">
<path d="M121.938 104.925L122.335 101.41L122.336 101.411C122.423 100.201 123.431 99.2366 124.662 99.2366C125.401 99.2366 126.06 99.231 126.487 100.107H128.625C129.052 99.2309 129.711 99.2366 130.45 99.2366C131.682 99.2366 132.69 100.196 132.776 101.406L132.777 101.408L133.175 104.923C133.221 105.334 132.993 105.727 132.613 105.89L132.218 106.059C131.849 106.217 131.42 106.214 131.152 105.915L129.268 103.902H125.845L123.96 105.915C123.692 106.214 123.263 106.263 122.894 106.105L122.5 105.913C122.119 105.751 121.891 105.335 121.938 104.925Z" fill="white"/>
</mask>
<g mask="url(#mask31_212_1897)">
<path d="M123.897 106.238L133.291 100.846V100.773L133.177 100.643L123.455 106.238H123.897Z" fill="white"/>
</g>
<mask id="mask32_212_1897" style="mask-type:luminance" maskUnits="userSpaceOnUse" x="121" y="99" width="13" height="8">
<path d="M121.938 104.925L122.335 101.41L122.336 101.411C122.423 100.201 123.431 99.2366 124.662 99.2366C125.401 99.2366 126.06 99.231 126.487 100.107H128.625C129.052 99.2309 129.711 99.2366 130.45 99.2366C131.682 99.2366 132.69 100.196 132.776 101.406L132.777 101.408L133.175 104.923C133.221 105.334 132.993 105.727 132.613 105.89L132.218 106.059C131.849 106.217 131.42 106.214 131.152 105.915L129.268 103.902H125.845L123.96 105.915C123.692 106.214 123.263 106.263 122.894 106.105L122.5 105.913C122.119 105.751 121.891 105.335 121.938 104.925Z" fill="white"/>
</mask>
<g mask="url(#mask32_212_1897)">
<path d="M124.34 106.238L133.291 101.101V100.846L123.897 106.238H124.34Z" fill="white"/>
</g>
<mask id="mask33_212_1897" style="mask-type:luminance" maskUnits="userSpaceOnUse" x="121" y="99" width="13" height="8">
<path d="M121.938 104.925L122.335 101.41L122.336 101.411C122.423 100.201 123.431 99.2366 124.662 99.2366C125.401 99.2366 126.06 99.231 126.487 100.107H128.625C129.052 99.2309 129.711 99.2366 130.45 99.2366C131.682 99.2366 132.69 100.196 132.776 101.406L132.777 101.408L133.175 104.923C133.221 105.334 132.993 105.727 132.613 105.89L132.218 106.059C131.849 106.217 131.42 106.214 131.152 105.915L129.268 103.902H125.845L123.96 105.915C123.692 106.214 123.263 106.263 122.894 106.105L122.5 105.913C122.119 105.751 121.891 105.335 121.938 104.925Z" fill="white"/>
</mask>
<g mask="url(#mask33_212_1897)">
<path d="M124.782 106.238L133.291 101.356V101.101L124.34 106.238H124.782Z" fill="white"/>
</g>
<mask id="mask34_212_1897" style="mask-type:luminance" maskUnits="userSpaceOnUse" x="121" y="99" width="13" height="8">
<path d="M121.938 104.925L122.335 101.41L122.336 101.411C122.423 100.201 123.431 99.2366 124.662 99.2366C125.401 99.2366 126.06 99.231 126.487 100.107H128.625C129.052 99.2309 129.711 99.2366 130.45 99.2366C131.682 99.2366 132.69 100.196 132.776 101.406L132.777 101.408L133.175 104.923C133.221 105.334 132.993 105.727 132.613 105.89L132.218 106.059C131.849 106.217 131.42 106.214 131.152 105.915L129.268 103.902H125.845L123.96 105.915C123.692 106.214 123.263 106.263 122.894 106.105L122.5 105.913C122.119 105.751 121.891 105.335 121.938 104.925Z" fill="white"/>
</mask>
<g mask="url(#mask34_212_1897)">
<path d="M125.223 106.238L133.29 101.611V101.356L124.781 106.238H125.223Z" fill="white"/>
</g>
<mask id="mask35_212_1897" style="mask-type:luminance" maskUnits="userSpaceOnUse" x="121" y="99" width="13" height="8">
<path d="M121.938 104.925L122.335 101.41L122.336 101.411C122.423 100.201 123.431 99.2366 124.662 99.2366C125.401 99.2366 126.06 99.231 126.487 100.107H128.625C129.052 99.2309 129.711 99.2366 130.45 99.2366C131.682 99.2366 132.69 100.196 132.776 101.406L132.777 101.408L133.175 104.923C133.221 105.334 132.993 105.727 132.613 105.89L132.218 106.059C131.849 106.217 131.42 106.214 131.152 105.915L129.268 103.902H125.845L123.96 105.915C123.692 106.214 123.263 106.263 122.894 106.105L122.5 105.913C122.119 105.751 121.891 105.335 121.938 104.925Z" fill="white"/>
</mask>
<g mask="url(#mask35_212_1897)">
<path d="M125.666 106.238L133.291 101.866V101.611L125.224 106.238H125.666Z" fill="white"/>
</g>
<mask id="mask36_212_1897" style="mask-type:luminance" maskUnits="userSpaceOnUse" x="121" y="99" width="13" height="8">
<path d="M121.938 104.925L122.335 101.41L122.336 101.411C122.423 100.201 123.431 99.2366 124.662 99.2366C125.401 99.2366 126.06 99.231 126.487 100.107H128.625C129.052 99.2309 129.711 99.2366 130.45 99.2366C131.682 99.2366 132.69 100.196 132.776 101.406L132.777 101.408L133.175 104.923C133.221 105.334 132.993 105.727 132.613 105.89L132.218 106.059C131.849 106.217 131.42 106.214 131.152 105.915L129.268 103.902H125.845L123.96 105.915C123.692 106.214 123.263 106.263 122.894 106.105L122.5 105.913C122.119 105.751 121.891 105.335 121.938 104.925Z" fill="white"/>
</mask>
<g mask="url(#mask36_212_1897)">
<path d="M126.108 106.238L133.291 102.121V101.866L125.666 106.238H126.108Z" fill="white"/>
</g>
<mask id="mask37_212_1897" style="mask-type:luminance" maskUnits="userSpaceOnUse" x="121" y="99" width="13" height="8">
<path d="M121.938 104.925L122.335 101.41L122.336 101.411C122.423 100.201 123.431 99.2366 124.662 99.2366C125.401 99.2366 126.06 99.231 126.487 100.107H128.625C129.052 99.2309 129.711 99.2366 130.45 99.2366C131.682 99.2366 132.69 100.196 132.776 101.406L132.777 101.408L133.175 104.923C133.221 105.334 132.993 105.727 132.613 105.89L132.218 106.059C131.849 106.217 131.42 106.214 131.152 105.915L129.268 103.902H125.845L123.96 105.915C123.692 106.214 123.263 106.263 122.894 106.105L122.5 105.913C122.119 105.751 121.891 105.335 121.938 104.925Z" fill="white"/>
</mask>
<g mask="url(#mask37_212_1897)">
<path d="M126.551 106.238L133.291 102.376V102.121L126.108 106.238H126.551Z" fill="white"/>
</g>
<mask id="mask38_212_1897" style="mask-type:luminance" maskUnits="userSpaceOnUse" x="121" y="99" width="13" height="8">
<path d="M121.938 104.925L122.335 101.41L122.336 101.411C122.423 100.201 123.431 99.2366 124.662 99.2366C125.401 99.2366 126.06 99.231 126.487 100.107H128.625C129.052 99.2309 129.711 99.2366 130.45 99.2366C131.682 99.2366 132.69 100.196 132.776 101.406L132.777 101.408L133.175 104.923C133.221 105.334 132.993 105.727 132.613 105.89L132.218 106.059C131.849 106.217 131.42 106.214 131.152 105.915L129.268 103.902H125.845L123.96 105.915C123.692 106.214 123.263 106.263 122.894 106.105L122.5 105.913C122.119 105.751 121.891 105.335 121.938 104.925Z" fill="white"/>
</mask>
<g mask="url(#mask38_212_1897)">
<path d="M126.992 106.238L133.29 102.631V102.376L126.55 106.238H126.992Z" fill="white"/>
</g>
<mask id="mask39_212_1897" style="mask-type:luminance" maskUnits="userSpaceOnUse" x="121" y="99" width="13" height="8">
<path d="M121.938 104.925L122.335 101.41L122.336 101.411C122.423 100.201 123.431 99.2366 124.662 99.2366C125.401 99.2366 126.06 99.231 126.487 100.107H128.625C129.052 99.2309 129.711 99.2366 130.45 99.2366C131.682 99.2366 132.69 100.196 132.776 101.406L132.777 101.408L133.175 104.923C133.221 105.334 132.993 105.727 132.613 105.89L132.218 106.059C131.849 106.217 131.42 106.214 131.152 105.915L129.268 103.902H125.845L123.96 105.915C123.692 106.214 123.263 106.263 122.894 106.105L122.5 105.913C122.119 105.751 121.891 105.335 121.938 104.925Z" fill="white"/>
</mask>
<g mask="url(#mask39_212_1897)">
<path d="M127.434 106.238L133.29 102.887V102.631L126.992 106.238H127.434Z" fill="white"/>
</g>
<mask id="mask40_212_1897" style="mask-type:luminance" maskUnits="userSpaceOnUse" x="121" y="99" width="13" height="8">
<path d="M121.938 104.925L122.335 101.41L122.336 101.411C122.423 100.201 123.431 99.2366 124.662 99.2366C125.401 99.2366 126.06 99.231 126.487 100.107H128.625C129.052 99.2309 129.711 99.2366 130.45 99.2366C131.682 99.2366 132.69 100.196 132.776 101.406L132.777 101.408L133.175 104.923C133.221 105.334 132.993 105.727 132.613 105.89L132.218 106.059C131.849 106.217 131.42 106.214 131.152 105.915L129.268 103.902H125.845L123.96 105.915C123.692 106.214 123.263 106.263 122.894 106.105L122.5 105.913C122.119 105.751 121.891 105.335 121.938 104.925Z" fill="white"/>
</mask>
<g mask="url(#mask40_212_1897)">
<path d="M127.877 106.238L133.291 103.142V102.887L127.435 106.238H127.877Z" fill="white"/>
</g>
<mask id="mask41_212_1897" style="mask-type:luminance" maskUnits="userSpaceOnUse" x="121" y="99" width="13" height="8">
<path d="M121.938 104.925L122.335 101.41L122.336 101.411C122.423 100.201 123.431 99.2366 124.662 99.2366C125.401 99.2366 126.06 99.231 126.487 100.107H128.625C129.052 99.2309 129.711 99.2366 130.45 99.2366C131.682 99.2366 132.69 100.196 132.776 101.406L132.777 101.408L133.175 104.923C133.221 105.334 132.993 105.727 132.613 105.89L132.218 106.059C131.849 106.217 131.42 106.214 131.152 105.915L129.268 103.902H125.845L123.96 105.915C123.692 106.214 123.263 106.263 122.894 106.105L122.5 105.913C122.119 105.751 121.891 105.335 121.938 104.925Z" fill="white"/>
</mask>
<g mask="url(#mask41_212_1897)">
<path d="M128.319 106.238L133.291 103.397V103.142L127.877 106.238H128.319Z" fill="white"/>
</g>
<mask id="mask42_212_1897" style="mask-type:luminance" maskUnits="userSpaceOnUse" x="121" y="99" width="13" height="8">
<path d="M121.938 104.925L122.335 101.41L122.336 101.411C122.423 100.201 123.431 99.2366 124.662 99.2366C125.401 99.2366 126.06 99.231 126.487 100.107H128.625C129.052 99.2309 129.711 99.2366 130.45 99.2366C131.682 99.2366 132.69 100.196 132.776 101.406L132.777 101.408L133.175 104.923C133.221 105.334 132.993 105.727 132.613 105.89L132.218 106.059C131.849 106.217 131.42 106.214 131.152 105.915L129.268 103.902H125.845L123.96 105.915C123.692 106.214 123.263 106.263 122.894 106.105L122.5 105.913C122.119 105.751 121.891 105.335 121.938 104.925Z" fill="white"/>
</mask>
<g mask="url(#mask42_212_1897)">
<path d="M128.761 106.238L133.29 103.652V103.397L128.318 106.238H128.761Z" fill="white"/>
</g>
<mask id="mask43_212_1897" style="mask-type:luminance" maskUnits="userSpaceOnUse" x="121" y="99" width="13" height="8">
<path d="M121.938 104.925L122.335 101.41L122.336 101.411C122.423 100.201 123.431 99.2366 124.662 99.2366C125.401 99.2366 126.06 99.231 126.487 100.107H128.625C129.052 99.2309 129.711 99.2366 130.45 99.2366C131.682 99.2366 132.69 100.196 132.776 101.406L132.777 101.408L133.175 104.923C133.221 105.334 132.993 105.727 132.613 105.89L132.218 106.059C131.849 106.217 131.42 106.214 131.152 105.915L129.268 103.902H125.845L123.96 105.915C123.692 106.214 123.263 106.263 122.894 106.105L122.5 105.913C122.119 105.751 121.891 105.335 121.938 104.925Z" fill="white"/>
</mask>
<g mask="url(#mask43_212_1897)">
<path d="M129.203 106.238L133.29 103.907V103.652L128.761 106.238H129.203Z" fill="white"/>
</g>
<mask id="mask44_212_1897" style="mask-type:luminance" maskUnits="userSpaceOnUse" x="121" y="99" width="13" height="8">
<path d="M121.938 104.925L122.335 101.41L122.336 101.411C122.423 100.201 123.431 99.2366 124.662 99.2366C125.401 99.2366 126.06 99.231 126.487 100.107H128.625C129.052 99.2309 129.711 99.2366 130.45 99.2366C131.682 99.2366 132.69 100.196 132.776 101.406L132.777 101.408L133.175 104.923C133.221 105.334 132.993 105.727 132.613 105.89L132.218 106.059C131.849 106.217 131.42 106.214 131.152 105.915L129.268 103.902H125.845L123.96 105.915C123.692 106.214 123.263 106.263 122.894 106.105L122.5 105.913C122.119 105.751 121.891 105.335 121.938 104.925Z" fill="white"/>
</mask>
<g mask="url(#mask44_212_1897)">
<path d="M129.645 106.238L133.291 104.162V103.907L129.203 106.238H129.645Z" fill="white"/>
</g>
<mask id="mask45_212_1897" style="mask-type:luminance" maskUnits="userSpaceOnUse" x="121" y="99" width="13" height="8">
<path d="M121.938 104.925L122.335 101.41L122.336 101.411C122.423 100.201 123.431 99.2366 124.662 99.2366C125.401 99.2366 126.06 99.231 126.487 100.107H128.625C129.052 99.2309 129.711 99.2366 130.45 99.2366C131.682 99.2366 132.69 100.196 132.776 101.406L132.777 101.408L133.175 104.923C133.221 105.334 132.993 105.727 132.613 105.89L132.218 106.059C131.849 106.217 131.42 106.214 131.152 105.915L129.268 103.902H125.845L123.96 105.915C123.692 106.214 123.263 106.263 122.894 106.105L122.5 105.913C122.119 105.751 121.891 105.335 121.938 104.925Z" fill="white"/>
</mask>
<g mask="url(#mask45_212_1897)">
<path d="M130.088 106.238L133.291 104.417V104.162L129.646 106.238H130.088Z" fill="white"/>
</g>
<mask id="mask46_212_1897" style="mask-type:luminance" maskUnits="userSpaceOnUse" x="121" y="99" width="13" height="8">
<path d="M121.938 104.925L122.335 101.41L122.336 101.411C122.423 100.201 123.431 99.2366 124.662 99.2366C125.401 99.2366 126.06 99.231 126.487 100.107H128.625C129.052 99.2309 129.711 99.2366 130.45 99.2366C131.682 99.2366 132.69 100.196 132.776 101.406L132.777 101.408L133.175 104.923C133.221 105.334 132.993 105.727 132.613 105.89L132.218 106.059C131.849 106.217 131.42 106.214 131.152 105.915L129.268 103.902H125.845L123.96 105.915C123.692 106.214 123.263 106.263 122.894 106.105L122.5 105.913C122.119 105.751 121.891 105.335 121.938 104.925Z" fill="white"/>
</mask>
<g mask="url(#mask46_212_1897)">
<path d="M130.529 106.238L133.29 104.672V104.417L130.087 106.238H130.529Z" fill="white"/>
</g>
<mask id="mask47_212_1897" style="mask-type:luminance" maskUnits="userSpaceOnUse" x="121" y="99" width="13" height="8">
<path d="M121.938 104.925L122.335 101.41L122.336 101.411C122.423 100.201 123.431 99.2366 124.662 99.2366C125.401 99.2366 126.06 99.231 126.487 100.107H128.625C129.052 99.2309 129.711 99.2366 130.45 99.2366C131.682 99.2366 132.69 100.196 132.776 101.406L132.777 101.408L133.175 104.923C133.221 105.334 132.993 105.727 132.613 105.89L132.218 106.059C131.849 106.217 131.42 106.214 131.152 105.915L129.268 103.902H125.845L123.96 105.915C123.692 106.214 123.263 106.263 122.894 106.105L122.5 105.913C122.119 105.751 121.891 105.335 121.938 104.925Z" fill="white"/>
</mask>
<g mask="url(#mask47_212_1897)">
<path d="M130.972 106.238L133.29 104.927V104.672L130.529 106.238H130.972Z" fill="white"/>
</g>
<mask id="mask48_212_1897" style="mask-type:luminance" maskUnits="userSpaceOnUse" x="121" y="99" width="13" height="8">
<path d="M121.938 104.925L122.335 101.41L122.336 101.411C122.423 100.201 123.431 99.2366 124.662 99.2366C125.401 99.2366 126.06 99.231 126.487 100.107H128.625C129.052 99.2309 129.711 99.2366 130.45 99.2366C131.682 99.2366 132.69 100.196 132.776 101.406L132.777 101.408L133.175 104.923C133.221 105.334 132.993 105.727 132.613 105.89L132.218 106.059C131.849 106.217 131.42 106.214 131.152 105.915L129.268 103.902H125.845L123.96 105.915C123.692 106.214 123.263 106.263 122.894 106.105L122.5 105.913C122.119 105.751 121.891 105.335 121.938 104.925Z" fill="white"/>
</mask>
<g mask="url(#mask48_212_1897)">
<path d="M131.414 106.238L133.29 105.182V104.927L130.972 106.238H131.414Z" fill="white"/>
</g>
<mask id="mask49_212_1897" style="mask-type:luminance" maskUnits="userSpaceOnUse" x="121" y="99" width="13" height="8">
<path d="M121.938 104.925L122.335 101.41L122.336 101.411C122.423 100.201 123.431 99.2366 124.662 99.2366C125.401 99.2366 126.06 99.231 126.487 100.107H128.625C129.052 99.2309 129.711 99.2366 130.45 99.2366C131.682 99.2366 132.69 100.196 132.776 101.406L132.777 101.408L133.175 104.923C133.221 105.334 132.993 105.727 132.613 105.89L132.218 106.059C131.849 106.217 131.42 106.214 131.152 105.915L129.268 103.902H125.845L123.96 105.915C123.692 106.214 123.263 106.263 122.894 106.105L122.5 105.913C122.119 105.751 121.891 105.335 121.938 104.925Z" fill="white"/>
</mask>
<g mask="url(#mask49_212_1897)">
<path d="M131.856 106.238L133.291 105.438V105.182L131.414 106.238H131.856Z" fill="white"/>
</g>
<mask id="mask50_212_1897" style="mask-type:luminance" maskUnits="userSpaceOnUse" x="121" y="99" width="13" height="8">
<path d="M121.938 104.925L122.335 101.41L122.336 101.411C122.423 100.201 123.431 99.2366 124.662 99.2366C125.401 99.2366 126.06 99.231 126.487 100.107H128.625C129.052 99.2309 129.711 99.2366 130.45 99.2366C131.682 99.2366 132.69 100.196 132.776 101.406L132.777 101.408L133.175 104.923C133.221 105.334 132.993 105.727 132.613 105.89L132.218 106.059C131.849 106.217 131.42 106.214 131.152 105.915L129.268 103.902H125.845L123.96 105.915C123.692 106.214 123.263 106.263 122.894 106.105L122.5 105.913C122.119 105.751 121.891 105.335 121.938 104.925Z" fill="white"/>
</mask>
<g mask="url(#mask50_212_1897)">
<path d="M132.298 106.238L133.29 105.693V105.438L131.855 106.238H132.298Z" fill="white"/>
</g>
<mask id="mask51_212_1897" style="mask-type:luminance" maskUnits="userSpaceOnUse" x="121" y="99" width="13" height="8">
<path d="M121.938 104.925L122.335 101.41L122.336 101.411C122.423 100.201 123.431 99.2366 124.662 99.2366C125.401 99.2366 126.06 99.231 126.487 100.107H128.625C129.052 99.2309 129.711 99.2366 130.45 99.2366C131.682 99.2366 132.69 100.196 132.776 101.406L132.777 101.408L133.175 104.923C133.221 105.334 132.993 105.727 132.613 105.89L132.218 106.059C131.849 106.217 131.42 106.214 131.152 105.915L129.268 103.902H125.845L123.96 105.915C123.692 106.214 123.263 106.263 122.894 106.105L122.5 105.913C122.119 105.751 121.891 105.335 121.938 104.925Z" fill="white"/>
</mask>
<g mask="url(#mask51_212_1897)">
<path d="M132.74 106.238L133.29 105.948V105.693L132.298 106.238H132.74Z" fill="white"/>
</g>
<mask id="mask52_212_1897" style="mask-type:luminance" maskUnits="userSpaceOnUse" x="121" y="99" width="13" height="8">
<path d="M121.938 104.925L122.335 101.41L122.336 101.411C122.423 100.201 123.431 99.2366 124.662 99.2366C125.401 99.2366 126.06 99.231 126.487 100.107H128.625C129.052 99.2309 129.711 99.2366 130.45 99.2366C131.682 99.2366 132.69 100.196 132.776 101.406L132.777 101.408L133.175 104.923C133.221 105.334 132.993 105.727 132.613 105.89L132.218 106.059C131.849 106.217 131.42 106.214 131.152 105.915L129.268 103.902H125.845L123.96 105.915C123.692 106.214 123.263 106.263 122.894 106.105L122.5 105.913C122.119 105.751 121.891 105.335 121.938 104.925Z" fill="white"/>
</mask>
<g mask="url(#mask52_212_1897)">
<path d="M133.183 106.131L133.251 106.203V105.948L132.741 106.131H133.183Z" fill="white"/>
</g>
<mask id="mask53_212_1897" style="mask-type:luminance" maskUnits="userSpaceOnUse" x="121" y="99" width="13" height="8">
<path d="M121.938 104.925L122.335 101.41L122.336 101.411C122.423 100.201 123.431 99.2366 124.662 99.2366C125.401 99.2366 126.06 99.231 126.487 100.107H128.625C129.052 99.2309 129.711 99.2366 130.45 99.2366C131.682 99.2366 132.69 100.196 132.776 101.406L132.777 101.408L133.175 104.923C133.221 105.334 132.993 105.727 132.613 105.89L132.218 106.059C131.849 106.217 131.42 106.214 131.152 105.915L129.268 103.902H125.845L123.96 105.915C123.692 106.214 123.263 106.263 122.894 106.105L122.5 105.913C122.119 105.751 121.891 105.335 121.938 104.925Z" fill="white"/>
</mask>
<g mask="url(#mask53_212_1897)">
</g>
<path d="M119.726 102.692C119.726 98.3744 123.238 94.8616 127.556 94.8616C131.874 94.8616 135.386 98.3744 135.386 102.692C135.386 107.01 131.874 110.522 127.556 110.522C123.238 110.522 119.726 107.01 119.726 102.692ZM120.606 102.692C120.606 106.524 123.724 109.642 127.556 109.642C131.388 109.642 134.506 106.524 134.506 102.692C134.506 98.8599 131.388 95.7423 127.556 95.7423C123.724 95.7423 120.606 98.8599 120.606 102.692Z" fill="white"/>
</g>
<path d="M147.595 43.0143L189.988 42.6917L190.349 34.04L148.036 32.4298L147.595 43.0143Z" fill="url(#paint60_linear_212_1897)"/>
<path d="M188.772 41.1081L189.003 35.5846L149.844 34.4221L149.566 41.0795L188.772 41.1081Z" fill="#91B3FA"/>
<path d="M136.96 43.0896L157.338 42.935L151.234 27.9523L137.625 27.1606L136.96 43.0896Z" fill="url(#paint61_linear_212_1897)"/>
<path d="M154.613 41.078L149.976 29.8048L139.603 29.2882L139.111 41.0663L154.613 41.078Z" fill="#91B3FA"/>
<path d="M185.48 40.2546L187.856 40.2668L188.017 36.397L185.644 36.337L185.48 40.2546Z" fill="white"/>
<path d="M182.166 40.2377L184.622 40.2503L184.787 36.3153L182.332 36.2532L182.166 40.2377Z" fill="white"/>
<path d="M178.737 40.2202L181.279 40.2331L181.446 36.2308L178.906 36.1666L178.737 40.2202Z" fill="white"/>
<path d="M175.187 40.202L177.818 40.2155L177.988 36.1433L175.359 36.0768L175.187 40.202Z" fill="white"/>
<path d="M171.509 40.1832L174.236 40.1971L174.408 36.0527L171.684 35.9838L171.509 40.1832Z" fill="url(#paint62_linear_212_1897)"/>
<path d="M167.695 40.1637L170.522 40.1782L170.698 35.9589L167.874 35.8874L167.695 40.1637Z" fill="url(#paint63_linear_212_1897)"/>
<path d="M163.74 40.1436L166.673 40.1585L166.852 35.8616L163.922 35.7875L163.74 40.1436Z" fill="url(#paint64_linear_212_1897)"/>
<path d="M159.635 40.1225L162.679 40.138L162.862 35.7607L159.82 35.6837L159.635 40.1225Z" fill="url(#paint65_linear_212_1897)"/>
<path d="M94.5666 36.0939C111.465 36.0939 125.164 28.689 125.164 19.5546C125.164 10.4201 111.465 3.0152 94.5666 3.0152C77.6679 3.0152 63.9688 10.4201 63.9688 19.5546C63.9688 28.689 77.6679 36.0939 94.5666 36.0939Z" fill="#91B3FA"/>
<path d="M70.2336 29.3094L61.9766 37.0807L79.2191 32.9522L70.2336 29.3094Z" fill="#91B3FA"/>
<path opacity="0.57" d="M107.962 27.9234H77.0127C76.8034 27.9234 76.6338 27.7538 76.6338 27.5444V25.7378C76.6338 25.5285 76.8034 25.3588 77.0127 25.3588H107.962C108.171 25.3588 108.341 25.5285 108.341 25.7378V27.5444C108.341 27.7538 108.171 27.9234 107.962 27.9234Z" fill="white"/>
<path opacity="0.57" d="M107.496 15.8001H76.5469C76.3376 15.8001 76.168 15.6305 76.168 15.4212V13.6145C76.168 13.4052 76.3376 13.2355 76.5469 13.2355H107.496C107.705 13.2355 107.875 13.4052 107.875 13.6145V15.4212C107.875 15.6304 107.705 15.8001 107.496 15.8001Z" fill="white"/>
<path opacity="0.57" d="M95.155 22.1386H75.8326C75.6316 22.1386 75.4688 21.9757 75.4688 21.7748V20.04C75.4688 19.839 75.6317 19.6761 75.8326 19.6761H95.155C95.3559 19.6761 95.5188 19.839 95.5188 20.04V21.7748C95.5188 21.9757 95.3559 22.1386 95.155 22.1386Z" fill="white"/>
<path opacity="0.57" d="M117.769 21.9492H98.4469C98.2459 21.9492 98.083 21.7862 98.083 21.5853V19.8505C98.083 19.6495 98.246 19.4866 98.4469 19.4866H117.769C117.97 19.4866 118.133 19.6496 118.133 19.8505V21.5853C118.133 21.7863 117.97 21.9492 117.769 21.9492Z" fill="white"/>
<path d="M171.839 131.214C172.456 138.023 174.939 179.818 144.061 188.584C143.126 188.849 142 188.241 141.984 187.463C141.878 182.509 142.779 166.944 156.484 150.399C166.371 138.462 170.082 132.973 171.264 131.082C171.389 130.882 171.818 130.981 171.839 131.214Z" fill="#91B3FA"/>
<path d="M141.983 188.079C141.833 188.079 141.684 188.025 141.565 187.916C141.314 187.685 141.299 187.295 141.53 187.045C157.819 169.379 166.102 146.504 166.357 145.022C166.347 144.755 166.513 144.503 166.779 144.415C167.102 144.308 167.452 144.483 167.559 144.807C167.81 145.567 164.951 152.828 161.38 159.905C157.599 167.396 151.244 178.329 142.436 187.881C142.315 188.012 142.149 188.079 141.983 188.079ZM166.387 145.193C166.387 145.193 166.387 145.194 166.388 145.194C166.387 145.194 166.387 145.193 166.387 145.193Z" fill="url(#paint66_linear_212_1897)"/>
<path d="M181.44 171.418C179.01 175.37 163.387 199.099 143.041 191.324C142.425 191.088 142.06 190.301 142.367 189.871C144.321 187.135 151.132 179.04 165.301 175.611C175.524 173.137 179.771 171.66 181.181 171.113C181.33 171.055 181.523 171.283 181.44 171.418Z" fill="#7D97F4"/>
<path d="M142.366 190.487C142.075 190.487 141.816 190.28 141.761 189.984C141.698 189.649 141.919 189.327 142.254 189.264C157.991 186.331 171.801 177.376 172.704 176.565C172.86 176.359 173.134 176.267 173.392 176.352C173.715 176.459 173.889 176.809 173.782 177.132C173.551 177.823 168.346 180.877 164.191 182.945C159.083 185.487 151.169 188.857 142.48 190.477C142.442 190.484 142.404 190.487 142.366 190.487ZM172.612 176.74C172.612 176.74 172.612 176.741 172.612 176.741C172.612 176.741 172.612 176.741 172.612 176.74Z" fill="url(#paint67_linear_212_1897)"/>
<defs>
<linearGradient id="paint0_linear_212_1897" x1="216.51" y1="248.851" x2="45.5984" y2="36.5887" gradientUnits="userSpaceOnUse">
<stop stop-color="#DAE3FE"/>
<stop offset="1" stop-color="#E9EFFD"/>
</linearGradient>
<linearGradient id="paint1_linear_212_1897" x1="57.6708" y1="176.324" x2="-2.92085" y2="242.231" gradientUnits="userSpaceOnUse">
<stop stop-color="#09005D"/>
<stop offset="1" stop-color="#1A0F91"/>
</linearGradient>
<linearGradient id="paint2_linear_212_1897" x1="38.003" y1="181.219" x2="43.385" y2="181.219" gradientUnits="userSpaceOnUse">
<stop stop-color="#FEBBBA"/>
<stop offset="1" stop-color="#FF928E"/>
</linearGradient>
<linearGradient id="paint3_linear_212_1897" x1="62.4414" y1="101.79" x2="10.8837" y2="171.67" gradientUnits="userSpaceOnUse">
<stop stop-color="#09005D"/>
<stop offset="1" stop-color="#1A0F91"/>
</linearGradient>
<linearGradient id="paint4_linear_212_1897" x1="44.0784" y1="163.827" x2="-16.5133" y2="229.734" gradientUnits="userSpaceOnUse">
<stop stop-color="#09005D"/>
<stop offset="1" stop-color="#1A0F91"/>
</linearGradient>
<linearGradient id="paint5_linear_212_1897" x1="18.6064" y1="180.943" x2="23.2533" y2="180.943" gradientUnits="userSpaceOnUse">
<stop stop-color="#FEBBBA"/>
<stop offset="1" stop-color="#FF928E"/>
</linearGradient>
<linearGradient id="paint6_linear_212_1897" x1="53.2534" y1="95.0109" x2="1.69574" y2="164.891" gradientUnits="userSpaceOnUse">
<stop stop-color="#09005D"/>
<stop offset="1" stop-color="#1A0F91"/>
</linearGradient>
<linearGradient id="paint7_linear_212_1897" x1="59.9654" y1="29.5163" x2="-0.185118" y2="114.846" gradientUnits="userSpaceOnUse">
<stop stop-color="#4F52FF"/>
<stop offset="1" stop-color="#4042E2"/>
</linearGradient>
<linearGradient id="paint8_linear_212_1897" x1="66.4417" y1="34.0814" x2="6.29131" y2="119.411" gradientUnits="userSpaceOnUse">
<stop stop-color="#4F52FF"/>
<stop offset="1" stop-color="#4042E2"/>
</linearGradient>
<linearGradient id="paint9_linear_212_1897" x1="104.218" y1="30.4251" x2="25.6638" y2="130.928" gradientUnits="userSpaceOnUse">
<stop stop-color="#FEBBBA"/>
<stop offset="1" stop-color="#FF928E"/>
</linearGradient>
<linearGradient id="paint10_linear_212_1897" x1="117.874" y1="57.0313" x2="46.6741" y2="111.499" gradientUnits="userSpaceOnUse">
<stop stop-color="#FEBBBA"/>
<stop offset="1" stop-color="#FF928E"/>
</linearGradient>
<linearGradient id="paint11_linear_212_1897" x1="43.0244" y1="46.7885" x2="43.1747" y2="46.7885" gradientUnits="userSpaceOnUse">
<stop stop-color="#09005D"/>
<stop offset="1" stop-color="#1A0F91"/>
</linearGradient>
<linearGradient id="paint12_linear_212_1897" x1="45.581" y1="46.6866" x2="45.5629" y2="46.7147" gradientUnits="userSpaceOnUse">
<stop stop-color="#53EAC9"/>
<stop offset="0.9964" stop-color="#45AED8"/>
</linearGradient>
<linearGradient id="paint13_linear_212_1897" x1="44.1911" y1="18.3966" x2="-15.9593" y2="103.726" gradientUnits="userSpaceOnUse">
<stop stop-color="#4F52FF"/>
<stop offset="1" stop-color="#4042E2"/>
</linearGradient>
<linearGradient id="paint14_linear_212_1897" x1="12.8001" y1="53.1625" x2="19.352" y2="49.6939" gradientUnits="userSpaceOnUse">
<stop stop-color="#FEBBBA"/>
<stop offset="1" stop-color="#FF928E"/>
</linearGradient>
<linearGradient id="paint15_linear_212_1897" x1="38.2299" y1="67.9098" x2="63.2804" y2="49.8818" gradientUnits="userSpaceOnUse">
<stop stop-color="#9CFFFB"/>
<stop offset="1" stop-color="#9BFFFA"/>
</linearGradient>
<linearGradient id="paint16_linear_212_1897" x1="-1.68084e-05" y1="79.3521" x2="34.7963" y2="79.3521" gradientUnits="userSpaceOnUse">
<stop stop-color="#FEBBBA"/>
<stop offset="1" stop-color="#FF928E"/>
</linearGradient>
<linearGradient id="paint17_linear_212_1897" x1="101.9" y1="33.2319" x2="81.2681" y2="47.919" gradientUnits="userSpaceOnUse">
<stop stop-color="#FF928E"/>
<stop offset="1" stop-color="#FE7062"/>
</linearGradient>
<linearGradient id="paint18_linear_212_1897" x1="57.3031" y1="42.0467" x2="53.2283" y2="59.9406" gradientUnits="userSpaceOnUse">
<stop stop-color="#09005D"/>
<stop offset="1" stop-color="#1A0F91"/>
</linearGradient>
<linearGradient id="paint19_linear_212_1897" x1="99.9332" y1="-4.4022" x2="78.9504" y2="24.041" gradientUnits="userSpaceOnUse">
<stop stop-color="#09005D"/>
<stop offset="1" stop-color="#1A0F91"/>
</linearGradient>
<linearGradient id="paint20_linear_212_1897" x1="32.2139" y1="75.7037" x2="43.0544" y2="75.7037" gradientUnits="userSpaceOnUse">
<stop stop-color="#FEBBBA"/>
<stop offset="1" stop-color="#FF928E"/>
</linearGradient>
<linearGradient id="paint21_linear_212_1897" x1="1124.94" y1="-967.44" x2="1142.31" y2="-983.383" gradientUnits="userSpaceOnUse">
<stop stop-color="#FEBBBA"/>
<stop offset="1" stop-color="#FF928E"/>
</linearGradient>
<linearGradient id="paint22_linear_212_1897" x1="25.5012" y1="27.5978" x2="46.1633" y2="16.2062" gradientUnits="userSpaceOnUse">
<stop stop-color="#09005D"/>
<stop offset="1" stop-color="#1A0F91"/>
</linearGradient>
<linearGradient id="paint23_linear_212_1897" x1="1122.62" y1="-969.953" x2="1139.99" y2="-985.895" gradientUnits="userSpaceOnUse">
<stop stop-color="#FEBBBA"/>
<stop offset="1" stop-color="#FF928E"/>
</linearGradient>
<linearGradient id="paint24_linear_212_1897" x1="31.7666" y1="41.4033" x2="38.4667" y2="32.7595" gradientUnits="userSpaceOnUse">
<stop stop-color="#4F52FF"/>
<stop offset="1" stop-color="#4042E2"/>
</linearGradient>
<linearGradient id="paint25_linear_212_1897" x1="41.9645" y1="39.6881" x2="34.9118" y2="28.7338" gradientUnits="userSpaceOnUse">
<stop stop-color="#4F52FF"/>
<stop offset="1" stop-color="#4042E2"/>
</linearGradient>
<linearGradient id="paint26_linear_212_1897" x1="51.7664" y1="13.1532" x2="-4.55412" y2="39.0537" gradientUnits="userSpaceOnUse">
<stop stop-color="#4F52FF"/>
<stop offset="1" stop-color="#4042E2"/>
</linearGradient>
<linearGradient id="paint27_linear_212_1897" x1="63.9469" y1="16.9867" x2="51.5127" y2="22.582" gradientUnits="userSpaceOnUse">
<stop stop-color="#4F52FF"/>
<stop offset="1" stop-color="#4042E2"/>
</linearGradient>
<linearGradient id="paint28_linear_212_1897" x1="34.9435" y1="22.5795" x2="44.58" y2="5.01616" gradientUnits="userSpaceOnUse">
<stop stop-color="#4F52FF"/>
<stop offset="1" stop-color="#4042E2"/>
</linearGradient>
<linearGradient id="paint29_linear_212_1897" x1="204.4" y1="57.1987" x2="135.86" y2="126.788" gradientUnits="userSpaceOnUse">
<stop stop-color="#09005D"/>
<stop offset="1" stop-color="#1A0F91"/>
</linearGradient>
<linearGradient id="paint30_linear_212_1897" x1="206.981" y1="24.3663" x2="186.699" y2="52.6915" gradientUnits="userSpaceOnUse">
<stop stop-color="#09005D"/>
<stop offset="1" stop-color="#1A0F91"/>
</linearGradient>
<linearGradient id="paint31_linear_212_1897" x1="143.199" y1="77.57" x2="177.561" y2="47.1753" gradientUnits="userSpaceOnUse">
<stop stop-color="#09005D"/>
<stop offset="1" stop-color="#1A0F91"/>
</linearGradient>
<linearGradient id="paint32_linear_212_1897" x1="-100.011" y1="-623.89" x2="-121.692" y2="-680.89" gradientUnits="userSpaceOnUse">
<stop stop-color="#09005D"/>
<stop offset="1" stop-color="#1A0F91"/>
</linearGradient>
<linearGradient id="paint33_linear_212_1897" x1="-109.297" y1="-620.359" x2="-130.978" y2="-677.359" gradientUnits="userSpaceOnUse">
<stop stop-color="#09005D"/>
<stop offset="1" stop-color="#1A0F91"/>
</linearGradient>
<linearGradient id="paint34_linear_212_1897" x1="133.566" y1="111.741" x2="-6.48792" y2="109.407" gradientUnits="userSpaceOnUse">
<stop stop-color="#FEBBBA"/>
<stop offset="1" stop-color="#FF928E"/>
</linearGradient>
<linearGradient id="paint35_linear_212_1897" x1="172.871" y1="45.6787" x2="160.282" y2="64.9119" gradientUnits="userSpaceOnUse">
<stop stop-color="#E1473D"/>
<stop offset="1" stop-color="#E9605A"/>
</linearGradient>
<linearGradient id="paint36_linear_212_1897" x1="136.332" y1="28.963" x2="133.185" y2="61.1348" gradientUnits="userSpaceOnUse">
<stop stop-color="#FEBBBA"/>
<stop offset="1" stop-color="#FF928E"/>
</linearGradient>
<linearGradient id="paint37_linear_212_1897" x1="120.523" y1="64.6831" x2="146.107" y2="72.5919" gradientUnits="userSpaceOnUse">
<stop stop-color="#FEBBBA"/>
<stop offset="1" stop-color="#FF928E"/>
</linearGradient>
<linearGradient id="paint38_linear_212_1897" x1="130.111" y1="47.4146" x2="120.351" y2="78.1939" gradientUnits="userSpaceOnUse">
<stop stop-color="#09005D"/>
<stop offset="1" stop-color="#1A0F91"/>
</linearGradient>
<linearGradient id="paint39_linear_212_1897" x1="121.805" y1="60.5357" x2="147.389" y2="68.4444" gradientUnits="userSpaceOnUse">
<stop stop-color="#FEBBBA"/>
<stop offset="1" stop-color="#FF928E"/>
</linearGradient>
<linearGradient id="paint40_linear_212_1897" x1="135.42" y1="73.2828" x2="126.368" y2="67.1457" gradientUnits="userSpaceOnUse">
<stop stop-color="#4F52FF"/>
<stop offset="1" stop-color="#4042E2"/>
</linearGradient>
<linearGradient id="paint41_linear_212_1897" x1="124.555" y1="74.3401" x2="131.608" y2="63.3858" gradientUnits="userSpaceOnUse">
<stop stop-color="#4F52FF"/>
<stop offset="1" stop-color="#4042E2"/>
</linearGradient>
<linearGradient id="paint42_linear_212_1897" x1="106.56" y1="50.5677" x2="170.623" y2="61.1521" gradientUnits="userSpaceOnUse">
<stop stop-color="#4F52FF"/>
<stop offset="1" stop-color="#4042E2"/>
</linearGradient>
<linearGradient id="paint43_linear_212_1897" x1="165.425" y1="40.9584" x2="155.633" y2="47.9526" gradientUnits="userSpaceOnUse">
<stop stop-color="#4F52FF"/>
<stop offset="1" stop-color="#4042E2"/>
</linearGradient>
<linearGradient id="paint44_linear_212_1897" x1="138.215" y1="57.7493" x2="154.846" y2="35.0569" gradientUnits="userSpaceOnUse">
<stop stop-color="#4F52FF"/>
<stop offset="1" stop-color="#4042E2"/>
</linearGradient>
<linearGradient id="paint45_linear_212_1897" x1="143.567" y1="115.688" x2="157.989" y2="84.1847" gradientUnits="userSpaceOnUse">
<stop stop-color="#FF928E"/>
<stop offset="1" stop-color="#FE7062"/>
</linearGradient>
<linearGradient id="paint46_linear_212_1897" x1="52.767" y1="122.904" x2="279.796" y2="125.459" gradientUnits="userSpaceOnUse">
<stop stop-color="#4F52FF"/>
<stop offset="1" stop-color="#4042E2"/>
</linearGradient>
<linearGradient id="paint47_linear_212_1897" x1="134.074" y1="111.342" x2="148.496" y2="79.8387" gradientUnits="userSpaceOnUse">
<stop stop-color="#FF928E"/>
<stop offset="1" stop-color="#FE7062"/>
</linearGradient>
<linearGradient id="paint48_linear_212_1897" x1="164.005" y1="178.737" x2="232.545" y2="212.308" gradientUnits="userSpaceOnUse">
<stop stop-color="#4F52FF"/>
<stop offset="1" stop-color="#4042E2"/>
</linearGradient>
<linearGradient id="paint49_linear_212_1897" x1="178.017" y1="79.6084" x2="168.925" y2="114.928" gradientUnits="userSpaceOnUse">
<stop stop-color="#4F52FF"/>
<stop offset="1" stop-color="#4042E2"/>
</linearGradient>
<linearGradient id="paint50_linear_212_1897" x1="150.272" y1="123.393" x2="220.063" y2="124.178" gradientUnits="userSpaceOnUse">
<stop stop-color="#4F52FF"/>
<stop offset="1" stop-color="#4042E2"/>
</linearGradient>
<linearGradient id="paint51_linear_212_1897" x1="111.175" y1="132.281" x2="80.1253" y2="116.963" gradientUnits="userSpaceOnUse">
<stop stop-color="#09005D"/>
<stop offset="1" stop-color="#1A0F91"/>
</linearGradient>
<linearGradient id="paint52_linear_212_1897" x1="88.3168" y1="86.2199" x2="116.76" y2="47.0522" gradientUnits="userSpaceOnUse">
<stop stop-color="#09005D"/>
<stop offset="1" stop-color="#1A0F91"/>
</linearGradient>
<linearGradient id="paint53_linear_212_1897" x1="99.9743" y1="129.036" x2="100.719" y2="79.9218" gradientUnits="userSpaceOnUse">
<stop stop-color="#09005D"/>
<stop offset="1" stop-color="#1A0F91"/>
</linearGradient>
<linearGradient id="paint54_linear_212_1897" x1="69.9663" y1="120.829" x2="105.848" y2="121.233" gradientUnits="userSpaceOnUse">
<stop stop-color="#09005D"/>
<stop offset="1" stop-color="#1A0F91"/>
</linearGradient>
<linearGradient id="paint55_linear_212_1897" x1="83.3054" y1="50.1712" x2="80.7408" y2="81.179" gradientUnits="userSpaceOnUse">
<stop stop-color="#09005D"/>
<stop offset="1" stop-color="#1A0F91"/>
</linearGradient>
<linearGradient id="paint56_linear_212_1897" x1="47.8512" y1="109.635" x2="108.701" y2="103.34" gradientUnits="userSpaceOnUse">
<stop stop-color="#09005D"/>
<stop offset="1" stop-color="#1A0F91"/>
</linearGradient>
<linearGradient id="paint57_linear_212_1897" x1="79.0428" y1="142.704" x2="77.8771" y2="117.757" gradientUnits="userSpaceOnUse">
<stop stop-color="#09005D"/>
<stop offset="1" stop-color="#1A0F91"/>
</linearGradient>
<linearGradient id="paint58_linear_212_1897" x1="117.436" y1="119.836" x2="106.82" y2="119.836" gradientUnits="userSpaceOnUse">
<stop stop-color="#09005D"/>
<stop offset="1" stop-color="#1A0F91"/>
</linearGradient>
<linearGradient id="paint59_linear_212_1897" x1="177.215" y1="93.8659" x2="163.227" y2="100.51" gradientUnits="userSpaceOnUse">
<stop stop-color="#FEBBBA"/>
<stop offset="1" stop-color="#FF928E"/>
</linearGradient>
<linearGradient id="paint60_linear_212_1897" x1="147.595" y1="37.722" x2="190.349" y2="37.722" gradientUnits="userSpaceOnUse">
<stop stop-color="#4F52FF"/>
<stop offset="1" stop-color="#4042E2"/>
</linearGradient>
<linearGradient id="paint61_linear_212_1897" x1="136.96" y1="35.1251" x2="157.338" y2="35.1251" gradientUnits="userSpaceOnUse">
<stop stop-color="#4F52FF"/>
<stop offset="1" stop-color="#4042E2"/>
</linearGradient>
<linearGradient id="paint62_linear_212_1897" x1="171.509" y1="38.0905" x2="174.409" y2="38.0905" gradientUnits="userSpaceOnUse">
<stop stop-color="#4F52FF"/>
<stop offset="1" stop-color="#4042E2"/>
</linearGradient>
<linearGradient id="paint63_linear_212_1897" x1="167.695" y1="38.0328" x2="170.698" y2="38.0328" gradientUnits="userSpaceOnUse">
<stop stop-color="#4F52FF"/>
<stop offset="1" stop-color="#4042E2"/>
</linearGradient>
<linearGradient id="paint64_linear_212_1897" x1="163.74" y1="37.973" x2="166.852" y2="37.973" gradientUnits="userSpaceOnUse">
<stop stop-color="#4F52FF"/>
<stop offset="1" stop-color="#4042E2"/>
</linearGradient>
<linearGradient id="paint65_linear_212_1897" x1="159.635" y1="37.9109" x2="162.862" y2="37.9109" gradientUnits="userSpaceOnUse">
<stop stop-color="#4F52FF"/>
<stop offset="1" stop-color="#4042E2"/>
</linearGradient>
<linearGradient id="paint66_linear_212_1897" x1="141.366" y1="166.231" x2="167.574" y2="166.231" gradientUnits="userSpaceOnUse">
<stop stop-color="#DAE3FE"/>
<stop offset="1" stop-color="#E9EFFD"/>
</linearGradient>
<linearGradient id="paint67_linear_212_1897" x1="141.75" y1="183.404" x2="173.813" y2="183.404" gradientUnits="userSpaceOnUse">
<stop stop-color="#DAE3FE"/>
<stop offset="1" stop-color="#E9EFFD"/>
</linearGradient>
</defs>
</svg>
