<svg width="143" height="143" viewBox="0 0 143 143" fill="none" xmlns="http://www.w3.org/2000/svg">
<path d="M71.6071 142.642C110.997 142.642 142.928 110.71 142.928 71.321C142.928 31.9315 110.997 0 71.6071 0C32.2176 0 0.286133 31.9315 0.286133 71.321C0.286133 110.71 32.2176 142.642 71.6071 142.642Z" fill="#F1F2FC"/>
<path d="M70.7893 23.575H69.2337C69.0944 22.8167 68.8957 22.0793 68.6432 21.3673L69.9895 20.59L67.3572 16.0306L66.0079 16.8096C65.5127 16.23 64.9727 15.6899 64.393 15.1948L65.172 13.8454L60.6126 11.2131L59.8353 12.5594C59.1233 12.3068 58.3859 12.1082 57.6276 11.9689V10.4132H52.3629V11.9688C51.6046 12.1081 50.8672 12.3068 50.1551 12.5593L49.3779 11.213L44.8185 13.8454L45.5975 15.1948C45.0178 15.6899 44.4778 16.23 43.9826 16.8096L42.6333 16.0306L40.001 20.59L41.3473 21.3673C41.0948 22.0793 40.8961 22.8167 40.7567 23.575H39.2012V28.8397H40.7568C40.8961 29.5981 41.0948 30.3355 41.3473 31.0475L40.0011 31.8248L42.6334 36.3842L43.9827 35.6051C44.4779 36.1848 45.0179 36.7248 45.5976 37.22L44.8186 38.5693L49.3779 41.2017L50.1552 39.8554C50.8673 40.1079 51.6046 40.3065 52.363 40.4459V42.0015H57.6277V40.4459C58.386 40.3066 59.1234 40.1079 59.8355 39.8554L60.6127 41.2017L65.1721 38.5693L64.3931 37.22C64.9728 36.7248 65.5128 36.1848 66.008 35.6051L67.3574 36.3842L69.9897 31.8248L68.6434 31.0475C68.8959 30.3355 69.0946 29.5981 69.2339 28.8397H70.7895V23.575H70.7893ZM65.8383 30.458C64.742 33.5241 62.3116 35.9544 59.2455 37.0506C49.6094 40.4957 40.7068 31.593 44.1522 21.9568C45.2485 18.8907 47.6789 16.4603 50.7451 15.3641C60.3812 11.9191 69.2838 20.8219 65.8383 30.458Z" fill="#E6D0BE"/>
<path d="M80.3128 70.2867H73.5703C73.4754 70.2867 73.3984 70.2099 73.3984 70.1148V66.8264C73.3984 66.7313 73.4754 66.6545 73.5703 66.6545C73.6652 66.6545 73.7422 66.7313 73.7422 66.8264V69.943H80.3128C80.4078 69.943 80.4847 70.0198 80.4847 70.1148C80.4846 70.2099 80.4077 70.2867 80.3128 70.2867Z" fill="#707FDD"/>
<path d="M73.5703 53.0358C73.4754 53.0358 73.3984 52.9589 73.3984 52.8639V3.19232C73.3984 3.0973 73.4754 3.02045 73.5703 3.02045H98.092C98.187 3.02045 98.2639 3.0973 98.2639 3.19232V13.588C98.2639 13.6831 98.187 13.7599 98.092 13.7599C97.9971 13.7599 97.9202 13.6831 97.9202 13.588V3.36419H73.7422V52.8639C73.7422 52.9589 73.6652 53.0358 73.5703 53.0358Z" fill="#707FDD"/>
<path d="M94.9101 6.75482H76.751V19.0853H94.9101V6.75482Z" fill="#707FDD"/>
<path d="M94.9101 20.7268H76.751V33.0573H94.9101V20.7268Z" fill="#CDD1F8"/>
<path d="M94.9101 34.6994H76.751V47.0299H94.9101V34.6994Z" fill="#707FDD"/>
<path d="M77.9157 66.9984C77.8875 66.9984 77.8589 66.9915 77.8324 66.9767L71.524 63.4763C71.4842 63.4543 71.4548 63.4172 71.4422 63.3734C71.4297 63.3296 71.435 63.2826 71.4571 63.2427L73.8976 58.8446C73.9437 58.7616 74.0483 58.7313 74.1313 58.7778C74.2143 58.8238 74.2442 58.9283 74.1982 59.0114L71.841 63.2592L77.9992 66.6763C78.0823 66.7223 78.1122 66.8268 78.0661 66.9099C78.0347 66.9665 77.9761 66.9984 77.9157 66.9984Z" fill="#707FDD"/>
<path d="M93.0491 75.3954C93.0209 75.3954 92.9923 75.3886 92.9659 75.3738L91.9274 74.7976C91.8444 74.7516 91.8144 74.6471 91.8605 74.564C91.9064 74.4811 92.011 74.4507 92.0942 74.4972L92.9824 74.99L94.2293 72.7429C94.2753 72.6598 94.3799 72.6297 94.463 72.6761C94.546 72.7221 94.5759 72.8267 94.5298 72.9097L93.1995 75.307C93.1681 75.3636 93.1095 75.3954 93.0491 75.3954Z" fill="#707FDD"/>
<path d="M77.9159 52.129C77.8877 52.129 77.8591 52.1222 77.8326 52.1074C77.7496 52.0614 77.7197 51.9568 77.7658 51.8738L103.927 4.72498C103.949 4.68523 103.986 4.65569 104.03 4.64322C104.074 4.63043 104.121 4.63605 104.161 4.65818L125.603 16.5558C125.686 16.6018 125.716 16.7063 125.67 16.7894L120.594 25.9368C120.548 26.0197 120.444 26.05 120.361 26.0036C120.278 25.9576 120.248 25.8531 120.294 25.77L125.286 16.7729L104.145 5.04199L78.0664 52.0406C78.0349 52.0972 77.9763 52.129 77.9159 52.129Z" fill="#707FDD"/>
<path d="M121.007 18.2793L105.129 9.46851L99.1461 20.2503L115.024 29.0611L121.007 18.2793Z" fill="#F1F2FC"/>
<path d="M114.228 30.4963L98.3496 21.6855L92.3669 32.4673L108.245 41.2781L114.228 30.4963Z" fill="#8B865C"/>
<path d="M107.449 42.7136L91.5703 33.9028L85.5876 44.6846L101.466 53.4954L107.449 42.7136Z" fill="#9E9569"/>
<path d="M129.851 20.727L73.0664 56.1413L86.043 76.9481L142.827 41.5337L129.851 20.727Z" fill="#707FDD"/>
<path d="M131.116 49.0096C131.059 49.0096 131.003 48.981 130.97 48.9287C130.92 48.8481 130.945 48.7421 131.025 48.6919L142.59 41.4791L129.796 20.9641L124.742 24.1158C124.662 24.1662 124.556 24.1413 124.506 24.0609C124.455 23.9803 124.48 23.8743 124.56 23.8241L129.76 20.5815C129.84 20.5313 129.946 20.556 129.997 20.6364L142.973 41.4431C142.997 41.4818 143.005 41.5285 142.995 41.5728C142.984 41.6173 142.957 41.6557 142.918 41.6799L131.207 48.9837C131.179 49.0012 131.147 49.0096 131.116 49.0096Z" fill="#707FDD"/>
<path d="M138.123 40.7196L128.514 25.3116L118.051 31.8369L127.661 47.2449L138.123 40.7196Z" fill="#F1F2FC"/>
<path d="M126.268 48.1135L116.658 32.7055L106.196 39.2308L115.806 54.6388L126.268 48.1135Z" fill="#F1F2FC"/>
<path d="M114.413 55.508L104.803 40.1L94.3403 46.6253L103.95 62.0333L114.413 55.508Z" fill="#FFD092"/>
<path d="M114.066 100.492L114.066 37.5959L21.1488 37.5959L21.1488 100.492L114.066 100.492Z" fill="white"/>
<path d="M69.4509 104.953C69.5939 103.932 68.8824 102.989 67.8618 102.846C66.8411 102.703 65.8979 103.414 65.7549 104.435C65.612 105.456 66.3235 106.399 67.3441 106.542C68.3647 106.685 69.308 105.973 69.4509 104.953Z" fill="white"/>
<path d="M78.0427 111.117H75.1076C75.1076 113.319 73.3228 115.104 71.1211 115.104H64.0929C61.8912 115.104 60.1064 113.319 60.1064 111.117H57.1714L54.2363 126.715V128.02H80.9777V126.715L78.0427 111.117Z" fill="#707FDD"/>
<path d="M80.9787 129.822H54.2373C54.1424 129.822 54.0654 129.745 54.0654 129.65C54.0654 129.555 54.1424 129.478 54.2373 129.478H80.9787C81.0736 129.478 81.1506 129.555 81.1506 129.65C81.1506 129.745 81.0735 129.822 80.9787 129.822Z" fill="#E6D0BE"/>
<path d="M108.99 42.0155H82.8291V68.176H108.99V42.0155Z" fill="#E6D0BE"/>
<path d="M88.0159 49.8655C87.972 49.8655 87.928 49.8487 87.8944 49.8151L85.5074 47.428C85.4403 47.3608 85.4403 47.252 85.5074 47.1849L87.8944 44.7979C87.9615 44.7308 88.0702 44.7308 88.1374 44.7979C88.2045 44.865 88.2045 44.9738 88.1374 45.0409L85.8719 47.3064L88.1374 49.5722C88.2045 49.6393 88.2045 49.748 88.1374 49.8152C88.1038 49.8487 88.0599 49.8655 88.0159 49.8655Z" fill="white"/>
<path d="M91.9258 49.8656C91.8818 49.8656 91.8378 49.8488 91.8042 49.8152C91.7371 49.7481 91.7371 49.6394 91.8042 49.5722L94.0698 47.3064L91.8042 45.0409C91.7371 44.9738 91.7371 44.8651 91.8042 44.7979C91.8714 44.7308 91.9802 44.7308 92.0473 44.7979L94.4343 47.1849C94.5014 47.252 94.5014 47.3608 94.4343 47.428L92.0473 49.8152C92.0137 49.8488 91.9697 49.8656 91.9258 49.8656Z" fill="white"/>
<path d="M88.9491 49.7183C88.9251 49.7183 88.9008 49.7133 88.8776 49.7027C88.7914 49.6631 88.7535 49.5613 88.793 49.4748L90.8534 44.978C90.8929 44.8917 90.9949 44.854 91.0812 44.8934C91.1675 44.933 91.2054 45.0349 91.1658 45.1214L89.1055 49.6182C89.0765 49.6811 89.0143 49.7183 88.9491 49.7183Z" fill="white"/>
<path d="M107.376 44.2241H97.2686V50.4245H107.376V44.2241Z" fill="#F2E6DC"/>
<path d="M99.0801 52.8897H85.4902C85.3953 52.8897 85.3184 52.8128 85.3184 52.7178C85.3184 52.6228 85.3953 52.546 85.4902 52.546H99.0801C99.175 52.546 99.252 52.6228 99.252 52.7178C99.252 52.8128 99.175 52.8897 99.0801 52.8897Z" fill="white"/>
<path d="M106.901 55.4971H94.9473C94.8523 55.4971 94.7754 55.4202 94.7754 55.3252C94.7754 55.2302 94.8523 55.1533 94.9473 55.1533H106.901C106.996 55.1533 107.073 55.2302 107.073 55.3252C107.073 55.4202 106.996 55.4971 106.901 55.4971Z" fill="white"/>
<path d="M92.3406 55.4971H85.4902C85.3953 55.4971 85.3184 55.4202 85.3184 55.3252C85.3184 55.2302 85.3953 55.1533 85.4902 55.1533H92.3406C92.4356 55.1533 92.5125 55.2302 92.5125 55.3252C92.5125 55.4202 92.4355 55.4971 92.3406 55.4971Z" fill="white"/>
<path d="M106.902 58.1039H100.894C100.799 58.1039 100.722 58.027 100.722 57.932C100.722 57.837 100.799 57.7601 100.894 57.7601H106.902C106.997 57.7601 107.074 57.837 107.074 57.932C107.074 58.027 106.997 58.1039 106.902 58.1039Z" fill="white"/>
<path d="M98.2862 58.1039H85.4902C85.3953 58.1039 85.3184 58.027 85.3184 57.932C85.3184 57.837 85.3953 57.7601 85.4902 57.7601H98.2862C98.3811 57.7601 98.458 57.837 98.458 57.932C98.458 58.027 98.3811 58.1039 98.2862 58.1039Z" fill="white"/>
<path d="M102.991 60.711H85.4902C85.3953 60.711 85.3184 60.6341 85.3184 60.5391C85.3184 60.4441 85.3953 60.3672 85.4902 60.3672H102.991C103.086 60.3672 103.163 60.4441 103.163 60.5391C103.163 60.6341 103.086 60.711 102.991 60.711Z" fill="white"/>
<path d="M106.337 87.5129C106.337 89.8676 104.411 91.7942 102.056 91.7942H72.9873C70.6327 91.7942 68.7061 89.8677 68.7061 87.5129C68.7061 85.1582 70.6327 83.2317 72.9873 83.2317H102.056C104.411 83.2317 106.337 85.1583 106.337 87.5129Z" fill="#F1F2FC"/>
<path d="M102.908 94.2756H75.4914C72.8383 94.2756 70.6797 92.1171 70.6797 89.4641C70.6797 86.8108 72.8383 84.6523 75.4914 84.6523H102.908C105.561 84.6523 107.72 86.8108 107.72 89.4641C107.72 92.1171 105.561 94.2756 102.908 94.2756ZM75.4914 84.9962C73.0278 84.9962 71.0234 87.0006 71.0234 89.4641C71.0234 91.9277 73.0278 93.9319 75.4914 93.9319H102.908C105.372 93.9319 107.376 91.9277 107.376 89.4641C107.376 87.0006 105.372 84.9962 102.908 84.9962H75.4914Z" fill="#707FDD"/>
<path d="M77.1781 89.3587C77.1781 90.2905 76.4227 91.0459 75.4909 91.0459C74.5591 91.0459 73.8037 90.2905 73.8037 89.3587C73.8037 88.427 74.5591 87.6716 75.4909 87.6716C76.4227 87.6716 77.1781 88.427 77.1781 89.3587Z" fill="#707FDD"/>
<path d="M80.8864 91.0459C81.8182 91.0459 82.5735 90.2905 82.5735 89.3587C82.5735 88.4269 81.8182 87.6716 80.8864 87.6716C79.9546 87.6716 79.1992 88.4269 79.1992 89.3587C79.1992 90.2905 79.9546 91.0459 80.8864 91.0459Z" fill="#707FDD"/>
<path d="M87.9672 89.3587C87.9672 90.2905 87.2118 91.0459 86.2799 91.0459C85.3481 91.0459 84.5928 90.2905 84.5928 89.3587C84.5928 88.427 85.3481 87.6716 86.2799 87.6716C87.2118 87.6716 87.9672 88.427 87.9672 89.3587Z" fill="#707FDD"/>
<path d="M91.6754 91.0459C92.6072 91.0459 93.3626 90.2905 93.3626 89.3587C93.3626 88.4269 92.6072 87.6716 91.6754 87.6716C90.7436 87.6716 89.9883 88.4269 89.9883 89.3587C89.9883 90.2905 90.7436 91.0459 91.6754 91.0459Z" fill="#707FDD"/>
<path d="M76.6432 79.0021H45.6768C45.5818 79.0021 45.5049 78.9252 45.5049 78.8302V58.3882C45.5049 58.2932 45.5818 58.2164 45.6768 58.2164H76.6432C76.7382 58.2164 76.8151 58.2932 76.8151 58.3882V78.8302C76.815 78.9252 76.7381 79.0021 76.6432 79.0021ZM45.8485 78.6584H76.4713V58.5601H45.8485V78.6584Z" fill="#8B865C"/>
<path d="M60.2597 61.1273H48.3184V73.0686H60.2597V61.1273Z" fill="#F7F1EB"/>
<path d="M49.7236 70.3501C49.6796 70.3501 49.6357 70.3333 49.6021 70.2997C49.535 70.2326 49.535 70.1239 49.6021 70.0567L53.1336 66.5252C53.2007 66.4581 53.3095 66.4581 53.3766 66.5252L55.5262 68.6748C55.5934 68.7419 55.5934 68.8507 55.5262 68.9178C55.4591 68.9849 55.3504 68.9849 55.2832 68.9178L53.2551 66.8897L49.8451 70.2997C49.8116 70.3333 49.7676 70.3501 49.7236 70.3501Z" fill="#EFBC73"/>
<path d="M59.0126 68.5841C58.9687 68.5841 58.9247 68.5674 58.8911 68.5338L56.3257 65.9683L54.7582 67.5358C54.6911 67.6029 54.5824 67.6029 54.5152 67.5358C54.448 67.4687 54.4481 67.3599 54.5152 67.2928L56.2041 65.6038C56.2686 65.5393 56.3827 65.5393 56.4472 65.6038L59.1342 68.2907C59.2013 68.3579 59.2013 68.4667 59.1342 68.5338C59.1006 68.5674 59.0566 68.5841 59.0126 68.5841Z" fill="#EFBC73"/>
<path d="M52.355 64.3081C52.355 64.8669 51.9019 65.32 51.343 65.32C50.7842 65.32 50.3311 64.8669 50.3311 64.3081C50.3311 63.7492 50.7842 63.2961 51.343 63.2961C51.9019 63.2961 52.355 63.7492 52.355 64.3081Z" fill="#EFBC73"/>
<path d="M72.7981 61.4441H62.2734C62.1785 61.4441 62.1016 61.3673 62.1016 61.2723C62.1016 61.1773 62.1785 61.1004 62.2734 61.1004H72.7981C72.893 61.1004 72.9699 61.1773 72.9699 61.2723C72.9699 61.3673 72.893 61.4441 72.7981 61.4441Z" fill="#8B865C"/>
<path d="M72.7981 63.4679H62.2734C62.1785 63.4679 62.1016 63.3911 62.1016 63.2961C62.1016 63.2011 62.1785 63.1242 62.2734 63.1242H72.7981C72.893 63.1242 72.9699 63.2011 72.9699 63.2961C72.9699 63.3911 72.893 63.4679 72.7981 63.4679Z" fill="#8B865C"/>
<path d="M72.7981 65.4917H62.2734C62.1785 65.4917 62.1016 65.4148 62.1016 65.3198C62.1016 65.2248 62.1785 65.1479 62.2734 65.1479H72.7981C72.893 65.1479 72.9699 65.2248 72.9699 65.3198C72.9699 65.4148 72.893 65.4917 72.7981 65.4917Z" fill="#8B865C"/>
<path d="M72.7981 67.5157H62.2734C62.1785 67.5157 62.1016 67.4389 62.1016 67.3439C62.1016 67.2488 62.1785 67.172 62.2734 67.172H72.7981C72.893 67.172 72.9699 67.2488 72.9699 67.3439C72.9699 67.4388 72.893 67.5157 72.7981 67.5157Z" fill="#8B865C"/>
<path d="M81.9051 74.7819H56.4033V77.2107H81.9051V74.7819Z" fill="#F7F1EB"/>
<path d="M38.1416 43.592L34.9102 41.7263L31.0712 48.3754L34.3026 50.2411L38.1416 43.592Z" fill="#84524D"/>
<path d="M40.2511 44.8836C39.4244 45.941 35.8592 44.8021 35.8592 44.8021L33.1073 41.762C32.5678 39.9525 33.5974 38.0483 35.4069 37.5088C37.2164 36.9694 39.1207 37.9989 39.6601 39.8085C39.6601 39.8085 41.0931 43.8065 40.2511 44.8836Z" fill="#84524D"/>
<path d="M39.541 40.7827C39.541 40.7827 40.7471 41.4716 40.774 41.7403C40.8061 42.0611 39.8375 42.5514 39.8375 42.5514C39.8375 42.5514 39.5661 40.7778 39.541 40.7827Z" fill="#84524D"/>
<path d="M36.541 41.5239C36.541 41.5239 37.0016 41.0653 37.6628 40.8683C37.8035 40.8263 37.8737 42.0312 37.7211 42.0073C37.0505 41.9021 36.541 41.5239 36.541 41.5239Z" fill="white"/>
<path d="M38.1993 42.029C39.0905 41.9645 39.7678 41.29 39.7678 41.29C39.7678 41.29 39.0003 40.7203 38.1091 40.7848C37.9531 40.7961 37.8041 40.8269 37.6637 40.8687C37.4779 41.2436 37.5113 41.6732 37.72 42.0069C37.8728 42.031 38.0339 42.041 38.1993 42.029Z" fill="#363E44"/>
<path d="M39.0578 43.5523C38.9969 43.5523 38.9355 43.5437 38.8755 43.5259C38.6396 43.4566 38.4598 43.2543 38.4176 43.0108C38.4014 42.9172 38.464 42.8284 38.5577 42.8122C38.6513 42.7966 38.74 42.8586 38.7563 42.9521C38.7762 43.0678 38.8612 43.1635 38.9725 43.1963C39.0879 43.2301 39.2138 43.1927 39.2934 43.1002C39.3553 43.0281 39.4637 43.02 39.5357 43.0817C39.6078 43.1436 39.6159 43.252 39.554 43.324C39.4279 43.471 39.2451 43.5523 39.0578 43.5523Z" fill="#363E44"/>
<path d="M33.688 43.8479C33.688 43.8479 30.1847 41.2935 31.0054 38.4033C31.8262 35.513 37.1924 36.4976 38.9869 37.7166C40.7814 38.9356 39.3228 39.2601 37.5437 39.4495C35.7645 39.6389 34.4382 40.159 35.1951 41.8917C35.1951 41.8917 34.0951 43.1427 33.688 43.8479Z" fill="#363E44"/>
<path d="M34.2929 43.3721C34.9638 43.3721 35.5077 42.7852 35.5077 42.0612C35.5077 41.3372 34.9638 40.7503 34.2929 40.7503C33.622 40.7503 33.0781 41.3372 33.0781 42.0612C33.0781 42.7852 33.622 43.3721 34.2929 43.3721Z" fill="#84524D"/>
<path d="M34.8152 42.736C34.7252 42.736 34.6496 42.666 34.6438 42.5751C34.6363 42.456 34.5954 42.3671 34.5189 42.303C34.355 42.1661 34.0571 42.1662 33.9563 42.1777C33.8615 42.1889 33.7768 42.1209 33.7658 42.027C33.7548 41.933 33.8217 41.8477 33.9158 41.8364C33.9364 41.8342 34.4257 41.7785 34.7379 42.0382C34.8873 42.1626 34.9734 42.3407 34.9869 42.5533C34.9928 42.6482 34.9209 42.7297 34.8262 42.7358C34.8225 42.7359 34.8188 42.736 34.8152 42.736Z" fill="#363E44"/>
<path d="M32.0765 38.1036C32.0765 38.1036 29.9272 26.8861 25.4261 29.6641C21.5618 32.0492 30.5686 37.5409 32.0765 38.1036Z" fill="#363E44"/>
<path d="M31.9287 38.0276C31.9287 38.0276 22.161 28.4764 19.8847 33.2508C17.9303 37.3499 30.3566 38.3722 31.9287 38.0276Z" fill="#363E44"/>
<path d="M32.0912 37.9489C32.0912 37.9489 36.0892 30.7512 32.3154 30.2064C29.0754 29.7388 31.5174 36.9405 32.0912 37.9489Z" fill="#363E44"/>
<path d="M31.7167 37.7216C31.7167 37.7216 22.4099 34.3594 23.4228 39.5509C24.2924 44.008 30.6587 38.9343 31.7167 37.7216Z" fill="#363E44"/>
<path d="M31.0053 38.3291C31.0053 38.3291 27.7121 40.3396 29.1246 41.4338C30.3374 42.3732 31.0061 38.8729 31.0053 38.3291Z" fill="#363E44"/>
<path d="M27.6059 130.065H35.1907L36.643 140.614H25.2217L27.6059 130.065Z" fill="#F7F1EB"/>
<path d="M58.7984 113.53H47.168L56.2896 130.197H63.9046L58.7984 113.53Z" fill="#84524D"/>
<path d="M34.358 113.53H24.0283L28.2353 130.064H34.7738L34.358 113.53Z" fill="#84524D"/>
<path d="M54.4375 140.619H76.3754C76.3754 140.619 72.5271 130.542 63.9053 130.201L56.2904 130.196L54.4375 140.619Z" fill="white"/>
<path d="M24.8987 64.8123L19.6768 116.269H35.089L35.7303 79.9693L45.0839 116.269H60.2243L43.0374 64.0473L24.8987 64.8123Z" fill="#363E44"/>
<path d="M33.058 136.381C32.8204 136.381 32.5838 136.32 32.3669 136.197L29.3237 134.479C29.2602 134.443 29.2263 134.371 29.2389 134.299C29.2515 134.227 29.308 134.172 29.3798 134.16L32.8268 133.583C33.2839 133.506 33.7328 133.651 34.0589 133.98C34.3853 134.308 34.5264 134.759 34.4461 135.215C34.3659 135.671 34.0796 136.047 33.6607 136.244C33.4672 136.336 33.2623 136.381 33.058 136.381ZM29.9157 134.418L32.5359 135.898C32.8409 136.07 33.1976 136.083 33.514 135.934C33.8306 135.784 34.047 135.501 34.1077 135.156C34.1683 134.811 34.0616 134.47 33.815 134.222C33.5684 133.973 33.2291 133.863 32.8836 133.922L29.9157 134.418Z" fill="#84524D"/>
<path d="M25.7362 135.092C25.3646 135.092 25.0121 134.946 24.7431 134.675C24.4168 134.346 24.2757 133.896 24.3561 133.44C24.4363 132.984 24.7227 132.608 25.1415 132.411C25.5604 132.213 26.0321 132.23 26.4355 132.458L29.4786 134.176C29.5421 134.212 29.576 134.284 29.5634 134.356C29.5508 134.428 29.4943 134.483 29.4225 134.496L25.9754 135.072C25.8952 135.086 25.8152 135.092 25.7362 135.092ZM25.7439 132.618C25.5895 132.618 25.4346 132.652 25.2882 132.721C24.9716 132.871 24.7552 133.154 24.6945 133.499C24.6339 133.844 24.7405 134.185 24.9871 134.433C25.2335 134.682 25.5724 134.791 25.9186 134.733L28.8865 134.237L26.2663 132.757C26.1024 132.664 25.9235 132.618 25.7439 132.618Z" fill="#84524D"/>
<path d="M36.643 140.614H25.2217V142.268H36.643V140.614Z" fill="#E6D0BE"/>
<path d="M76.3754 140.614H54.4375V142.268H76.3754V140.614Z" fill="#E6D0BE"/>
<path d="M35.3894 80.0507C35.3763 80.0507 35.363 80.0492 35.3497 80.046L31.27 79.0792C31.1777 79.0574 31.1205 78.9648 31.1424 78.8724C31.1642 78.7799 31.2567 78.7223 31.3492 78.7449L35.4289 79.7117C35.5212 79.7336 35.5784 79.8262 35.5565 79.9185C35.5378 79.9976 35.4672 80.0507 35.3894 80.0507Z" fill="white"/>
<path d="M64.1816 130.375C64.1265 130.375 64.0736 130.349 64.0409 130.302C63.9991 130.242 63.9994 130.163 64.0417 130.104L66.0711 127.258C66.3389 126.883 66.7564 126.668 67.2172 126.668C67.2193 126.668 67.2213 126.668 67.2233 126.668C67.6866 126.67 68.1048 126.888 68.3706 127.268C68.6365 127.647 68.6993 128.115 68.5431 128.551C68.3868 128.987 68.0412 129.308 67.5948 129.433L64.2277 130.369C64.2124 130.373 64.1969 130.375 64.1816 130.375ZM67.2172 127.011C66.8689 127.011 66.5533 127.174 66.3508 127.458L64.6036 129.908L67.5026 129.101C67.8401 129.007 68.1013 128.764 68.2194 128.435C68.3376 128.105 68.2901 127.752 68.0891 127.465C67.8882 127.178 67.5719 127.013 67.2217 127.011C67.2203 127.011 67.2187 127.011 67.2172 127.011Z" fill="#84524D"/>
<path d="M61.1338 133.747C61.1317 133.747 61.1297 133.747 61.1276 133.747C60.6644 133.745 60.2463 133.527 59.9804 133.147C59.7144 132.768 59.6517 132.3 59.8081 131.864C59.9644 131.428 60.31 131.107 60.7562 130.982L64.1235 130.046C64.194 130.027 64.2685 130.053 64.3103 130.113C64.3521 130.173 64.3518 130.252 64.3095 130.311L62.28 133.157C62.0121 133.532 61.5946 133.747 61.1338 133.747ZM63.7475 130.507L60.8484 131.314C60.5111 131.407 60.2499 131.65 60.1317 131.98C60.0135 132.309 60.0609 132.663 60.2619 132.95C60.463 133.237 60.779 133.402 61.1291 133.404C61.1307 133.404 61.1323 133.404 61.1338 133.404C61.4822 133.404 61.7977 133.241 62.0002 132.957L63.7475 130.507Z" fill="#84524D"/>
<path d="M49.8564 55.0803C49.8564 55.0803 54.9976 49.1319 57.9453 46.1709C61.0411 43.0613 66.0644 38.9211 66.6345 39.6313C66.9593 40.0358 66.3909 40.7421 64.7463 42.529C64.9198 42.5218 65.425 42.5974 65.6647 43.022C66.0194 43.6503 65.616 44.1089 65.5962 44.1641C65.6548 44.157 66.2886 44.0968 66.5972 44.4772C66.9449 44.9057 66.9213 45.3837 66.7202 45.7673C66.8661 45.7539 67.4099 45.7594 67.6958 46.1337C67.9898 46.5188 68.0173 47.1343 67.6554 47.4872C66.9914 48.1347 64.9813 50.0211 64.115 51.0584C62.4103 53.0996 57.3291 61.1609 54.0854 63.4598C53.1371 60.1518 49.8564 55.0803 49.8564 55.0803Z" fill="#84524D"/>
<path d="M66.5787 48.008C66.5266 48.008 66.4752 47.9845 66.4414 47.9397L65.9692 47.3139C65.9121 47.238 65.9272 47.1302 66.0029 47.0732C66.0788 47.0158 66.1864 47.031 66.2437 47.1068L66.7159 47.7326C66.773 47.8085 66.7579 47.9163 66.6822 47.9733C66.6511 47.9967 66.6148 48.008 66.5787 48.008Z" fill="#363E44"/>
<path d="M65.4127 46.5199C65.3587 46.5199 65.3056 46.4946 65.2721 46.4473L64.761 45.7232C64.7062 45.6455 64.7247 45.5384 64.8023 45.4836C64.8798 45.429 64.9871 45.4475 65.0418 45.5249L65.553 46.2489C65.6077 46.3266 65.5892 46.4337 65.5117 46.4886C65.4815 46.5096 65.447 46.5199 65.4127 46.5199Z" fill="#363E44"/>
<path d="M64.2935 44.8725C64.2415 44.8725 64.1901 44.849 64.1563 44.8044C64.0672 44.6864 63.9876 44.5795 63.9079 44.4724C63.83 44.3677 63.7519 44.2628 63.6646 44.1475C63.6074 44.0716 63.6224 43.9639 63.6982 43.9066C63.7738 43.8493 63.8816 43.8643 63.9389 43.94C64.0267 44.0563 64.1053 44.1619 64.1837 44.2673C64.2628 44.3735 64.3418 44.4798 64.4304 44.5969C64.4877 44.6726 64.4728 44.7803 64.3971 44.8378C64.366 44.8611 64.3296 44.8725 64.2935 44.8725Z" fill="#363E44"/>
<path d="M63.2449 43.6074C63.1971 43.6074 63.1495 43.5876 63.1156 43.5488L62.6023 42.9639C62.5397 42.8925 62.5467 42.784 62.618 42.7212C62.6894 42.6589 62.7979 42.666 62.8605 42.737L63.3739 43.3222C63.4365 43.3935 63.4295 43.5021 63.3582 43.5647C63.3255 43.5933 63.285 43.6074 63.2449 43.6074Z" fill="#363E44"/>
<path d="M37.8379 49.5463L47.6137 53.2491C48.7085 53.6638 49.9445 53.4072 50.7838 52.5909L55.837 47.676L62.3561 55.0755L55.5427 62.9013C53.1891 65.6047 49.4611 66.6632 46.0379 65.6002L37.8379 63.0537V49.5463Z" fill="#8B865C"/>
<path d="M21.0196 45.087C21.0196 45.087 27.7305 45.3332 43.3739 51.731L47.9046 75.0095L44.1608 76.2744L42.9422 70.8093L40.3553 76.6065C40.3553 76.6065 26.5452 73.7154 15.2324 68.5698C15.2324 68.5698 19.4122 57.7172 23.4276 52.2625L21.0196 45.087Z" fill="#8B865C"/>
<path d="M2.96387 61.5927C2.96387 61.5927 5.53524 45.0221 21.0201 45.0867L27.4434 46.8076L22.8669 60.3755L2.96387 61.5927Z" fill="#F1F2FC"/>
<path d="M19.6765 58.7734C19.6477 58.7734 19.6184 58.7661 19.5916 58.7508C19.5092 58.7037 19.4805 58.5988 19.5275 58.5164L22.48 53.3385L21.0265 50.7047C20.9806 50.6216 21.0108 50.5171 21.0939 50.4711C21.1773 50.4257 21.2817 50.4557 21.3274 50.5386L22.8276 53.2568C22.8565 53.3093 22.8561 53.3729 22.8264 53.4249L19.8261 58.6865C19.7943 58.7422 19.7363 58.7734 19.6765 58.7734Z" fill="#363E44"/>
<path d="M21.6503 50.2773L0.507812 57.458L7.86144 79.1096L29.0039 71.9289L21.6503 50.2773Z" fill="#707FDD"/>
<path d="M9.01562 73.0334C14.1094 71.3032 19.2032 69.5729 24.297 67.8427C19.4861 61.089 17.4127 59.6712 16.5127 60.0922C15.2126 60.7003 16.2855 65.1815 14.4711 65.9362C13.3804 66.3898 12.4142 65.0111 11.2711 65.3376C10.2879 65.6182 9.20192 67.1524 9.01562 73.0334Z" fill="white"/>
<path d="M11.5268 62.4387C12.4645 61.7716 12.6838 60.4706 12.0167 59.5329C11.3496 58.5952 10.0486 58.3759 9.11092 59.043C8.17323 59.7102 7.9539 61.0111 8.62103 61.9488C9.28816 62.8865 10.5891 63.1058 11.5268 62.4387Z" fill="white"/>
<path d="M13.5459 77.2574C13.5459 77.2574 17.1987 77.8925 18.8975 76.3277C20.5964 74.7628 20.3921 72.3873 20.0019 72.063C19.6117 71.7387 18.2327 74.6104 18.2327 74.6104C18.2327 74.6104 19.1957 72.5159 18.2997 72.3396C17.4037 72.1634 16.703 75.352 16.703 75.352C16.703 75.352 17.306 72.9461 16.3766 72.957C15.4473 72.968 15.1609 76.5932 13.5459 77.2574Z" fill="#707FDD"/>
<path d="M105.856 121.142H104.92C104.836 120.685 104.716 120.241 104.564 119.813L105.375 119.345L103.79 116.6L102.978 117.069C102.68 116.72 102.354 116.395 102.006 116.097L102.474 115.285L99.7299 113.7L99.262 114.511C98.8333 114.359 98.3894 114.239 97.933 114.155V113.219H94.7638V114.155C94.3074 114.239 93.8635 114.359 93.4348 114.511L92.9669 113.7L90.2224 115.285L90.6913 116.097C90.3423 116.395 90.0173 116.72 89.7191 117.069L88.9069 116.6L87.3223 119.345L88.1327 119.813C87.9807 120.241 87.8611 120.685 87.7773 121.142H86.8408V124.311H87.7773C87.8611 124.768 87.9807 125.211 88.1327 125.64L87.3223 126.108L88.9069 128.853L89.7191 128.384C90.0172 128.733 90.3423 129.058 90.6913 129.356L90.2224 130.168L92.9669 131.753L93.4348 130.942C93.8635 131.094 94.3074 131.214 94.7638 131.298V132.234H97.9331V131.298C98.3895 131.214 98.8335 131.094 99.262 130.942L99.73 131.753L102.475 130.168L102.006 129.356C102.355 129.058 102.68 128.733 102.978 128.384L103.79 128.853L105.375 126.108L104.564 125.64C104.716 125.211 104.836 124.768 104.92 124.311H105.856V121.142H105.856ZM102.876 125.285C102.216 127.131 100.753 128.594 98.9069 129.254C93.1062 131.328 87.7472 125.968 89.8212 120.168C90.4811 118.322 91.9442 116.859 93.7899 116.199C99.5906 114.125 104.95 119.484 102.876 125.285Z" fill="white"/>
<path d="M130.479 120.399C126.561 131.052 119.793 139.054 119.793 139.054C119.793 139.054 119.378 129.784 123.296 119.13C127.215 108.477 133.983 100.475 133.983 100.475C133.983 100.475 134.398 109.746 130.479 120.399Z" fill="#F1F2FC"/>
<path d="M123.934 128.621C123.914 128.621 123.894 128.618 123.875 128.611C123.786 128.578 123.74 128.479 123.772 128.39L131.619 106.882C131.652 106.793 131.75 106.747 131.839 106.78C131.929 106.812 131.975 106.911 131.942 107L124.095 128.508C124.07 128.578 124.004 128.621 123.934 128.621Z" fill="#707FDD"/>
<path d="M120.476 139.842C121.257 137.463 123.942 128.63 124.511 118.045C125.178 105.626 122.677 95.4996 122.677 95.4996C122.677 95.4996 119.095 105.509 118.428 117.928C117.858 128.531 119.597 137.461 120.118 139.847L120.476 139.842Z" fill="#707FDD"/>
<path d="M120.926 124.677C120.922 124.677 120.919 124.677 120.916 124.676C120.821 124.671 120.749 124.589 120.754 124.495L122.23 99.4362C122.236 99.3414 122.318 99.2712 122.412 99.2748C122.507 99.2803 122.579 99.3617 122.573 99.4564L121.097 124.515C121.092 124.606 121.016 124.677 120.926 124.677Z" fill="#F1F2FC"/>
<path d="M119.27 139.786H120.248C120.536 136.589 120.959 128.127 118.674 118.509C115.762 106.254 109.557 96.7665 109.557 96.7665C109.557 96.7665 108.072 107.148 110.984 119.402C113.242 128.908 117.481 136.747 119.27 139.786Z" fill="#F1F2FC"/>
<path d="M117.246 127.018C117.169 127.018 117.099 126.967 117.079 126.889L110.703 102.221C110.679 102.129 110.734 102.036 110.826 102.012C110.919 101.987 111.012 102.043 111.036 102.135L117.412 126.803C117.436 126.895 117.381 126.989 117.289 127.013C117.274 127.017 117.26 127.018 117.246 127.018Z" fill="#707FDD"/>
<path d="M133.193 126.107H108.678L112.635 140.449H129.236L133.193 126.107Z" fill="#707FDD"/>
</svg>
