<svg width="172" height="172" viewBox="0 0 172 172" fill="none" xmlns="http://www.w3.org/2000/svg">
<circle cx="86" cy="86" r="85.5" fill="white" stroke="url(#paint0_linear_0_1)"/>
<circle cx="148.5" cy="144.5" r="11.5" fill="#EEF0FF"/>
<circle cx="148.5" cy="144.5" r="9.05" fill="#EEF0FF" stroke="#8B97E3" stroke-width="0.9"/>
<path fill-rule="evenodd" clip-rule="evenodd" d="M148.259 148H149.741C150.781 148 151.301 148 151.675 147.755C151.836 147.649 151.975 147.513 152.084 147.354C152.333 146.987 152.333 146.476 152.333 145.455C152.333 144.433 152.333 143.922 152.084 143.556C151.975 143.396 151.836 143.26 151.675 143.154C151.435 142.997 151.134 142.94 150.674 142.92C150.454 142.92 150.265 142.757 150.222 142.545C150.189 142.39 150.104 142.251 149.98 142.152C149.857 142.053 149.703 141.999 149.545 142H148.455C148.126 142 147.842 142.228 147.778 142.545C147.735 142.757 147.546 142.92 147.326 142.92C146.866 142.94 146.565 142.997 146.325 143.154C146.164 143.26 146.025 143.396 145.917 143.556C145.667 143.922 145.667 144.433 145.667 145.455C145.667 146.476 145.667 146.987 145.916 147.354C146.024 147.512 146.163 147.649 146.325 147.755C146.699 148 147.219 148 148.259 148ZM149 144.091C148.233 144.091 147.611 144.701 147.611 145.454C147.611 146.207 148.233 146.819 149 146.819C149.767 146.819 150.389 146.208 150.389 145.455C150.389 144.702 149.767 144.091 149 144.091ZM149 144.636C148.54 144.636 148.167 145.003 148.167 145.455C148.167 145.906 148.54 146.273 149 146.273C149.46 146.273 149.833 145.906 149.833 145.455C149.833 145.003 149.46 144.636 149 144.636ZM150.574 144.364C150.574 144.213 150.698 144.091 150.852 144.091H151.222C151.375 144.091 151.5 144.213 151.5 144.364C151.499 144.437 151.469 144.506 151.417 144.557C151.365 144.609 151.295 144.637 151.222 144.636H150.852C150.816 144.637 150.78 144.63 150.746 144.616C150.713 144.603 150.682 144.583 150.656 144.558C150.631 144.532 150.61 144.502 150.596 144.469C150.582 144.436 150.574 144.4 150.574 144.364Z" fill="#8B97E3"/>
<path d="M44.328 105.424V108.952C44.328 109.448 44.448 109.816 44.688 110.056C44.9333 110.296 45.272 110.416 45.704 110.416C46.1307 110.416 46.464 110.296 46.704 110.056C46.9493 109.816 47.072 109.448 47.072 108.952V105.424H47.8V108.944C47.8 109.408 47.7067 109.8 47.52 110.12C47.3333 110.435 47.08 110.669 46.76 110.824C46.4453 110.979 46.0907 111.056 45.696 111.056C45.3013 111.056 44.944 110.979 44.624 110.824C44.3093 110.669 44.0587 110.435 43.872 110.12C43.6907 109.8 43.6 109.408 43.6 108.944V105.424H44.328ZM49.7424 107.424C49.8864 107.173 50.0998 106.965 50.3824 106.8C50.6704 106.629 51.0038 106.544 51.3824 106.544C51.7718 106.544 52.1238 106.637 52.4384 106.824C52.7584 107.011 53.0091 107.275 53.1904 107.616C53.3718 107.952 53.4624 108.344 53.4624 108.792C53.4624 109.235 53.3718 109.629 53.1904 109.976C53.0091 110.323 52.7584 110.592 52.4384 110.784C52.1238 110.976 51.7718 111.072 51.3824 111.072C51.0091 111.072 50.6784 110.989 50.3904 110.824C50.1078 110.653 49.8918 110.443 49.7424 110.192V113.08H49.0144V106.616H49.7424V107.424ZM52.7184 108.792C52.7184 108.461 52.6518 108.173 52.5184 107.928C52.3851 107.683 52.2038 107.496 51.9744 107.368C51.7504 107.24 51.5024 107.176 51.2304 107.176C50.9638 107.176 50.7158 107.243 50.4864 107.376C50.2624 107.504 50.0811 107.693 49.9424 107.944C49.8091 108.189 49.7424 108.475 49.7424 108.8C49.7424 109.131 49.8091 109.421 49.9424 109.672C50.0811 109.917 50.2624 110.107 50.4864 110.24C50.7158 110.368 50.9638 110.432 51.2304 110.432C51.5024 110.432 51.7504 110.368 51.9744 110.24C52.2038 110.107 52.3851 109.917 52.5184 109.672C52.6518 109.421 52.7184 109.128 52.7184 108.792ZM55.1487 105.08V111H54.4207V105.08H55.1487ZM58.3014 111.072C57.8908 111.072 57.5174 110.979 57.1814 110.792C56.8508 110.605 56.5894 110.341 56.3974 110C56.2108 109.653 56.1174 109.253 56.1174 108.8C56.1174 108.352 56.2134 107.957 56.4054 107.616C56.6028 107.269 56.8694 107.005 57.2054 106.824C57.5414 106.637 57.9174 106.544 58.3334 106.544C58.7494 106.544 59.1254 106.637 59.4614 106.824C59.7974 107.005 60.0614 107.267 60.2534 107.608C60.4508 107.949 60.5494 108.347 60.5494 108.8C60.5494 109.253 60.4481 109.653 60.2454 110C60.0481 110.341 59.7788 110.605 59.4374 110.792C59.0961 110.979 58.7174 111.072 58.3014 111.072ZM58.3014 110.432C58.5628 110.432 58.8081 110.371 59.0374 110.248C59.2668 110.125 59.4508 109.941 59.5894 109.696C59.7334 109.451 59.8054 109.152 59.8054 108.8C59.8054 108.448 59.7361 108.149 59.5974 107.904C59.4588 107.659 59.2774 107.477 59.0534 107.36C58.8294 107.237 58.5868 107.176 58.3254 107.176C58.0588 107.176 57.8134 107.237 57.5894 107.36C57.3708 107.477 57.1948 107.659 57.0614 107.904C56.9281 108.149 56.8614 108.448 56.8614 108.8C56.8614 109.157 56.9254 109.459 57.0534 109.704C57.1868 109.949 57.3628 110.133 57.5814 110.256C57.8001 110.373 58.0401 110.432 58.3014 110.432ZM61.2346 108.792C61.2346 108.344 61.3253 107.952 61.5066 107.616C61.688 107.275 61.936 107.011 62.2506 106.824C62.5706 106.637 62.9253 106.544 63.3146 106.544C63.6986 106.544 64.032 106.627 64.3146 106.792C64.5973 106.957 64.808 107.165 64.9466 107.416V106.616H65.6826V111H64.9466V110.184C64.8026 110.44 64.5866 110.653 64.2986 110.824C64.016 110.989 63.6853 111.072 63.3066 111.072C62.9173 111.072 62.5653 110.976 62.2506 110.784C61.936 110.592 61.688 110.323 61.5066 109.976C61.3253 109.629 61.2346 109.235 61.2346 108.792ZM64.9466 108.8C64.9466 108.469 64.88 108.181 64.7466 107.936C64.6133 107.691 64.432 107.504 64.2026 107.376C63.9786 107.243 63.7306 107.176 63.4586 107.176C63.1866 107.176 62.9386 107.24 62.7146 107.368C62.4906 107.496 62.312 107.683 62.1786 107.928C62.0453 108.173 61.9786 108.461 61.9786 108.792C61.9786 109.128 62.0453 109.421 62.1786 109.672C62.312 109.917 62.4906 110.107 62.7146 110.24C62.9386 110.368 63.1866 110.432 63.4586 110.432C63.7306 110.432 63.9786 110.368 64.2026 110.24C64.432 110.107 64.6133 109.917 64.7466 109.672C64.88 109.421 64.9466 109.131 64.9466 108.8ZM66.6409 108.792C66.6409 108.344 66.7315 107.952 66.9129 107.616C67.0942 107.275 67.3422 107.011 67.6569 106.824C67.9769 106.637 68.3342 106.544 68.7289 106.544C69.0702 106.544 69.3875 106.624 69.6809 106.784C69.9742 106.939 70.1982 107.144 70.3529 107.4V105.08H71.0889V111H70.3529V110.176C70.2089 110.437 69.9955 110.653 69.7129 110.824C69.4302 110.989 69.0995 111.072 68.7209 111.072C68.3315 111.072 67.9769 110.976 67.6569 110.784C67.3422 110.592 67.0942 110.323 66.9129 109.976C66.7315 109.629 66.6409 109.235 66.6409 108.792ZM70.3529 108.8C70.3529 108.469 70.2862 108.181 70.1529 107.936C70.0195 107.691 69.8382 107.504 69.6089 107.376C69.3849 107.243 69.1369 107.176 68.8649 107.176C68.5929 107.176 68.3449 107.24 68.1209 107.368C67.8969 107.496 67.7182 107.683 67.5849 107.928C67.4515 108.173 67.3849 108.461 67.3849 108.792C67.3849 109.128 67.4515 109.421 67.5849 109.672C67.7182 109.917 67.8969 110.107 68.1209 110.24C68.3449 110.368 68.5929 110.432 68.8649 110.432C69.1369 110.432 69.3849 110.368 69.6089 110.24C69.8382 110.107 70.0195 109.917 70.1529 109.672C70.2862 109.421 70.3529 109.131 70.3529 108.8ZM78.1799 107.056C78.1799 107.52 78.0199 107.907 77.6999 108.216C77.3853 108.52 76.9026 108.672 76.2519 108.672H75.1799V111H74.4519V105.424H76.2519C76.8813 105.424 77.3586 105.576 77.6839 105.88C78.0146 106.184 78.1799 106.576 78.1799 107.056ZM76.2519 108.072C76.6573 108.072 76.9559 107.984 77.1479 107.808C77.3399 107.632 77.4359 107.381 77.4359 107.056C77.4359 106.368 77.0413 106.024 76.2519 106.024H75.1799V108.072H76.2519ZM79.8128 107.328C79.9408 107.077 80.1221 106.883 80.3568 106.744C80.5968 106.605 80.8874 106.536 81.2288 106.536V107.288H81.0368C80.2208 107.288 79.8128 107.731 79.8128 108.616V111H79.0848V106.616H79.8128V107.328ZM83.9811 111.072C83.5705 111.072 83.1971 110.979 82.8611 110.792C82.5305 110.605 82.2691 110.341 82.0771 110C81.8905 109.653 81.7971 109.253 81.7971 108.8C81.7971 108.352 81.8931 107.957 82.0851 107.616C82.2825 107.269 82.5491 107.005 82.8851 106.824C83.2211 106.637 83.5971 106.544 84.0131 106.544C84.4291 106.544 84.8051 106.637 85.1411 106.824C85.4771 107.005 85.7411 107.267 85.9331 107.608C86.1305 107.949 86.2291 108.347 86.2291 108.8C86.2291 109.253 86.1278 109.653 85.9251 110C85.7278 110.341 85.4585 110.605 85.1171 110.792C84.7758 110.979 84.3971 111.072 83.9811 111.072ZM83.9811 110.432C84.2425 110.432 84.4878 110.371 84.7171 110.248C84.9465 110.125 85.1305 109.941 85.2691 109.696C85.4131 109.451 85.4851 109.152 85.4851 108.8C85.4851 108.448 85.4158 108.149 85.2771 107.904C85.1385 107.659 84.9571 107.477 84.7331 107.36C84.5091 107.237 84.2665 107.176 84.0051 107.176C83.7385 107.176 83.4931 107.237 83.2691 107.36C83.0505 107.477 82.8745 107.659 82.7411 107.904C82.6078 108.149 82.5411 108.448 82.5411 108.8C82.5411 109.157 82.6051 109.459 82.7331 109.704C82.8665 109.949 83.0425 110.133 83.2611 110.256C83.4798 110.373 83.7198 110.432 83.9811 110.432ZM88.9703 107.216H88.0503V111H87.3223V107.216H86.7543V106.616H87.3223V106.304C87.3223 105.813 87.4476 105.456 87.6983 105.232C87.9543 105.003 88.3623 104.888 88.9223 104.888V105.496C88.6023 105.496 88.3756 105.56 88.2423 105.688C88.1143 105.811 88.0503 106.016 88.0503 106.304V106.616H88.9703V107.216ZM90.1951 105.904C90.0565 105.904 89.9391 105.856 89.8431 105.76C89.7471 105.664 89.6991 105.547 89.6991 105.408C89.6991 105.269 89.7471 105.152 89.8431 105.056C89.9391 104.96 90.0565 104.912 90.1951 104.912C90.3285 104.912 90.4405 104.96 90.5311 105.056C90.6271 105.152 90.6751 105.269 90.6751 105.408C90.6751 105.547 90.6271 105.664 90.5311 105.76C90.4405 105.856 90.3285 105.904 90.1951 105.904ZM90.5471 106.616V111H89.8191V106.616H90.5471ZM92.5159 105.08V111H91.7879V105.08H92.5159ZM97.7566 108.64C97.7566 108.779 97.7486 108.925 97.7326 109.08H94.2286C94.2553 109.512 94.402 109.851 94.6686 110.096C94.9406 110.336 95.2686 110.456 95.6526 110.456C95.9673 110.456 96.2286 110.384 96.4366 110.24C96.65 110.091 96.7993 109.893 96.8846 109.648H97.6686C97.5513 110.069 97.3166 110.413 96.9646 110.68C96.6126 110.941 96.1753 111.072 95.6526 111.072C95.2366 111.072 94.8633 110.979 94.5326 110.792C94.2073 110.605 93.9513 110.341 93.7646 110C93.578 109.653 93.4846 109.253 93.4846 108.8C93.4846 108.347 93.5753 107.949 93.7566 107.608C93.938 107.267 94.1913 107.005 94.5166 106.824C94.8473 106.637 95.226 106.544 95.6526 106.544C96.0686 106.544 96.4366 106.635 96.7566 106.816C97.0766 106.997 97.322 107.248 97.4926 107.568C97.6686 107.883 97.7566 108.24 97.7566 108.64ZM97.0046 108.488C97.0046 108.211 96.9433 107.973 96.8206 107.776C96.698 107.573 96.53 107.421 96.3166 107.32C96.1086 107.213 95.8766 107.16 95.6206 107.16C95.2526 107.16 94.938 107.277 94.6766 107.512C94.4206 107.747 94.274 108.072 94.2366 108.488H97.0046ZM104.578 107.056C104.578 107.52 104.418 107.907 104.098 108.216C103.784 108.52 103.301 108.672 102.65 108.672H101.578V111H100.85V105.424H102.65C103.28 105.424 103.757 105.576 104.082 105.88C104.413 106.184 104.578 106.576 104.578 107.056ZM102.65 108.072C103.056 108.072 103.354 107.984 103.546 107.808C103.738 107.632 103.834 107.381 103.834 107.056C103.834 106.368 103.44 106.024 102.65 106.024H101.578V108.072H102.65ZM105.859 105.904C105.721 105.904 105.603 105.856 105.507 105.76C105.411 105.664 105.363 105.547 105.363 105.408C105.363 105.269 105.411 105.152 105.507 105.056C105.603 104.96 105.721 104.912 105.859 104.912C105.993 104.912 106.105 104.96 106.195 105.056C106.291 105.152 106.339 105.269 106.339 105.408C106.339 105.547 106.291 105.664 106.195 105.76C106.105 105.856 105.993 105.904 105.859 105.904ZM106.211 106.616V111H105.483V106.616H106.211ZM107.18 108.8C107.18 108.347 107.271 107.952 107.452 107.616C107.633 107.275 107.884 107.011 108.204 106.824C108.529 106.637 108.9 106.544 109.316 106.544C109.855 106.544 110.297 106.675 110.644 106.936C110.996 107.197 111.228 107.56 111.34 108.024H110.556C110.481 107.757 110.335 107.547 110.116 107.392C109.903 107.237 109.636 107.16 109.316 107.16C108.9 107.16 108.564 107.304 108.308 107.592C108.052 107.875 107.924 108.277 107.924 108.8C107.924 109.328 108.052 109.736 108.308 110.024C108.564 110.312 108.9 110.456 109.316 110.456C109.636 110.456 109.903 110.381 110.116 110.232C110.329 110.083 110.476 109.869 110.556 109.592H111.34C111.223 110.04 110.988 110.4 110.636 110.672C110.284 110.939 109.844 111.072 109.316 111.072C108.9 111.072 108.529 110.979 108.204 110.792C107.884 110.605 107.633 110.341 107.452 110C107.271 109.659 107.18 109.259 107.18 108.8ZM113.199 107.216V109.8C113.199 110.013 113.245 110.165 113.335 110.256C113.426 110.341 113.583 110.384 113.807 110.384H114.343V111H113.687C113.282 111 112.978 110.907 112.775 110.72C112.573 110.533 112.471 110.227 112.471 109.8V107.216H111.903V106.616H112.471V105.512H113.199V106.616H114.343V107.216H113.199ZM119.113 106.616V111H118.385V110.352C118.247 110.576 118.052 110.752 117.801 110.88C117.556 111.003 117.284 111.064 116.985 111.064C116.644 111.064 116.337 110.995 116.065 110.856C115.793 110.712 115.577 110.499 115.417 110.216C115.263 109.933 115.185 109.589 115.185 109.184V106.616H115.905V109.088C115.905 109.52 116.015 109.853 116.233 110.088C116.452 110.317 116.751 110.432 117.129 110.432C117.519 110.432 117.825 110.312 118.049 110.072C118.273 109.832 118.385 109.483 118.385 109.024V106.616H119.113ZM121.071 107.328C121.199 107.077 121.38 106.883 121.615 106.744C121.855 106.605 122.145 106.536 122.487 106.536V107.288H122.295C121.479 107.288 121.071 107.731 121.071 108.616V111H120.343V106.616H121.071V107.328ZM127.327 108.64C127.327 108.779 127.319 108.925 127.303 109.08H123.799C123.826 109.512 123.972 109.851 124.239 110.096C124.511 110.336 124.839 110.456 125.223 110.456C125.538 110.456 125.799 110.384 126.007 110.24C126.22 110.091 126.37 109.893 126.455 109.648H127.239C127.122 110.069 126.887 110.413 126.535 110.68C126.183 110.941 125.746 111.072 125.223 111.072C124.807 111.072 124.434 110.979 124.103 110.792C123.778 110.605 123.522 110.341 123.335 110C123.148 109.653 123.055 109.253 123.055 108.8C123.055 108.347 123.146 107.949 123.327 107.608C123.508 107.267 123.762 107.005 124.087 106.824C124.418 106.637 124.796 106.544 125.223 106.544C125.639 106.544 126.007 106.635 126.327 106.816C126.647 106.997 126.892 107.248 127.063 107.568C127.239 107.883 127.327 108.24 127.327 108.64ZM126.575 108.488C126.575 108.211 126.514 107.973 126.391 107.776C126.268 107.573 126.1 107.421 125.887 107.32C125.679 107.213 125.447 107.16 125.191 107.16C124.823 107.16 124.508 107.277 124.247 107.512C123.991 107.747 123.844 108.072 123.807 108.488H126.575Z" fill="#787F89"/>
<path d="M100.622 77.4825C89.0547 75.8935 79.0798 84.4825 79.75 95.875M75.375 74C75.375 74.9283 75.7437 75.8185 76.4001 76.4749C77.0565 77.1313 77.9467 77.5 78.875 77.5C79.8033 77.5 80.6935 77.1313 81.3499 76.4749C82.0063 75.8185 82.375 74.9283 82.375 74C82.375 73.0717 82.0063 72.1815 81.3499 71.5251C80.6935 70.8687 79.8033 70.5 78.875 70.5C77.9467 70.5 77.0565 70.8687 76.4001 71.5251C75.7437 72.1815 75.375 73.0717 75.375 74Z" stroke="#787F89" stroke-linecap="round" stroke-linejoin="round"/>
<path d="M69.25 82.8655C74.115 82.1918 78.4812 84.5421 80.842 88.2906" stroke="#787F89" stroke-linecap="round" stroke-linejoin="round"/>
<path d="M69.25 76.45C69.25 72.53 69.25 70.57 70.013 69.072C70.6841 67.7549 71.7549 66.6841 73.072 66.013C74.57 65.25 76.53 65.25 80.45 65.25H89.55C93.47 65.25 95.43 65.25 96.928 66.013C98.2451 66.6841 99.3159 67.7549 99.987 69.072C100.75 70.57 100.75 72.53 100.75 76.45V85.55C100.75 89.47 100.75 91.43 99.987 92.928C99.3159 94.2451 98.2451 95.3159 96.928 95.987C95.43 96.75 93.47 96.75 89.55 96.75H80.45C76.53 96.75 74.57 96.75 73.072 95.987C71.7549 95.3159 70.6841 94.2451 70.013 92.928C69.25 91.43 69.25 89.47 69.25 85.55V76.45Z" stroke="#787F89" stroke-linecap="round" stroke-linejoin="round"/>
<defs>
<linearGradient id="paint0_linear_0_1" x1="86" y1="0" x2="86" y2="189" gradientUnits="userSpaceOnUse">
<stop stop-color="#707FDD"/>
<stop offset="0.535" stop-color="white"/>
<stop offset="0.93" stop-color="#707FDD"/>
</linearGradient>
</defs>
</svg>
