<svg width="85" height="54" viewBox="0 0 85 54" fill="none" xmlns="http://www.w3.org/2000/svg">
<path d="M1.328 45.424V48.952C1.328 49.448 1.448 49.816 1.688 50.056C1.93333 50.296 2.272 50.416 2.704 50.416C3.13067 50.416 3.464 50.296 3.704 50.056C3.94933 49.816 4.072 49.448 4.072 48.952V45.424H4.8V48.944C4.8 49.408 4.70667 49.8 4.52 50.12C4.33333 50.4347 4.08 50.6693 3.76 50.824C3.44533 50.9787 3.09067 51.056 2.696 51.056C2.30133 51.056 1.944 50.9787 1.624 50.824C1.30933 50.6693 1.05867 50.4347 0.872 50.12C0.690667 49.8 0.6 49.408 0.6 48.944V45.424H1.328ZM6.74244 47.424C6.88644 47.1733 7.09977 46.9653 7.38244 46.8C7.67044 46.6293 8.00377 46.544 8.38244 46.544C8.77177 46.544 9.12377 46.6373 9.43844 46.824C9.75844 47.0107 10.0091 47.2747 10.1904 47.616C10.3718 47.952 10.4624 48.344 10.4624 48.792C10.4624 49.2347 10.3718 49.6293 10.1904 49.976C10.0091 50.3227 9.75844 50.592 9.43844 50.784C9.12377 50.976 8.77177 51.072 8.38244 51.072C8.0091 51.072 7.67844 50.9893 7.39044 50.824C7.10777 50.6533 6.89177 50.4427 6.74244 50.192V53.08H6.01444V46.616H6.74244V47.424ZM9.71844 48.792C9.71844 48.4613 9.65177 48.1733 9.51844 47.928C9.3851 47.6827 9.20377 47.496 8.97444 47.368C8.75044 47.24 8.50244 47.176 8.23044 47.176C7.96377 47.176 7.71577 47.2427 7.48644 47.376C7.26244 47.504 7.0811 47.6933 6.94244 47.944C6.8091 48.1893 6.74244 48.4747 6.74244 48.8C6.74244 49.1307 6.8091 49.4213 6.94244 49.672C7.0811 49.9173 7.26244 50.1067 7.48644 50.24C7.71577 50.368 7.96377 50.432 8.23044 50.432C8.50244 50.432 8.75044 50.368 8.97444 50.24C9.20377 50.1067 9.3851 49.9173 9.51844 49.672C9.65177 49.4213 9.71844 49.128 9.71844 48.792ZM12.1487 45.08V51H11.4207V45.08H12.1487ZM15.3014 51.072C14.8908 51.072 14.5174 50.9787 14.1814 50.792C13.8508 50.6053 13.5894 50.3413 13.3974 50C13.2108 49.6533 13.1174 49.2533 13.1174 48.8C13.1174 48.352 13.2134 47.9573 13.4054 47.616C13.6028 47.2693 13.8694 47.0053 14.2054 46.824C14.5414 46.6373 14.9174 46.544 15.3334 46.544C15.7494 46.544 16.1254 46.6373 16.4614 46.824C16.7974 47.0053 17.0614 47.2667 17.2534 47.608C17.4508 47.9493 17.5494 48.3467 17.5494 48.8C17.5494 49.2533 17.4481 49.6533 17.2454 50C17.0481 50.3413 16.7788 50.6053 16.4374 50.792C16.0961 50.9787 15.7174 51.072 15.3014 51.072ZM15.3014 50.432C15.5628 50.432 15.8081 50.3707 16.0374 50.248C16.2668 50.1253 16.4508 49.9413 16.5894 49.696C16.7334 49.4507 16.8054 49.152 16.8054 48.8C16.8054 48.448 16.7361 48.1493 16.5974 47.904C16.4588 47.6587 16.2774 47.4773 16.0534 47.36C15.8294 47.2373 15.5868 47.176 15.3254 47.176C15.0588 47.176 14.8134 47.2373 14.5894 47.36C14.3708 47.4773 14.1948 47.6587 14.0614 47.904C13.9281 48.1493 13.8614 48.448 13.8614 48.8C13.8614 49.1573 13.9254 49.4587 14.0534 49.704C14.1868 49.9493 14.3628 50.1333 14.5814 50.256C14.8001 50.3733 15.0401 50.432 15.3014 50.432ZM18.2346 48.792C18.2346 48.344 18.3253 47.952 18.5066 47.616C18.688 47.2747 18.936 47.0107 19.2506 46.824C19.5706 46.6373 19.9253 46.544 20.3146 46.544C20.6986 46.544 21.032 46.6267 21.3146 46.792C21.5973 46.9573 21.808 47.1653 21.9466 47.416V46.616H22.6826V51H21.9466V50.184C21.8026 50.44 21.5866 50.6533 21.2986 50.824C21.016 50.9893 20.6853 51.072 20.3066 51.072C19.9173 51.072 19.5653 50.976 19.2506 50.784C18.936 50.592 18.688 50.3227 18.5066 49.976C18.3253 49.6293 18.2346 49.2347 18.2346 48.792ZM21.9466 48.8C21.9466 48.4693 21.88 48.1813 21.7466 47.936C21.6133 47.6907 21.432 47.504 21.2026 47.376C20.9786 47.2427 20.7306 47.176 20.4586 47.176C20.1866 47.176 19.9386 47.24 19.7146 47.368C19.4906 47.496 19.312 47.6827 19.1786 47.928C19.0453 48.1733 18.9786 48.4613 18.9786 48.792C18.9786 49.128 19.0453 49.4213 19.1786 49.672C19.312 49.9173 19.4906 50.1067 19.7146 50.24C19.9386 50.368 20.1866 50.432 20.4586 50.432C20.7306 50.432 20.9786 50.368 21.2026 50.24C21.432 50.1067 21.6133 49.9173 21.7466 49.672C21.88 49.4213 21.9466 49.1307 21.9466 48.8ZM23.6409 48.792C23.6409 48.344 23.7315 47.952 23.9129 47.616C24.0942 47.2747 24.3422 47.0107 24.6569 46.824C24.9769 46.6373 25.3342 46.544 25.7289 46.544C26.0702 46.544 26.3875 46.624 26.6809 46.784C26.9742 46.9387 27.1982 47.144 27.3529 47.4V45.08H28.0889V51H27.3529V50.176C27.2089 50.4373 26.9955 50.6533 26.7129 50.824C26.4302 50.9893 26.0995 51.072 25.7209 51.072C25.3315 51.072 24.9769 50.976 24.6569 50.784C24.3422 50.592 24.0942 50.3227 23.9129 49.976C23.7315 49.6293 23.6409 49.2347 23.6409 48.792ZM27.3529 48.8C27.3529 48.4693 27.2862 48.1813 27.1529 47.936C27.0195 47.6907 26.8382 47.504 26.6089 47.376C26.3849 47.2427 26.1369 47.176 25.8649 47.176C25.5929 47.176 25.3449 47.24 25.1209 47.368C24.8969 47.496 24.7182 47.6827 24.5849 47.928C24.4515 48.1733 24.3849 48.4613 24.3849 48.792C24.3849 49.128 24.4515 49.4213 24.5849 49.672C24.7182 49.9173 24.8969 50.1067 25.1209 50.24C25.3449 50.368 25.5929 50.432 25.8649 50.432C26.1369 50.432 26.3849 50.368 26.6089 50.24C26.8382 50.1067 27.0195 49.9173 27.1529 49.672C27.2862 49.4213 27.3529 49.1307 27.3529 48.8ZM35.1799 47.056C35.1799 47.52 35.0199 47.9067 34.6999 48.216C34.3853 48.52 33.9026 48.672 33.2519 48.672H32.1799V51H31.4519V45.424H33.2519C33.8813 45.424 34.3586 45.576 34.6839 45.88C35.0146 46.184 35.1799 46.576 35.1799 47.056ZM33.2519 48.072C33.6573 48.072 33.9559 47.984 34.1479 47.808C34.3399 47.632 34.4359 47.3813 34.4359 47.056C34.4359 46.368 34.0413 46.024 33.2519 46.024H32.1799V48.072H33.2519ZM36.8128 47.328C36.9408 47.0773 37.1221 46.8827 37.3568 46.744C37.5968 46.6053 37.8874 46.536 38.2288 46.536V47.288H38.0368C37.2208 47.288 36.8128 47.7307 36.8128 48.616V51H36.0848V46.616H36.8128V47.328ZM40.9811 51.072C40.5705 51.072 40.1971 50.9787 39.8611 50.792C39.5305 50.6053 39.2691 50.3413 39.0771 50C38.8905 49.6533 38.7971 49.2533 38.7971 48.8C38.7971 48.352 38.8931 47.9573 39.0851 47.616C39.2825 47.2693 39.5491 47.0053 39.8851 46.824C40.2211 46.6373 40.5971 46.544 41.0131 46.544C41.4291 46.544 41.8051 46.6373 42.1411 46.824C42.4771 47.0053 42.7411 47.2667 42.9331 47.608C43.1305 47.9493 43.2291 48.3467 43.2291 48.8C43.2291 49.2533 43.1278 49.6533 42.9251 50C42.7278 50.3413 42.4585 50.6053 42.1171 50.792C41.7758 50.9787 41.3971 51.072 40.9811 51.072ZM40.9811 50.432C41.2425 50.432 41.4878 50.3707 41.7171 50.248C41.9465 50.1253 42.1305 49.9413 42.2691 49.696C42.4131 49.4507 42.4851 49.152 42.4851 48.8C42.4851 48.448 42.4158 48.1493 42.2771 47.904C42.1385 47.6587 41.9571 47.4773 41.7331 47.36C41.5091 47.2373 41.2665 47.176 41.0051 47.176C40.7385 47.176 40.4931 47.2373 40.2691 47.36C40.0505 47.4773 39.8745 47.6587 39.7411 47.904C39.6078 48.1493 39.5411 48.448 39.5411 48.8C39.5411 49.1573 39.6051 49.4587 39.7331 49.704C39.8665 49.9493 40.0425 50.1333 40.2611 50.256C40.4798 50.3733 40.7198 50.432 40.9811 50.432ZM45.9703 47.216H45.0503V51H44.3223V47.216H43.7543V46.616H44.3223V46.304C44.3223 45.8133 44.4476 45.456 44.6983 45.232C44.9543 45.0027 45.3623 44.888 45.9223 44.888V45.496C45.6023 45.496 45.3756 45.56 45.2423 45.688C45.1143 45.8107 45.0503 46.016 45.0503 46.304V46.616H45.9703V47.216ZM47.1951 45.904C47.0565 45.904 46.9391 45.856 46.8431 45.76C46.7471 45.664 46.6991 45.5467 46.6991 45.408C46.6991 45.2693 46.7471 45.152 46.8431 45.056C46.9391 44.96 47.0565 44.912 47.1951 44.912C47.3285 44.912 47.4405 44.96 47.5311 45.056C47.6271 45.152 47.6751 45.2693 47.6751 45.408C47.6751 45.5467 47.6271 45.664 47.5311 45.76C47.4405 45.856 47.3285 45.904 47.1951 45.904ZM47.5471 46.616V51H46.8191V46.616H47.5471ZM49.5159 45.08V51H48.7879V45.08H49.5159ZM54.7566 48.64C54.7566 48.7787 54.7486 48.9253 54.7326 49.08H51.2286C51.2553 49.512 51.402 49.8507 51.6686 50.096C51.9406 50.336 52.2686 50.456 52.6526 50.456C52.9673 50.456 53.2286 50.384 53.4366 50.24C53.65 50.0907 53.7993 49.8933 53.8846 49.648H54.6686C54.5513 50.0693 54.3166 50.4133 53.9646 50.68C53.6126 50.9413 53.1753 51.072 52.6526 51.072C52.2366 51.072 51.8633 50.9787 51.5326 50.792C51.2073 50.6053 50.9513 50.3413 50.7646 50C50.578 49.6533 50.4846 49.2533 50.4846 48.8C50.4846 48.3467 50.5753 47.9493 50.7566 47.608C50.938 47.2667 51.1913 47.0053 51.5166 46.824C51.8473 46.6373 52.226 46.544 52.6526 46.544C53.0686 46.544 53.4366 46.6347 53.7566 46.816C54.0766 46.9973 54.322 47.248 54.4926 47.568C54.6686 47.8827 54.7566 48.24 54.7566 48.64ZM54.0046 48.488C54.0046 48.2107 53.9433 47.9733 53.8206 47.776C53.698 47.5733 53.53 47.4213 53.3166 47.32C53.1086 47.2133 52.8766 47.16 52.6206 47.16C52.2526 47.16 51.938 47.2773 51.6766 47.512C51.4206 47.7467 51.274 48.072 51.2366 48.488H54.0046ZM61.5784 47.056C61.5784 47.52 61.4184 47.9067 61.0984 48.216C60.7837 48.52 60.301 48.672 59.6504 48.672H58.5784V51H57.8504V45.424H59.6504C60.2797 45.424 60.757 45.576 61.0824 45.88C61.413 46.184 61.5784 46.576 61.5784 47.056ZM59.6504 48.072C60.0557 48.072 60.3544 47.984 60.5464 47.808C60.7384 47.632 60.8344 47.3813 60.8344 47.056C60.8344 46.368 60.4397 46.024 59.6504 46.024H58.5784V48.072H59.6504ZM62.8592 45.904C62.7205 45.904 62.6032 45.856 62.5072 45.76C62.4112 45.664 62.3632 45.5467 62.3632 45.408C62.3632 45.2693 62.4112 45.152 62.5072 45.056C62.6032 44.96 62.7205 44.912 62.8592 44.912C62.9925 44.912 63.1045 44.96 63.1952 45.056C63.2912 45.152 63.3392 45.2693 63.3392 45.408C63.3392 45.5467 63.2912 45.664 63.1952 45.76C63.1045 45.856 62.9925 45.904 62.8592 45.904ZM63.2112 46.616V51H62.4832V46.616H63.2112ZM64.1799 48.8C64.1799 48.3467 64.2706 47.952 64.4519 47.616C64.6333 47.2747 64.8839 47.0107 65.2039 46.824C65.5293 46.6373 65.8999 46.544 66.3159 46.544C66.8546 46.544 67.2973 46.6747 67.6439 46.936C67.9959 47.1973 68.2279 47.56 68.3399 48.024H67.5559C67.4813 47.7573 67.3346 47.5467 67.1159 47.392C66.9026 47.2373 66.6359 47.16 66.3159 47.16C65.8999 47.16 65.5639 47.304 65.3079 47.592C65.0519 47.8747 64.9239 48.2773 64.9239 48.8C64.9239 49.328 65.0519 49.736 65.3079 50.024C65.5639 50.312 65.8999 50.456 66.3159 50.456C66.6359 50.456 66.9026 50.3813 67.1159 50.232C67.3293 50.0827 67.4759 49.8693 67.5559 49.592H68.3399C68.2226 50.04 67.9879 50.4 67.6359 50.672C67.2839 50.9387 66.8439 51.072 66.3159 51.072C65.8999 51.072 65.5293 50.9787 65.2039 50.792C64.8839 50.6053 64.6333 50.3413 64.4519 50C64.2706 49.6587 64.1799 49.2587 64.1799 48.8ZM70.1993 47.216V49.8C70.1993 50.0133 70.2446 50.1653 70.3353 50.256C70.426 50.3413 70.5833 50.384 70.8073 50.384H71.3433V51H70.6873C70.282 51 69.978 50.9067 69.7753 50.72C69.5726 50.5333 69.4713 50.2267 69.4713 49.8V47.216H68.9033V46.616H69.4713V45.512H70.1993V46.616H71.3433V47.216H70.1993ZM76.1134 46.616V51H75.3854V50.352C75.2467 50.576 75.052 50.752 74.8014 50.88C74.556 51.0027 74.284 51.064 73.9854 51.064C73.644 51.064 73.3374 50.9947 73.0654 50.856C72.7934 50.712 72.5774 50.4987 72.4174 50.216C72.2627 49.9333 72.1854 49.5893 72.1854 49.184V46.616H72.9054V49.088C72.9054 49.52 73.0147 49.8533 73.2334 50.088C73.452 50.3173 73.7507 50.432 74.1294 50.432C74.5187 50.432 74.8254 50.312 75.0494 50.072C75.2734 49.832 75.3854 49.4827 75.3854 49.024V46.616H76.1134ZM78.0706 47.328C78.1986 47.0773 78.3799 46.8827 78.6146 46.744C78.8546 46.6053 79.1452 46.536 79.4866 46.536V47.288H79.2946C78.4786 47.288 78.0706 47.7307 78.0706 48.616V51H77.3426V46.616H78.0706V47.328ZM84.3269 48.64C84.3269 48.7787 84.3189 48.9253 84.3029 49.08H80.7989C80.8256 49.512 80.9723 49.8507 81.2389 50.096C81.5109 50.336 81.8389 50.456 82.2229 50.456C82.5376 50.456 82.7989 50.384 83.0069 50.24C83.2203 50.0907 83.3696 49.8933 83.4549 49.648H84.2389C84.1216 50.0693 83.8869 50.4133 83.5349 50.68C83.1829 50.9413 82.7456 51.072 82.2229 51.072C81.8069 51.072 81.4336 50.9787 81.1029 50.792C80.7776 50.6053 80.5216 50.3413 80.3349 50C80.1483 49.6533 80.0549 49.2533 80.0549 48.8C80.0549 48.3467 80.1456 47.9493 80.3269 47.608C80.5083 47.2667 80.7616 47.0053 81.0869 46.824C81.4176 46.6373 81.7963 46.544 82.2229 46.544C82.6389 46.544 83.0069 46.6347 83.3269 46.816C83.6469 46.9973 83.8923 47.248 84.0629 47.568C84.2389 47.8827 84.3269 48.24 84.3269 48.64ZM83.5749 48.488C83.5749 48.2107 83.5136 47.9733 83.3909 47.776C83.2683 47.5733 83.1003 47.4213 82.8869 47.32C82.6789 47.2133 82.4469 47.16 82.1909 47.16C81.8229 47.16 81.5083 47.2773 81.2469 47.512C80.9909 47.7467 80.8443 48.072 80.8069 48.488H83.5749Z" fill="#787F89"/>
<path d="M57.6223 17.4825C46.0547 15.8935 36.0798 24.4825 36.75 35.875M32.375 14C32.375 14.9283 32.7437 15.8185 33.4001 16.4749C34.0565 17.1313 34.9467 17.5 35.875 17.5C36.8033 17.5 37.6935 17.1313 38.3499 16.4749C39.0063 15.8185 39.375 14.9283 39.375 14C39.375 13.0717 39.0063 12.1815 38.3499 11.5251C37.6935 10.8687 36.8033 10.5 35.875 10.5C34.9467 10.5 34.0565 10.8687 33.4001 11.5251C32.7437 12.1815 32.375 13.0717 32.375 14Z" stroke="#787F89" stroke-linecap="round" stroke-linejoin="round"/>
<path d="M26.25 22.8655C31.115 22.1918 35.4812 24.5421 37.842 28.2906" stroke="#787F89" stroke-linecap="round" stroke-linejoin="round"/>
<path d="M26.25 16.45C26.25 12.53 26.25 10.57 27.013 9.072C27.6841 7.75492 28.7549 6.6841 30.072 6.013C31.57 5.25 33.53 5.25 37.45 5.25H46.55C50.47 5.25 52.43 5.25 53.928 6.013C55.2451 6.6841 56.3159 7.75492 56.987 9.072C57.75 10.57 57.75 12.53 57.75 16.45V25.55C57.75 29.47 57.75 31.43 56.987 32.928C56.3159 34.2451 55.2451 35.3159 53.928 35.987C52.43 36.75 50.47 36.75 46.55 36.75H37.45C33.53 36.75 31.57 36.75 30.072 35.987C28.7549 35.3159 27.6841 34.2451 27.013 32.928C26.25 31.43 26.25 29.47 26.25 25.55V16.45Z" stroke="#787F89" stroke-linecap="round" stroke-linejoin="round"/>
</svg>