<svg width="450" height="450" viewBox="0 0 450 450" fill="none" xmlns="http://www.w3.org/2000/svg">
<g filter="url(#filter0_f_862_1626)">
<circle cx="225" cy="225" r="95" fill="#D9DCFF"/>
</g>
<g filter="url(#filter1_i_862_1626)">
<circle cx="225" cy="218" r="86" fill="white"/>
</g>
<circle cx="225" cy="218" r="85.5" stroke="url(#paint0_linear_862_1626)"/>
<circle cx="277.5" cy="282.5" r="11.5" fill="#EEF0FF"/>
<circle cx="277.5" cy="282.5" r="9.05" fill="#EEF0FF" stroke="#8B97E3" stroke-width="0.9"/>
<path fill-rule="evenodd" clip-rule="evenodd" d="M277.259 286H278.741C279.781 286 280.301 286 280.675 285.755C280.836 285.649 280.975 285.513 281.084 285.354C281.333 284.987 281.333 284.476 281.333 283.455C281.333 282.433 281.333 281.922 281.084 281.556C280.975 281.396 280.836 281.26 280.675 281.154C280.435 280.997 280.134 280.94 279.674 280.92C279.454 280.92 279.265 280.757 279.222 280.545C279.189 280.39 279.104 280.251 278.98 280.152C278.857 280.053 278.703 279.999 278.545 280H277.455C277.126 280 276.842 280.228 276.778 280.545C276.735 280.757 276.546 280.92 276.326 280.92C275.866 280.94 275.565 280.997 275.325 281.154C275.164 281.26 275.025 281.396 274.917 281.556C274.667 281.922 274.667 282.433 274.667 283.455C274.667 284.476 274.667 284.987 274.916 285.354C275.024 285.512 275.163 285.649 275.325 285.755C275.699 286 276.219 286 277.259 286ZM278 282.091C277.233 282.091 276.611 282.701 276.611 283.454C276.611 284.207 277.233 284.819 278 284.819C278.767 284.819 279.389 284.208 279.389 283.455C279.389 282.702 278.767 282.091 278 282.091ZM278 282.636C277.54 282.636 277.167 283.003 277.167 283.455C277.167 283.906 277.54 284.273 278 284.273C278.46 284.273 278.833 283.906 278.833 283.455C278.833 283.003 278.46 282.636 278 282.636ZM279.574 282.364C279.574 282.213 279.698 282.091 279.852 282.091H280.222C280.375 282.091 280.5 282.213 280.5 282.364C280.499 282.437 280.469 282.506 280.417 282.557C280.365 282.609 280.295 282.637 280.222 282.636H279.852C279.816 282.637 279.78 282.63 279.746 282.616C279.713 282.603 279.682 282.583 279.656 282.558C279.631 282.532 279.61 282.502 279.596 282.469C279.582 282.436 279.574 282.4 279.574 282.364Z" fill="#8B97E3"/>
<path d="M184.328 236.424V239.952C184.328 240.448 184.448 240.816 184.688 241.056C184.933 241.296 185.272 241.416 185.704 241.416C186.131 241.416 186.464 241.296 186.704 241.056C186.949 240.816 187.072 240.448 187.072 239.952V236.424H187.8V239.944C187.8 240.408 187.707 240.8 187.52 241.12C187.333 241.435 187.08 241.669 186.76 241.824C186.445 241.979 186.091 242.056 185.696 242.056C185.301 242.056 184.944 241.979 184.624 241.824C184.309 241.669 184.059 241.435 183.872 241.12C183.691 240.8 183.6 240.408 183.6 239.944V236.424H184.328ZM189.742 238.424C189.886 238.173 190.1 237.965 190.382 237.8C190.67 237.629 191.004 237.544 191.382 237.544C191.772 237.544 192.124 237.637 192.438 237.824C192.758 238.011 193.009 238.275 193.19 238.616C193.372 238.952 193.462 239.344 193.462 239.792C193.462 240.235 193.372 240.629 193.19 240.976C193.009 241.323 192.758 241.592 192.438 241.784C192.124 241.976 191.772 242.072 191.382 242.072C191.009 242.072 190.678 241.989 190.39 241.824C190.108 241.653 189.892 241.443 189.742 241.192V244.08H189.014V237.616H189.742V238.424ZM192.718 239.792C192.718 239.461 192.652 239.173 192.518 238.928C192.385 238.683 192.204 238.496 191.974 238.368C191.75 238.24 191.502 238.176 191.23 238.176C190.964 238.176 190.716 238.243 190.486 238.376C190.262 238.504 190.081 238.693 189.942 238.944C189.809 239.189 189.742 239.475 189.742 239.8C189.742 240.131 189.809 240.421 189.942 240.672C190.081 240.917 190.262 241.107 190.486 241.24C190.716 241.368 190.964 241.432 191.23 241.432C191.502 241.432 191.75 241.368 191.974 241.24C192.204 241.107 192.385 240.917 192.518 240.672C192.652 240.421 192.718 240.128 192.718 239.792ZM195.149 236.08V242H194.421V236.08H195.149ZM198.301 242.072C197.891 242.072 197.517 241.979 197.181 241.792C196.851 241.605 196.589 241.341 196.397 241C196.211 240.653 196.117 240.253 196.117 239.8C196.117 239.352 196.213 238.957 196.405 238.616C196.603 238.269 196.869 238.005 197.205 237.824C197.541 237.637 197.917 237.544 198.333 237.544C198.749 237.544 199.125 237.637 199.461 237.824C199.797 238.005 200.061 238.267 200.253 238.608C200.451 238.949 200.549 239.347 200.549 239.8C200.549 240.253 200.448 240.653 200.245 241C200.048 241.341 199.779 241.605 199.437 241.792C199.096 241.979 198.717 242.072 198.301 242.072ZM198.301 241.432C198.563 241.432 198.808 241.371 199.037 241.248C199.267 241.125 199.451 240.941 199.589 240.696C199.733 240.451 199.805 240.152 199.805 239.8C199.805 239.448 199.736 239.149 199.597 238.904C199.459 238.659 199.277 238.477 199.053 238.36C198.829 238.237 198.587 238.176 198.325 238.176C198.059 238.176 197.813 238.237 197.589 238.36C197.371 238.477 197.195 238.659 197.061 238.904C196.928 239.149 196.861 239.448 196.861 239.8C196.861 240.157 196.925 240.459 197.053 240.704C197.187 240.949 197.363 241.133 197.581 241.256C197.8 241.373 198.04 241.432 198.301 241.432ZM201.235 239.792C201.235 239.344 201.325 238.952 201.507 238.616C201.688 238.275 201.936 238.011 202.251 237.824C202.571 237.637 202.925 237.544 203.315 237.544C203.699 237.544 204.032 237.627 204.315 237.792C204.597 237.957 204.808 238.165 204.947 238.416V237.616H205.683V242H204.947V241.184C204.803 241.44 204.587 241.653 204.299 241.824C204.016 241.989 203.685 242.072 203.307 242.072C202.917 242.072 202.565 241.976 202.251 241.784C201.936 241.592 201.688 241.323 201.507 240.976C201.325 240.629 201.235 240.235 201.235 239.792ZM204.947 239.8C204.947 239.469 204.88 239.181 204.747 238.936C204.613 238.691 204.432 238.504 204.203 238.376C203.979 238.243 203.731 238.176 203.459 238.176C203.187 238.176 202.939 238.24 202.715 238.368C202.491 238.496 202.312 238.683 202.179 238.928C202.045 239.173 201.979 239.461 201.979 239.792C201.979 240.128 202.045 240.421 202.179 240.672C202.312 240.917 202.491 241.107 202.715 241.24C202.939 241.368 203.187 241.432 203.459 241.432C203.731 241.432 203.979 241.368 204.203 241.24C204.432 241.107 204.613 240.917 204.747 240.672C204.88 240.421 204.947 240.131 204.947 239.8ZM206.641 239.792C206.641 239.344 206.732 238.952 206.913 238.616C207.094 238.275 207.342 238.011 207.657 237.824C207.977 237.637 208.334 237.544 208.729 237.544C209.07 237.544 209.388 237.624 209.681 237.784C209.974 237.939 210.198 238.144 210.353 238.4V236.08H211.089V242H210.353V241.176C210.209 241.437 209.996 241.653 209.713 241.824C209.43 241.989 209.1 242.072 208.721 242.072C208.332 242.072 207.977 241.976 207.657 241.784C207.342 241.592 207.094 241.323 206.913 240.976C206.732 240.629 206.641 240.235 206.641 239.792ZM210.353 239.8C210.353 239.469 210.286 239.181 210.153 238.936C210.02 238.691 209.838 238.504 209.609 238.376C209.385 238.243 209.137 238.176 208.865 238.176C208.593 238.176 208.345 238.24 208.121 238.368C207.897 238.496 207.718 238.683 207.585 238.928C207.452 239.173 207.385 239.461 207.385 239.792C207.385 240.128 207.452 240.421 207.585 240.672C207.718 240.917 207.897 241.107 208.121 241.24C208.345 241.368 208.593 241.432 208.865 241.432C209.137 241.432 209.385 241.368 209.609 241.24C209.838 241.107 210.02 240.917 210.153 240.672C210.286 240.421 210.353 240.131 210.353 239.8ZM218.18 238.056C218.18 238.52 218.02 238.907 217.7 239.216C217.385 239.52 216.903 239.672 216.252 239.672H215.18V242H214.452V236.424H216.252C216.881 236.424 217.359 236.576 217.684 236.88C218.015 237.184 218.18 237.576 218.18 238.056ZM216.252 239.072C216.657 239.072 216.956 238.984 217.148 238.808C217.34 238.632 217.436 238.381 217.436 238.056C217.436 237.368 217.041 237.024 216.252 237.024H215.18V239.072H216.252ZM219.813 238.328C219.941 238.077 220.122 237.883 220.357 237.744C220.597 237.605 220.887 237.536 221.229 237.536V238.288H221.037C220.221 238.288 219.813 238.731 219.813 239.616V242H219.085V237.616H219.813V238.328ZM223.981 242.072C223.57 242.072 223.197 241.979 222.861 241.792C222.53 241.605 222.269 241.341 222.077 241C221.89 240.653 221.797 240.253 221.797 239.8C221.797 239.352 221.893 238.957 222.085 238.616C222.282 238.269 222.549 238.005 222.885 237.824C223.221 237.637 223.597 237.544 224.013 237.544C224.429 237.544 224.805 237.637 225.141 237.824C225.477 238.005 225.741 238.267 225.933 238.608C226.13 238.949 226.229 239.347 226.229 239.8C226.229 240.253 226.128 240.653 225.925 241C225.728 241.341 225.458 241.605 225.117 241.792C224.776 241.979 224.397 242.072 223.981 242.072ZM223.981 241.432C224.242 241.432 224.488 241.371 224.717 241.248C224.946 241.125 225.13 240.941 225.269 240.696C225.413 240.451 225.485 240.152 225.485 239.8C225.485 239.448 225.416 239.149 225.277 238.904C225.138 238.659 224.957 238.477 224.733 238.36C224.509 238.237 224.266 238.176 224.005 238.176C223.738 238.176 223.493 238.237 223.269 238.36C223.05 238.477 222.874 238.659 222.741 238.904C222.608 239.149 222.541 239.448 222.541 239.8C222.541 240.157 222.605 240.459 222.733 240.704C222.866 240.949 223.042 241.133 223.261 241.256C223.48 241.373 223.72 241.432 223.981 241.432ZM228.97 238.216H228.05V242H227.322V238.216H226.754V237.616H227.322V237.304C227.322 236.813 227.448 236.456 227.698 236.232C227.954 236.003 228.362 235.888 228.922 235.888V236.496C228.602 236.496 228.376 236.56 228.242 236.688C228.114 236.811 228.05 237.016 228.05 237.304V237.616H228.97V238.216ZM230.195 236.904C230.056 236.904 229.939 236.856 229.843 236.76C229.747 236.664 229.699 236.547 229.699 236.408C229.699 236.269 229.747 236.152 229.843 236.056C229.939 235.96 230.056 235.912 230.195 235.912C230.328 235.912 230.44 235.96 230.531 236.056C230.627 236.152 230.675 236.269 230.675 236.408C230.675 236.547 230.627 236.664 230.531 236.76C230.44 236.856 230.328 236.904 230.195 236.904ZM230.547 237.616V242H229.819V237.616H230.547ZM232.516 236.08V242H231.788V236.08H232.516ZM237.757 239.64C237.757 239.779 237.749 239.925 237.733 240.08H234.229C234.255 240.512 234.402 240.851 234.669 241.096C234.941 241.336 235.269 241.456 235.653 241.456C235.967 241.456 236.229 241.384 236.437 241.24C236.65 241.091 236.799 240.893 236.885 240.648H237.669C237.551 241.069 237.317 241.413 236.965 241.68C236.613 241.941 236.175 242.072 235.653 242.072C235.237 242.072 234.863 241.979 234.533 241.792C234.207 241.605 233.951 241.341 233.765 241C233.578 240.653 233.485 240.253 233.485 239.8C233.485 239.347 233.575 238.949 233.757 238.608C233.938 238.267 234.191 238.005 234.517 237.824C234.847 237.637 235.226 237.544 235.653 237.544C236.069 237.544 236.437 237.635 236.757 237.816C237.077 237.997 237.322 238.248 237.493 238.568C237.669 238.883 237.757 239.24 237.757 239.64ZM237.005 239.488C237.005 239.211 236.943 238.973 236.821 238.776C236.698 238.573 236.53 238.421 236.317 238.32C236.109 238.213 235.877 238.16 235.621 238.16C235.253 238.16 234.938 238.277 234.677 238.512C234.421 238.747 234.274 239.072 234.237 239.488H237.005ZM244.578 238.056C244.578 238.52 244.418 238.907 244.098 239.216C243.784 239.52 243.301 239.672 242.65 239.672H241.578V242H240.85V236.424H242.65C243.28 236.424 243.757 236.576 244.082 236.88C244.413 237.184 244.578 237.576 244.578 238.056ZM242.65 239.072C243.056 239.072 243.354 238.984 243.546 238.808C243.738 238.632 243.834 238.381 243.834 238.056C243.834 237.368 243.44 237.024 242.65 237.024H241.578V239.072H242.65ZM245.859 236.904C245.721 236.904 245.603 236.856 245.507 236.76C245.411 236.664 245.363 236.547 245.363 236.408C245.363 236.269 245.411 236.152 245.507 236.056C245.603 235.96 245.721 235.912 245.859 235.912C245.993 235.912 246.105 235.96 246.195 236.056C246.291 236.152 246.339 236.269 246.339 236.408C246.339 236.547 246.291 236.664 246.195 236.76C246.105 236.856 245.993 236.904 245.859 236.904ZM246.211 237.616V242H245.483V237.616H246.211ZM247.18 239.8C247.18 239.347 247.271 238.952 247.452 238.616C247.633 238.275 247.884 238.011 248.204 237.824C248.529 237.637 248.9 237.544 249.316 237.544C249.855 237.544 250.297 237.675 250.644 237.936C250.996 238.197 251.228 238.56 251.34 239.024H250.556C250.481 238.757 250.335 238.547 250.116 238.392C249.903 238.237 249.636 238.16 249.316 238.16C248.9 238.16 248.564 238.304 248.308 238.592C248.052 238.875 247.924 239.277 247.924 239.8C247.924 240.328 248.052 240.736 248.308 241.024C248.564 241.312 248.9 241.456 249.316 241.456C249.636 241.456 249.903 241.381 250.116 241.232C250.329 241.083 250.476 240.869 250.556 240.592H251.34C251.223 241.04 250.988 241.4 250.636 241.672C250.284 241.939 249.844 242.072 249.316 242.072C248.9 242.072 248.529 241.979 248.204 241.792C247.884 241.605 247.633 241.341 247.452 241C247.271 240.659 247.18 240.259 247.18 239.8ZM253.199 238.216V240.8C253.199 241.013 253.245 241.165 253.335 241.256C253.426 241.341 253.583 241.384 253.807 241.384H254.343V242H253.687C253.282 242 252.978 241.907 252.775 241.72C252.573 241.533 252.471 241.227 252.471 240.8V238.216H251.903V237.616H252.471V236.512H253.199V237.616H254.343V238.216H253.199ZM259.113 237.616V242H258.385V241.352C258.247 241.576 258.052 241.752 257.801 241.88C257.556 242.003 257.284 242.064 256.985 242.064C256.644 242.064 256.337 241.995 256.065 241.856C255.793 241.712 255.577 241.499 255.417 241.216C255.263 240.933 255.185 240.589 255.185 240.184V237.616H255.905V240.088C255.905 240.52 256.015 240.853 256.233 241.088C256.452 241.317 256.751 241.432 257.129 241.432C257.519 241.432 257.825 241.312 258.049 241.072C258.273 240.832 258.385 240.483 258.385 240.024V237.616H259.113ZM261.071 238.328C261.199 238.077 261.38 237.883 261.615 237.744C261.855 237.605 262.145 237.536 262.487 237.536V238.288H262.295C261.479 238.288 261.071 238.731 261.071 239.616V242H260.343V237.616H261.071V238.328ZM267.327 239.64C267.327 239.779 267.319 239.925 267.303 240.08H263.799C263.826 240.512 263.972 240.851 264.239 241.096C264.511 241.336 264.839 241.456 265.223 241.456C265.538 241.456 265.799 241.384 266.007 241.24C266.22 241.091 266.37 240.893 266.455 240.648H267.239C267.122 241.069 266.887 241.413 266.535 241.68C266.183 241.941 265.746 242.072 265.223 242.072C264.807 242.072 264.434 241.979 264.103 241.792C263.778 241.605 263.522 241.341 263.335 241C263.148 240.653 263.055 240.253 263.055 239.8C263.055 239.347 263.146 238.949 263.327 238.608C263.508 238.267 263.762 238.005 264.087 237.824C264.418 237.637 264.796 237.544 265.223 237.544C265.639 237.544 266.007 237.635 266.327 237.816C266.647 237.997 266.892 238.248 267.063 238.568C267.239 238.883 267.327 239.24 267.327 239.64ZM266.575 239.488C266.575 239.211 266.514 238.973 266.391 238.776C266.268 238.573 266.1 238.421 265.887 238.32C265.679 238.213 265.447 238.16 265.191 238.16C264.823 238.16 264.508 238.277 264.247 238.512C263.991 238.747 263.844 239.072 263.807 239.488H266.575Z" fill="#787F89"/>
<path d="M240.622 208.482C229.055 206.893 219.08 215.482 219.75 226.875M215.375 205C215.375 205.928 215.744 206.818 216.4 207.475C217.057 208.131 217.947 208.5 218.875 208.5C219.803 208.5 220.693 208.131 221.35 207.475C222.006 206.818 222.375 205.928 222.375 205C222.375 204.072 222.006 203.182 221.35 202.525C220.693 201.869 219.803 201.5 218.875 201.5C217.947 201.5 217.057 201.869 216.4 202.525C215.744 203.182 215.375 204.072 215.375 205Z" stroke="#787F89" stroke-linecap="round" stroke-linejoin="round"/>
<path d="M209.25 213.865C214.115 213.192 218.481 215.542 220.842 219.29" stroke="#787F89" stroke-linecap="round" stroke-linejoin="round"/>
<path d="M209.25 207.45C209.25 203.53 209.25 201.57 210.013 200.072C210.684 198.755 211.755 197.684 213.072 197.013C214.57 196.25 216.53 196.25 220.45 196.25H229.55C233.47 196.25 235.43 196.25 236.928 197.013C238.245 197.684 239.316 198.755 239.987 200.072C240.75 201.57 240.75 203.53 240.75 207.45V216.55C240.75 220.47 240.75 222.43 239.987 223.928C239.316 225.245 238.245 226.316 236.928 226.987C235.43 227.75 233.47 227.75 229.55 227.75H220.45C216.53 227.75 214.57 227.75 213.072 226.987C211.755 226.316 210.684 225.245 210.013 223.928C209.25 222.43 209.25 220.47 209.25 216.55V207.45Z" stroke="#787F89" stroke-linecap="round" stroke-linejoin="round"/>
<defs>
<filter id="filter0_f_862_1626" x="0.899994" y="0.899994" width="448.2" height="448.2" filterUnits="userSpaceOnUse" color-interpolation-filters="sRGB">
<feFlood flood-opacity="0" result="BackgroundImageFix"/>
<feBlend mode="normal" in="SourceGraphic" in2="BackgroundImageFix" result="shape"/>
<feGaussianBlur stdDeviation="64.55" result="effect1_foregroundBlur_862_1626"/>
</filter>
<filter id="filter1_i_862_1626" x="139" y="132" width="172" height="176" filterUnits="userSpaceOnUse" color-interpolation-filters="sRGB">
<feFlood flood-opacity="0" result="BackgroundImageFix"/>
<feBlend mode="normal" in="SourceGraphic" in2="BackgroundImageFix" result="shape"/>
<feColorMatrix in="SourceAlpha" type="matrix" values="0 0 0 0 0 0 0 0 0 0 0 0 0 0 0 0 0 0 127 0" result="hardAlpha"/>
<feMorphology radius="5" operator="erode" in="SourceAlpha" result="effect1_innerShadow_862_1626"/>
<feOffset dy="4"/>
<feGaussianBlur stdDeviation="8.25"/>
<feComposite in2="hardAlpha" operator="arithmetic" k2="-1" k3="1"/>
<feColorMatrix type="matrix" values="0 0 0 0 0.945098 0 0 0 0 0.94902 0 0 0 0 1 0 0 0 1 0"/>
<feBlend mode="normal" in2="shape" result="effect1_innerShadow_862_1626"/>
</filter>
<linearGradient id="paint0_linear_862_1626" x1="225" y1="132" x2="225" y2="321" gradientUnits="userSpaceOnUse">
<stop stop-color="#707FDD"/>
<stop offset="0.535" stop-color="white"/>
<stop offset="0.93" stop-color="#707FDD"/>
</linearGradient>
</defs>
</svg>
