<svg width="370" height="370" viewBox="0 0 370 370" fill="none" xmlns="http://www.w3.org/2000/svg">
<path d="M332.927 273.886H308.417V274.071H332.927V273.886Z" fill="#EBEBEB"/>
<path d="M245.103 275.894H238.67V276.079H245.103V275.894Z" fill="#EBEBEB"/>
<path d="M307.676 267.014H293.474V267.199H307.676V267.014Z" fill="#EBEBEB"/>
<path d="M70.7826 268.257H38.8198V268.442H70.7826V268.257Z" fill="#EBEBEB"/>
<path d="M82.058 268.257H77.3716V268.442H82.058V268.257Z" fill="#EBEBEB"/>
<path d="M166.609 271.382H97.2886V271.567H166.609V271.382Z" fill="#EBEBEB"/>
<path d="M175.39 228.972H32.4969C30.1681 228.972 28.2729 227.077 28.2729 224.748V23.8885C28.2729 21.5597 30.1681 19.6646 32.4969 19.6646H175.39C177.718 19.6646 179.613 21.5597 179.613 23.8885V224.748C179.613 227.077 177.718 228.972 175.39 228.972ZM32.4969 19.8503C30.2695 19.8503 28.4579 21.6618 28.4579 23.8892V224.749C28.4579 226.976 30.2695 228.788 32.4969 228.788H175.39C177.617 228.788 179.428 226.976 179.428 224.749V23.8885C179.428 21.6618 177.617 19.8496 175.39 19.8496L32.4969 19.8503Z" fill="#EBEBEB"/>
<path d="M335.449 228.972H192.557C190.228 228.972 188.333 227.077 188.333 224.748V23.8885C188.333 21.5597 190.229 19.6646 192.557 19.6646H335.449C337.779 19.6646 339.673 21.5597 339.673 23.8885V224.748C339.674 227.077 337.779 228.972 335.449 228.972ZM192.557 19.8503C190.33 19.8503 188.518 21.6618 188.518 23.8892V224.749C188.518 226.976 190.33 228.788 192.557 228.788H335.449C337.677 228.788 339.488 226.976 339.488 224.749V23.8885C339.488 21.6618 337.677 19.8496 335.449 19.8496L192.557 19.8503Z" fill="#EBEBEB"/>
<path d="M370 261.975H0V262.16H370V261.975Z" fill="#EBEBEB"/>
<path d="M306.248 162.222C314.138 160.359 319.025 152.452 317.161 144.561C315.298 136.671 307.391 131.784 299.5 133.647C291.61 135.511 286.723 143.418 288.587 151.309C290.45 159.199 298.357 164.086 306.248 162.222Z" fill="#E0E0E0"/>
<path d="M308.533 162.222C316.423 160.359 321.31 152.452 319.447 144.561C317.583 136.67 309.676 131.784 301.785 133.647C293.895 135.511 289.008 143.418 290.872 151.308C292.735 159.199 300.642 164.085 308.533 162.222Z" fill="#F0F0F0"/>
<path d="M309.495 158.385C315.255 155.999 317.99 149.396 315.604 143.636C313.218 137.876 306.615 135.141 300.855 137.527C295.095 139.913 292.36 146.516 294.746 152.276C297.132 158.036 303.735 160.771 309.495 158.385Z" fill="#F5F5F5"/>
<path d="M314.74 147.958C314.74 142.012 310.142 137.152 304.309 136.713C304.593 136.692 304.877 136.67 305.166 136.67C311.4 136.67 316.454 141.723 316.454 147.958C316.454 154.192 311.4 159.246 305.166 159.246C304.877 159.246 304.593 159.223 304.309 159.202C310.141 158.762 314.74 153.902 314.74 147.958Z" fill="#E0E0E0"/>
<path d="M305.166 140.777L303.553 145.738H298.336L302.557 148.805L300.945 153.767L305.166 150.7L309.386 153.767L307.774 148.805L311.995 145.738H306.778L305.166 140.777Z" fill="#E6E6E6"/>
<path d="M311.263 229.058L267.956 238.263C265.214 238.846 262.519 237.095 261.936 234.353L260.316 226.731C259.733 223.988 261.483 221.293 264.225 220.71L307.532 211.505C310.275 210.922 312.97 212.673 313.553 215.415L315.173 223.037C315.756 225.78 314.006 228.475 311.263 229.058Z" fill="#EBEBEB"/>
<path d="M288.326 219.681C286.157 218.272 283.258 218.889 281.851 221.057C280.442 223.225 281.059 226.125 283.227 227.532C285.145 228.777 287.634 228.436 289.157 226.84C289.236 227.064 289.37 227.272 289.584 227.411L293.332 229.845C293.849 230.181 294.541 230.033 294.877 229.516C295.213 228.999 295.065 228.307 294.548 227.971L290.801 225.537C290.586 225.398 290.343 225.359 290.106 225.379C290.944 223.338 290.244 220.926 288.326 219.681ZM288.567 225.419C287.566 226.96 285.505 227.398 283.963 226.397C282.422 225.396 281.984 223.335 282.985 221.794C283.986 220.253 286.047 219.815 287.588 220.816C289.13 221.816 289.568 223.877 288.567 225.419Z" fill="#FAFAFA"/>
<path d="M91.6296 217.592C85.017 219.86 81.4946 227.059 83.762 233.672C85.5209 238.802 95.9535 245.745 100.545 248.602C101.671 249.303 103.16 248.792 103.619 247.548C105.491 242.475 109.468 230.59 107.709 225.461C105.441 218.847 98.2423 215.325 91.6296 217.592ZM97.6902 235.267C94.5415 236.346 91.1139 234.669 90.0349 231.521C88.9553 228.372 90.6329 224.945 93.7808 223.865C96.9295 222.786 100.356 224.463 101.436 227.611C102.516 230.759 100.838 234.187 97.6902 235.267Z" fill="#EBEBEB"/>
<path d="M89.4181 80.719H83.3901C81.9715 80.719 80.6476 81.4301 79.8647 82.6127L78.9826 83.9454C78.2641 85.0302 77.0498 85.6829 75.7481 85.6829H60.1985C58.8036 85.6829 57.6729 86.8136 57.6729 88.2085V112.489H92.7311V85.6837L92.4225 83.3527C92.2227 81.8445 90.9381 80.719 89.4181 80.719Z" fill="#E0E0E0"/>
<path d="M90.1008 88.7502H60.3018V109.128H90.1008V88.7502Z" fill="#FAFAFA"/>
<path d="M92.7309 112.489H57.6727L52.5304 93.76C52.1412 92.3414 53.2083 90.9414 54.6794 90.9414H83.4092C85.4205 90.9414 87.1832 92.2852 87.716 94.2248L92.7309 112.489Z" fill="#F0F0F0"/>
<path d="M145.019 57.0257H169.957C171.299 57.0257 172.387 55.889 172.387 54.4867H142.588C142.588 55.889 143.676 57.0257 145.019 57.0257Z" fill="#E0E0E0"/>
<path d="M162.441 57.0257H187.379C188.722 57.0257 189.81 55.889 189.81 54.4867H160.011C160.012 55.889 161.1 57.0257 162.441 57.0257Z" fill="#F0F0F0"/>
<path d="M144.817 56.2494H160.021C160.418 56.2494 160.695 55.8409 160.564 55.4495L152.227 30.5633C151.997 29.878 151.378 29.4185 150.682 29.4185H135.478C135.082 29.4185 134.804 29.827 134.935 30.2184L143.273 55.1046C143.502 55.7906 144.122 56.2494 144.817 56.2494Z" fill="#E0E0E0"/>
<path d="M144.083 56.2494H159.287C159.684 56.2494 159.961 55.8409 159.83 55.4495L151.493 30.5633C151.263 29.878 150.644 29.4185 149.948 29.4185H134.744C134.348 29.4185 134.07 29.827 134.201 30.2184L142.539 55.1046C142.769 55.7906 143.388 56.2494 144.083 56.2494Z" fill="#F0F0F0"/>
<path d="M145.783 42.8347C145.977 43.7886 146.608 44.5611 147.193 44.5611C147.777 44.5611 148.094 43.7878 147.9 42.8347C147.706 41.8808 147.075 41.1083 146.491 41.1083C145.906 41.1083 145.589 41.8808 145.783 42.8347Z" fill="white"/>
<path d="M178.82 42.4728C180.709 38.9201 179.36 34.5082 175.807 32.619C172.254 30.7298 167.842 32.0788 165.953 35.6315C164.304 38.7336 165.124 42.4898 167.723 44.6506L167.39 48.4483L170.353 46.0492C173.598 46.9957 177.17 45.5749 178.82 42.4728Z" fill="#E0E0E0"/>
<path d="M176.671 36.1066H168.498C168.339 36.1066 168.209 36.2361 168.209 36.3952V42.185C168.209 42.3441 168.338 42.4736 168.498 42.4736H176.671C176.83 42.4736 176.959 42.3441 176.959 42.185V36.3952C176.959 36.2354 176.83 36.1066 176.671 36.1066ZM176.533 41.7447L174.078 39.2893L176.533 36.834V41.7447ZM176.231 36.5328L173.776 38.9882L172.584 40.1796L168.937 36.5321L176.231 36.5328ZM168.636 36.834L171.091 39.2893L168.636 41.7447V36.834ZM168.937 42.0466L171.392 39.5913L172.584 40.7827L173.776 39.5913L176.231 42.0466H168.937Z" fill="#FAFAFA"/>
<path d="M298.278 109.871L286.711 101.183L298.278 92.4953L299.24 93.7748L289.375 101.183L299.24 108.592L298.278 109.871Z" fill="#E0E0E0"/>
<path d="M288.043 103.445C289.293 103.445 290.306 102.432 290.306 101.183C290.306 99.9336 289.293 98.9208 288.043 98.9208C286.794 98.9208 285.781 99.9336 285.781 101.183C285.781 102.432 286.794 103.445 288.043 103.445Z" fill="#EBEBEB"/>
<path d="M301.165 93.1347C301.165 94.3838 300.153 95.3969 298.903 95.3969C297.653 95.3969 296.641 94.3838 296.641 93.1347C296.641 91.8856 297.653 90.8725 298.903 90.8725C300.153 90.8725 301.165 91.8856 301.165 93.1347Z" fill="#EBEBEB"/>
<path d="M298.903 111.66C300.152 111.66 301.165 110.647 301.165 109.398C301.165 108.148 300.152 107.135 298.903 107.135C297.653 107.135 296.641 108.148 296.641 109.398C296.641 110.647 297.653 111.66 298.903 111.66Z" fill="#EBEBEB"/>
<path d="M181.432 292.549C260.673 292.549 324.91 288.797 324.91 284.17C324.91 279.542 260.673 275.791 181.432 275.791C102.191 275.791 37.9541 279.542 37.9541 284.17C37.9541 288.797 102.191 292.549 181.432 292.549Z" fill="#F5F5F5"/>
<path d="M133.123 77.5723H150.649L168.323 279.593H150.797C142.673 279.593 135.512 273.007 134.801 264.883L119.7 92.282C118.99 84.1575 124.999 77.5723 133.123 77.5723Z" fill="#263238"/>
<path d="M122.269 97.8342C122.201 97.0557 121.514 96.4245 120.736 96.4245C119.957 96.4245 119.381 97.0557 119.449 97.8342L120.633 111.369C120.701 112.147 121.388 112.778 122.166 112.778C122.944 112.778 123.521 112.147 123.452 111.369L122.269 97.8342Z" fill="#407BFF"/>
<path opacity="0.3" d="M122.269 97.8342C122.201 97.0557 121.514 96.4245 120.736 96.4245C119.957 96.4245 119.381 97.0557 119.449 97.8342L120.633 111.369C120.701 112.147 121.388 112.778 122.166 112.778C122.944 112.778 123.521 112.147 123.452 111.369L122.269 97.8342Z" fill="white"/>
<path d="M154.386 279.593H226.601C234.725 279.593 240.734 273.007 240.024 264.883L224.923 92.282C224.213 84.1583 217.05 77.5723 208.927 77.5723H136.712C128.589 77.5723 122.579 84.1583 123.289 92.282L138.39 264.883C139.1 273.007 146.263 279.593 154.386 279.593Z" fill="#407BFF"/>
<path d="M137.007 80.9467H155.777C157.007 80.9467 158.125 81.8606 158.387 83.0801L158.513 83.6676C159.154 86.6454 161.884 88.8772 164.886 88.8772H182.73C185.733 88.8772 188.072 86.6454 188.192 83.6676L188.215 83.0801C188.264 81.8606 189.222 80.9467 190.452 80.9467H209.222C215.482 80.9467 221 86.0216 221.548 92.2812L236.648 264.883C237.196 271.143 232.566 276.217 226.305 276.217H154.091C147.831 276.217 142.312 271.142 141.764 264.883L126.664 92.2812C126.116 86.0216 130.747 80.9467 137.007 80.9467Z" fill="#407BFF"/>
<path opacity="0.9" d="M137.007 80.9467H155.777C157.007 80.9467 158.125 81.8606 158.387 83.0801L158.513 83.6676C159.154 86.6454 161.884 88.8772 164.886 88.8772H182.73C185.733 88.8772 188.072 86.6454 188.192 83.6676L188.215 83.0801C188.264 81.8606 189.222 80.9467 190.452 80.9467H209.222C215.482 80.9467 221 86.0216 221.548 92.2812L236.648 264.883C237.196 271.143 232.566 276.217 226.305 276.217H154.091C147.831 276.217 142.312 271.142 141.764 264.883L126.664 92.2812C126.116 86.0216 130.747 80.9467 137.007 80.9467Z" fill="white"/>
<g opacity="0.2">
<path d="M177.649 82.8596C177.719 83.6514 178.416 84.2937 179.209 84.2937C180.002 84.2937 180.587 83.6514 180.518 82.8596C180.448 82.0678 179.751 81.4254 178.958 81.4254C178.166 81.4254 177.58 82.067 177.649 82.8596Z" fill="black"/>
<path d="M167.354 81.4254C167.921 81.4254 171.705 81.4254 172.272 81.4254C173.064 81.4254 173.763 82.0678 173.832 82.8596C173.902 83.6514 173.316 84.2937 172.523 84.2937C172.031 84.2937 168.097 84.2937 167.605 84.2937C166.812 84.2937 166.115 83.6514 166.045 82.8596C165.976 82.067 166.562 81.4254 167.354 81.4254Z" fill="black"/>
</g>
<g opacity="0.2">
<path d="M213.387 88.8498H211.869L211.735 87.3306H213.255L213.387 88.8498Z" fill="black"/>
<path d="M210.217 87.3306L210.35 88.8499H208.831L208.699 87.3306L208.565 85.8122H210.085L210.217 87.3306Z" fill="black"/>
<path d="M206.914 84.2937L207.047 85.8122L207.18 87.3306L207.313 88.8498H205.794L205.662 87.3306L205.528 85.8122L205.396 84.2937H206.914Z" fill="black"/>
</g>
<path opacity="0.2" d="M134.935 84.3951L135.325 88.8499H142.007L141.909 87.7361H142.651L142.457 85.5088H141.714L141.617 84.3951H134.935ZM138.744 85.5088H140.971L141.166 87.7361H138.939L138.744 85.5088Z" fill="black"/>
<g opacity="0.2">
<path d="M167.927 271.236C182.398 271.236 196.869 271.236 211.339 271.236C212.656 271.236 212.479 269.191 211.16 269.191C196.69 269.191 182.219 269.191 167.748 269.191C166.433 269.191 166.609 271.236 167.927 271.236Z" fill="black"/>
</g>
<path d="M263.058 154.64H216.685C213.76 154.64 211.595 152.268 211.851 149.343L214.351 120.772C214.607 117.847 217.186 115.475 220.112 115.475H266.485C269.41 115.475 271.574 117.847 271.318 120.772L268.819 149.343C268.563 152.269 265.983 154.64 263.058 154.64Z" fill="#407BFF"/>
<path opacity="0.4" d="M263.058 154.64H216.685C213.76 154.64 211.595 152.268 211.851 149.343L214.351 120.772C214.607 117.847 217.186 115.475 220.112 115.475H266.485C269.41 115.475 271.574 117.847 271.318 120.772L268.819 149.343C268.563 152.269 265.983 154.64 263.058 154.64Z" fill="white"/>
<path opacity="0.8" d="M262.875 152.531H217.236C215.326 152.531 213.912 150.982 214.079 149.071L216.272 124.011C216.439 122.1 218.123 120.551 220.034 120.551H265.673C267.584 120.551 268.996 122.1 268.83 124.011L266.637 149.071C266.47 150.982 264.786 152.531 262.875 152.531Z" fill="white"/>
<path opacity="0.8" d="M219.346 118.047C219.298 118.588 218.822 119.026 218.281 119.026C217.74 119.026 217.34 118.588 217.388 118.047C217.435 117.506 217.912 117.068 218.452 117.068C218.993 117.068 219.393 117.506 219.346 118.047Z" fill="white"/>
<path opacity="0.8" d="M222.393 118.047C222.345 118.588 221.869 119.026 221.328 119.026C220.787 119.026 220.387 118.588 220.434 118.047C220.482 117.506 220.958 117.068 221.499 117.068C222.04 117.068 222.44 117.506 222.393 118.047Z" fill="white"/>
<path opacity="0.8" d="M225.44 118.047C225.393 118.588 224.916 119.026 224.375 119.026C223.834 119.026 223.434 118.588 223.482 118.047C223.529 117.506 224.006 117.068 224.547 117.068C225.087 117.068 225.486 117.506 225.44 118.047Z" fill="white"/>
<path opacity="0.1" d="M237.888 145.442H221.47L223.027 127.64H239.445L237.888 145.442Z" fill="black"/>
<path d="M261.337 129.618H243.931C243.385 129.618 242.981 129.176 243.028 128.63C243.076 128.084 243.557 127.64 244.103 127.64H261.51C262.056 127.64 262.46 128.083 262.412 128.63C262.365 129.176 261.883 129.618 261.337 129.618Z" fill="#407BFF"/>
<path d="M258.024 133.574H243.584C243.038 133.574 242.634 133.132 242.682 132.585C242.73 132.039 243.211 131.596 243.757 131.596H258.196C258.742 131.596 259.147 132.038 259.099 132.585C259.051 133.132 258.57 133.574 258.024 133.574Z" fill="#407BFF"/>
<path d="M258.865 137.53H243.238C242.692 137.53 242.288 137.088 242.336 136.541C242.384 135.995 242.865 135.552 243.411 135.552H259.038C259.584 135.552 259.988 135.995 259.941 136.541C259.892 137.088 259.411 137.53 258.865 137.53Z" fill="#407BFF"/>
<path d="M256.738 141.486H242.892C242.346 141.486 241.942 141.044 241.989 140.497C242.037 139.951 242.518 139.508 243.064 139.508H256.91C257.457 139.508 257.861 139.951 257.813 140.497C257.766 141.044 257.284 141.486 256.738 141.486Z" fill="#407BFF"/>
<path d="M258.766 145.443H242.546C241.999 145.443 241.595 145 241.644 144.453C241.692 143.907 242.173 143.464 242.719 143.464H258.938C259.484 143.464 259.888 143.907 259.841 144.453C259.793 145 259.312 145.443 258.766 145.443Z" fill="#407BFF"/>
<g opacity="0.5">
<path d="M261.337 129.618H243.931C243.385 129.618 242.981 129.176 243.028 128.63C243.076 128.084 243.557 127.64 244.103 127.64H261.51C262.056 127.64 262.46 128.083 262.412 128.63C262.365 129.176 261.883 129.618 261.337 129.618Z" fill="white"/>
<path d="M258.024 133.574H243.584C243.038 133.574 242.634 133.132 242.682 132.585C242.73 132.039 243.211 131.596 243.757 131.596H258.196C258.742 131.596 259.147 132.038 259.099 132.585C259.051 133.132 258.57 133.574 258.024 133.574Z" fill="white"/>
<path d="M258.865 137.53H243.238C242.692 137.53 242.288 137.088 242.336 136.541C242.384 135.995 242.865 135.552 243.411 135.552H259.038C259.584 135.552 259.988 135.995 259.941 136.541C259.892 137.088 259.411 137.53 258.865 137.53Z" fill="white"/>
<path d="M256.738 141.486H242.892C242.346 141.486 241.942 141.044 241.989 140.497C242.037 139.951 242.518 139.508 243.064 139.508H256.91C257.457 139.508 257.861 139.951 257.813 140.497C257.766 141.044 257.284 141.486 256.738 141.486Z" fill="white"/>
<path d="M258.766 145.443H242.546C241.999 145.443 241.595 145 241.644 144.453C241.692 143.907 242.173 143.464 242.719 143.464H258.938C259.484 143.464 259.888 143.907 259.841 144.453C259.793 145 259.312 145.443 258.766 145.443Z" fill="white"/>
</g>
<path d="M234.027 132.182C232.842 130.997 230.922 130.997 229.737 132.182L228.193 133.725L226.65 132.182C225.465 130.997 223.544 130.997 222.36 132.182C221.175 133.366 221.175 135.287 222.36 136.471L228.194 142.306L234.028 136.471C235.211 135.287 235.211 133.366 234.027 132.182Z" fill="#407BFF"/>
<path d="M226.956 113.049H202.885C201.367 113.049 200.243 111.818 200.376 110.299L201.673 95.4696C201.806 93.9511 203.145 92.7197 204.663 92.7197H228.734C230.253 92.7197 231.376 93.9503 231.243 95.4696L229.946 110.299C229.813 111.818 228.474 113.049 226.956 113.049Z" fill="#407BFF"/>
<path opacity="0.4" d="M226.956 113.049H202.885C201.367 113.049 200.243 111.818 200.376 110.299L201.673 95.4696C201.806 93.9511 203.145 92.7197 204.663 92.7197H228.734C230.253 92.7197 231.376 93.9503 231.243 95.4696L229.946 110.299C229.813 111.818 228.474 113.049 226.956 113.049Z" fill="white"/>
<path opacity="0.8" d="M226.861 111.955H203.172C202.18 111.955 201.447 111.151 201.533 110.159L202.671 97.1508C202.758 96.1592 203.633 95.3556 204.624 95.3556H228.314C229.306 95.3556 230.039 96.1592 229.952 97.1508L228.814 110.159C228.728 111.15 227.853 111.955 226.861 111.955Z" fill="white"/>
<path opacity="0.8" d="M204.267 94.0547C204.242 94.3351 203.995 94.563 203.714 94.563C203.433 94.563 203.226 94.3351 203.25 94.0547C203.274 93.7742 203.522 93.5463 203.803 93.5463C204.084 93.5463 204.291 93.7742 204.267 94.0547Z" fill="white"/>
<path opacity="0.8" d="M205.848 94.0547C205.824 94.3351 205.576 94.563 205.296 94.563C205.015 94.563 204.807 94.3351 204.832 94.0547C204.856 93.7742 205.104 93.5463 205.384 93.5463C205.666 93.547 205.873 93.7742 205.848 94.0547Z" fill="white"/>
<path opacity="0.8" d="M207.429 94.0547C207.405 94.3351 207.158 94.563 206.877 94.563C206.595 94.563 206.388 94.3351 206.413 94.0547C206.437 93.7742 206.685 93.5463 206.965 93.5463C207.246 93.5463 207.454 93.7742 207.429 94.0547Z" fill="white"/>
<path d="M281.653 200.214C289.509 196.961 293.239 187.955 289.985 180.099C286.731 172.244 277.725 168.514 269.87 171.768C262.015 175.021 258.284 184.027 261.538 191.883C264.792 199.738 273.798 203.468 281.653 200.214Z" fill="#407BFF"/>
<path opacity="0.6" d="M281.653 200.214C289.509 196.961 293.239 187.955 289.985 180.099C286.731 172.244 277.725 168.514 269.87 171.768C262.015 175.021 258.284 184.027 261.538 191.883C264.792 199.738 273.798 203.468 281.653 200.214Z" fill="white"/>
<path d="M282.892 182.376C282.794 181.42 282.428 180.577 281.718 179.899C280.971 179.186 280.058 178.872 279.056 178.819C277.351 178.725 273.3 178.667 271.877 178.899C270.252 179.163 269.186 180.113 268.737 181.717C268.391 182.952 268.46 188.644 268.661 189.866C268.937 191.535 269.923 192.605 271.578 193.032C272.723 193.327 278.35 193.289 279.613 193.084C281.283 192.814 282.358 191.833 282.792 190.181C283.124 188.914 283.008 183.52 282.892 182.376ZM281.556 189.63C281.362 190.898 280.52 191.682 279.246 191.823C278.075 191.95 272.846 192.02 271.76 191.717C270.721 191.427 270.127 190.713 269.955 189.667C269.79 188.669 269.749 183.677 269.953 182.342C270.144 181.085 270.985 180.302 272.253 180.159C273.539 180.015 278.166 179.999 279.397 180.188C280.663 180.381 281.447 181.225 281.586 182.502C281.715 183.694 281.752 188.35 281.556 189.63ZM275.753 182.268C273.696 182.267 272.03 183.933 272.031 185.994C272.032 188.044 273.693 189.708 275.745 189.712C277.804 189.717 279.474 188.052 279.475 185.994C279.477 183.933 277.812 182.268 275.753 182.268ZM275.727 188.397C274.415 188.395 273.346 187.31 273.346 185.98C273.347 184.653 274.425 183.583 275.762 183.583C277.089 183.583 278.159 184.662 278.159 185.999C278.159 187.334 277.079 188.398 275.727 188.397ZM280.49 182.129C280.488 182.613 280.103 182.997 279.618 182.997C279.133 182.997 278.751 182.615 278.747 182.13C278.743 181.639 279.135 181.25 279.627 181.253C280.109 181.257 280.491 181.645 280.49 182.129Z" fill="#407BFF"/>
<path d="M276.905 58.7225L260.605 54.9204L253.891 83.7086L275.133 88.6637L280.695 64.8172L276.905 58.7225Z" fill="#407BFF"/>
<path opacity="0.5" d="M276.905 58.7225L260.605 54.9204L253.891 83.7086L275.133 88.6637L280.695 64.8172L276.905 58.7225Z" fill="white"/>
<path opacity="0.4" d="M276.905 58.7225L275.752 63.665L280.694 64.8172L276.905 58.7225Z" fill="white"/>
<path d="M275.251 68.4757L262.717 65.552C262.376 65.4728 262.165 65.1331 262.245 64.7927C262.324 64.4531 262.664 64.2414 263.004 64.3206L275.539 67.2444C275.879 67.3235 276.09 67.6632 276.011 68.0036C275.931 68.3433 275.591 68.5549 275.251 68.4757Z" fill="#407BFF"/>
<path d="M272.345 70.3945L262.142 68.0147C261.801 67.9355 261.59 67.5951 261.669 67.2554C261.749 66.9158 262.089 66.7041 262.429 66.7833L272.633 69.1632C272.972 69.2424 273.184 69.582 273.105 69.9224C273.026 70.2621 272.685 70.4737 272.345 70.3945Z" fill="#407BFF"/>
<path d="M271.995 72.9091L261.567 70.4767C261.228 70.3975 261.016 70.0579 261.095 69.7175C261.174 69.3778 261.514 69.1662 261.854 69.2453L272.282 71.6777C272.622 71.7569 272.833 72.0973 272.754 72.437C272.675 72.7774 272.335 72.9883 271.995 72.9091Z" fill="#407BFF"/>
<path d="M273.527 75.8631L260.993 72.9394C260.653 72.8602 260.441 72.5206 260.521 72.1802C260.6 71.8405 260.939 71.6289 261.28 71.708L273.814 74.6318C274.154 74.711 274.365 75.0506 274.286 75.391C274.208 75.7307 273.868 75.9423 273.527 75.8631Z" fill="#407BFF"/>
<path d="M270.622 77.782L260.418 75.4021C260.078 75.3229 259.867 74.9833 259.946 74.6429C260.025 74.3032 260.365 74.0916 260.705 74.1707L270.909 76.5506C271.249 76.6298 271.46 76.9694 271.381 77.3098C271.302 77.6495 270.962 77.8611 270.622 77.782Z" fill="#407BFF"/>
<path d="M270.272 80.2965L259.845 77.8641C259.505 77.7849 259.293 77.4453 259.373 77.1049C259.452 76.7645 259.791 76.5536 260.132 76.6327L270.559 79.0651C270.9 79.1443 271.11 79.4839 271.031 79.8243C270.952 80.1647 270.612 80.3756 270.272 80.2965Z" fill="#407BFF"/>
<path fill-rule="evenodd" clip-rule="evenodd" d="M217.061 59.7703C214.353 59.6763 212.661 57.733 212.212 56.1546C212.966 56.2982 213.708 56.2678 214.446 56.0873C214.465 56.0836 214.484 56.0702 214.521 56.0532C213.055 55.7121 211.923 54.9269 211.136 53.6615C210.615 52.8216 210.366 51.9026 210.373 50.8895C211.106 51.281 211.87 51.5 212.692 51.5222C211.59 50.7274 210.85 49.69 210.547 48.3624C210.247 47.0363 210.442 45.7746 211.106 44.5869C213.929 47.911 217.5 49.7336 221.855 50.0311C221.825 49.8254 221.793 49.6448 221.772 49.4621C221.627 48.2359 221.871 47.0933 222.532 46.0536C223.361 44.7542 224.547 43.9446 226.067 43.6997C227.82 43.4111 229.35 43.9106 230.629 45.1515C230.716 45.2344 230.788 45.2625 230.908 45.2344C231.978 45.0006 232.988 44.615 233.938 44.0689C233.96 44.0556 233.984 44.0423 234.007 44.0334C234.011 44.0312 234.021 44.0312 234.041 44.0312C233.629 45.2418 232.879 46.1757 231.811 46.8669C232.82 46.7559 233.783 46.4865 234.712 46.0854C234.72 46.095 234.727 46.1002 234.733 46.1084C234.534 46.3703 234.342 46.6375 234.135 46.8898C233.582 47.5713 232.948 48.17 232.24 48.6902C232.18 48.7354 232.151 48.7768 232.154 48.856C232.183 49.6278 232.152 50.4004 232.057 51.1685C231.856 52.7884 231.404 54.332 230.714 55.809C230 57.3305 229.069 58.7091 227.898 59.9182C225.913 61.971 223.521 63.2926 220.736 63.9068C219.782 64.1177 218.812 64.225 217.834 64.2532C214.828 64.342 212.051 63.5938 209.494 62.0161C209.461 61.9969 209.429 61.9725 209.372 61.9355C211.19 62.1331 212.92 61.8977 214.585 61.2162C215.467 60.8551 216.286 60.3785 217.061 59.7703Z" fill="#407BFF"/>
<path d="M110.41 49.0248C108.194 41.778 100.524 37.6991 93.2768 39.9147C86.03 42.1302 81.9511 49.8011 84.1666 57.0479C86.101 63.3749 92.1941 67.2851 98.5322 66.7012L103.147 72.2009L103.897 65.0606C109.48 62.0007 112.344 55.3518 110.41 49.0248Z" fill="#407BFF"/>
<path d="M101.217 49.9165L100.593 53.4818L103.208 52.9261L103.038 55.2726L100.16 55.8846L99.5313 59.4092L97.1796 59.9095L97.8071 56.3849L94.8878 57.0057L94.2596 60.5303L91.9271 61.0261L92.5554 57.5015L89.9395 58.058L90.0889 55.7159L92.989 55.0995L93.6321 51.5305L91.0169 52.0862L91.1864 49.7397L94.0664 49.1277L94.6947 45.6031L97.0264 45.1073L96.3982 48.6319L99.3182 48.011L99.9457 44.4864L102.277 43.9906L101.649 47.5152L104.285 46.955L104.136 49.2971L101.217 49.9165ZM98.8846 50.4123L95.9645 51.0332L95.3207 54.6029L98.2408 53.9821L98.8846 50.4123Z" fill="white"/>
<path d="M106.714 176.962L66.7964 168.477L61.2181 194.722L101.136 203.206L106.714 176.962Z" fill="#407BFF"/>
<path opacity="0.6" d="M106.714 176.962L66.7964 168.477L61.2181 194.722L101.136 203.206L106.714 176.962Z" fill="white"/>
<path d="M77.4102 185.698L62.9365 195.098L86.8089 200.172L77.4102 185.698Z" fill="#407BFF"/>
<path opacity="0.3" d="M77.4102 185.698L62.9365 195.098L86.8089 200.172L77.4102 185.698Z" fill="white"/>
<path d="M100.728 203.131L93.1797 180.404L77.041 198.096L100.728 203.131Z" fill="#407BFF"/>
<path opacity="0.8" d="M84.211 180.967C83.9298 182.289 82.6296 183.134 81.3072 182.852C79.9848 182.571 79.1405 181.271 79.4217 179.949C79.7029 178.626 81.0031 177.782 82.3255 178.063C83.6478 178.344 84.4914 179.644 84.211 180.967Z" fill="white"/>
<path d="M101.708 204.096L60.3408 195.303L66.2268 167.61L107.594 176.403L101.708 204.096ZM62.0961 194.163L100.568 202.341L105.839 177.544L67.3671 169.365L62.0961 194.163Z" fill="#407BFF"/>
<path d="M80.4524 140.917C81.6459 133.563 76.6521 126.635 69.2986 125.441C61.9451 124.248 55.0164 129.241 53.823 136.595C52.6296 143.948 57.6233 150.877 64.9768 152.071C72.3303 153.264 79.259 148.27 80.4524 140.917Z" fill="#407BFF"/>
<path opacity="0.6" d="M80.4524 140.917C81.6459 133.563 76.6521 126.635 69.2986 125.441C61.9451 124.248 55.0164 129.241 53.823 136.595C52.6296 143.948 57.6233 150.877 64.9768 152.071C72.3303 153.264 79.259 148.27 80.4524 140.917Z" fill="white"/>
<path fill-rule="evenodd" clip-rule="evenodd" d="M69.4076 133.904C69.8612 133.89 70.3141 133.901 70.7692 133.899C70.8247 133.899 70.8802 133.899 70.9557 133.899V131.542C70.7137 131.517 70.4606 131.482 70.2068 131.469C69.7414 131.449 69.2759 131.426 68.8097 131.437C68.0986 131.451 67.4266 131.624 66.8391 132.046C66.1649 132.53 65.7949 133.21 65.6543 134.015C65.5951 134.346 65.5803 134.69 65.5722 135.026C65.5589 135.556 65.5693 136.085 65.57 136.615V136.814H63.313V139.448H65.5574V146.071H68.2998V139.46H70.5369C70.6516 138.582 70.7633 137.715 70.881 136.812C70.7012 136.812 70.5398 136.811 70.3778 136.812C69.7421 136.814 68.2814 136.812 68.2814 136.812C68.2814 136.812 68.288 135.505 68.3036 134.939C68.325 134.163 68.786 133.927 69.4076 133.904Z" fill="#407BFF"/>
<path d="M170.401 124.778C170.401 124.778 172.846 123.088 174.531 125.04C176.216 126.992 175.156 131.342 175.156 131.342L171.23 126.577L170.401 124.778Z" fill="#263238"/>
<path d="M223.785 151.031L218.868 150.769C217.917 154.833 216.946 159.037 215.617 162.723C215.285 163.64 214.913 164.513 214.536 165.295C214.16 166.067 213.723 166.762 213.374 167.111C213.208 167.292 213.179 167.189 213.125 167.196C212.877 167.236 212.159 167.256 211.392 167.162C209.807 166.992 207.909 166.528 206.038 165.939C204.151 165.358 202.23 164.665 200.318 163.905C198.396 163.163 196.485 162.335 194.566 161.511C192.667 160.687 190.717 159.769 188.916 158.926L184.427 167.796C186.502 168.882 188.486 169.779 190.553 170.692C192.602 171.603 194.699 172.418 196.831 173.2C198.974 173.957 201.155 174.665 203.439 175.25C205.737 175.814 208.088 176.319 210.828 176.437C212.215 176.464 213.696 176.45 215.544 175.918C216.009 175.775 216.487 175.604 216.994 175.354C217.239 175.238 217.499 175.096 217.77 174.923C218.03 174.759 218.266 174.586 218.488 174.409C219.365 173.699 219.966 172.961 220.434 172.266C221.359 170.86 221.856 169.579 222.277 168.342C222.694 167.109 222.961 165.911 223.186 164.735C223.634 162.387 223.838 160.101 223.929 157.831C224.02 155.551 223.984 153.341 223.785 151.031Z" fill="#803E3C"/>
<path d="M178.06 167.747C180.923 173.62 201.877 177.412 201.877 177.412L205.779 162.327C205.779 162.327 197.114 158.508 188.836 157.15C180.337 155.755 174.917 161.302 178.06 167.747Z" fill="#407BFF"/>
<path d="M218.844 151.02L220.143 142.539L226.35 147.104C226.35 147.104 224.824 154.78 221.756 153.863L218.844 151.02Z" fill="#7F3E3B"/>
<path d="M224.758 137.435L228.763 143.173L226.35 147.103L220.143 142.539L224.758 137.435Z" fill="#7F3E3B"/>
<path opacity="0.2" d="M191.467 163.893L188.471 164.965L187.85 167.173L188.264 170.745L191.018 174.775C194.737 175.894 198.29 176.686 200.268 177.095C197.034 170.649 191.467 163.893 191.467 163.893Z" fill="black"/>
<path d="M163.27 213.561C163.27 213.561 162.979 237.736 184.907 232.725C205.802 227.95 199.208 204.549 199.208 204.549L163.27 213.561Z" fill="#263238"/>
<path d="M184.907 229.963C177.715 224.094 156.398 209.883 148.998 220.518C140.731 232.4 159.625 261.425 191.053 250.548C196.128 248.792 200.568 242.742 184.907 229.963Z" fill="#263238"/>
<path d="M211.59 213.561C242.175 208.108 243.911 217.358 238.65 225.205C233.389 233.052 215.942 251.501 184.907 249.537C173.367 248.807 173.187 220.41 211.59 213.561Z" fill="#263238"/>
<path opacity="0.2" d="M189.372 232.725C189.372 232.725 191.01 229.029 193.157 226.454C195.305 223.879 195.567 231.307 205.01 226.454C214.454 221.601 221.071 216.41 228.378 214.478C235.684 212.544 222.754 225.74 222.754 225.74L199.835 238.339L189.372 232.725Z" fill="black"/>
<path d="M189.951 249.165L178.625 253.512L179.574 247.788L188.924 241.675L189.951 249.165Z" fill="#7F3E3B"/>
<path d="M245.351 218.804C244.428 212.299 233.818 209.704 224.942 216.678C217.641 222.414 191.538 239.359 183.107 244.892L184.888 251.748C192.639 248.811 207.855 243.035 218.757 238.838C233.971 232.98 246.275 225.31 245.351 218.804Z" fill="#263238"/>
<path opacity="0.2" d="M183.578 228.911C179.821 220.939 171.818 219.371 167.279 219.159C173.555 221.795 179.773 225.975 183.578 228.911Z" fill="black"/>
<path opacity="0.2" d="M197.202 247.074C204.262 244.389 212.269 241.336 218.757 238.838C219.004 238.742 219.248 238.645 219.494 238.549L200.66 233.549C194.278 237.815 188.32 241.739 184.904 243.981L197.202 247.074Z" fill="black"/>
<path opacity="0.2" d="M151.952 233.268C151.952 233.268 176.477 254.046 185.454 240.728L155.817 229.453L152.489 227.95L151.952 233.268Z" fill="black"/>
<path d="M215.112 247.502L226.516 248.971L225.316 242.668L213.631 239.627L215.112 247.502Z" fill="#7F3E3B"/>
<path d="M222.794 240.978C217.203 239.536 204.529 236.354 196.701 233.298C186.142 229.175 159.226 218.008 150.351 223.234C144.211 226.85 150.57 232.213 150.57 232.213C150.57 232.213 153.437 237.174 175.936 241.907C192.019 245.29 211.902 247.81 221.936 248.972L222.794 240.978Z" fill="#263238"/>
<path d="M225.638 249.173L223.933 242.154C223.869 241.889 223.996 241.615 224.24 241.494L229.643 238.838C230.12 238.599 230.701 238.792 230.94 239.269C230.97 239.33 230.995 239.395 231.012 239.461C231.582 242.002 231.991 244.285 232.761 247.435C233.665 251.153 233.88 250.101 235.004 254.457C235.678 257.082 232.803 258.291 232.384 257.21C230.499 252.256 228.827 252.1 226.519 250.573C226.064 250.231 225.751 249.732 225.638 249.173Z" fill="#407BFF"/>
<path d="M180.504 252.9L181.745 245.765C181.791 245.496 181.646 245.23 181.394 245.126L175.814 242.827C175.32 242.619 174.752 242.851 174.545 243.344C174.518 243.408 174.498 243.474 174.485 243.541C174.083 246.121 173.825 248.432 173.264 251.634C172.606 255.412 172.321 254.375 171.485 258.807C170.984 261.477 173.941 262.496 174.288 261.388C175.846 256.307 177.508 256.04 179.716 254.36C180.148 253.986 180.428 253.467 180.504 252.9Z" fill="#407BFF"/>
<path d="M161.126 200.443C162.254 206.896 162.971 212.745 163.506 216.943C169.616 216.676 192.548 215.482 200.849 212.335C199.662 177.56 188.608 156.879 188.608 156.879C188.608 156.879 184.519 156.605 179.848 156.942C179.232 156.983 178.608 157.042 177.975 157.112C173.881 157.56 167.297 159.046 162.774 160.189C161.823 160.43 160.864 160.7 159.934 160.976C155.201 162.396 151.094 164.13 151.094 164.13C154.082 171.333 156.334 178.773 158.078 185.824C159.35 190.983 160.339 195.936 161.126 200.443Z" fill="#407BFF"/>
<path d="M160.99 142.761C162.89 147.459 165.571 156.231 162.777 160.188C165.782 162.265 169.921 163.711 175.391 162.478C179.581 161.535 179.228 158.549 177.975 157.109C172.272 156.911 171.634 152.834 171.853 148.84L160.99 142.761Z" fill="#7F3E3B"/>
<path d="M175.501 162.454C175.501 162.454 174.321 164.813 172.863 167.206C169.796 166.322 162.505 163.762 161.993 160.075C162.129 158.94 163.396 158.001 163.396 158.001C163.396 158.001 168.298 161.018 175.501 162.454Z" fill="white"/>
<path d="M175.501 162.454C175.501 162.454 178.038 163.758 179.935 165.698C181.63 163.89 179.073 157.369 178.165 156.78C176.341 156.103 175.275 156.45 175.275 156.45C175.275 156.45 178.505 160.998 175.501 162.454Z" fill="white"/>
<path opacity="0.2" d="M165.419 145.243L171.848 148.838C171.794 149.784 171.791 150.732 171.899 151.632C169.757 151.753 166.455 150.045 165.815 147.907C165.495 146.841 165.339 145.786 165.419 145.243Z" fill="black"/>
<path d="M157.759 136.951C160.244 143.233 161.379 147.039 165.686 149.241C172.165 152.554 179.11 146.953 178.55 140.035C178.046 133.809 174.067 124.582 166.968 124.142C159.974 123.709 155.275 130.67 157.759 136.951Z" fill="#7F3E3B"/>
<path d="M168.056 135.471C168.226 135.993 168.64 136.323 168.982 136.208C169.323 136.094 169.46 135.577 169.29 135.055C169.12 134.532 168.706 134.202 168.365 134.317C168.023 134.432 167.886 134.948 168.056 135.471Z" fill="#263238"/>
<path d="M173.948 133.485C174.119 134.007 174.533 134.337 174.874 134.222C175.215 134.108 175.353 133.591 175.183 133.069C175.013 132.546 174.598 132.216 174.257 132.331C173.916 132.446 173.778 132.962 173.948 133.485Z" fill="#263238"/>
<path d="M172.16 134.375C172.16 134.375 174.32 136.866 176.096 137.831C175.453 138.953 173.756 139.086 173.756 139.086L172.16 134.375Z" fill="#630F0F"/>
<path d="M171.613 142.026C171.837 141.983 172.068 141.922 172.307 141.841C172.391 141.813 172.438 141.721 172.41 141.636C172.382 141.551 172.289 141.507 172.207 141.535C169.916 142.305 168.329 141.065 168.312 141.053C168.244 140.997 168.141 141.01 168.086 141.079C168.03 141.149 168.041 141.251 168.11 141.306C168.174 141.357 169.544 142.426 171.613 142.026Z" fill="#263238"/>
<path d="M165.617 134.177C165.728 134.156 165.825 134.077 165.864 133.962C166.332 132.594 167.479 132.28 167.491 132.277C167.663 132.232 167.768 132.055 167.725 131.882C167.681 131.71 167.506 131.606 167.334 131.651C167.273 131.666 165.835 132.059 165.255 133.757C165.196 133.926 165.286 134.11 165.454 134.167C165.509 134.185 165.564 134.187 165.617 134.177Z" fill="#263238"/>
<path d="M175.825 130.598C175.885 130.586 175.942 130.557 175.99 130.511C176.118 130.386 176.121 130.18 175.998 130.053C174.758 128.774 173.302 129.064 173.235 129.068C173.06 129.104 172.946 129.275 172.979 129.449C173.013 129.624 173.18 129.737 173.354 129.703C173.414 129.688 174.539 129.48 175.534 130.507C175.612 130.587 175.723 130.618 175.825 130.598Z" fill="#263238"/>
<path opacity="0.2" d="M155.162 175.388C156.269 178.91 157.235 182.413 158.078 185.824C159.006 189.585 159.78 193.23 160.437 196.678C161.651 189.704 160.913 174.185 160.913 174.185L157.088 170.493C157.088 170.493 156.067 172.338 155.162 175.388Z" fill="black"/>
<path d="M173.236 200.909L169.805 201.293C168.651 201.409 167.498 201.494 166.356 201.587C164.073 201.75 161.808 201.852 159.658 201.785C158.586 201.755 157.545 201.667 156.593 201.521C155.648 201.387 154.771 201.163 154.224 200.898C153.952 200.771 153.934 200.697 153.944 200.714C153.951 200.725 153.942 200.693 153.942 200.685L153.912 200.575C153.887 200.484 153.856 200.349 153.825 200.201C153.765 199.894 153.713 199.498 153.68 199.068C153.554 197.312 153.667 195.121 153.921 192.958C154.181 190.775 154.513 188.535 154.938 186.292C155.755 181.819 156.785 177.208 157.861 172.818L147.888 170.123C147.186 172.573 146.658 174.91 146.125 177.324C145.591 179.722 145.167 182.149 144.782 184.604C144.426 187.063 144.108 189.551 143.96 192.117C143.834 194.7 143.736 197.302 144.188 200.285C144.307 201.036 144.463 201.816 144.713 202.661C144.842 203.087 144.988 203.522 145.181 203.986C145.279 204.218 145.377 204.448 145.506 204.696L145.699 205.068L145.961 205.505C146.688 206.66 147.671 207.533 148.612 208.14C149.556 208.74 150.478 209.098 151.332 209.358C153.045 209.861 154.548 209.984 155.977 210.024C157.403 210.046 158.75 209.944 160.059 209.796C165.28 209.135 169.955 207.724 174.625 205.834L173.236 200.909Z" fill="#803E3C"/>
<path d="M149.257 165.123C143.911 168.882 142.145 188.292 142.145 188.292L158.736 190.304C158.736 190.304 160.756 181.681 160.941 173.236C161.146 164.036 155.732 160.569 149.257 165.123Z" fill="#407BFF"/>
<path d="M171.547 201.126L176.407 196.213L179.434 204.417C179.434 204.417 174.374 207.67 172.362 205.151L171.547 201.126Z" fill="#7F3E3B"/>
<path d="M182.025 195.488L184.213 202.387L179.434 204.417L176.407 196.213L182.025 195.488Z" fill="#7F3E3B"/>
<path d="M161.993 142.539L162.42 142.466C163.56 142.27 164.002 140.896 163.221 140.044C162.286 139.024 161.37 137.607 161.134 135.83C160.613 131.894 162.754 131.342 162.478 128.649C162.478 128.649 167.831 127.95 171.23 125.607C171.23 125.607 174.565 120.779 171.898 118.5C169.652 116.579 166.945 119.191 166.945 119.191C166.945 119.191 165.792 115.67 163.03 116.429C160.167 117.216 159.136 120.976 159.136 120.976C159.136 120.976 156.472 118.017 154.469 119.536C152.467 121.056 153.171 124.875 153.171 124.875C153.171 124.875 149.015 124.99 148.877 127.407C148.739 129.824 151.224 131.964 151.224 131.964C151.224 131.964 148.739 134.287 149.429 136.232C150.12 138.178 152.375 138.373 152.375 138.373C152.375 138.373 150.81 141.686 151.915 142.763C153.02 143.839 155.162 143.563 155.162 143.563C155.162 143.563 155.229 146.739 157.783 147.636C159.607 148.277 160.853 147.105 160.853 147.105C160.853 147.105 162.108 148.947 162.905 148.441C163.701 147.936 161.993 142.539 161.993 142.539Z" fill="#263238"/>
<path d="M155.9 146.063C157.359 144.112 161.933 138.25 164.642 137.719C164.642 137.719 163.491 136.796 162.858 132.425C162.858 132.425 161.637 134.743 160.073 136.338C157.621 138.841 155.135 142.042 154.102 143.577C154.102 143.577 154.454 144.678 155.9 146.063Z" fill="#407BFF"/>
<path opacity="0.6" d="M155.9 146.063C157.359 144.112 161.933 138.25 164.642 137.719C164.642 137.719 163.491 136.796 162.858 132.425C162.858 132.425 161.637 134.743 160.073 136.338C157.621 138.841 155.135 142.042 154.102 143.577C154.102 143.577 154.454 144.678 155.9 146.063Z" fill="white"/>
<path d="M157.028 143.102C158.079 144.585 159.717 145.436 161.195 145.653C163.418 145.979 164.264 143.91 163.423 141.949C162.667 140.185 160.599 137.889 158.475 138.461C156.383 139.025 155.827 141.406 157.028 143.102Z" fill="#7F3E3B"/>
<path d="M165.03 138.371C165.03 138.371 169.863 140.36 173.66 136.731C173.66 136.731 177.611 137.799 178.814 135.648L177.612 135.263L165.591 137.891L165.03 138.371Z" fill="#407BFF"/>
<path d="M176.985 127.75L164.012 130.459C163.546 130.556 163.138 130.834 162.878 131.232L162.566 131.709C162.306 132.107 162.214 132.592 162.311 133.058L163.221 137.412C163.423 138.383 164.374 139.005 165.344 138.802L178.315 136.094C178.781 135.997 179.189 135.718 179.45 135.32L179.761 134.843C180.022 134.445 180.113 133.96 180.016 133.494L179.107 129.139C178.905 128.17 177.955 127.548 176.985 127.75Z" fill="#407BFF"/>
<path opacity="0.3" d="M176.985 127.75L164.012 130.459C163.546 130.556 163.138 130.834 162.878 131.232L162.566 131.709C162.306 132.107 162.214 132.592 162.311 133.058L163.221 137.412C163.423 138.383 164.374 139.005 165.344 138.802L178.315 136.094C178.781 135.997 179.189 135.718 179.45 135.32L179.761 134.843C180.022 134.445 180.113 133.96 180.016 133.494L179.107 129.139C178.905 128.17 177.955 127.548 176.985 127.75Z" fill="white"/>
<path opacity="0.2" d="M178.17 134.936L167.212 137.224C166.23 137.429 165.268 136.799 165.063 135.817L164.378 132.534C164.173 131.552 164.803 130.59 165.785 130.385L176.743 128.097C177.725 127.892 178.687 128.522 178.892 129.504L179.577 132.787C179.782 133.769 179.152 134.731 178.17 134.936Z" fill="white"/>
</svg>
