<svg width="234" height="234" viewBox="0 0 234 234" fill="none" xmlns="http://www.w3.org/2000/svg">
<path d="M199.118 61.6038C191.123 43.7056 175.683 29.8215 157.936 22.3517C140.189 14.882 120.309 13.5561 101.387 16.7853C83.5908 19.8231 66.2626 26.9395 52.3209 38.6943C38.3797 50.4491 28.0149 67.0167 24.9565 85.2687C22.3619 100.753 25.0033 116.683 29.102 131.821C31.5918 141.016 36.9813 150.73 43.3189 157.761C53.4713 169.026 70.4433 179.049 82.8046 178.775L81.4188 178.855C122.657 184.184 165.065 168.011 184.668 145.619C204.272 123.228 211.341 88.9692 199.118 61.6038Z" fill="#CDD2F3"/>
<path d="M90.2281 157.265C90.7593 157.324 90.9273 158.014 90.4752 158.3C89.1161 159.159 86.4677 160.233 86.4677 160.233C86.5449 160.62 87.2961 164.973 83.9106 165.746C80.5246 166.519 70.4387 167.535 67.6059 165.167C65.2753 163.219 65.0764 154.99 66.3068 154.196C68.249 152.942 83.3611 151.574 84.935 153.529C85.5537 154.298 86.2599 157.011 86.2599 157.011C86.2599 157.011 88.7183 157.098 90.2281 157.265Z" fill="white"/>
<path d="M70.7876 161.943C72.1027 161.388 73.3696 160.548 74.2906 159.444C74.9308 158.677 75.0296 157.504 73.9036 157.136C72.8496 156.791 71.9618 157.778 71.9216 158.771C71.8706 160.017 72.8206 161.168 73.8549 161.753C75.9544 162.943 78.8428 161.903 79.2458 159.384C79.4124 158.344 79.0029 157.081 77.927 156.705C76.8571 156.33 75.8631 157.065 75.7906 158.168C75.6946 159.621 77.0406 160.497 78.2171 160.997C79.8022 161.67 81.5114 161.859 83.2112 161.629C83.6225 161.574 83.4475 160.949 83.0389 161.005C81.7716 161.176 80.4827 161.074 79.2612 160.694C78.2593 160.383 76.7514 159.807 76.4706 158.653C76.3241 158.052 76.5843 157.28 77.3003 157.248C77.9377 157.219 78.3959 157.756 78.5583 158.321C78.8653 159.389 78.2775 160.532 77.4 161.139C76.4893 161.769 75.3155 161.771 74.3416 161.28C73.4164 160.814 72.3606 159.717 72.589 158.587C72.7078 157.998 73.4155 157.371 73.9761 157.907C74.5358 158.442 73.6523 159.208 73.2779 159.565C72.4584 160.346 71.5009 160.945 70.46 161.384C70.0777 161.545 70.4076 162.104 70.7876 161.943Z" fill="#FFE6DE"/>
<path d="M186.538 126.265C192.352 120.451 192.352 111.025 186.538 105.211C180.725 99.397 171.298 99.397 165.484 105.211C159.671 111.025 159.671 120.451 165.485 126.265C171.298 132.079 180.725 132.079 186.538 126.265Z" fill="white"/>
<path d="M171.881 110.105C171.881 110.105 172.947 108.605 173.078 109.072C173.21 109.538 172.935 110.529 172.935 110.529L173.831 110.917C174.173 111.07 174.751 111.359 173.607 111.429L173.021 111.476C173.021 111.476 172.796 112.971 172.569 113.047C172.355 113.119 172.053 111.826 172.053 111.826C172.053 111.826 170.554 112.894 170.642 112.37C170.731 111.846 171.332 110.813 171.332 110.813C171.332 110.813 169.973 109.597 170.605 109.649C170.739 109.66 171.881 110.105 171.881 110.105Z" fill="#FFE6DE"/>
<path d="M181.39 112.551C181.39 112.551 182.456 111.051 182.587 111.518C182.719 111.985 182.444 112.975 182.444 112.975L183.34 113.364C183.682 113.516 184.26 113.805 183.116 113.875L182.529 113.922C182.529 113.922 182.304 115.417 182.077 115.494C181.864 115.566 181.562 114.273 181.562 114.273C181.562 114.273 180.062 115.34 180.151 114.816C180.239 114.293 180.841 113.259 180.841 113.259C180.841 113.259 179.481 112.044 180.113 112.095C180.248 112.106 181.39 112.551 181.39 112.551Z" fill="#FFE6DE"/>
<path d="M173.195 113.595C173.7 114.699 174.679 115.571 175.844 115.925C177.068 116.296 178.443 116.072 179.494 115.349C179.833 115.115 179.535 114.539 179.191 114.776C178.277 115.405 177.115 115.632 176.043 115.308C175.028 115.001 174.207 114.251 173.769 113.292C173.595 112.912 173.022 113.215 173.195 113.595Z" fill="#FFE6DE"/>
<path d="M43.2125 89.8369C48.9983 89.8369 53.6887 85.1465 53.6887 79.3607C53.6887 73.5749 48.9983 68.8845 43.2125 68.8845C37.4267 68.8845 32.7363 73.5749 32.7363 79.3607C32.7363 85.1465 37.4267 89.8369 43.2125 89.8369Z" fill="white"/>
<path d="M40.6525 79.4407C41.5201 79.9021 42.5539 79.9428 43.4497 79.5338C44.2369 79.1744 44.8312 78.4626 45.0961 77.6454C45.2248 77.2476 44.5996 77.0777 44.4713 77.4732C44.2612 78.1209 43.7871 78.653 43.1754 78.9493C42.4894 79.2816 41.646 79.2352 40.9796 78.881C40.6113 78.6858 40.2837 79.2446 40.6525 79.4407Z" fill="#FFE6DE"/>
<path d="M39.6321 78.5984C39.6433 78.5984 39.6546 78.5984 39.6658 78.5984C39.7103 78.6002 39.7519 78.5909 39.7908 78.5703C39.831 78.5572 39.8656 78.5347 39.8951 78.5034C39.9265 78.4739 39.9489 78.4392 39.962 78.399C39.9822 78.3606 39.9915 78.319 39.9901 78.274C39.9864 78.2455 39.9822 78.2165 39.9784 78.1879C39.963 78.1332 39.9354 78.0854 39.8951 78.0452C39.8731 78.0283 39.8516 78.0115 39.8296 77.9946C39.7791 77.9652 39.7243 77.9507 39.6663 77.9502C39.655 77.9502 39.6438 77.9502 39.6326 77.9502C39.5881 77.9483 39.5465 77.9577 39.5076 77.9783C39.4674 77.9914 39.4327 78.0138 39.4032 78.0452C39.3714 78.0747 39.3494 78.1093 39.3363 78.1496C39.3162 78.1879 39.3068 78.2296 39.3082 78.2745C39.312 78.3031 39.3157 78.3321 39.3199 78.3606C39.3354 78.4154 39.363 78.4631 39.4032 78.5038C39.4252 78.5207 39.4468 78.5375 39.4688 78.5544C39.5193 78.5834 39.5736 78.5979 39.6321 78.5984Z" fill="#FFE6DE"/>
<path d="M44.7315 76.3019C45.1485 76.3019 45.149 75.6542 44.7315 75.6542C44.3146 75.6542 44.3136 76.3019 44.7315 76.3019Z" fill="#FFE6DE"/>
<path d="M178.9 55.5182C183.391 51.0275 183.391 43.7467 178.9 39.256C174.409 34.7653 167.129 34.7653 162.638 39.256C158.147 43.7467 158.147 51.0275 162.638 55.5182C167.129 60.0089 174.409 60.0089 178.9 55.5182Z" fill="white"/>
<path d="M173.264 47.5095C172.968 46.61 172.308 45.8378 171.436 45.4517C170.468 45.0235 169.355 45.0792 168.425 45.5786C168.058 45.7761 168.384 46.3358 168.752 46.1378C169.488 45.7424 170.404 45.6881 171.169 46.0377C171.861 46.354 172.402 46.9587 172.64 47.6813C172.769 48.0758 173.395 47.9069 173.264 47.5095Z" fill="#FFE6DE"/>
<path d="M168.645 43.9729C168.653 43.9818 168.662 43.9906 168.671 43.9995C168.7 44.0309 168.735 44.0534 168.775 44.0665C168.814 44.0866 168.855 44.0959 168.9 44.0945C168.944 44.0964 168.986 44.0871 169.025 44.0665C169.065 44.0534 169.1 44.0309 169.129 43.9995C169.146 43.9775 169.163 43.956 169.18 43.934C169.209 43.8835 169.224 43.8292 169.224 43.7707C169.22 43.7421 169.216 43.7131 169.212 43.6846C169.197 43.6298 169.169 43.5821 169.129 43.5418C169.12 43.5329 169.111 43.5241 169.103 43.5152C169.073 43.4838 169.039 43.4613 168.999 43.4482C168.96 43.4281 168.919 43.4188 168.874 43.4202C168.829 43.4183 168.788 43.4276 168.749 43.4482C168.708 43.4613 168.674 43.4838 168.644 43.5152C168.628 43.5372 168.611 43.5587 168.594 43.5807C168.564 43.6312 168.55 43.6855 168.55 43.744C168.554 43.7726 168.557 43.8016 168.562 43.8301C168.577 43.8849 168.605 43.9326 168.645 43.9729Z" fill="#FFE6DE"/>
<path d="M174.59 46.3049C175.007 46.3049 175.008 45.6572 174.59 45.6572C174.173 45.6572 174.173 46.3049 174.59 46.3049Z" fill="#FFE6DE"/>
<path d="M174.04 45.2182C174.701 45.244 175.361 45.2692 176.021 45.295C176.191 45.3015 176.353 45.1415 176.345 44.9711C176.337 44.79 176.203 44.6543 176.021 44.6473C175.361 44.6215 174.701 44.5962 174.04 44.5705C173.871 44.564 173.709 44.724 173.717 44.8944C173.725 45.0755 173.859 45.2112 174.04 45.2182Z" fill="#FFE6DE"/>
<path d="M169.024 42.0054C169.231 42.5085 169.47 42.9971 169.747 43.466C169.833 43.6121 170.042 43.6776 170.19 43.5821C170.337 43.4876 170.399 43.2952 170.306 43.1389C170.177 42.9208 170.055 42.6981 169.941 42.4715C169.886 42.3602 169.832 42.2478 169.78 42.1346C169.755 42.0798 169.73 42.0251 169.706 41.9698C169.692 41.9385 169.678 41.9071 169.665 41.8753C169.696 41.953 169.654 41.8477 169.648 41.8337C169.614 41.7522 169.578 41.6862 169.499 41.6399C169.43 41.5992 169.327 41.5819 169.25 41.6071C169.1 41.6553 168.954 41.8374 169.024 42.0054Z" fill="#FFE6DE"/>
<path d="M38.1741 141.399C37.3837 141.311 37.1333 140.284 37.8068 139.859C39.8295 138.581 43.77 136.981 43.77 136.981C43.6554 136.406 42.5373 129.929 47.5758 128.778C52.6143 127.628 67.6235 126.117 71.8388 129.639C75.3067 132.538 75.6029 144.783 73.7716 145.965C70.8813 147.83 48.3925 149.868 46.0506 146.958C45.13 145.814 44.0789 141.776 44.0789 141.776C44.0789 141.776 40.4205 141.648 38.1741 141.399Z" fill="white"/>
<path d="M51.6233 136.257C51.6233 136.257 53.0081 131.44 53.7681 132.521C54.5281 133.601 54.7167 136.396 54.7167 136.396L57.3703 136.585C58.3873 136.669 60.1348 136.889 57.2566 138.102L55.7922 138.753C55.7922 138.753 56.5649 142.798 56.0501 143.201C55.5671 143.578 53.6221 140.528 53.6221 140.528C53.6221 140.528 50.7313 144.627 50.486 143.201C50.2403 141.775 50.852 138.574 50.852 138.574C50.852 138.574 46.2604 136.677 47.9307 136.239C48.2855 136.146 51.6233 136.257 51.6233 136.257Z" fill="#FFE6DE"/>
<path d="M64.1047 136.257C64.1047 136.257 65.4895 131.44 66.2495 132.521C67.0096 133.601 67.1982 136.396 67.1982 136.396L69.8517 136.585C70.8687 136.669 72.6162 136.889 69.738 138.102L68.2736 138.753C68.2736 138.753 69.0468 142.798 68.5315 143.201C68.0485 143.578 66.1035 140.528 66.1035 140.528C66.1035 140.528 63.2127 144.627 62.967 143.201C62.7213 141.775 63.3329 138.574 63.3329 138.574C63.3329 138.574 58.7414 136.677 60.4117 136.239C60.7669 136.146 64.1047 136.257 64.1047 136.257Z" fill="#FFE6DE"/>
<path d="M115.668 26.0812C115.777 24.0478 116.936 22.4804 119.55 22.1243C119.55 22.1243 122.558 21.8271 124.376 21.778C126.194 21.7288 128.182 22.1832 129.295 23.6214C130.146 24.7212 130.327 26.1828 130.445 27.5681C130.533 28.5977 130.6 29.6436 130.397 30.6569C130.193 31.6701 129.684 32.6608 128.828 33.2397C127.88 33.8804 126.666 33.9329 125.522 33.9633C124.905 33.9797 124.289 33.996 123.673 34.0129C123.521 35.1333 121.703 37.1784 121.018 36.4062C120.758 36.1142 121.26 34.632 121.452 34.0718C120.829 34.0887 120.206 34.1051 119.583 34.1219C118.492 34.1509 117.262 34.1257 116.51 33.3347C115.988 32.7853 115.809 31.5446 115.675 30.7987L115.668 26.0812Z" fill="white"/>
<path d="M126.154 25.7035C126.103 25.016 125.656 24.3047 124.786 24.3931C124.387 24.4338 124.022 24.6477 123.766 24.9561C123.214 25.6197 123.159 26.5042 123.119 27.342C122.922 26.7841 122.721 26.2188 122.388 25.7302C121.971 25.118 121.313 24.6257 120.532 24.6856C120.172 24.7132 119.825 24.8779 119.601 25.1611C119.104 25.7873 119.388 26.6035 119.711 27.2746C120.44 28.7928 121.59 30.2852 122.73 31.598C122.998 31.9078 123.49 31.8774 123.717 31.5353C124.567 30.2534 125.527 28.5283 125.943 27.0701C126.07 26.6245 126.188 26.1659 126.154 25.7035Z" fill="#FFE6DE"/>
<path d="M194.081 95.1099C194.03 94.4224 193.583 93.711 192.714 93.7995C192.314 93.8402 191.949 94.0541 191.693 94.3625C191.141 95.0261 191.086 95.9106 191.046 96.7483C190.849 96.1905 190.648 95.6251 190.315 95.1366C189.898 94.5244 189.24 94.0321 188.459 94.092C188.099 94.1196 187.752 94.2843 187.527 94.5675C187.03 95.1936 187.315 96.0098 187.637 96.6809C188.366 98.1996 189.517 99.6911 190.656 101.004C190.925 101.314 191.416 101.284 191.643 100.942C192.494 99.6598 193.454 97.9347 193.87 96.4764C193.997 96.0304 194.116 95.5718 194.081 95.1099Z" fill="white"/>
<path d="M97.6695 134.401C97.5838 133.245 96.8327 132.049 95.3706 132.198C94.6995 132.266 94.086 132.626 93.6545 133.145C92.7269 134.26 92.6347 135.748 92.5669 137.156C92.2355 136.218 91.8981 135.268 91.3379 134.446C90.6364 133.417 89.5305 132.589 88.2182 132.69C87.6121 132.736 87.029 133.013 86.6513 133.489C85.816 134.542 86.2943 135.914 86.8362 137.043C88.0619 139.596 89.9971 142.104 91.9117 144.312C92.3637 144.832 93.1893 144.781 93.5707 144.206C95.0005 142.051 96.6141 139.151 97.3142 136.699C97.5277 135.95 97.727 135.179 97.6695 134.401Z" fill="white"/>
<path d="M167.385 64.7469C167.342 69.9244 167.086 74.2047 166.387 74.6371C164.935 75.5287 141.194 76.409 130.343 75.8806C127.247 75.7313 125.203 75.4641 125.016 75.0532C124.317 73.5055 124.739 53.5008 125.865 46.0868C126.089 44.5925 126.345 43.6157 126.623 43.3916C128.053 42.2548 156.475 41.1765 164.743 42.3989C166.152 42.6016 167.006 44.2138 166.958 45.1424C166.958 45.1424 166.974 45.484 166.995 46.0872C167.118 48.9271 167.449 57.6698 167.385 64.7469Z" fill="white"/>
<path d="M125.868 46.809H166.998C166.973 46.1004 166.959 45.7054 166.959 45.7054C167.005 44.6192 166.151 42.7299 164.745 42.4898C156.474 41.0601 128.052 42.3223 126.624 43.6533C126.345 43.9153 126.09 45.0615 125.868 46.809Z" fill="#A0D2F4"/>
<path d="M160.372 44.9005C160.372 45.2136 160.625 45.4677 160.939 45.4677C161.252 45.4677 161.506 45.214 161.506 44.9005C161.506 44.5874 161.252 44.3333 160.939 44.3333C160.625 44.3337 160.372 44.5874 160.372 44.9005Z" fill="white"/>
<path d="M162.362 44.9005C162.362 45.2136 162.616 45.4677 162.929 45.4677C163.242 45.4677 163.496 45.214 163.496 44.9005C163.496 44.5874 163.242 44.3333 162.929 44.3333C162.616 44.3337 162.362 44.5874 162.362 44.9005Z" fill="white"/>
<path d="M138.527 76.2995C132.484 76.2995 127.127 76.1123 125.442 75.5924C125.064 75.4754 124.859 75.342 124.777 75.1586C124.049 73.5369 124.467 53.5805 125.611 46.0485C125.937 43.8564 126.237 43.3692 126.462 43.1895C128.003 41.9619 156.423 40.908 164.783 42.1416C166.326 42.3672 167.27 44.1063 167.216 45.1579L167.256 46.077C167.365 48.6913 167.621 55.4595 167.65 61.8252C167.706 74.1318 166.877 74.6414 166.524 74.8595C165.505 75.4857 155.714 75.9907 147.048 76.1947C144.258 76.2593 141.319 76.2995 138.527 76.2995ZM125.247 74.9395C125.714 75.4955 132.258 75.9738 145.553 75.708C155.972 75.5011 165.451 74.91 166.252 74.4177C167.222 73.8205 167.417 62.4402 166.738 46.0981L166.699 45.156C166.737 44.3665 166.01 42.8446 164.707 42.6541C156.047 41.376 128.053 42.5848 126.785 43.5943C126.731 43.6373 126.445 43.9626 126.123 46.1252C124.943 53.9034 124.632 73.5056 125.247 74.9395Z" fill="#8380FF"/>
<path d="M132.536 44.1671C133.665 41.9553 136.836 38.4472 140.84 38.5998C141.426 38.6222 141.855 39.0963 142.366 38.8286C142.812 38.5951 141.111 39.3425 141.149 38.8361C141.225 37.8327 144.53 37.331 145.687 37.3872C147.324 37.4663 149.922 37.7447 151.453 38.3307C153.884 39.2615 155.508 40.4521 157.482 42.1491C160.681 44.8986 161.779 49.0039 163.205 52.973C164.358 56.1774 165.489 59.4131 166.021 62.7762C166.287 64.454 166.398 66.1612 166.287 67.8577C166.195 69.2734 166.078 71.3752 165.304 72.6117C164.799 73.418 163.091 73.3394 162.198 73.4574C156.58 74.1973 150.956 74.8988 145.321 75.4946C142.601 75.7824 140.065 75.3668 137.334 75.5287C136.194 75.5961 133.703 75.6981 132.623 75.1459C129.8 73.7016 132.253 69.9375 133.516 67.0289C134.779 64.1203 136.298 60.9805 135.473 57.9183C135.064 56.4016 134.113 55.0954 133.486 53.6553C132.245 50.8113 131.126 46.9306 132.536 44.1671Z" fill="#421B36"/>
<path d="M132.033 71.1913C131.044 67.0168 133.803 64.7596 134.909 61.0793C135.693 58.4669 135.063 55.5849 133.953 53.163C133.784 52.7947 133.259 53.0685 133.331 53.4251C133.78 55.6299 134.703 57.7785 134.246 60.0806C133.891 61.8716 132.838 63.3935 132.048 65.0067C131.074 66.9971 130.334 69.3708 131.776 71.2999C131.867 71.423 132.072 71.3561 132.033 71.1913Z" fill="#421B36"/>
<path d="M167.385 64.7469C167.342 69.9244 167.085 74.2047 166.386 74.6372C164.935 75.5287 141.193 76.409 130.343 75.8806C130.669 75.1281 132.195 71.8563 134.906 69.2781C137.996 66.3479 141.242 65.777 151.34 64.6454C158.209 63.8774 163.424 64.0426 167.385 64.7469Z" fill="#8380FF"/>
<path d="M146.518 65.2027C146.518 65.2027 144.503 71.0359 151.736 70.6577C158.968 70.2796 161.133 64.2157 161.133 64.2157C161.133 64.2157 152.886 63.744 146.518 65.2027Z" fill="#FFAE7A"/>
<path d="M150.106 40.2513C143.891 36.036 135.234 40.0893 134.47 47.56C134.228 49.9225 134.781 52.7352 136.166 56.2508C140.031 66.0601 148.926 62.7129 148.926 62.7129L150.129 70.6755L158.323 66.4073L156.223 54.858C156.223 54.858 154.653 47.0742 152.311 42.6404C151.789 41.6543 151.016 40.8686 150.106 40.2513Z" fill="#FFAE7A"/>
<path d="M138.259 49.5439C138.387 49.9089 138.756 50.112 139.085 49.9974C139.414 49.8827 139.578 49.4943 139.451 49.1292C139.323 48.7642 138.954 48.5616 138.625 48.6758C138.296 48.7904 138.132 49.1793 138.259 49.5439Z" fill="#421B36"/>
<path d="M144.861 47.0041C144.988 47.3691 145.358 47.5718 145.687 47.4576C146.016 47.3429 146.18 46.9545 146.052 46.5895C145.925 46.2244 145.556 46.0218 145.227 46.136C144.898 46.2506 144.735 46.6391 144.861 47.0041Z" fill="#421B36"/>
<path d="M152.669 60.4722C151.082 61.8608 149.267 62.7149 147.191 63.0453C146.841 63.101 146.921 63.6902 147.275 63.6658C149.467 63.5151 151.558 62.3952 152.715 60.5078C152.732 60.4783 152.693 60.4511 152.669 60.4722Z" fill="#421B36"/>
<path d="M156.346 46.1855C156.808 45.7119 157.558 45.5911 158.189 45.7891C158.82 45.9871 159.336 46.463 159.697 47.0171C160.297 47.9382 160.499 49.1526 160.064 50.1626C159.629 51.1725 158.497 51.8848 157.416 51.6854" fill="#FFAE7A"/>
<path d="M158.634 48.5111C158.468 48.3426 158.391 48.183 158.145 48.1095C157.908 48.0384 157.626 48.0655 157.395 48.1446C156.969 48.2911 156.567 48.6739 156.478 49.1274C156.411 49.4719 156.896 49.7297 157.078 49.3801C157.224 49.0993 157.349 48.8625 157.658 48.7306C157.876 48.6374 158.337 48.5499 158.575 48.6126C158.633 48.6281 158.677 48.5546 158.634 48.5111Z" fill="#421B36"/>
<path d="M136.491 45.8542C136.884 45.4335 137.624 44.9482 138.197 44.8457C139.668 44.5822 140.47 46.0264 140.799 47.2016C141.245 48.7956 141.092 50.3891 140.923 52.0056C140.879 52.4338 141.557 52.5078 141.663 52.1058C142.248 49.894 142.1 46.1593 140.1 44.6173C138.765 43.5886 136.886 44.176 136.24 45.7077C136.18 45.8495 136.394 45.9576 136.491 45.8542Z" fill="#421B36"/>
<path d="M145.221 42.7968C144.139 43.2236 142.993 43.4703 141.912 43.8858C141.346 44.103 141.556 44.9365 142.165 44.8041C143.329 44.5513 144.425 43.8779 145.399 43.2185C145.601 43.0823 145.48 42.6948 145.221 42.7968Z" fill="#421B36"/>
<path d="M145.018 53.6343C144.15 53.1887 143.156 53.2912 142.354 53.8304C141.96 54.0957 142.373 54.6508 142.758 54.3531C143.367 53.8823 144.158 53.7672 144.898 53.9183C145.061 53.952 145.183 53.7194 145.018 53.6343Z" fill="#421B36"/>
<path d="M146.718 38.6746C148.563 38.9465 150.373 39.6429 151.789 40.8568C154.144 42.8767 155.135 46.0231 156.017 48.9982C157.419 53.7259 161.843 57.2368 163.245 61.9646L160.906 67.4046C158.219 69.3407 154.788 63.8651 154.1 60.6261C153.727 58.872 153.461 57.0932 153.051 55.7182C152.082 52.4684 151.701 49.0777 151.071 45.746C151.011 45.4315 150.941 45.1016 150.731 44.8606C150.534 44.6345 150.242 44.5199 149.963 44.4094C146.715 43.1173 143.709 41.2172 141.149 38.837C142.989 38.5351 144.874 38.4027 146.718 38.6746Z" fill="#421B36"/>
<path d="M140.506 38.4799C138.749 36.2976 134.73 36.7927 133.027 38.7785C132.86 38.9736 133.076 39.3157 133.318 39.1561C134.473 38.3975 135.541 37.7461 136.976 37.7058C138.253 37.6698 139.288 38.1776 140.464 38.5534C140.509 38.5674 140.531 38.5108 140.506 38.4799Z" fill="#421B36"/>
<path d="M134.579 35.8947C137.203 35.4894 139.741 36.6252 141.054 38.9376C141.258 39.2966 141.813 38.9732 141.609 38.6138C140.132 36.0314 137.393 34.8759 134.545 35.773C134.466 35.7978 134.5 35.9069 134.579 35.8947Z" fill="#421B36"/>
<path d="M148.582 62.9404C148.898 65.3394 149.574 67.6738 149.875 70.0779C149.934 70.5576 150.638 70.4607 150.528 69.9895C149.979 67.6256 149.626 65.192 148.754 62.917C148.721 62.8337 148.568 62.8347 148.582 62.9404Z" fill="#421B36"/>
<path d="M112.277 70.8459C111.136 73.3389 58.1093 71.8245 55.5573 70.2904C53.2856 68.9234 54.4411 38.6091 54.7214 32.0103C54.7561 31.1988 54.7757 30.7467 54.7757 30.7467C54.7116 29.5028 55.8821 27.3392 57.8098 27.0636C69.1489 25.426 108.112 26.8717 110.069 28.396C110.453 28.696 110.802 30.0087 111.107 32.0099C112.65 41.9525 113.23 68.7708 112.277 70.8459Z" fill="white"/>
<path d="M111.106 32.0103H54.7212C54.7558 31.1988 54.7755 30.7467 54.7755 30.7467C54.7114 29.5028 55.8818 27.3392 57.8095 27.0636C69.1487 25.426 108.112 26.8717 110.069 28.396C110.452 28.696 110.801 30.0087 111.106 32.0103Z" fill="#A0D2F4"/>
<path d="M54.1772 54.4051C54.4669 54.0681 64.4002 50.5174 72.7114 52.5134C81.3358 54.5848 84.4657 51.3823 90.7641 55.8751C97.0624 60.3683 101.234 72.1198 101.234 72.1198L65.5805 71.7328L58.1674 71.6523C55.9571 71.6284 54.1777 69.8294 54.1777 67.6191L54.1772 54.4051Z" fill="#8380FF"/>
<path d="M62.2201 29.8243C62.2201 30.1828 61.9295 30.4738 61.5705 30.4738C61.212 30.4738 60.9214 30.1832 60.9214 29.8243C60.9214 29.4658 61.212 29.1747 61.5705 29.1747C61.9295 29.1752 62.2201 29.4658 62.2201 29.8243Z" fill="white"/>
<path d="M59.2907 30.4738C59.6495 30.4738 59.9403 30.183 59.9403 29.8243C59.9403 29.4655 59.6495 29.1747 59.2907 29.1747C58.9319 29.1747 58.6411 29.4655 58.6411 29.8243C58.6411 30.183 58.9319 30.4738 59.2907 30.4738Z" fill="white"/>
<path d="M93.7656 72.4297C89.9551 72.4297 85.9439 72.3768 82.1311 72.2892C69.8602 72.0084 56.7463 71.3079 55.4233 70.5127C53.1381 69.1377 53.9898 43.1211 54.462 31.9996L54.5163 30.7355C54.4456 29.3816 55.7083 27.1024 57.7722 26.8071C69.2171 25.1551 108.122 26.5525 110.228 28.1915C110.5 28.4049 110.914 29.0283 111.362 31.9711C112.929 42.0625 113.506 68.7891 112.511 70.954C112.413 71.1693 112.159 71.3303 111.689 71.4759C109.423 72.1774 102.071 72.4297 93.7656 72.4297ZM74.455 26.5825C67.6367 26.5825 61.4928 26.7931 57.8461 27.3196C56.0064 27.5826 54.9796 29.6793 55.0344 30.7327L54.9801 32.0207C54.2051 50.2797 54.1241 69.1251 55.691 70.0676C58.0586 71.4908 104.402 72.8522 111.332 71.0378C111.946 70.8768 112.036 70.7458 112.041 70.7364C112.99 68.6702 112.359 41.763 110.85 32.0492C110.427 29.2688 110.051 28.7105 109.909 28.5996C108.7 27.6589 89.8597 26.5825 74.455 26.5825Z" fill="#8380FF"/>
<path d="M81.7856 70.4551C79.7428 69.5715 79.5177 70.3999 79.5177 70.3999C77.6363 69.0745 76.6502 69.7372 76.6502 69.7372C74.1656 68.1357 72.5384 69.7372 72.5384 69.7372L70.3556 69.3506C68.5964 69.2888 67.3118 70.7658 66.3594 71.7407C68.2538 72.1193 69.5137 72.0823 71.4213 72.4188C72.8014 72.5293 73.1037 73.2818 73.1037 73.2818C73.1037 73.2818 74.0425 77.2935 76.098 77.3014C76.705 77.3038 76.9923 76.8803 77.1323 76.3701C77.2006 76.855 77.465 77.3515 78.2054 77.5546C79.8504 78.0053 79.7601 76.7998 79.7601 76.7998C79.7601 76.7998 79.827 77.4096 81.4252 77.2102C83.0234 77.0113 81.8951 74.2094 81.8951 74.2094C81.8951 74.2094 83.6066 76.0865 85.429 75.59C87.2518 75.0934 83.8284 71.3387 81.7856 70.4551Z" fill="#944D4D"/>
<path d="M95.7366 30.6611C94.5497 28.3346 91.2138 24.6445 87.0028 24.805C86.8703 24.8101 86.7468 24.8391 86.6274 24.8756C86.1983 23.9392 83.0496 23.4745 81.9039 23.5297C80.1821 23.613 77.449 23.9059 75.8391 24.5218C73.2819 25.5009 71.5742 26.7533 69.4977 28.5382C66.1332 31.43 64.3413 38.7359 70.1814 45.4335L88.2374 48.6805C92.3005 47.2423 94.0799 42.1561 94.7393 40.6416C96.0427 37.6497 97.2197 33.5673 95.7366 30.6611ZM85.7743 25.1293C85.6512 25.1344 85.5272 25.1134 85.398 25.046C85.1846 24.9341 85.4382 25.0352 85.7743 25.1293Z" fill="#421B36"/>
<path d="M77.2564 26.5422C83.7934 22.1084 92.8997 26.3723 93.7033 34.2301C93.9574 36.7151 93.3762 39.6734 91.9188 43.3715C87.8538 53.6895 78.4984 50.1683 78.4984 50.1683L77.2325 58.5436L68.6147 54.0545L70.8232 41.9062C70.8232 41.9062 72.4743 33.7185 74.9388 29.0554C75.4864 28.0178 76.2993 27.1918 77.2564 26.5422Z" fill="#944D4D"/>
<path d="M89.7172 36.3168C89.5833 36.7006 89.1944 36.914 88.8486 36.7937C88.5027 36.6735 88.3305 36.2644 88.4643 35.8807C88.5982 35.4969 88.9866 35.2835 89.3329 35.4038C89.6788 35.5241 89.851 35.9326 89.7172 36.3168Z" fill="#421B36"/>
<path d="M82.7728 33.6451C82.639 34.0289 82.2501 34.2423 81.9042 34.122C81.5584 34.0017 81.3862 33.5927 81.52 33.2089C81.6539 32.8252 82.0423 32.6118 82.3886 32.732C82.7345 32.8523 82.9067 33.2613 82.7728 33.6451Z" fill="#421B36"/>
<path d="M74.1097 46.8773C74.6418 47.7679 75.1796 48.6707 76.0145 49.3146C76.9916 50.0681 78.2843 50.4715 79.4632 50.7631C79.8605 50.8614 80.0149 50.2829 79.6312 50.1542C78.507 49.7761 77.3483 49.4836 76.3514 48.8148C75.5385 48.2696 74.8641 47.5105 74.156 46.8422C74.1322 46.8197 74.0924 46.8483 74.1097 46.8773Z" fill="#421B36"/>
<path d="M70.6929 32.784C70.2072 32.286 69.4181 32.1587 68.7545 32.3675C68.0909 32.5757 67.548 33.0765 67.1684 33.6591C66.5371 34.6279 66.3251 35.9055 66.7828 36.9674C67.24 38.0298 68.4306 38.7791 69.5679 38.5689" fill="#944D4D"/>
<path d="M68.3479 35.334C68.602 35.2634 69.0887 35.3485 69.3194 35.4464C69.6452 35.5844 69.7851 35.8376 69.9381 36.1362C70.1155 36.483 70.6083 36.2312 70.5376 35.8835C70.4422 35.4122 70.028 35.0149 69.5848 34.8609C69.3578 34.7823 69.0971 34.7556 68.8613 34.8122C68.5753 34.881 68.4845 35.0406 68.2894 35.2325C68.2454 35.2751 68.2894 35.35 68.3479 35.334Z" fill="#421B36"/>
<path d="M91.8188 32.2471C90.6478 29.5407 87.5085 30.5782 86.5524 32.8232C85.7015 34.8211 85.585 36.9112 86.1564 39.005C86.2641 39.3996 86.9516 39.3373 86.8963 38.9049C86.7134 37.4751 86.4209 36.2256 86.7882 34.8225C86.9806 34.0878 87.0667 33.3408 87.4608 32.6664C88.4431 30.9863 90.3469 31.0809 91.5824 32.4292C91.7074 32.5658 91.8819 32.3927 91.8188 32.2471Z" fill="#421B36"/>
<path d="M70.2212 45.2172C71.24 41.799 75.5779 35.8254 76.242 32.321C76.3047 31.9901 76.3777 31.6434 76.5991 31.3897C76.8064 31.152 77.1139 31.0317 77.4069 30.9152C80.8237 29.5561 83.9846 27.5573 86.6779 25.0535C84.7423 24.7371 82.7603 24.5971 80.82 24.8836C78.8797 25.17 76.9754 25.9019 75.4862 27.1791C73.0086 29.3038 71.9673 32.6131 71.0393 35.7426C69.7789 39.9925 70.6415 40.1787 70.1468 43.2722C70.063 43.7983 70.4355 44.4946 70.2212 45.2172Z" fill="#421B36"/>
<path d="M87.3981 24.7536C88.7885 24.2888 90.1162 23.6144 91.6283 23.9317C92.8114 24.1798 93.8874 24.7849 94.9207 25.3793C95.1687 25.522 95.3817 25.2042 95.2123 25.0016C93.4643 22.9092 89.139 22.5235 87.3555 24.6805C87.3297 24.7114 87.3527 24.7685 87.3981 24.7536Z" fill="#421B36"/>
<path d="M93.2563 21.8346C90.2672 20.9051 87.3918 22.1186 85.8422 24.8279C85.6368 25.1868 86.1918 25.5107 86.3959 25.1517C87.7807 22.7139 90.4558 21.5187 93.2226 21.9562C93.3017 21.9689 93.3359 21.8594 93.2563 21.8346Z" fill="#421B36"/>
<path d="M83.0401 39.2592C82.6934 38.8451 82.3559 38.3593 81.8346 38.2179C81.2823 38.0682 80.6903 38.3728 80.3187 38.8076C79.5798 39.6725 79.555 41.0222 80.1404 41.9975C80.7264 42.9723 81.8346 43.57 82.9662 43.6832C84.4315 43.8302 86.2698 42.8825 86.7738 41.4986C85.3268 41.1953 83.9893 40.3927 83.0401 39.2592Z" fill="#421B36"/>
<path d="M85.5185 29.8445C84.9527 29.2618 84.2502 28.9342 83.4799 28.7002C82.9992 28.5542 82.3113 28.3048 81.811 28.4756C81.5152 28.5762 81.5171 28.9735 81.811 29.0756C82.9618 29.4734 84.2076 29.4907 85.277 30.1576C85.4717 30.2788 85.6743 30.005 85.5185 29.8445Z" fill="#421B36"/>
<path d="M78.2222 20.9646C77.7186 19.664 76.7157 18.5974 75.5457 17.8383C74.3841 17.0844 73.0138 16.6042 71.6308 16.6613C70.2474 16.7184 68.8608 17.3572 68.0591 18.487C67.2579 19.6163 67.1385 21.2402 67.9102 22.3896C66.9888 21.6502 65.4724 22.0134 64.8186 22.9971C64.1648 23.9813 64.316 25.3624 64.9993 26.3265C65.6826 27.2905 66.8081 27.8709 67.9636 28.1156C69.1196 28.3604 70.3162 28.3028 71.4942 28.2097L77.9357 24.9875C78.6808 23.8086 78.7257 22.2647 78.2222 20.9646Z" fill="#421B36"/>
<path d="M82.1466 53.2725C82.1466 53.2725 84.7777 60.8897 75.3334 60.3955C65.8892 59.9018 63.0615 51.9837 63.0615 51.9837C63.0615 51.9837 73.8307 51.3673 82.1466 53.2725Z" fill="#944D4D"/>
<path d="M83.0662 53.3502C81.5105 52.9543 79.9395 52.6234 78.3562 52.359C77.9486 52.2906 77.7731 52.915 78.184 52.9838C79.7672 53.2482 81.3383 53.5791 82.8939 53.975C83.2983 54.0775 83.4705 53.4532 83.0662 53.3502Z" fill="#421B36"/>
<path d="M78.3224 50.3724C77.9256 52.1831 77.3537 53.9591 77.0439 55.789C76.9751 56.1966 77.5989 56.3721 77.6686 55.9612C77.9785 54.1318 78.5504 52.3557 78.9472 50.5446C79.0361 50.1384 78.4118 49.9647 78.3224 50.3724Z" fill="#421B36"/>
<path d="M54.4877 54.5979C56.7317 53.8903 59.0675 53.4261 61.3743 52.9758C63.8715 52.4887 66.4301 51.9818 68.9807 51.9135C69.3967 51.9023 69.3986 51.2545 68.9807 51.2658C66.4315 51.3341 63.8706 51.8349 61.3738 52.3178C59.01 52.7751 56.6147 53.2482 54.3154 53.9732C53.919 54.0981 54.0885 54.7238 54.4877 54.5979Z" fill="#421B36"/>
<path d="M72.1318 70.0438C75.0989 70.6405 77.1436 73.3558 76.904 76.374C76.8707 76.7895 77.5189 76.7877 77.5517 76.374C77.8128 73.0886 75.5332 70.0686 72.304 69.419C71.8968 69.3371 71.7228 69.9614 72.1318 70.0438Z" fill="#421B36"/>
<path d="M76.4862 69.9459C78.4518 71.6541 79.4772 74.2539 79.2151 76.8443C79.173 77.2589 79.8212 77.2556 79.8628 76.8443C80.1403 74.1022 79.0237 71.2952 76.9444 69.4882C76.6313 69.2154 76.1708 69.6717 76.4862 69.9459Z" fill="#421B36"/>
<path d="M78.9467 70.5529C80.565 71.2202 81.7378 72.8568 81.8693 74.5983C81.9007 75.0115 82.5489 75.0148 82.5171 74.5983C82.3622 72.5405 81.0232 70.7134 79.1189 69.9281C78.956 69.8607 78.7646 70.0011 78.7206 70.1546C78.6668 70.3395 78.7857 70.4864 78.9467 70.5529Z" fill="#421B36"/>
<path d="M76.779 74.1191C76.0119 74.1823 75.3212 74.7074 75.1049 75.4572C74.8845 76.2214 75.2187 77.0493 75.8561 77.5004C75.9988 77.6015 76.2164 77.5262 76.2993 77.3844C76.3943 77.222 76.3264 77.0427 76.1832 76.9412C75.7761 76.6529 75.5968 76.0904 75.7297 75.6294C75.7971 75.3958 75.9413 75.1937 76.1364 75.0331C76.3124 74.8885 76.566 74.7846 76.779 74.7673C76.9535 74.7528 77.1028 74.6288 77.1028 74.4435C77.1028 74.2787 76.9545 74.1046 76.779 74.1191Z" fill="#421B36"/>
<path d="M79.3547 74.6713C78.6962 74.6507 78.0297 75.048 77.7625 75.656C77.4841 76.2896 77.617 77.0445 78.0995 77.5434C78.2212 77.6693 78.4355 77.6656 78.5576 77.5434C78.6835 77.4175 78.6798 77.2116 78.5576 77.0852C78.4701 76.9945 78.436 76.9476 78.3718 76.8222C78.3676 76.8138 78.3307 76.73 78.3489 76.7759C78.3382 76.7497 78.3293 76.723 78.3204 76.6959C78.3012 76.6364 78.2876 76.5761 78.2745 76.5147C78.2726 76.5035 78.2708 76.4923 78.2689 76.4811C78.2717 76.5054 78.2722 76.5063 78.2694 76.4829C78.2666 76.4548 78.2642 76.4268 78.2633 76.3982C78.2609 76.336 78.2628 76.2742 78.268 76.2119C78.2703 76.189 78.2698 76.1895 78.2665 76.2143C78.2684 76.2031 78.2703 76.1918 78.2722 76.1811C78.2787 76.1478 78.2857 76.1146 78.2942 76.0818C78.3012 76.0547 78.3096 76.0276 78.3185 76.0009C78.3236 75.985 78.3293 75.9686 78.3353 75.9531C78.326 75.9728 78.326 75.9723 78.3358 75.9522C78.384 75.8446 78.4449 75.7538 78.4987 75.6934C78.5403 75.6471 78.5848 75.6036 78.6321 75.5633C78.6714 75.5296 78.6821 75.5221 78.7444 75.4837C78.8656 75.4084 78.9143 75.3883 79.0388 75.3536C79.0659 75.3461 79.0935 75.3396 79.1211 75.334C79.1375 75.3307 79.1969 75.3204 79.152 75.3265C79.2194 75.3176 79.2877 75.3171 79.3551 75.3195C79.5301 75.3251 79.679 75.1664 79.679 74.9956C79.679 74.815 79.5306 74.6769 79.3547 74.6713Z" fill="#421B36"/>
<path d="M81.9278 73.7662C81.077 73.8397 80.3638 74.5024 80.2641 75.3574C80.1672 76.1867 80.741 76.9935 81.5207 77.2444C81.9185 77.3722 82.0888 76.7469 81.6929 76.6196C81.1931 76.4586 80.8453 75.9167 80.9071 75.3977C80.9652 74.9081 81.4369 74.4565 81.9278 74.4139C82.1019 74.3989 82.2517 74.2759 82.2517 74.0901C82.2517 73.9263 82.1029 73.7508 81.9278 73.7662Z" fill="#421B36"/>
<path d="M84.5423 72.7161C84.239 72.7793 83.9909 73.0104 83.8683 73.2894C83.7256 73.6128 83.7345 73.9558 83.873 74.2797C84.1412 74.9082 84.7912 75.3266 85.4155 75.5419C85.5807 75.599 85.7698 75.4768 85.8138 75.3158C85.863 75.138 85.7534 74.9746 85.5878 74.9171C85.3701 74.8422 85.1478 74.7229 84.9401 74.5754C84.7711 74.4552 84.6008 74.2787 84.5011 74.0976C84.4875 74.0728 84.4744 74.048 84.4627 74.0223C84.4805 74.0602 84.4557 74.0035 84.451 73.9904C84.4416 73.9638 84.4337 73.9371 84.4267 73.9099C84.4267 73.9099 84.4051 73.8079 84.4131 73.8627C84.4061 73.8135 84.4084 73.7639 84.4103 73.7143C84.4131 73.6329 84.3925 73.7606 84.4159 73.682C84.4229 73.6582 84.4276 73.6333 84.4351 73.6099C84.4416 73.5884 84.4585 73.5472 84.4393 73.5898C84.4515 73.5627 84.4655 73.536 84.4805 73.5107C84.4903 73.4939 84.5015 73.4775 84.5123 73.4611C84.4781 73.5126 84.5287 73.4438 84.5352 73.4363C84.5404 73.4307 84.597 73.3783 84.5666 73.404C84.5366 73.4293 84.5965 73.3844 84.604 73.3797C84.6157 73.3727 84.6906 73.3441 84.6302 73.3638C84.6583 73.3549 84.6859 73.3474 84.7149 73.3413C84.8862 73.3058 84.9854 73.104 84.9415 72.9426C84.8918 72.7643 84.714 72.68 84.5423 72.7161Z" fill="#421B36"/>
<path d="M104.717 70.4551C102.674 69.5715 102.449 70.3999 102.449 70.3999C100.568 69.0745 99.5819 69.7372 99.5819 69.7372C97.0973 68.1357 95.4706 69.7372 95.4706 69.7372L94.2486 69.5209C93.7188 69.4273 93.1713 69.4091 92.6481 69.5341C90.8299 69.9679 89.957 71.5708 89.8335 72.4324C89.921 72.4492 92.5778 72.5372 94.3539 72.4193C95.734 72.5297 96.0364 73.2823 96.0364 73.2823C96.0364 73.2823 96.9752 77.294 99.0306 77.3019C99.6376 77.3043 99.925 76.8807 100.065 76.3706C100.133 76.8554 100.398 77.352 101.138 77.5551C102.783 78.0058 102.693 76.8002 102.693 76.8002C102.693 76.8002 102.76 77.41 104.358 77.2107C105.957 77.0118 104.828 74.2098 104.828 74.2098C104.828 74.2098 106.54 76.087 108.362 75.5904C110.184 75.0934 106.761 71.3387 104.717 70.4551Z" fill="#944D4D"/>
<path d="M95.0639 70.0438C98.031 70.6405 100.076 73.3558 99.8361 76.374C99.8029 76.7895 100.451 76.7877 100.484 76.374C100.745 73.0886 98.4653 70.0686 95.2361 69.419C94.829 69.3371 94.6549 69.9614 95.0639 70.0438Z" fill="#421B36"/>
<path d="M99.4179 69.9459C101.383 71.6541 102.409 74.2539 102.147 76.8443C102.105 77.2589 102.753 77.2556 102.795 76.8443C103.072 74.1022 101.955 71.2952 99.8761 69.4882C99.5625 69.2154 99.1025 69.6717 99.4179 69.9459Z" fill="#421B36"/>
<path d="M101.878 70.5529C103.497 71.2202 104.67 72.8568 104.801 74.5983C104.832 75.0115 105.48 75.0148 105.449 74.5983C105.294 72.5405 103.955 70.7134 102.051 69.9281C101.888 69.8607 101.696 70.0011 101.652 70.1546C101.599 70.3395 101.717 70.4864 101.878 70.5529Z" fill="#421B36"/>
<path d="M99.7108 74.1191C98.9438 74.1823 98.253 74.7074 98.0368 75.4572C97.8159 76.2214 98.1501 77.0493 98.7879 77.5004C98.9307 77.6015 99.1483 77.5262 99.2311 77.3844C99.3262 77.222 99.2583 77.0427 99.1151 76.9412C98.7079 76.6529 98.5287 76.0904 98.6616 75.6294C98.729 75.3958 98.8731 75.1937 99.0683 75.0331C99.2442 74.8885 99.4979 74.7846 99.7108 74.7673C99.8854 74.7528 100.035 74.6288 100.035 74.4435C100.035 74.2787 99.8863 74.1046 99.7108 74.1191Z" fill="#421B36"/>
<path d="M102.286 74.6713C101.628 74.6507 100.961 75.048 100.694 75.656C100.416 76.2896 100.549 77.0445 101.031 77.5434C101.153 77.6693 101.367 77.6656 101.489 77.5434C101.615 77.4175 101.611 77.2116 101.489 77.0852C101.401 76.9945 101.368 76.9476 101.303 76.8222C101.299 76.8138 101.262 76.73 101.281 76.7759C101.27 76.7497 101.261 76.723 101.252 76.6959C101.233 76.6364 101.219 76.5761 101.206 76.5147C101.204 76.5035 101.202 76.4923 101.201 76.4811C101.203 76.5054 101.204 76.5063 101.201 76.4829C101.198 76.4548 101.196 76.4268 101.195 76.3982C101.193 76.336 101.194 76.2742 101.2 76.2119C101.202 76.189 101.201 76.1895 101.198 76.2143C101.2 76.2031 101.202 76.1918 101.204 76.1811C101.21 76.1478 101.217 76.1146 101.226 76.0818C101.233 76.0547 101.241 76.0276 101.25 76.0009C101.255 75.985 101.261 75.9686 101.267 75.9531C101.258 75.9728 101.258 75.9723 101.267 75.9522C101.315 75.8446 101.376 75.7538 101.43 75.6934C101.472 75.6471 101.516 75.6036 101.563 75.5633C101.603 75.5296 101.613 75.5221 101.676 75.4837C101.797 75.4084 101.845 75.3883 101.97 75.3536C101.997 75.3461 102.025 75.3396 102.052 75.334C102.069 75.3307 102.128 75.3204 102.083 75.3265C102.151 75.3176 102.218 75.3171 102.286 75.3195C102.461 75.3251 102.61 75.1664 102.61 74.9956C102.61 74.815 102.462 74.6769 102.286 74.6713Z" fill="#421B36"/>
<path d="M104.86 73.7662C104.009 73.8397 103.296 74.5024 103.196 75.3574C103.099 76.1867 103.673 76.9935 104.453 77.2444C104.851 77.3722 105.021 76.7469 104.625 76.6196C104.126 76.4586 103.778 75.9167 103.84 75.3977C103.898 74.9081 104.37 74.4565 104.86 74.4139C105.035 74.3989 105.184 74.2759 105.184 74.0901C105.184 73.9263 105.035 73.7508 104.86 73.7662Z" fill="#421B36"/>
<path d="M107.474 72.7161C107.171 72.7793 106.923 73.0104 106.8 73.2894C106.657 73.6128 106.666 73.9558 106.805 74.2797C107.073 74.9082 107.723 75.3266 108.347 75.5419C108.512 75.599 108.701 75.4768 108.746 75.3158C108.795 75.138 108.686 74.9746 108.52 74.9171C108.302 74.8422 108.08 74.7229 107.872 74.5754C107.703 74.4552 107.533 74.2787 107.433 74.0976C107.42 74.0728 107.407 74.048 107.395 74.0223C107.413 74.0602 107.388 74.0035 107.383 73.9904C107.374 73.9638 107.365 73.9371 107.359 73.9099C107.359 73.9099 107.337 73.8079 107.345 73.8627C107.338 73.8135 107.341 73.7639 107.342 73.7143C107.345 73.6329 107.325 73.7606 107.348 73.682C107.355 73.6582 107.36 73.6333 107.367 73.6099C107.374 73.5884 107.391 73.5472 107.371 73.5898C107.384 73.5627 107.397 73.536 107.413 73.5107C107.422 73.4939 107.434 73.4775 107.444 73.4611C107.41 73.5126 107.461 73.4438 107.467 73.4363C107.472 73.4307 107.529 73.3783 107.499 73.404C107.469 73.4293 107.529 73.3844 107.536 73.3797C107.548 73.3727 107.623 73.3441 107.562 73.3638C107.59 73.3549 107.618 73.3474 107.647 73.3413C107.818 73.3058 107.918 73.104 107.873 72.9426C107.823 72.7643 107.646 72.68 107.474 72.7161Z" fill="#421B36"/>
<path d="M89.2828 121.882C88.2944 124.091 42.3414 122.749 40.1297 121.389C38.1613 120.178 39.1623 93.3173 39.4052 87.4701C39.4352 86.7513 39.452 86.3502 39.452 86.3502C39.3963 85.2481 40.4109 83.3307 42.0812 83.0869C51.9078 81.6361 85.6736 82.917 87.3696 84.2676C87.7019 84.5335 88.0047 85.6969 88.2686 87.4701C89.6066 96.2802 90.1093 120.043 89.2828 121.882Z" fill="white"/>
<path d="M88.2687 88.328H39.4053C39.4352 87.4866 39.4521 87.0172 39.4521 87.0172C39.3964 85.7264 40.411 83.4823 42.0813 83.1969C51.9079 81.4985 85.6736 82.998 87.3697 84.5793C87.7019 84.8901 88.0043 86.252 88.2687 88.328Z" fill="#A0D2F4"/>
<path d="M46.6031 86.734C46.9751 86.734 47.2766 86.4325 47.2766 86.0605C47.2766 85.6886 46.9751 85.3871 46.6031 85.3871C46.2312 85.3871 45.9297 85.6886 45.9297 86.0605C45.9297 86.4325 46.2312 86.734 46.6031 86.734Z" fill="white"/>
<path d="M44.2384 86.734C44.6103 86.734 44.9118 86.4325 44.9118 86.0605C44.9118 85.6886 44.6103 85.3871 44.2384 85.3871C43.8665 85.3871 43.5649 85.6886 43.5649 86.0605C43.5649 86.4325 43.8665 86.734 44.2384 86.734Z" fill="white"/>
<path d="M73.2402 123.314C69.9202 123.314 66.4261 123.267 63.107 123.189C52.4914 122.939 41.1433 122.317 39.9935 121.61C37.9988 120.383 38.7359 97.3188 39.1459 87.4595L39.1927 86.34C39.1309 85.1321 40.2363 83.0949 42.0433 82.8309C51.9654 81.3647 85.7025 82.6096 87.5306 84.0651C87.7706 84.2574 88.1343 84.8148 88.5246 87.4318C89.8827 96.3758 90.3821 120.068 89.5191 121.988C89.4278 122.192 89.1934 122.342 88.7591 122.476C86.763 123.092 80.4095 123.314 73.2402 123.314ZM56.5419 82.6896C50.6213 82.6896 45.2847 82.8763 42.1191 83.3439C40.5434 83.5741 39.664 85.4134 39.7108 86.3381L39.664 87.4814C38.8567 106.913 39.0982 120.451 40.2654 121.169C41.2444 121.771 52.3379 122.463 64.995 122.712C80.8817 123.023 88.5976 122.445 89.0478 121.774C89.7826 120.116 89.4185 96.7652 88.0126 87.51C87.6363 84.987 87.3012 84.5462 87.2076 84.4708C86.1626 83.6382 69.8762 82.6896 56.5419 82.6896Z" fill="#8380FF"/>
<path d="M59.127 103.592L56.3597 86.6592L63.3333 81.3123C72.6194 81.2117 75.0104 88.6065 75.0104 88.6065C76.9769 88.7385 78.9439 88.871 80.9105 89.0029C81.1501 89.0189 81.4094 89.0432 81.5896 89.2084C81.9359 89.5262 81.7627 90.1055 81.5357 90.515C80.7677 91.8971 79.6525 93.0713 78.3257 93.8945L78.4207 94.9264C79.1326 97.901 78.3725 101.188 76.4411 103.488C74.5097 105.787 71.4569 107.041 68.4898 106.751L66.3393 113.763L55.5215 111.569L59.127 103.592Z" fill="#FFBFBF"/>
<path d="M71.3552 83.0237C71.3552 83.0237 65.2862 85.1358 62.2737 84.6004C62.2737 84.6004 67.0763 91.6209 65.8333 92.745C64.5903 93.8691 63.0492 92.892 63.0492 92.892C63.0492 92.892 60.3128 103.256 59.563 104.342C58.8128 105.428 57.9559 106.182 57.9559 106.182C57.9559 106.182 53.1421 102.24 50.2615 97.7133C47.381 93.1868 46.6373 85.8205 50.9149 84.3135C50.9149 84.3135 56.9895 74.5773 69.3709 77.6459C69.3709 77.6459 71.6112 78.6741 72.4162 80.2265C73.2211 81.7802 73.5061 82.8477 71.3552 83.0237Z" fill="#421B36"/>
<path d="M58.6432 94.9376C58.5342 93.9745 58.7673 92.9229 59.4744 92.2602C60.1815 91.5975 63.4566 91.239 63.978 93.506L62.5786 98.4551C61.7592 98.3919 60.1408 97.7849 59.5975 97.1686C59.0541 96.5527 58.7359 95.7543 58.6432 94.9376Z" fill="#FFBFBF"/>
<path d="M71.7553 89.1807C71.8461 89.5757 71.6383 89.9608 71.2906 90.0409C70.9434 90.1209 70.5877 89.8654 70.4969 89.4699C70.4061 89.0749 70.6139 88.6898 70.9616 88.6097C71.3089 88.5302 71.6641 88.7857 71.7553 89.1807Z" fill="#421B36"/>
<path d="M66.8258 86.9081C67.8985 85.5972 69.675 84.4525 71.4562 85.0356C71.8451 85.1629 71.7646 85.7755 71.3673 85.8209C70.5979 85.9094 69.887 85.8364 69.1363 86.0947C68.4367 86.3357 67.686 86.7092 67.1501 87.2151C66.9653 87.3897 66.6643 87.1051 66.8258 86.9081Z" fill="#421B36"/>
<path d="M63.8865 95.8423C63.6436 95.7562 63.3624 95.7622 63.1101 95.663C62.7937 95.5385 62.4816 95.3981 62.1657 95.2713C61.5774 95.0354 60.8866 94.9278 60.3363 94.6269C59.9202 94.3994 60.2726 93.8711 60.6311 93.8701C61.2592 93.8687 62.0566 94.3246 62.6009 94.5997C62.9009 94.7514 63.222 94.9147 63.4873 95.1225C63.719 95.3041 63.7995 95.5212 63.9623 95.7374C64.0026 95.7913 63.9502 95.8647 63.8865 95.8423Z" fill="#421B36"/>
<path d="M76.436 95.4538C75.507 95.7243 74.636 95.7641 73.7075 95.4393C72.9437 95.1721 71.8753 94.6194 71.6469 93.7854C71.5865 93.5649 71.8711 93.3534 72.0681 93.4503C72.3943 93.6103 72.5979 93.8832 72.8782 94.1116C73.1834 94.3601 73.5217 94.5613 73.8854 94.7116C74.6313 95.0195 75.5149 95.1576 76.3157 95.0354C76.552 94.9994 76.6798 95.3827 76.436 95.4538Z" fill="#421B36"/>
<path d="M38.935 121.744C38.935 121.744 38.3925 105.643 64.3099 109.519C73.2843 110.861 76.169 111.539 78.9148 115.02C81.6601 118.503 83.0332 123.056 83.0332 123.056C83.0332 123.056 43.8377 123.487 38.935 121.744Z" fill="#8380FF"/>
<path d="M41.6355 119.057C41.474 120.185 41.6748 121.325 42.2397 122.318C42.4461 122.681 43.0058 122.354 42.7989 121.991C42.3272 121.162 42.1241 120.177 42.2598 119.23C42.2846 119.056 42.2172 118.881 42.0338 118.831C41.8817 118.79 41.6603 118.883 41.6355 119.057Z" fill="#421B36"/>
<path d="M72.2417 119.722C71.7217 120.732 71.4494 121.852 71.4587 122.988C71.462 123.405 72.1102 123.406 72.1064 122.988C72.098 121.967 72.333 120.957 72.801 120.049C72.9919 119.679 72.4331 119.351 72.2417 119.722Z" fill="#421B36"/>
<path d="M40.5664 116.703C50.8058 118.613 61.252 119.371 71.6594 118.927C74.642 118.8 77.6194 118.573 80.5874 118.252C80.9974 118.208 81.0021 117.56 80.5874 117.605C70.3022 118.714 59.9004 118.666 49.6274 117.441C46.6499 117.086 43.6861 116.628 40.7386 116.078C40.331 116.002 40.1564 116.626 40.5664 116.703Z" fill="#A0D2F4"/>
<path d="M48.037 111.079C56.8981 111.966 65.8074 112.312 74.7111 112.117C75.1276 112.107 75.129 111.459 74.7111 111.469C65.8079 111.664 56.8986 111.318 48.037 110.431C47.6223 110.39 47.6251 111.038 48.037 111.079Z" fill="#A0D2F4"/>
<path d="M146.942 33.3375C147.074 33.7704 147.875 33.7948 148.142 33.3698C148.945 32.0922 149.832 29.704 149.832 29.704C150.279 29.7035 155.292 29.5992 155.747 26.6465C156.202 23.6939 156.843 15.4988 153.816 13.5346C151.326 11.9181 138.669 13.2973 137.923 14.4565C136.747 16.2864 136.328 28.731 138.733 29.7152C139.679 30.1023 146.164 30.0718 146.164 30.0718C146.164 30.0718 146.566 32.1067 146.942 33.3375Z" fill="#8380FF"/>
<path d="M148.539 19.2817C148.539 19.2817 147.056 14.1206 146.241 15.2784C145.427 16.4358 145.225 19.4305 145.225 19.4305L142.382 19.6331C141.292 19.7225 139.144 20.1311 142.228 21.4303L143.863 22.2722C143.863 22.2722 142.915 26.1739 143.467 26.6054C143.984 27.0098 146.661 24.0548 146.661 24.0548C146.661 24.0548 149.495 28.2481 149.758 26.7205C150.021 25.1925 149.456 22.2769 149.456 22.2769C149.456 22.2769 154.285 19.7314 152.495 19.2625C152.115 19.1623 148.539 19.2817 148.539 19.2817Z" fill="white"/>
<path d="M143.028 27.1768C142.773 26.7065 144.814 23.9308 145.175 23.4497C145.168 23.0561 144.709 21.2866 144.544 20.9211L144.397 20.8476L144.465 20.6145C144.55 20.3497 144.55 20.3436 147.306 20.7699C147.595 20.3 148.389 19.0355 148.749 18.6831L149.141 19.0837C148.829 19.3898 147.986 20.7306 147.687 21.2215L147.59 21.3821L147.405 21.353C146.586 21.2262 145.692 21.0938 145.174 21.025C145.433 21.7607 145.666 22.9335 145.669 22.9499C145.765 23.4558 145.759 23.6289 145.647 23.7539C145.402 24.0323 143.618 26.6527 143.549 27.0308C143.549 27.0308 143.558 26.9761 143.522 26.9087L143.028 27.1768Z" fill="#8380FF"/>
<path d="M93.0001 51.8254C92.5022 51.7505 92.3445 50.8735 92.7685 50.5098C94.0429 49.4175 96.5256 48.0514 96.5256 48.0514C96.4535 47.56 95.7487 42.0264 98.9236 41.0436C102.098 40.0608 116.209 38.3914 118.865 41.4007C121.05 43.8764 121.601 58.0292 120.447 59.0387C118.626 60.6322 99.8025 62.7508 98.3269 60.2653C97.7466 59.2881 96.7207 52.1474 96.7207 52.1474C96.7207 52.1474 94.4158 52.0379 93.0001 51.8254Z" fill="#8380FF"/>
<path d="M106.064 46.9297C106.064 46.9297 108.164 39.6237 109.317 41.2627C110.469 42.9011 110.755 47.1403 110.755 47.1403L114.78 47.4272C116.322 47.554 118.972 47.8877 114.607 49.7269L112.386 50.7144C112.386 50.7144 113.559 56.8494 112.777 57.4602C112.045 58.033 109.095 53.4063 109.095 53.4063C109.095 53.4063 104.711 59.6228 104.339 57.4602C103.966 55.2975 104.894 50.443 104.894 50.443C104.894 50.443 97.9297 47.5666 100.463 46.9021C101.001 46.7607 106.064 46.9297 106.064 46.9297Z" fill="white"/>
<path d="M112.808 44.131C113.297 43.2792 113.897 42.5309 114.607 41.8532C114.915 41.5593 114.434 41.0782 114.139 41.3861C113.418 42.1401 112.866 43.0246 112.484 43.9943C112.409 44.1838 112.71 44.3013 112.808 44.131Z" fill="#A0D2F4"/>
<path d="M113.933 45.3927C114.981 45.1091 116.072 44.7328 117.057 44.2737C117.504 44.0654 117.114 43.4172 116.672 43.6147C115.705 44.0467 114.733 44.6158 113.854 45.2059C113.761 45.2691 113.817 45.424 113.933 45.3927Z" fill="#A0D2F4"/>
<path d="M102.343 43.2923C103.154 43.7837 103.917 44.4638 104.803 44.8091C105.121 44.9332 105.395 44.4488 105.138 44.2326C104.412 43.6209 103.448 43.2774 102.63 42.8014C102.313 42.617 102.031 43.1028 102.343 43.2923Z" fill="#A0D2F4"/>
<path d="M99.3498 54.3915C100.256 54.0119 101.191 53.6553 102.043 53.1583C102.424 52.9365 102.09 52.4053 101.705 52.5794C100.827 52.9753 100.01 53.5168 99.1944 54.0227C99.01 54.1373 99.1307 54.4832 99.3498 54.3915Z" fill="#A0D2F4"/>
<path d="M101.07 57.1532C101.604 56.4699 102.129 55.7763 102.606 55.0518C102.839 54.699 102.281 54.3831 102.044 54.7233C101.563 55.415 101.124 56.139 100.701 56.8677C100.57 57.0909 100.901 57.3698 101.07 57.1532Z" fill="#A0D2F4"/>
<path d="M109.372 57.5092C109.183 57.9477 109.142 58.4152 109.27 58.8776C109.374 59.2506 109.958 59.0185 109.763 58.6698C109.569 58.3212 109.495 57.9519 109.545 57.556C109.555 57.4671 109.407 57.4268 109.372 57.5092Z" fill="#A0D2F4"/>
<path d="M114.275 53.2514C114.729 54.0728 115.454 55.1651 116.348 55.539C116.64 55.6612 116.952 55.2437 116.768 54.9928C116.497 54.6241 116.103 54.3667 115.776 54.0494C115.422 53.7063 115.108 53.3305 114.812 52.9374C114.578 52.6252 114.076 52.8911 114.275 53.2514Z" fill="#A0D2F4"/>
<path d="M115.61 52.8081C116.826 53.2036 118.035 53.6173 119.252 54.01C119.802 54.1873 120.05 53.2963 119.491 53.1432C118.259 52.8067 117.022 52.4913 115.79 52.1571C115.368 52.0425 115.199 52.6743 115.61 52.8081Z" fill="#A0D2F4"/>
<path d="M82.0484 97.2878C81.3197 97.2073 81.0895 96.261 81.7096 95.8688C83.5736 94.6909 87.2048 93.2167 87.2048 93.2167C87.0995 92.6869 86.069 86.7176 90.7115 85.6575C95.3546 84.5975 123.015 82.9253 126.899 86.1714C130.095 88.8423 130.368 100.127 128.68 101.216C126.017 102.935 91.4641 105.092 89.3061 102.411C88.4577 101.356 87.4894 97.6355 87.4894 97.6355C87.4894 97.6355 84.1188 97.5167 82.0484 97.2878Z" fill="#8380FF"/>
<path d="M95.7424 92.43C95.7424 92.43 97.0186 87.991 97.7188 88.9864C98.4189 89.9819 98.593 92.5577 98.593 92.5577L101.038 92.7323C101.976 92.809 103.586 93.0122 100.933 94.1297L99.5842 94.7297C99.5842 94.7297 100.297 98.4573 99.822 98.8285C99.3769 99.1767 97.5849 96.3654 97.5849 96.3654C97.5849 96.3654 94.9211 100.143 94.6945 98.8285C94.4685 97.5143 95.032 94.565 95.032 94.565C95.032 94.565 90.8008 92.8175 92.34 92.4136C92.6662 92.3275 95.7424 92.43 95.7424 92.43Z" fill="white"/>
<path d="M108.101 92.43C108.101 92.43 109.377 87.991 110.077 88.9864C110.777 89.9819 110.951 92.5577 110.951 92.5577L113.397 92.7323C114.334 92.809 115.944 93.0122 113.292 94.1297L111.943 94.7297C111.943 94.7297 112.655 98.4573 112.18 98.8285C111.735 99.1767 109.943 96.3654 109.943 96.3654C109.943 96.3654 107.279 100.143 107.053 98.8285C106.826 97.5143 107.39 94.565 107.39 94.565C107.39 94.565 103.159 92.8175 104.698 92.4136C105.025 92.3275 108.101 92.43 108.101 92.43Z" fill="white"/>
<path d="M119.603 92.43C119.603 92.43 120.879 87.991 121.58 88.9864C122.28 89.9819 122.454 92.5577 122.454 92.5577L124.899 92.7323C125.837 92.809 127.446 93.0122 124.794 94.1297L123.445 94.7297C123.445 94.7297 124.157 98.4573 123.683 98.8285C123.238 99.1767 121.445 96.3654 121.445 96.3654C121.445 96.3654 118.781 100.143 118.555 98.8285C118.329 97.5143 118.893 94.565 118.893 94.565C118.893 94.565 114.662 92.8175 116.201 92.4136C116.527 92.3275 119.603 92.43 119.603 92.43Z" fill="white"/>
<path d="M199.013 73.4241C197.145 68.3955 192.411 63.1239 180.915 65.5505C177.906 66.4397 175.017 68.058 173.161 70.5876C171.298 73.1251 170.621 76.387 170.747 79.532C170.866 82.4734 171.741 85.5397 173.908 87.5329C175.961 89.4227 178.757 90.0259 181.609 90.0915C181.423 90.808 181.171 91.5072 180.84 92.1699C180.732 92.3851 180.615 92.606 180.608 92.8466C180.6 93.0871 180.744 93.352 180.981 93.3918C181.103 93.4124 181.227 93.3717 181.343 93.3291C183.131 92.6739 184.697 91.4454 185.789 89.886C188.724 89.5837 191.696 89.0328 194.196 87.4833C198.756 84.657 200.882 78.4532 199.013 73.4241Z" fill="#A0D2F4"/>
<path d="M182.043 72.972C181.819 72.972 181.626 72.8948 181.465 72.739C181.303 72.5836 181.222 72.4006 181.222 72.1891C181.222 72.1147 181.238 72.0402 181.269 71.9654C181.299 71.8909 181.353 71.7913 181.427 71.6672C181.763 71.1454 182.278 70.7355 182.974 70.4369C183.67 70.1388 184.416 70.0021 185.211 70.0269C185.994 70.0395 186.671 70.2071 187.243 70.53C187.814 70.8529 188.259 71.3036 188.575 71.8816C188.892 72.4596 189.051 73.1396 189.051 73.9225C189.051 74.7799 188.865 75.5755 188.492 76.3084C188.119 77.0418 187.619 77.6352 186.991 78.0882C186.364 78.5422 185.664 78.7935 184.895 78.8431L184.801 80.6884C184.788 80.9243 184.705 81.111 184.55 81.2472C184.394 81.3839 184.199 81.4587 183.962 81.4709C183.763 81.4835 183.58 81.4091 183.413 81.2472C183.245 81.0862 183.168 80.8929 183.18 80.6692L183.291 78.2464C183.316 77.9609 183.412 77.7433 183.58 77.5945C183.748 77.4456 184.006 77.3708 184.354 77.3708C184.901 77.3708 185.407 77.2154 185.873 76.9051C186.339 76.5943 186.715 76.1877 187.001 75.6841C187.286 75.181 187.429 74.6311 187.429 74.0349C187.429 73.513 187.333 73.0722 187.14 72.7118C186.948 72.3515 186.677 72.0749 186.329 71.8825C185.982 71.6897 185.559 71.5933 185.062 71.5933C184.565 71.5933 184.118 71.671 183.72 71.8264C183.322 71.9817 183.018 72.1961 182.806 72.4694C182.682 72.6182 182.567 72.7394 182.462 72.833C182.356 72.9257 182.216 72.972 182.043 72.972ZM183.757 82.6081C183.907 82.6081 184.071 82.6456 184.251 82.72C184.431 82.7949 184.589 82.9156 184.727 83.0836C184.864 83.2517 184.932 83.4842 184.932 83.7824C184.932 84.0187 184.876 84.2082 184.764 84.351C184.652 84.4937 184.515 84.5962 184.354 84.6585C184.192 84.7207 184.037 84.7516 183.888 84.7516C183.577 84.7516 183.301 84.6458 183.058 84.4348C182.816 84.2237 182.695 83.9686 182.695 83.6705C182.707 83.3977 182.806 83.152 182.993 82.9343C183.18 82.7172 183.434 82.6081 183.757 82.6081Z" fill="white"/>
<path d="M157.685 115.114C157.685 115.114 164.609 116.769 170.059 121.905C174.169 125.779 180.491 163.407 176.706 168.823C172.921 174.238 170.419 171.117 165.126 168.471C158.928 165.372 136.792 160.882 136.792 160.882C136.792 160.882 131.993 144.75 131.878 135.803C131.802 129.819 132.973 119.207 137.446 116.454C141.92 113.701 150.114 112.475 157.685 115.114Z" fill="#A0D2F4"/>
<path d="M139.254 134.321C139.254 134.321 138.952 128.002 139.951 126.811C141.119 125.416 149.797 127.392 150.417 129.194C151.036 130.996 152.348 140.27 149.364 140.045C146.38 139.819 139.254 134.321 139.254 134.321Z" fill="white"/>
<path d="M163.541 161.766C165.573 164.468 169.25 166.09 172.499 166.651C172.73 166.69 172.833 166.355 172.598 166.292C169.116 165.363 166.593 163.626 163.681 161.627C163.6 161.571 163.48 161.685 163.541 161.766Z" fill="#421B36"/>
<path d="M133.343 146.737C132.295 138.27 132.44 130.368 134.045 121.977C134.11 121.64 133.623 121.496 133.525 121.834C131.238 129.754 131.045 138.795 133.205 146.755C133.225 146.829 133.354 146.817 133.343 146.737Z" fill="#421B36"/>
<path d="M155.546 106.76L160.917 89.5673L154.456 82.9816C144.819 81.5083 141.245 88.8428 141.245 88.8428C139.181 88.6902 137.117 88.5377 135.054 88.3856C134.802 88.3668 134.529 88.3542 134.318 88.4988C133.911 88.7777 134.005 89.4058 134.182 89.8649C134.776 91.4145 135.763 92.7993 137.02 93.8504L136.769 94.909C135.591 97.8958 135.897 101.425 137.565 104.099C139.234 106.774 142.222 108.526 145.349 108.664L146.551 116.269L158.118 115.583L155.546 106.76Z" fill="#CC8770"/>
<path d="M143.831 84.3841C144.058 84.4595 144.266 85.6047 150.135 84.7688C150.135 84.7688 151.863 86.6689 155.073 86.5561C155.073 86.5561 149.047 93.1456 150.173 94.4972C151.3 95.8487 153.046 95.0602 153.046 95.0602C153.046 95.0602 154.363 106.236 154.983 107.475C155.602 108.715 156.135 108.78 156.135 108.78C156.135 108.78 161.966 106.236 165.627 101.956C169.288 97.6753 171.147 90.1284 166.923 87.9316C166.923 87.9316 167.097 78.3193 153.775 79.6845C153.775 79.6845 150.533 75.3157 148.787 76.2166C147.041 77.118 146.647 79.8211 146.647 79.8211C146.647 79.8211 143.549 78.4129 142.648 80.159C141.747 81.9061 143.155 84.159 143.831 84.3841Z" fill="#421B36"/>
<path d="M157.323 97.8358C157.578 96.8507 157.491 95.7237 156.854 94.9305C156.216 94.1377 152.865 93.2826 151.989 95.5618L152.714 100.912C153.575 100.967 155.347 100.575 156.002 100.014C156.658 99.4537 157.107 98.6707 157.323 97.8358Z" fill="#CC8770"/>
<path d="M144.543 89.9202C144.391 90.3175 144.55 90.7485 144.899 90.8828C145.249 91.0172 145.656 90.8037 145.808 90.4064C145.961 90.0091 145.801 89.5781 145.452 89.4437C145.103 89.3094 144.696 89.5228 144.543 89.9202Z" fill="#421B36"/>
<path d="M150.002 88.2839C149.081 86.7634 147.403 85.3121 145.465 85.6552C145.042 85.7301 145.035 86.3787 145.442 86.4845C146.229 86.6895 146.978 86.7185 147.72 87.098C148.412 87.4514 149.137 87.9507 149.619 88.5554C149.786 88.7636 150.141 88.5128 150.002 88.2839Z" fill="#421B36"/>
<path d="M151.741 98.0034C152.006 97.9496 152.297 97.9978 152.574 97.9318C152.921 97.8489 153.266 97.7493 153.613 97.6641C154.259 97.5059 154.993 97.4956 155.61 97.2635C156.076 97.0884 155.787 96.4871 155.415 96.4332C154.762 96.3392 153.866 96.6953 153.26 96.9012C152.926 97.015 152.568 97.1371 152.262 97.314C151.994 97.4689 151.878 97.6823 151.677 97.8836C151.627 97.9336 151.671 98.0174 151.741 98.0034Z" fill="#421B36"/>
<g opacity="0.2">
<path d="M149.906 95.9433C149.679 96.5344 148.488 96.627 147.247 96.1497C146.005 95.6728 145.182 94.8065 145.41 94.2154C145.637 93.6243 146.828 93.5317 148.07 94.009C149.311 94.4859 150.133 95.3522 149.906 95.9433Z" fill="#421B36"/>
</g>
<path d="M138.754 95.7505C139.68 96.1689 140.579 96.3383 141.593 96.1375C142.426 95.9723 143.618 95.5553 143.978 94.7223C144.073 94.5019 143.809 94.2403 143.59 94.3119C143.227 94.4303 142.975 94.6839 142.65 94.88C142.296 95.093 141.915 95.2525 141.514 95.355C140.694 95.5656 139.755 95.5783 138.94 95.3335C138.7 95.261 138.511 95.641 138.754 95.7505Z" fill="#421B36"/>
<path d="M166.674 88.275C167.735 87.442 168.497 86.2219 168.636 84.8643C168.673 84.503 168.076 84.4239 168.001 84.7781C167.741 86.0127 167.301 87.0933 166.423 88.0242C166.262 88.1945 166.499 88.4126 166.674 88.275Z" fill="#421B36"/>
<path d="M166.269 89.0323C167.63 88.6663 168.969 88.5802 170.348 88.8994C170.774 88.9981 170.951 88.327 170.527 88.2479C169.041 87.9709 167.564 88.0532 166.162 88.6429C165.931 88.7407 166.01 89.102 166.269 89.0323Z" fill="#421B36"/>
<path d="M146.699 114.266C146.524 114.308 141.877 116.193 145.115 118.164C148.354 120.135 157.637 115.64 157.637 115.64C157.637 115.64 151.52 113.115 146.699 114.266Z" fill="#CC8770"/>
<path d="M145.301 109.43C145.642 111.911 145.983 114.393 146.324 116.876C146.38 117.287 147.004 117.112 146.948 116.703C146.608 114.222 146.267 111.74 145.926 109.257C145.87 108.846 145.245 109.021 145.301 109.43Z" fill="#421B36"/>
<path d="M142.038 108.071C143.835 109.573 147.068 109.791 149.251 109.185C149.544 109.104 149.499 108.606 149.176 108.636C148.037 108.742 146.931 108.884 145.786 108.789C144.499 108.682 143.316 108.229 142.054 108.042C142.04 108.04 142.024 108.058 142.038 108.071Z" fill="#421B36"/>
<path d="M131.56 166.939C130.446 166.799 98.0898 149.688 86.6692 155.259C75.2486 160.83 73.4819 171.814 83.7882 178.36C94.0945 184.905 127.381 194.827 134.903 195.368C142.423 195.908 149.273 194.723 149.273 194.723L131.56 166.939Z" fill="#8380FF"/>
<path d="M134.11 211.825C133.829 211.265 133.71 210.595 133.342 210.017C131.666 207.383 130.132 205.088 128.204 202.753C124.895 198.746 113.131 187.441 113.131 187.441L121.063 178.376L133.016 192.618C136.921 192.713 143.744 191.112 145.889 192.652C148.034 194.192 148.409 211.539 147.942 217.964C147.217 227.943 142.466 230.776 141.192 230.635C140.318 230.537 135.671 214.932 134.11 211.825Z" fill="#A0D2F4"/>
<path d="M139.353 226.416L134.11 211.825C133.534 210.332 132.326 208.724 130.816 207.061C130.816 207.061 134.675 203.51 135.283 199.384C135.89 195.257 133.782 192.557 133.782 192.557C137.142 192.242 140.34 191.981 142.619 192.019C142.619 192.019 147.641 201.271 146.46 212.347C145.279 223.421 140.332 229.142 140.332 229.142L139.353 226.416Z" fill="#421B36"/>
<path d="M140.928 230.404C140.728 230.066 140.584 229.739 140.332 229.141C140.493 228.954 145.167 223.245 146.33 212.356C147.513 201.282 142.619 192.018 142.619 192.018C144.107 192.05 145.361 192.214 145.952 192.64C146.019 192.688 146.083 192.752 146.146 192.829C146.275 192.984 146.396 193.201 146.51 193.468C148.157 197.339 148.429 212.132 148.006 217.953C147.45 225.627 144.547 228.995 142.637 230.163C141.636 230.742 141.135 230.753 140.928 230.404Z" fill="white"/>
<path d="M131.24 207.317C131.24 207.317 127.406 207.559 125.465 205.147C123.68 202.93 127.849 196.264 130.366 196.917C132.6 197.496 134.642 201.371 135.282 199.383C135.923 197.395 133.925 192.975 133.9 192.761L137.728 193.264L140.618 199.012L139.842 204.905L136.189 208.134L133.776 211.082C133.445 210.248 132.342 208.73 131.24 207.317Z" fill="#421B36"/>
<path d="M135.655 204.951C134.047 205.894 133.007 207.489 132.812 209.345C132.764 209.805 133.469 209.792 133.526 209.345C133.73 207.746 134.602 206.347 135.963 205.48C136.294 205.269 135.996 204.75 135.655 204.951Z" fill="white"/>
<path d="M135.143 213.721C135.506 212.929 135.837 212.173 136.411 211.504C136.994 210.823 137.671 210.386 138.42 209.917C138.821 209.665 138.568 208.939 138.083 209.117C136.324 209.764 134.79 211.711 134.716 213.605C134.707 213.823 135.047 213.931 135.143 213.721Z" fill="white"/>
<path d="M136.562 217.357C137.055 216.781 137.337 216.051 137.831 215.464C138.359 214.838 138.974 214.298 139.653 213.842C140.135 213.518 139.699 212.748 139.193 213.056C137.871 213.86 136.169 215.512 136.145 217.184C136.142 217.385 136.421 217.521 136.562 217.357Z" fill="white"/>
<path d="M138.95 192.133C138.95 192.133 141.551 202.394 143.328 204.363C145.106 206.332 146.562 206.63 146.562 206.63L146.638 208.879C146.638 208.879 143.365 208.669 141.416 204.564C139.466 200.46 136.88 192.283 136.88 192.283L138.95 192.133Z" fill="white"/>
<path d="M131.291 207.186C131.793 206.338 132.385 205.521 133.037 204.781C133.604 204.137 134.325 203.632 134.834 202.942C134.983 202.74 134.731 202.397 134.493 202.498C132.751 203.229 131.657 205.429 131.217 207.156C131.206 207.199 131.267 207.226 131.291 207.186Z" fill="#421B36"/>
<path d="M134.197 192.959C136.291 192.781 138.397 192.713 140.498 192.687C142.121 192.667 143.868 192.547 145.475 192.837C146.493 193.02 146.737 195.33 146.893 196.208C147.216 198.03 147.386 199.88 147.521 201.725C147.828 205.926 147.921 210.152 147.834 214.364C147.747 218.534 147.481 222.922 145.385 226.635C144.677 227.891 143.728 229.13 142.474 229.884C142.153 230.077 141.413 230.572 141.157 230.119C140.96 229.771 140.892 229.283 140.781 228.903C140.53 228.04 140.332 227.139 139.997 226.304C139.843 225.922 139.217 226.088 139.372 226.476C139.69 227.267 139.88 228.119 140.116 228.937C140.269 229.466 140.378 230.461 140.872 230.811C141.534 231.279 142.568 230.621 143.111 230.24C143.629 229.878 144.1 229.448 144.52 228.975C147.444 225.692 148.198 220.973 148.403 216.74C148.612 212.405 148.533 208.041 148.295 203.71C148.177 201.569 148.013 199.427 147.716 197.304C147.516 195.871 147.361 194.029 146.521 192.793C146.135 192.227 145.634 192.19 144.997 192.133C143.943 192.038 142.88 192.033 141.823 192.032C139.282 192.028 136.73 192.096 134.196 192.311C133.785 192.346 133.781 192.994 134.197 192.959Z" fill="#421B36"/>
<path d="M99.7301 168.406L86.5625 179.325C86.5625 179.325 118.721 199.308 124.083 198.288C129.444 197.269 131.41 190.067 132.826 185.279C134.241 180.491 99.7301 168.406 99.7301 168.406Z" fill="#8380FF"/>
<path d="M102.486 199.677C102.987 199.3 103.625 199.063 104.128 198.598C106.42 196.479 108.403 194.558 110.356 192.243C113.707 188.271 122.727 174.676 122.727 174.676L133.064 180.86L121.189 195.165C121.794 199.025 124.588 205.452 123.457 207.837C122.325 210.223 105.324 213.694 98.9198 214.383C88.9711 215.454 85.3343 211.286 85.2463 210.008C85.1859 209.131 99.7084 201.768 102.486 199.677Z" fill="#A0D2F4"/>
<path d="M89.0686 207.444L102.487 199.677C103.853 198.843 105.219 197.367 106.585 195.584C106.585 195.584 110.769 198.746 114.937 198.606C119.106 198.466 121.386 195.909 121.386 195.909C122.297 199.159 123.125 202.258 123.496 204.508C123.496 204.508 115.29 211.103 104.183 211.921C93.0752 212.74 86.5625 208.895 86.5625 208.895L89.0686 207.444Z" fill="#421B36"/>
<path d="M85.4262 209.708C85.7233 209.45 86.0191 209.25 86.562 208.895C86.7749 209.02 93.2268 212.597 104.149 211.796C115.256 210.979 123.496 204.508 123.496 204.508C123.73 205.977 123.793 207.24 123.48 207.898C123.444 207.973 123.392 208.047 123.329 208.122C123.199 208.278 123.007 208.435 122.765 208.596C119.25 210.908 104.744 213.82 98.942 214.446C91.2925 215.271 87.4592 213.016 85.969 211.346C85.2202 210.464 85.1196 209.973 85.4262 209.708Z" fill="white"/>
<path d="M106.409 196.047C106.409 196.047 105.486 192.319 107.512 189.977C109.374 187.825 116.677 190.734 116.485 193.328C116.314 195.63 112.867 198.331 114.937 198.606C117.008 198.881 121 196.125 121.206 196.062L121.395 199.918L116.257 203.789L110.32 204.08L106.49 201.063L103.159 199.216C103.919 198.741 105.215 197.384 106.409 196.047Z" fill="#421B36"/>
<path d="M109.51 199.95C108.314 198.572 106.586 197.825 104.758 197.95C104.303 197.982 104.296 198.689 104.758 198.665C106.422 198.579 107.935 199.16 109.077 200.383C109.348 200.674 109.765 200.245 109.51 199.95Z" fill="white"/>
<path d="M100.823 201.038C102.652 201.488 103.896 202.201 105.157 203.601C105.491 203.972 106.099 203.493 105.844 203.071C104.881 201.479 102.747 200.357 100.884 200.588C100.647 200.617 100.55 200.971 100.823 201.038Z" fill="white"/>
<path d="M97.4976 203.088C98.1635 203.453 98.9151 203.618 99.582 203.998C100.302 204.409 100.939 204.925 101.517 205.517C101.93 205.94 102.549 205.307 102.161 204.873C101.126 203.714 99.2647 202.422 97.6211 202.634C97.4016 202.662 97.2626 202.959 97.4976 203.088Z" fill="white"/>
<path d="M122.727 200.919C122.727 200.919 113.096 205.312 111.476 207.413C109.857 209.514 109.824 211 109.824 211L107.626 211.477C107.626 211.477 107.248 208.219 110.937 205.568C114.626 202.915 122.209 198.909 122.209 198.909L122.727 200.919Z" fill="white"/>
<path d="M121.071 196.418C121.613 198.419 122.051 200.451 122.449 202.485C122.764 204.102 123.212 205.835 123.2 207.493C123.192 208.506 120.952 209.16 120.173 209.449C118.448 210.088 116.67 210.587 114.89 211.048C110.812 212.106 106.669 212.954 102.51 213.625C98.3578 214.295 93.9604 214.821 89.8991 213.41C88.4479 212.905 86.896 212.1 85.966 210.829C85.7166 210.489 85.4199 210.131 85.8046 209.85C86.1266 209.615 86.5436 209.46 86.8988 209.283C87.7033 208.882 88.5546 208.525 89.3165 208.046C89.6684 207.825 89.3436 207.264 88.9893 207.487C88.2681 207.941 87.4632 208.28 86.7013 208.659C86.2005 208.908 85.2533 209.185 85.0071 209.748C84.6828 210.49 85.5233 211.379 85.9997 211.85C86.435 212.28 86.932 212.652 87.4515 212.974C91.2161 215.3 96.0575 215.172 100.276 214.607C104.622 214.026 108.944 213.161 113.206 212.136C115.283 211.636 117.354 211.094 119.379 210.413C120.709 209.966 122.512 209.476 123.502 208.411C123.955 207.923 123.858 207.346 123.794 206.73C123.688 205.714 123.514 204.705 123.333 203.7C122.883 201.198 122.359 198.7 121.695 196.246C121.586 195.844 120.961 196.014 121.071 196.418Z" fill="#421B36"/>
<path d="M112.758 183.234C112.758 183.234 134.346 133.373 146.881 137.273C159.416 141.173 161.784 150.923 165.126 168.471L170.419 171.117C170.419 171.117 173.344 191.591 159.277 194.655C145.21 197.719 143.98 191.346 139.662 179.647C139.662 179.647 130.111 192.557 128.357 192.148C122.62 190.81 112.758 183.234 112.758 183.234Z" fill="#8380FF"/>
<path d="M164.842 168.406C164.96 171.81 164.553 175.201 163.63 178.479C163.517 178.881 164.142 179.053 164.255 178.652C165.192 175.321 165.61 171.864 165.491 168.406C165.476 167.99 164.828 167.988 164.842 168.406Z" fill="#421B36"/>
<path d="M116.388 173.341C115.058 172.811 113.779 171.97 112.523 171.282C110.967 170.43 109.415 169.572 107.862 168.714C104.304 166.747 100.75 164.775 97.1857 162.824C95.6044 161.958 94.022 161.094 92.428 160.252C92.0597 160.057 91.7317 160.616 92.1009 160.811C98.7376 164.319 105.263 168.039 111.845 171.649C113.267 172.429 114.708 173.366 116.215 173.966C116.603 174.119 116.771 173.493 116.388 173.341Z" fill="#421B36"/>
<path d="M122.684 161.97C119.666 167.343 116.644 172.714 113.63 178.089C113.027 179.163 112.341 180.332 112.371 181.607C112.397 182.726 113.015 183.675 113.801 184.428C114.71 185.3 115.789 186.022 116.825 186.733C117.967 187.518 119.142 188.257 120.344 188.947C123.041 190.495 125.878 191.791 128.806 192.837C128.904 192.872 129.055 192.836 129.121 192.754C131.508 189.788 133.894 186.823 136.28 183.857C137.318 182.568 138.366 181.286 139.393 179.988C141.816 176.927 143.877 173.524 145.874 170.176C148.495 165.785 150.963 161.305 153.713 156.992C153.938 156.639 153.378 156.314 153.154 156.664C148.36 164.183 144.462 172.345 139.011 179.435C136.625 182.539 134.096 185.543 131.641 188.594C130.648 189.827 129.655 191.062 128.662 192.295C128.767 192.268 128.872 192.239 128.977 192.212C124.075 190.46 119.423 187.975 115.277 184.823C114.331 184.103 113.274 183.227 113.06 181.99C112.825 180.623 113.675 179.329 114.314 178.192C115.698 175.729 117.081 173.266 118.464 170.804C120.057 167.969 121.65 165.133 123.243 162.297C123.448 161.933 122.888 161.606 122.684 161.97Z" fill="#421B36"/>
<path d="M138.942 180.107C140.099 184.145 141.977 187.948 144.489 191.316C144.735 191.646 145.298 191.324 145.048 190.989C142.567 187.663 140.709 183.923 139.567 179.934C139.452 179.535 138.827 179.705 138.942 180.107Z" fill="#421B36"/>
<g opacity="0.3">
<path d="M151.196 162.329C151.129 162.562 151.056 162.806 150.977 163.065C150.945 163.082 150.915 163.098 150.882 163.115C150.685 162.958 150.328 163.119 150.161 162.805C150.286 162.16 150.814 162.039 151.196 162.329ZM148.625 164.609C148.967 165.086 149.851 165.053 149.997 164.341C149.914 164.341 149.831 164.341 149.748 164.341C149.708 164.192 149.668 164.042 149.63 163.895C149.477 163.794 149.319 163.757 149.153 163.76C148.976 164.045 148.801 164.326 148.625 164.609ZM140.588 184.699C140.127 184.568 139.613 184.529 139.325 184.074C139.521 183.429 139.439 182.882 138.654 183.048C136.726 185.189 139.831 183.88 139.678 185.246C139.682 185.518 139.745 185.731 140.095 185.9C140.283 185.716 140.524 185.732 140.775 185.75C141.366 185.64 140.846 184.927 140.588 184.699ZM136.618 184.736C136.468 185.213 136.712 185.559 136.924 185.952C137.403 186.113 137.764 185.998 138.062 185.642C138.225 184.706 137.369 184.237 136.618 184.736ZM142.195 187.311C141.972 186.849 141.767 186.419 141.601 186.068C141.562 186.074 141.529 186.074 141.487 186.083C141.358 186.297 141.222 186.523 141.052 186.803C141.528 187.478 141.94 187.515 142.195 187.311ZM148.276 168.457C147.731 167.834 147.342 168.324 147.034 168.868C147.469 169.771 149.012 169.469 148.276 168.457ZM142.603 178.628C142.178 179.538 143.776 180.371 143.907 179.196C143.702 178.645 143.162 178.383 142.603 178.628ZM144.02 173.365C143.918 172.958 143.712 172.755 143.483 172.702C143.252 173.057 143.023 173.401 142.794 173.75C143.153 174.068 143.719 173.873 144.02 173.365ZM142.232 177.374C141.527 177.124 141.527 177.124 141.202 177.578C141.295 177.784 141.301 178.001 141.26 178.211C141.513 178.33 141.731 178.433 141.969 178.546C142.149 178.365 142.33 178.184 142.503 178.011C142.41 177.792 142.33 177.605 142.232 177.374ZM147.006 167.298C146.997 167.278 146.986 167.263 146.976 167.245C146.941 167.302 146.905 167.358 146.869 167.415C146.912 167.372 146.957 167.332 147.006 167.298ZM144.37 178.374C144.468 178.411 144.56 178.428 144.647 178.433C144.823 178.071 145.003 177.699 145.185 177.317C145.085 177.221 144.948 177.142 144.762 177.097C144.115 177.274 144.136 177.836 144.37 178.374ZM145.73 173.498C145.996 173.568 145.969 173.963 146.302 174.074C146.493 173.923 146.681 173.772 146.865 173.627C146.924 172.473 145.577 172.149 145.73 173.498ZM138.602 181.281C139.748 181.363 139.63 180.278 138.636 180.059C138.571 180.076 138.517 180.106 138.466 180.138C138.376 180.266 138.284 180.399 138.195 180.526C138.123 180.84 138.263 181.202 138.602 181.281ZM148.205 165.42C148.182 165.405 148.163 165.4 148.141 165.387C147.937 165.714 147.732 166.043 147.529 166.367C148.119 166.54 148.674 166.212 148.205 165.42ZM141.576 184.48C141.733 184.187 141.932 183.811 142.167 183.36C142.133 183.296 142.1 183.235 142.063 183.168C140.874 182.889 141.107 184.276 141.576 184.48ZM143.467 190.691C143.434 190.669 143.401 190.654 143.368 190.636C143.402 190.655 143.434 190.673 143.467 190.691ZM141.015 179.151C140.576 178.638 140.091 178.54 139.762 179.208C139.761 180.314 141.22 179.969 141.015 179.151ZM136.569 183.938C136.443 183.726 136.324 183.524 136.193 183.306C135.977 183.6 135.761 183.897 135.546 184.185C135.855 184.331 136.273 184.256 136.569 183.938ZM138.104 186.766C139.007 187.411 138.591 187.895 139.54 186.905C139.54 186.757 139.54 186.636 139.54 186.439C139.002 186.322 138.298 186.081 138.104 186.766ZM144.319 171.413C144.276 171.702 144.176 171.979 144.349 172.295C145.869 172.574 145.813 170.746 144.319 171.413ZM145.807 175.948C145.802 175.969 145.806 175.986 145.803 176.006C145.816 175.98 145.828 175.953 145.84 175.926C145.829 175.934 145.819 175.939 145.807 175.948ZM139.563 188.282C139.878 188.97 140.782 188.834 141.03 188.157C140.664 187.47 139.848 187.72 139.563 188.282ZM150.166 165.535C150.178 165.502 150.188 165.472 150.199 165.439C150.192 165.441 150.184 165.443 150.177 165.445C150.172 165.479 150.17 165.504 150.166 165.535ZM137.653 181.639C137.541 181.723 137.424 181.752 137.309 181.769C137.143 182 136.976 182.235 136.812 182.462C137.078 183.351 138.465 182.674 137.653 181.639ZM144.396 175.291C144.662 175.291 144.901 175.291 145.121 175.291C146.318 174.05 143.327 173.923 144.396 175.291ZM132.689 189.176C132.556 189.262 132.383 189.399 132.286 189.553C132.54 189.451 132.816 189.339 133.105 189.221C132.99 189.19 132.852 189.173 132.689 189.176ZM134.875 185.076C134.662 185.357 134.45 185.637 134.24 185.91C134.248 185.947 134.254 185.986 134.255 186.029C134.828 185.781 134.96 185.379 134.875 185.076ZM148.838 166.915C148.44 167.558 148.753 167.758 149.285 167.928C149.409 167.607 149.523 167.302 149.636 166.999C149.391 166.849 149.126 166.83 148.838 166.915ZM142.522 190.081C142.336 189.732 142.243 189.515 142.116 189.142C141.817 189.3 141.462 189.192 141.255 189.463C141.67 189.692 142.074 189.915 142.447 190.122C142.472 190.108 142.498 190.096 142.522 190.081ZM136.361 187.208C136.336 186.902 136.313 186.623 136.29 186.342C135.748 186.12 135.337 186.087 135.182 186.745C135.497 187.211 135.872 187.358 136.361 187.208ZM143.215 175.707C143.028 176.012 142.859 176.29 142.692 176.563C142.774 176.845 143.372 177.306 143.478 176.839C143.502 176.604 143.751 176.522 143.9 176.384C143.704 175.917 143.704 175.917 143.215 175.707ZM142.612 182.382C142.623 182.401 142.637 182.413 142.65 182.431C142.72 182.294 142.793 182.152 142.867 182.006C142.74 182.098 142.643 182.225 142.612 182.382ZM141.29 180.554C141.3 181.338 142.178 181.607 142.408 180.804C142.162 180.328 142.162 180.328 141.629 180.19C141.523 180.304 141.402 180.435 141.29 180.554ZM139.924 182.859C141.601 182.526 140.269 180.698 139.688 182.425C139.769 182.573 139.845 182.713 139.924 182.859ZM146.88 170.621C146.906 169.934 146.221 169.834 145.807 170.202C145.664 171.091 146.528 171.077 146.88 170.621ZM142.088 174.929C142.188 174.837 142.287 174.746 142.422 174.622C142.37 174.59 142.327 174.563 142.278 174.534C142.086 174.824 141.896 175.108 141.705 175.394C141.984 175.599 142.293 175.535 142.088 174.929ZM134.878 187.964C134.31 187.424 133.872 188.098 133.91 188.667C133.984 188.719 134.045 188.761 134.11 188.806C134.303 188.726 134.496 188.646 134.686 188.566C134.724 188.54 134.763 188.513 134.801 188.487C134.827 188.312 134.851 188.151 134.878 187.964ZM147.27 171.823C147.347 171.966 147.435 172.075 147.537 172.166C147.641 171.926 147.746 171.685 147.849 171.442C147.684 171.626 147.536 171.724 147.27 171.823Z" fill="#421B36"/>
</g>
<g opacity="0.3">
<path d="M105.091 164.341C105.05 164.341 105.008 164.341 104.967 164.341C105.273 165.491 103.819 165.154 103.847 164.341C103.684 163.413 105.154 163.529 105.091 164.341ZM100.861 164.341C100.933 165.022 101.988 165.026 101.981 164.341C101.962 163.83 101.962 163.83 101.39 163.703C101.102 163.854 100.607 163.961 100.861 164.341ZM103.381 163.311C103.432 163.255 103.494 163.187 103.574 163.099C103.198 163.021 102.827 162.946 102.463 162.873C102.48 162.93 102.498 162.988 102.525 163.051C102.846 163.141 103.078 163.335 103.381 163.311ZM99.6966 163.229C99.9268 163.229 100.145 163.229 100.401 163.229C100.383 162.964 100.618 162.765 100.611 162.512C100.303 162.453 100.003 162.397 99.7134 162.344C99.4579 162.576 99.4991 162.846 99.6966 163.229ZM106.708 164.341C106.744 165.056 108.036 165.137 108.076 164.341C108.118 164.341 108.159 164.341 108.201 164.341C108.207 164.262 108.2 164.195 108.188 164.133C107.798 164.038 107.408 163.945 107.017 163.854C106.938 163.995 106.894 164.166 106.832 164.341C106.791 164.341 106.749 164.341 106.708 164.341ZM110.387 165.034C110.438 164.902 110.53 164.817 110.64 164.761C110.469 164.715 110.297 164.669 110.125 164.624C110.067 164.809 110.042 164.958 110.387 165.034ZM115.695 170.373C115.867 171.314 117.182 170.988 117.133 170.179C116.858 169.525 115.854 169.63 115.695 170.373ZM105.864 165.201C104.941 166.005 105.522 166.344 106.439 166.527C106.548 166.142 106.896 165.841 106.561 165.532C106.363 165.376 106.146 164.983 105.864 165.201ZM108.632 166.479C109.518 166.971 109.783 165.891 109.285 165.287C108.61 165.257 107.938 165.945 108.632 166.479ZM104.329 166.74L105.126 167.189C105.009 166.888 104.636 166.667 104.329 166.74ZM110.572 169.632C110.384 169.726 110.221 169.833 110.08 169.978L111.029 170.512C111.088 170.461 111.149 170.408 111.217 170.351C110.963 170.107 110.919 169.725 110.572 169.632ZM107.479 166.587C107.168 166.871 106.978 167.042 106.742 167.326C107.156 168.534 108.962 167.488 107.479 166.587ZM109.075 168.256C108.888 168.381 108.702 168.503 108.501 168.636C108.475 168.82 108.48 168.965 108.5 169.088L109.157 169.458C109.275 169.422 109.401 169.367 109.537 169.285C109.67 168.806 109.519 168.476 109.075 168.256ZM111.824 169.423C112.665 169.589 112.782 168.44 111.969 168.238C111.311 168.473 110.984 169.266 111.824 169.423ZM115.507 168.519C115.131 168.423 114.698 168.047 114.36 168.327C114.076 169.472 115.879 169.872 115.507 168.519ZM114.866 171.08C114.679 171.243 114.5 171.397 114.297 171.573C114.663 171.795 114.403 172.792 114.959 172.481C115.817 171.916 115.612 171.672 114.866 171.08ZM111.181 167.186C111.014 167.008 110.89 166.816 110.61 166.731C110.331 167.108 110.137 167.242 109.67 167.353C110.222 168.099 110.95 168.159 111.181 167.186ZM116.558 167.713C116.665 167.788 116.738 167.839 116.811 167.891C117.502 166.241 114.916 166.571 116.183 167.947C116.325 167.919 116.418 167.795 116.558 167.713ZM116.835 172.892C116.553 172.657 116.298 172.845 116.044 172.909C115.976 173.041 115.941 173.158 115.923 173.267L116.446 173.562L116.835 172.892ZM114.024 170.067C113.762 169.962 113.521 169.866 113.258 169.761C113.142 169.865 113.021 169.974 112.881 170.101C112.721 171.168 114.301 171.004 114.024 170.067ZM117.398 171.923L117.713 171.38C117.641 171.382 117.564 171.388 117.479 171.396C117.348 171.589 117.337 171.771 117.398 171.923ZM117.504 169.274C117.85 169.436 118.113 169.273 118.384 169.161C118.414 168.919 118.441 168.7 118.468 168.481C117.59 167.727 117.486 168.417 117.504 169.274ZM114.317 165.995C114.418 166.239 114.616 166.368 114.857 166.448C115.057 166.355 115.191 166.285 115.279 166.211C114.98 166.1 114.671 165.991 114.354 165.883C114.342 165.92 114.33 165.953 114.317 165.995ZM111.376 166.184C111.797 166.302 112.222 166.531 112.538 165.882C112.201 165.164 111.047 165.242 111.376 166.184ZM102.821 165.307C102.747 165.447 102.667 165.594 102.58 165.756L103.401 166.218C103.405 166.208 103.411 166.203 103.413 166.192C103.398 165.782 103.484 165.145 102.821 165.307ZM114.013 167.372C113.653 167.169 113.399 166.884 112.982 166.902C112.938 167.076 112.904 167.211 112.875 167.325C113.039 167.541 113.183 167.73 113.354 167.957C113.508 167.529 113.986 167.887 114.013 167.372ZM95.1172 161.555L95.6016 161.827C95.72 161.798 95.8384 161.767 95.9446 161.768C95.961 161.742 95.968 161.718 95.9825 161.693C95.4298 161.602 95.1172 161.555 95.1172 161.555ZM97.0285 162.031C96.8483 162.118 96.6592 162.209 96.4552 162.307L97.5372 162.916C97.6074 162.582 97.3851 162.205 97.0285 162.031Z" fill="#421B36"/>
</g>
<path d="M105.042 135.714C103.461 136.303 102.537 137.942 102.828 139.604C103.892 145.696 107.29 159.654 116.071 159.595C127.301 159.519 133.865 141.826 133.865 141.826L137.762 116.269C132.283 118.308 124.715 131.559 117.622 140.606C117.622 140.606 117.738 134.146 113 134.049C110.272 133.994 107.178 134.919 105.042 135.714Z" fill="#A0D2F4"/>
<path d="M116.601 137.509C118.024 141.158 119.07 144.94 119.724 148.801C119.793 149.212 120.418 149.038 120.348 148.629C119.695 144.767 118.649 140.986 117.226 137.337C117.076 136.953 116.449 137.12 116.601 137.509Z" fill="#421B36"/>
<path d="M118.135 140.744C119.874 142.294 121.345 144.113 122.495 146.139C122.701 146.502 123.26 146.176 123.054 145.812C121.88 143.742 120.37 141.87 118.593 140.286C118.283 140.01 117.823 140.466 118.135 140.744Z" fill="#421B36"/>
<path d="M110.294 112.919C110.294 112.919 113.981 110.522 117.742 112.481C121.503 114.44 130.9 127.256 130.665 127.335C130.43 127.413 128.079 133.446 128.079 133.446L126.434 131.409C126.434 131.409 125.572 133.524 123.221 132.427C120.871 131.33 118.677 126.786 118.677 126.786C118.677 126.786 119.461 129.215 117.815 129.137C116.17 129.059 114.681 125.924 115.308 124.906C115.308 124.906 113.036 122.712 114.603 120.989C114.603 120.989 112.801 120.283 113.663 118.873C114.525 117.463 117.58 116.444 117.58 116.444C117.58 116.444 116.918 115.295 114.803 114.957C112.688 114.62 111.695 115.702 110.689 115.671C109.744 115.642 108.571 114.094 110.294 112.919Z" fill="#CC8770"/>
<path d="M114.527 121.348C115.615 120.1 117.231 119.411 118.885 119.494C119.301 119.515 119.301 118.866 118.885 118.846C117.075 118.755 115.26 119.524 114.069 120.89C113.796 121.203 114.253 121.664 114.527 121.348Z" fill="#421B36"/>
<path d="M115.615 125.106C116.429 123.66 118.209 122.863 119.83 123.243C120.236 123.338 120.408 122.714 120.002 122.618C118.103 122.173 116.014 123.075 115.055 124.779C114.85 125.143 115.41 125.47 115.615 125.106Z" fill="#421B36"/>
<path d="M118.057 126.025C118.279 126.666 118.501 127.306 118.722 127.947C118.778 128.107 118.947 128.23 119.121 128.173C119.279 128.122 119.407 127.946 119.347 127.775C119.125 127.134 118.903 126.494 118.682 125.853C118.627 125.694 118.457 125.571 118.284 125.627C118.126 125.678 117.998 125.854 118.057 126.025Z" fill="#421B36"/>
<path d="M115.816 117.583C117.527 116.914 119.4 116.8 121.175 117.274C121.579 117.381 121.75 116.757 121.347 116.649C119.468 116.147 117.456 116.249 115.643 116.958C115.259 117.108 115.426 117.735 115.816 117.583Z" fill="#421B36"/>
<path d="M127.887 138.776C128.207 139.037 140.097 151.247 149.962 152.853C159.827 154.458 170.241 138.59 171.773 133.543C173.305 128.496 170.35 118.633 164.566 119.666C158.782 120.698 150.805 136.069 150.805 136.069C150.805 136.069 132.85 125.273 131.588 125.846C130.326 126.42 123.792 135.442 127.887 138.776Z" fill="#A0D2F4"/>
<path d="M171.461 133.457C170.581 136.309 168.793 138.98 167.07 141.38C164.717 144.657 161.929 147.789 158.571 150.064C157.067 151.083 155.423 151.934 153.65 152.363C151.818 152.805 150.036 152.639 148.235 152.137C144.126 150.99 140.379 148.628 136.966 146.128C134.248 144.137 131.677 141.944 129.235 139.624C128.75 139.163 128.222 138.711 127.765 138.221C126.664 137.04 126.764 135.288 127.136 133.831C127.565 132.144 128.37 130.558 129.297 129.094C129.94 128.078 130.655 127.011 131.582 126.229C131.743 126.094 131.717 126.126 131.979 126.192C132.333 126.28 132.676 126.422 133.011 126.564C134.114 127.03 135.182 127.584 136.243 128.138C141.035 130.644 145.705 133.394 150.345 136.17C150.444 136.229 150.543 136.288 150.642 136.348C150.805 136.446 150.98 136.37 151.085 136.232C153.661 132.831 156.248 129.432 158.952 126.133C159.513 125.447 160.065 124.709 160.724 124.111C161.033 123.83 160.574 123.373 160.266 123.653C159.712 124.157 159.242 124.768 158.766 125.343C157.94 126.341 157.135 127.355 156.334 128.372C154.737 130.401 153.161 132.447 151.594 134.5C151.237 134.967 150.88 135.435 150.525 135.904C150.673 135.865 150.821 135.826 150.968 135.788C146.607 133.166 142.205 130.594 137.72 128.188C136.479 127.523 135.23 126.865 133.95 126.276C133.31 125.981 132.496 125.506 131.766 125.501C131.005 125.495 130.328 126.562 129.922 127.081C128.881 128.415 127.988 129.884 127.304 131.432C126.631 132.954 126.068 134.671 126.272 136.357C126.415 137.552 126.993 138.374 127.841 139.179C129.872 141.106 131.925 142.994 134.112 144.747C137.544 147.498 141.231 150.067 145.3 151.783C147.104 152.543 149.067 153.209 151.04 153.283C152.862 153.352 154.656 152.863 156.3 152.106C160.034 150.384 163.126 147.347 165.707 144.209C167.962 141.468 170.041 138.446 171.484 135.192C171.711 134.681 171.921 134.162 172.086 133.628C172.209 133.23 171.584 133.059 171.461 133.457Z" fill="#421B36"/>
<path d="M162.639 123.395C166.999 123.953 170.479 126.864 171.528 131.127C171.619 131.495 172.201 131.337 172.097 130.97C170.844 126.532 167.248 123.483 162.639 123.286C162.567 123.283 162.572 123.387 162.639 123.395Z" fill="#421B36"/>
<path d="M97.9156 122.628C97.7588 122.869 104.967 136.58 105.907 137.755C106.847 138.93 112.95 138.3 112.758 136.069C112.566 133.838 112.175 131.174 112.175 131.174L100.658 118.717L97.9156 122.628Z" fill="#CC8770"/>
<path d="M95.4538 109.681C95.173 109.955 101.902 131.481 105.351 132.122C108.799 132.763 118.409 133.212 117.625 131.097C116.842 128.982 111.095 110.427 109.058 109.487C107.021 108.547 96.5625 108.602 95.4538 109.681Z" fill="#421B36"/>
<path d="M104.177 112.918C104.362 113.58 104.197 114.204 103.809 114.312C103.421 114.42 102.957 113.972 102.772 113.31C102.588 112.648 102.753 112.024 103.141 111.916C103.529 111.807 103.993 112.256 104.177 112.918Z" fill="white"/>
<path d="M100.135 127.225C100.135 127.225 107.082 123.025 106.769 121.615C106.455 120.205 106.011 119.426 103.086 121.067L102.182 121.615C102.182 121.615 104.944 119.004 105.124 118.403C105.338 117.685 105.441 116.033 103.404 116.269C103.404 116.269 104.262 114.172 103.165 113.859C102.068 113.546 99.091 115.818 99.091 115.818C99.091 115.818 102.917 112.618 101.555 111.007C100.62 109.9 99.033 111.184 98.0628 112.424C96.8493 113.974 95.9573 116.535 95.8786 118.33C95.8005 120.127 96.7407 120.048 96.7407 120.048C96.7407 120.048 95.4055 121.905 97.4694 122.498C97.3037 124.34 98.1218 126.214 100.135 127.225Z" fill="#CC8770"/>
<path d="M104.719 119.593C103.556 120.162 102.5 120.939 101.524 121.784C100.537 122.638 99.623 123.582 98.8124 124.606C98.5564 124.929 99.0118 125.391 99.2706 125.064C100.823 123.103 102.782 121.259 105.046 120.152C105.421 119.969 105.092 119.411 104.719 119.593Z" fill="#421B36"/>
<path d="M103.715 115.799C101.265 117.6 98.6453 119.597 97.1893 122.336C96.9937 122.703 97.553 123.031 97.7486 122.663C99.1512 120.025 101.682 118.094 104.042 116.359C104.375 116.114 104.052 115.551 103.715 115.799Z" fill="#421B36"/>
<path d="M96.8749 120.507C97.48 118.283 98.8363 116.291 100.701 114.932C101.035 114.688 100.712 114.126 100.374 114.373C98.3702 115.833 96.9021 117.94 96.2501 120.335C96.1406 120.738 96.7654 120.91 96.8749 120.507Z" fill="#421B36"/>
<path d="M99.9552 115.407C100.503 115.935 101.353 116.126 102.064 115.835C102.781 115.543 103.262 114.845 103.301 114.075C103.31 113.9 103.146 113.751 102.978 113.751C102.795 113.751 102.663 113.899 102.654 114.075C102.629 114.551 102.306 115.033 101.855 115.226C101.376 115.43 100.792 115.313 100.413 114.949C100.113 114.659 99.6543 115.117 99.9552 115.407Z" fill="#421B36"/>
<path d="M101.818 117.772C102.014 118.251 102.47 118.412 102.96 118.414C103.414 118.415 103.883 118.345 104.288 118.129C104.653 117.934 104.953 117.611 105.082 117.215C105.219 116.794 105.121 116.334 104.837 116C104.724 115.866 104.495 115.883 104.379 116C104.247 116.132 104.265 116.324 104.379 116.458C104.511 116.614 104.526 116.852 104.451 117.06C104.374 117.277 104.176 117.454 103.961 117.569C103.7 117.708 103.394 117.753 103.101 117.763C102.942 117.769 102.783 117.771 102.629 117.727C102.585 117.714 102.549 117.7 102.498 117.659C102.517 117.674 102.454 117.612 102.454 117.612C102.478 117.639 102.428 117.562 102.444 117.599C102.378 117.438 102.228 117.323 102.045 117.373C101.891 117.415 101.752 117.609 101.818 117.772Z" fill="#421B36"/>
<path d="M103.468 121.072C103.546 121.466 103.854 121.771 104.219 121.913C104.626 122.072 105.089 122.007 105.484 121.844C105.778 121.723 106.061 121.564 106.316 121.372C106.584 121.17 106.862 120.92 106.882 120.561C106.891 120.386 106.726 120.237 106.558 120.237C106.375 120.237 106.243 120.385 106.234 120.561C106.238 120.485 106.242 120.549 106.229 120.565C106.209 120.59 106.256 120.533 106.218 120.579C106.219 120.578 106.172 120.644 106.189 120.624C106.208 120.601 106.154 120.661 106.149 120.666C106.071 120.748 105.993 120.811 105.941 120.849C105.748 120.989 105.537 121.112 105.322 121.214C105.08 121.328 104.789 121.401 104.524 121.332C104.299 121.274 104.137 121.124 104.093 120.9C104.059 120.728 103.854 120.63 103.695 120.674C103.516 120.723 103.435 120.9 103.468 121.072Z" fill="#421B36"/>
<path d="M98.3694 112.611C99.0054 112.877 99.7458 112.839 100.36 112.532C100.915 112.254 101.327 111.754 101.537 111.176C101.597 111.012 101.47 110.821 101.311 110.778C101.131 110.728 100.972 110.839 100.912 111.004C100.759 111.424 100.434 111.772 100.033 111.973C99.5651 112.207 99.0157 112.185 98.5411 111.986C98.3797 111.918 98.185 112.059 98.1424 112.213C98.0919 112.399 98.207 112.543 98.3694 112.611Z" fill="#421B36"/>
<path d="M123.588 111.848C125.134 111.363 126.637 110.373 127.032 108.702C127.365 107.295 126.674 105.736 125.203 105.351C123.778 104.978 122.503 106.137 122.298 107.507C122.051 109.157 123.168 110.729 124.483 111.603C127.211 113.414 131.335 112.371 132.538 109.201C133.056 107.835 132.646 106.035 131.034 105.687C129.616 105.38 128.782 106.743 128.865 107.998C128.973 109.637 130.315 111.025 131.821 111.534C133.558 112.122 135.517 111.471 136.66 110.068C136.921 109.747 136.465 109.286 136.202 109.61C134.624 111.545 131.622 111.597 130.12 109.526C129.554 108.746 129.117 107.325 129.959 106.557C130.454 106.104 131.185 106.297 131.626 106.722C132.137 107.214 132.213 107.955 132.047 108.614C131.421 111.084 128.467 112.37 126.148 111.674C124.992 111.327 123.946 110.55 123.351 109.49C122.742 108.407 122.69 106.783 123.933 106.11C125.428 105.3 126.697 107.066 126.432 108.431C126.141 109.93 124.774 110.797 123.417 111.223C123.02 111.347 123.189 111.973 123.588 111.848Z" fill="white"/>
</svg>
